<?xml version="1.0" encoding="utf-8"?>
<!-- Generator: Adobe Illustrator 15.0.2, SVG Export Plug-In . SVG Version: 6.00 Build 0)  -->
<!DOCTYPE svg PUBLIC "-//W3C//DTD SVG 1.1//EN" "http://www.w3.org/Graphics/SVG/1.1/DTD/svg11.dtd">
<svg version="1.1" id="Ebene_1" xmlns="http://www.w3.org/2000/svg" xmlns:xlink="http://www.w3.org/1999/xlink" x="0px" y="0px"
	 width="270.975px" height="302.5px" viewBox="0 0 270.975 302.5" enable-background="new 0 0 270.975 302.5" xml:space="preserve">
<g>
	<g>
		<path fill="#F07F31" d="M121.091,153.964c33.947,0,61.464-27.515,61.464-61.462c0-33.941-27.516-61.458-61.464-61.458
			c-33.941,0-61.458,27.515-61.458,61.458C59.633,126.444,87.151,153.964,121.091,153.964"/>
	</g>
</g>
<g>
	<path fill="#FFFFFF" d="M48.747,98.326c0.189,0,0.344-0.031,0.47-0.095c0.062-0.124,0.137-0.232,0.232-0.326
		c0.092-0.095,0.078-0.234-0.046-0.423c-0.062,0.064-0.11,0.127-0.139,0.188c-0.033,0.063-0.11,0.158-0.234,0.287
		c-0.064-0.128-0.093-0.208-0.093-0.235c0-0.034-0.035-0.111-0.095-0.236c0.125-0.124,0.219-0.203,0.283-0.23
		c0.059-0.033,0.155-0.112,0.281-0.236h-0.562v-0.655h-0.563c0,0.188-0.033,0.344-0.096,0.466c-0.06-0.059-0.093-0.155-0.093-0.279
		c-0.062-0.316-0.112-0.593-0.14-0.848c-0.032-0.249-0.016-0.53,0.046-0.847c0.127-0.374,0.141-0.751,0.046-1.126
		c-0.094-0.376-0.111-0.754-0.046-1.13c0-0.312-0.062-0.784-0.188-1.411c-0.062,0-0.095,0.016-0.095,0.047
		c0,0.035-0.032,0.045-0.094,0.045V91.19c0.125-0.191,0.17-0.375,0.142-0.566c-0.037-0.188-0.047-0.375-0.047-0.563
		c-0.063-0.439-0.137-0.877-0.234-1.316c-0.094-0.437-0.11-0.907-0.047-1.411c0.062-0.125,0.033-0.312-0.094-0.563l0.188-0.094
		c0.127,0,0.249-0.095,0.379-0.282c0.059-0.249,0.281-0.377,0.655-0.377c-0.128,0.129-0.204,0.249-0.234,0.377
		c-0.032,0.126-0.109,0.251-0.235,0.374l-0.095,0.094h-0.188v0.564c0,0.376,0.188,0.498,0.565,0.376
		c0.314-0.126,0.472-0.343,0.472-0.661v-0.279c0.121-0.125,0.17-0.281,0.141-0.469c-0.034-0.191-0.079-0.345-0.141-0.472
		c-0.063-0.062-0.128-0.11-0.19-0.139c-0.062-0.031-0.126-0.079-0.188-0.143c0-0.25,0.22-0.312,0.657-0.188
		c-0.251-0.247-0.47-0.375-0.657-0.375c-0.377-0.06-0.564-0.313-0.564-0.749C47.97,84.203,48,84.049,48,83.857
		c-0.249,0.063-0.562,0.157-0.937,0.286c-0.064,0-0.098-0.035-0.098-0.095c0.127-0.251,0.141-0.502,0.047-0.758
		c-0.095-0.247-0.079-0.501,0.046-0.752v-0.28c-0.126-0.126-0.157-0.266-0.092-0.421c0.06-0.156,0.06-0.329,0-0.516
		c0-0.065,0.03-0.096,0.092-0.096c0.062,0,0.124-0.029,0.19-0.092c-0.252-0.188-0.345-0.409-0.281-0.658
		c0-0.374-0.035-0.658-0.095-0.846c-0.128-0.123-0.157-0.282-0.096-0.473c0.062-0.187,0.126-0.375,0.19-0.562v-0.469
		c-0.065-0.062-0.095-0.188-0.095-0.375c0-0.25-0.128-0.471-0.377-0.66c0.126-0.122,0.204-0.139,0.233-0.046
		c0.032,0.094,0.112,0.111,0.238,0.046h0.092c-0.126-0.122-0.172-0.281-0.139-0.468c0.032-0.192,0.015-0.344-0.048-0.472
		l0.187-0.752c-0.063,0-0.137,0.032-0.23,0.092c-0.096,0.063-0.142,0-0.142-0.187c0.063-0.062,0.11-0.126,0.142-0.189
		c0.03-0.06,0.075-0.124,0.138-0.187c0.062-0.189,0.062-0.38,0-0.567c-0.126-0.125-0.174-0.201-0.138-0.233
		c0.031-0.031,0.046-0.109,0.046-0.231c0.062-0.125,0.077-0.269,0.047-0.423c-0.034-0.157,0.015-0.297,0.139-0.421V72.58
		c0-0.436,0.032-0.782,0.095-1.034l-0.38-0.189c0.251-0.314,0.377-0.643,0.377-0.988c0-0.343,0.03-0.674,0.095-0.988
		c0.126-0.249,0.095-0.375-0.095-0.375c-0.251-0.125-0.377-0.378-0.377-0.754h0.096c0.435,0,0.844-0.091,1.22-0.28
		c0.128-0.063,0.233-0.095,0.332-0.095c0.094,0,0.201-0.032,0.325-0.096c0.439-0.126,0.83-0.126,1.176,0
		c0.343,0.125,0.701,0.252,1.076,0.377c0.252,0.126,0.502,0.22,0.754,0.28c0.252,0.063,0.498,0.158,0.754,0.281
		c0.247,0.128,0.562,0.376,0.937,0.755c0.252,0.251,0.502,0.626,0.755,1.129c0.06,0.125,0.095,0.283,0.095,0.469
		c-0.061,0.564,0,1.223,0.187,1.974c0.059,0.064,0.059,0.129,0,0.187c-0.127,0.319,0,0.598,0.377,0.849
		c0.06,0,0.126,0.032,0.187,0.094c-0.128,0.125-0.155,0.281-0.093,0.471c0.062,0.186,0.093,0.374,0.093,0.561
		c0.062,0.191,0.126,0.331,0.19,0.424c0.06,0.094,0.124,0.205,0.187,0.329c0.062,0.122,0.095,0.231,0.095,0.328
		c0,0.093,0.03,0.204,0.095,0.328c0,0.125-0.033,0.223-0.095,0.283c-0.063,0.062-0.033,0.157,0.095,0.281
		c-0.063,0.251-0.063,0.474,0,0.659c0.06,0.189,0.126,0.412,0.188,0.657c0.062,0.127,0.077,0.222,0.047,0.282
		c-0.033,0.064-0.047,0.157-0.047,0.286c0,0.06-0.017,0.095-0.046,0.095c-0.036,0-0.047,0.031-0.047,0.095
		c0.127,0.125,0.156,0.264,0.097,0.419c-0.062,0.158-0.097,0.301-0.097,0.424c0.062,0.123,0.079,0.263,0.047,0.423
		c-0.036,0.155-0.016,0.298,0.046,0.417c0,0.063,0.014,0.131,0.047,0.189c0.031,0.062,0.047,0.128,0.047,0.188
		c0.061,0.129,0.123,0.267,0.187,0.424c0.061,0.156,0.032,0.298-0.094,0.42c0.062-0.061,0.127-0.095,0.19-0.095
		c0-0.248,0.031-0.406,0.094-0.468c0-0.126,0.095-0.22,0.282-0.284v0.378c-0.063,0.185-0.112,0.39-0.142,0.608
		c-0.033,0.222-0.077,0.421-0.139,0.609c-0.06,0.063,0.033,0.224,0.286,0.472c-0.128,0.128-0.188,0.267-0.188,0.422
		c0,0.157-0.127,0.297-0.38,0.421l0.476,0.47c-0.316,0.126-0.379,0.316-0.191,0.566c0.063,0.126,0.079,0.202,0.047,0.231
		c-0.034,0.032-0.047,0.113-0.047,0.233c-0.06,0.25,0.033,0.472,0.286,0.66c0-0.127,0.029-0.249,0.095-0.377l0.281,0.564
		c0,0.128-0.064,0.315-0.188,0.568c0.125,0,0.315,0.06,0.563,0.187c0.062,0.123,0.077,0.218,0.046,0.281
		c-0.034,0.062-0.016,0.155,0.046,0.28l0.282,0.564c0,0.127-0.031,0.207-0.095,0.234c-0.063,0.033-0.094,0.11-0.094,0.234
		c0,0.251,0.047,0.471,0.14,0.657c0.095,0.19,0.11,0.377,0.047,0.565c-0.126,0.127-0.095,0.25,0.093,0.375
		c0.19,0.187,0.266,0.375,0.233,0.566c-0.031,0.189-0.047,0.377-0.047,0.562v0.471c0,0.126,0.016,0.266,0.047,0.423
		c0.033,0.155,0.019,0.298-0.047,0.422c0,0.061-0.017,0.111-0.046,0.138c-0.034,0.033-0.046,0.078-0.046,0.138
		c-0.063,0.063-0.112,0.095-0.142,0.095c-0.029,0-0.075,0.031-0.138,0.092c0.063,0.063,0.126,0.094,0.188,0.094
		c0.252,0,0.409,0.081,0.472,0.235c0.062,0.158,0.029,0.299-0.095,0.422c-0.127,0.189-0.175,0.377-0.139,0.565
		c0.029,0.188,0.045,0.372,0.045,0.564l0.283,0.281c0.315-0.123,0.455-0.296,0.422-0.516c-0.032-0.219,0.017-0.42,0.141-0.608
		c-0.062,0.316-0.031,0.578,0.092,0.796c0.125,0.223,0.125,0.488,0,0.797v0.191c0.063,0.251,0,0.469-0.188,0.658
		c-0.061,0.063-0.187,0.222-0.374,0.47c0.188-0.062,0.374-0.095,0.562-0.095v0.658c-0.124-0.06-0.28-0.095-0.468-0.095
		c0,0.189,0.032,0.345,0.095,0.469c-0.25,0.128-0.346,0.317-0.281,0.567c0.06,0.127-0.095,0.281-0.471,0.469
		c0.124,0,0.188,0.064,0.188,0.188c0.247,0.127,0.314,0.344,0.188,0.659c-0.064,0.062-0.095,0.189-0.095,0.376
		c0,0.189,0,0.315,0,0.375c0,0.063-0.064,0.188-0.188,0.375c0.124-0.06,0.218-0.095,0.282-0.095c0.06,0,0.125-0.029,0.187-0.091
		h0.282c0.126,0.126,0.188,0.251,0.188,0.375c0,0.317,0,0.488,0,0.518c0,0.033,0.033,0.176,0.092,0.42
		c0,0.13-0.015,0.235-0.046,0.333c-0.032,0.095-0.045,0.205-0.045,0.328c0,0.249-0.063,0.41-0.187,0.469
		c0.057,0.064,0.095,0.128,0.095,0.188c0,0.063,0.03,0.128,0.093,0.193c-0.063,0.123-0.131,0.231-0.188,0.324
		c-0.065,0.095-0.037,0.205,0.095,0.331v0.094c-0.192,0.312-0.236,0.592-0.142,0.843c0.095,0.251,0.142,0.532,0.142,0.847
		c0,0.127,0,0.222,0,0.282c0,0.063,0.06,0.158,0.188,0.283h0.091h0.094c0.124-0.5,0.247-0.94,0.375-1.315
		c0.06-0.126,0.128-0.266,0.188-0.424c0.06-0.152,0.06-0.294,0-0.421l0.094-0.188c0.251-0.127,0.392-0.298,0.42-0.517
		c0.033-0.216,0.048-0.424,0.048-0.61c0.063-0.123,0.128-0.283,0.191-0.468c0.062-0.19,0.095-0.375,0.095-0.564
		c0.059-0.189,0.154-0.531,0.282-1.037c0.123-0.313,0.219-0.608,0.28-0.894c0.061-0.283,0.123-0.578,0.188-0.892
		c0.188-0.75,0.408-1.346,0.656-1.785c0.064-0.124,0.096-0.281,0.096-0.469c0-0.185,0.062-0.344,0.188-0.471l-0.093-0.188
		c0.188-0.188,0.282-0.312,0.282-0.376c0.248-0.313,0.406-0.656,0.47-1.035c0.062-0.124,0.077-0.235,0.047-0.326
		c-0.034-0.096-0.017-0.201,0.046-0.326c0.062-0.126,0.11-0.204,0.14-0.237c0.032-0.03,0.079-0.107,0.14-0.231
		c0.127-0.565,0.248-1.126,0.375-1.693c0.128-0.563,0.252-1.094,0.38-1.595c0.126-0.376,0.231-0.767,0.328-1.177
		c0.091-0.404,0.235-0.795,0.422-1.173c0.123-0.187,0.246-0.53,0.375-1.035c0-0.126,0.016-0.188,0.048-0.188
		c0.029,0,0.046-0.061,0.046-0.187c0.125-0.127,0.187-0.251,0.187-0.378c0-0.125,0.031-0.25,0.095-0.375
		c0.06-0.062,0.154-0.218,0.282-0.471c0.375-0.499,0.53-0.908,0.469-1.222v-0.189c0.315-0.312,0.472-0.72,0.472-1.224
		c0-0.122,0.031-0.204,0.092-0.234c0.06-0.029,0.125-0.109,0.188-0.234c0.06-0.312,0.14-0.58,0.232-0.797
		c0.095-0.218,0.11-0.487,0.046-0.799v-0.088c0.251-0.377,0.439-0.752,0.567-1.13c0.125-0.375,0.248-0.752,0.377-1.128
		c0.055-0.126,0.125-0.249,0.186-0.377c0.059-0.126,0.127-0.246,0.188-0.376c0.126-0.126,0.233-0.264,0.327-0.418
		c0.095-0.159,0.206-0.298,0.331-0.423l0.095-0.095c0.123-0.312,0.295-0.545,0.515-0.703c0.219-0.155,0.39-0.361,0.519-0.611
		c0.123-0.249,0.281-0.439,0.468-0.562c0.188-0.128,0.341-0.252,0.471-0.377c0.188-0.188,0.282-0.503,0.282-0.941
		c0.062,0,0.126-0.017,0.187-0.047c0.062-0.031,0.126-0.046,0.188-0.046c0,0.063,0.016,0.111,0.049,0.141
		c0.029,0.034,0.048,0.111,0.048,0.234c0.123-0.123,0.201-0.222,0.232-0.282c0.032-0.061,0.073-0.127,0.139-0.191
		c0-0.123-0.018-0.217-0.045-0.281c-0.037-0.06-0.046-0.152-0.046-0.281c0.123-0.123,0.199-0.22,0.234-0.282
		c0.03-0.059,0.108-0.125,0.231-0.189c-0.06-0.123-0.094-0.202-0.094-0.233c0-0.03-0.034-0.11-0.096-0.234l0.095-0.093
		c0.315-0.124,0.625-0.28,0.942-0.471c0.248-0.126,0.435-0.126,0.562,0c0.127,0.191,0.284,0.298,0.471,0.331
		c0.188,0.029,0.408,0.112,0.658,0.231c0.06,0.189,0.107,0.395,0.137,0.612c0.032,0.217,0.233,0.329,0.61,0.329
		c-0.061-0.126-0.094-0.346-0.094-0.659c0.314-0.191,0.594-0.251,0.847-0.191c0.058,0.064,0.187,0.094,0.376,0.094h0.374
		c-0.125,0.128-0.233,0.266-0.327,0.422c-0.095,0.158-0.204,0.3-0.328,0.42l0.563,0.286c0,0.123-0.017,0.231-0.047,0.325
		c-0.033,0.095-0.045,0.206-0.045,0.331c-0.127,0.375,0,0.563,0.377,0.563c0,0.126-0.019,0.233-0.048,0.327
		c-0.035,0.094-0.046,0.206-0.046,0.327c-0.064,0-0.095,0.035-0.095,0.095c0.124,0.251,0.062,0.504-0.187,0.756
		c-0.128,0.126-0.206,0.263-0.235,0.421c-0.035,0.153-0.111,0.299-0.235,0.422c-0.252,0.313-0.376,0.72-0.376,1.221
		c0,0.188-0.016,0.361-0.047,0.517c-0.033,0.154-0.081,0.329-0.141,0.517c-0.061,0.062-0.095,0.125-0.095,0.187
		c-0.061,0.315-0.11,0.644-0.138,0.986c-0.032,0.345-0.109,0.678-0.234,0.988c0,0.128-0.06,0.315-0.188,0.564
		c-0.124,0.252-0.25,0.439-0.375,0.567c-0.061-0.062-0.187-0.099-0.375-0.099c-0.189,0.191-0.345,0.41-0.471,0.661l-0.187,0.373
		c0.126,0.315,0.031,0.564-0.281,0.755c-0.13,0.314-0.158,0.595-0.093,0.843c0.062,0.255,0.031,0.538-0.093,0.851
		c-0.062,0.124-0.079,0.232-0.047,0.326c0.034,0.092,0.047,0.233,0.047,0.421c-0.062,0.127-0.112,0.285-0.137,0.474
		c-0.036,0.185-0.115,0.343-0.238,0.468v0.281c-0.188,0.189-0.282,0.375-0.282,0.566c0,0.188,0,0.377,0,0.564
		c0,0.251,0,0.486,0,0.707c0,0.218-0.095,0.42-0.283,0.61v0.282c0,0.125,0.034,0.206,0.093,0.232c0.065,0.036,0.065,0.081,0,0.14
		c-0.249,0.437-0.407,0.847-0.468,1.222c-0.127,0.129-0.186,0.269-0.186,0.424c0,0.157-0.035,0.299-0.095,0.425
		c-0.188,0.875-0.502,1.658-0.942,2.348c-0.126,0.125-0.201,0.283-0.233,0.47c-0.03,0.188-0.078,0.345-0.139,0.468l0.095,0.188
		c0,0.064,0.033,0.095,0.095,0.095c-0.125,0.318-0.204,0.583-0.232,0.8c-0.033,0.223-0.111,0.457-0.233,0.704
		c0.124,0.128,0.124,0.376,0,0.754c-0.126,0.247-0.188,0.486-0.188,0.703c0,0.221-0.062,0.457-0.186,0.706v0.095
		c0,0.128,0.03,0.188,0.094,0.188c0,0.316-0.063,0.533-0.192,0.662l-0.282,0.847c0,0.188-0.046,0.357-0.139,0.517
		c-0.095,0.153-0.174,0.298-0.231,0.419c-0.128,0.125-0.187,0.249-0.187,0.376c-0.13,0.317-0.317,0.565-0.569,0.755
		c-0.312,0.315-0.344,0.564-0.092,0.751c-0.249,0.064-0.376,0.251-0.376,0.563c0,0.062-0.033,0.142-0.092,0.235
		c-0.063,0.097-0.034,0.204,0.092,0.327c0,0.063-0.033,0.095-0.092,0.095c-0.128,0.126-0.159,0.281-0.094,0.472
		c0.062,0.188,0.031,0.344-0.095,0.47c0.249,0.188,0.281,0.345,0.095,0.472c-0.187,0.188-0.222,0.437-0.095,0.753
		c0,0.125,0.015,0.232,0.048,0.325c0.032,0.094-0.017,0.208-0.141,0.331v0.379c0.123,0.311,0.093,0.595-0.095,0.844
		c-0.062,0.188-0.094,0.474-0.094,0.85h0.094c-0.062,0.375-0.127,0.749-0.186,1.128c-0.065,0.375-0.158,0.751-0.281,1.126
		c0,0.127-0.063,0.252-0.191,0.376c-0.061,0.251-0.124,0.473-0.187,0.659c-0.061,0.189-0.158,0.409-0.282,0.662
		c-0.062,0.123-0.078,0.22-0.044,0.282c0.031,0.059,0.013,0.157-0.046,0.28c-0.129,0.375-0.223,0.626-0.281,0.754
		c-0.252,0.564-0.412,1.062-0.473,1.498c-0.125,0.317-0.218,0.58-0.28,0.799c-0.063,0.223-0.158,0.486-0.281,0.798
		c-0.063,0.189-0.157,0.531-0.28,1.033l-0.288,1.413c-0.065,0.125-0.094,0.253-0.094,0.375c0,0.127-0.032,0.251-0.095,0.376
		c-0.126,0.375-0.234,0.783-0.329,1.224c-0.093,0.437-0.298,0.811-0.61,1.126c-0.128,0.128-0.269,0.267-0.423,0.424
		c-0.157,0.158-0.328,0.298-0.516,0.423c-0.128,0.127-0.377,0.188-0.753,0.188c-0.126,0.061-0.266,0.092-0.423,0.092
		c-0.154,0-0.298,0.034-0.422,0.095c0.127,0.187,0.157,0.315,0.095,0.376c0,0.127-0.095,0.191-0.283,0.191
		c-0.126,0.126-0.312,0.252-0.561,0.375c-0.316,0.189-0.582,0.233-0.797,0.14c-0.223-0.094-0.457-0.172-0.706-0.233
		c-0.125,0-0.188-0.093-0.188-0.281c-0.063-0.192-0.249-0.345-0.562-0.474v0.282c-0.315,0.063-0.533-0.013-0.657-0.232
		c-0.123-0.219-0.341-0.326-0.658-0.326v0.562c-0.126,0.314-0.251,0.344-0.373,0.094c-0.128-0.188-0.317-0.282-0.565-0.282
		c-0.688,0.062-1.377-0.094-2.066-0.474c-0.252-0.246-0.411-0.434-0.469-0.56c-0.252-0.376-0.533-0.627-0.847-0.754
		c0.125-0.124,0.22-0.201,0.281-0.235c0.061-0.028,0.153-0.11,0.283-0.232c-0.317-0.063-0.471-0.285-0.471-0.66
		c-0.126-0.499-0.28-0.847-0.468-1.033c-0.063-0.063-0.098-0.126-0.098-0.191c0-0.251-0.03-0.469-0.09-0.655
		c0.244-0.128,0.47-0.222,0.655-0.286c0.062-0.125,0.032-0.376-0.092-0.751c0-0.063-0.017-0.125-0.047-0.189
		c-0.033-0.062-0.047-0.123-0.047-0.188c-0.062-0.25,0-0.376,0.186-0.376c0.127,0.502,0.266,0.987,0.424,1.455
		c0.156,0.472,0.329,0.954,0.517,1.456c0.124-0.126,0.22-0.218,0.282-0.281c0.062-0.062,0.155-0.156,0.281-0.281
		c0.189-0.126,0.266-0.267,0.236-0.425c-0.035-0.153-0.047-0.297-0.047-0.421c-0.127,0.061-0.205,0.093-0.237,0.093
		s-0.108,0.032-0.233,0.094c-0.188-0.06-0.222-0.216-0.095-0.467c0.189-0.189,0.267-0.393,0.234-0.613
		c-0.034-0.217-0.111-0.423-0.234-0.612c0-0.122-0.016-0.233-0.047-0.325c-0.032-0.095-0.045-0.203-0.045-0.329
		c0-0.063-0.063-0.218-0.187-0.471c0-0.062,0.015-0.095,0.044-0.095c0.031,0,0.047-0.033,0.047-0.094
		c-0.063-0.128-0.095-0.22-0.095-0.286c0-0.059-0.035-0.154-0.095-0.281c-0.064-0.061-0.095-0.124-0.095-0.187
		c-0.064-0.061-0.156-0.11-0.284-0.141c-0.126-0.03-0.188-0.108-0.188-0.232c0-0.063-0.061-0.284-0.188-0.659
		c0.251-0.188,0.376-0.529,0.376-1.036c-0.061,0-0.108-0.018-0.138-0.046c-0.032-0.031-0.079-0.047-0.139-0.047
		c-0.063-0.062-0.092-0.22-0.092-0.469l0.373-0.188c-0.123-0.377-0.222-0.565-0.281-0.565c-0.128-0.062-0.222-0.155-0.283-0.283
		c-0.061-0.123-0.154-0.217-0.28-0.281c-0.188,0-0.188-0.095,0-0.282l0.28-0.187c0-0.251-0.126-0.375-0.375-0.375
		c-0.25,0-0.376-0.098-0.376-0.286c-0.062-0.126-0.095-0.218-0.095-0.281c0-0.06-0.032-0.154-0.095-0.282
		c-0.188,0.5-0.317,0.97-0.376,1.406c-0.249-0.376-0.345-0.656-0.28-0.845c0.06-0.192,0.06-0.361,0-0.517
		c-0.063-0.156-0.158-0.33-0.282-0.518c-0.189,0.126-0.25,0.251-0.189,0.375c0.126,0.126,0.157,0.206,0.098,0.235
		c-0.065,0.033-0.159,0.078-0.286,0.139c0-0.437-0.095-0.845-0.281-1.222c-0.126-0.125-0.205-0.295-0.233-0.515
		c-0.032-0.22-0.078-0.423-0.138-0.611c0-0.126,0.016-0.233,0.044-0.326c0.034-0.095,0.047-0.204,0.047-0.331v-0.752
		c-0.127-0.125-0.247-0.222-0.377-0.281l0.282-0.283c-0.126-0.062-0.251-0.223-0.375-0.471c-0.063-0.124-0.092-0.234-0.092-0.329
		s-0.034-0.204-0.095-0.326c0.249-0.126,0.468-0.223,0.656-0.283c-0.126-0.063-0.232-0.111-0.326-0.146
		c-0.096-0.028-0.208-0.045-0.331-0.045c0.127-0.249,0.155-0.5,0.095-0.752c-0.06-0.06-0.06-0.154,0-0.281
		c0.06-0.124,0.092-0.25,0.092-0.376l-0.374-0.187c0,0.123,0.036,0.246,0.094,0.375c0.062,0.125,0,0.251-0.186,0.375
		c-0.252-0.187-0.316-0.532-0.189-1.035h0.562c0-0.189-0.016-0.376-0.046-0.564c-0.032-0.187-0.045-0.346-0.045-0.472
		c-0.063-0.125,0.031-0.312,0.282-0.563c0.187,0.187,0.249,0.36,0.187,0.516c-0.062,0.157-0.095,0.328-0.095,0.515
		c0.126,0.127,0.22,0.234,0.283,0.328c0.062,0.094,0.157,0.232,0.28,0.423c-0.06-0.312,0.016-0.546,0.238-0.705
		c0.218-0.158,0.329-0.391,0.329-0.706c0.125,0.063,0.219,0.125,0.282,0.188c0.186-0.188,0.186-0.436,0-0.748
		c-0.187-0.127-0.267-0.269-0.232-0.425c0.027-0.153,0.076-0.329,0.137-0.514c0-0.061,0.016-0.108,0.046-0.14
		c0.034-0.031,0.017-0.112-0.046-0.235c-0.187-0.247-0.218-0.529-0.092-0.844c0.061-0.129,0.092-0.285,0.092-0.471
		c-0.125-0.438-0.157-0.783-0.092-1.038c0-0.187-0.063-0.468-0.188-0.843v1.031H49.71c0.061-0.124,0.095-0.222,0.095-0.285
		c0-0.057,0.034-0.154,0.097-0.282l-0.287-0.28c-0.25,0.063-0.393,0.205-0.421,0.423c-0.032,0.22-0.139,0.395-0.327,0.515
		c0-0.124-0.017-0.22-0.046-0.281c-0.034-0.06-0.047-0.125-0.047-0.187C48.869,98.767,48.869,98.513,48.747,98.326z M48.747,98.326
		c-0.063,0-0.112-0.014-0.136-0.045c-0.038-0.032-0.08-0.044-0.143-0.044c0,0.062-0.061,0.22-0.188,0.469
		c-0.127-0.125-0.189-0.346-0.189-0.655v-0.568c0-0.123,0.127-0.247,0.377-0.375C48.524,97.42,48.617,97.826,48.747,98.326z
		 M48.183,90.905c0,0.502,0.094,0.846,0.28,1.035c0.06-0.128,0.124-0.222,0.186-0.284c0.061-0.061,0.127-0.155,0.189-0.28
		c-0.127-0.125-0.234-0.202-0.328-0.231C48.418,91.11,48.303,91.029,48.183,90.905z M48.651,94.193
		c-0.186,0.13-0.266,0.283-0.235,0.472c0.035,0.187-0.017,0.345-0.139,0.472h0.471C48.747,94.697,48.71,94.382,48.651,94.193z
		 M49.402,101.71c0,0.188-0.017,0.359-0.048,0.517c-0.033,0.155-0.045,0.298-0.045,0.421c-0.187-0.126-0.412-0.251-0.658-0.378
		c0.127-0.124,0.247-0.217,0.378-0.282C49.151,101.93,49.279,101.836,49.402,101.71z M49.495,88.743
		c-0.188,0.06-0.409,0.157-0.658,0.281c-0.189,0.189-0.22,0.315-0.094,0.375c0-0.06,0.094,0,0.284,0.191l0.188-0.376h0.375
		c0-0.126-0.017-0.205-0.048-0.237C49.513,88.948,49.495,88.871,49.495,88.743z M48.936,110.259
		c-0.13-0.375-0.189-0.719-0.189-1.035l0.375-0.188c0,0.562-0.032,0.971-0.094,1.223H48.936L48.936,110.259L48.936,110.259z
		 M49.12,99.923c0.124,0.629,0.188,1.161,0.188,1.597c-0.439-0.248-0.596-0.593-0.471-1.036c0-0.124,0.061-0.312,0.189-0.563h0.093
		L49.12,99.923L49.12,99.923z M49.589,111.293c0,0.188,0.035,0.345,0.094,0.472c0.063,0.126,0,0.253-0.187,0.374
		c-0.317-0.061-0.41-0.339-0.282-0.845L49.589,111.293L49.589,111.293z M50.344,105.28c-0.315-0.125-0.5-0.172-0.562-0.139
		c-0.064,0.031-0.13,0.111-0.191,0.236c0.315,0.125,0.484,0.186,0.516,0.186C50.137,105.562,50.219,105.468,50.344,105.28z
		 M52.41,118.249c0.061-0.062,0.188-0.095,0.376-0.095v0.095c-0.188,0.375-0.283,0.72-0.283,1.034c0,0.063-0.016,0.111-0.046,0.14
		c-0.034,0.036-0.048,0.08-0.048,0.143c-0.128-0.126-0.188-0.22-0.188-0.286v-0.373c-0.127,0-0.222,0.015-0.283,0.042
		c-0.063,0.031-0.157,0.046-0.282,0.046c-0.13,0.063-0.252,0-0.375-0.189c-0.063-0.313-0.131-0.624-0.189-0.939
		c-0.062-0.314-0.128-0.625-0.189-0.941c0-0.125-0.062-0.249-0.187-0.376c-0.127-0.127-0.174-0.222-0.142-0.286
		c0.034-0.059,0.047-0.154,0.047-0.282c0-0.249,0.157-0.311,0.472-0.188c0.436-0.438,0.847-0.409,1.221,0.095
		c0.062,0.128,0.14,0.204,0.235,0.234c0.094,0.031,0.17,0.078,0.234,0.141c-0.128,0.191-0.252,0.264-0.376,0.235
		c-0.128-0.033-0.25,0.014-0.375,0.138c0.125,0.13,0.172,0.232,0.137,0.326c-0.03,0.095-0.016,0.205,0.047,0.332
		c0,0.125,0.016,0.236,0.047,0.331c0.029,0.094,0.047,0.205,0.047,0.329c0,0.062,0.016,0.111,0.046,0.136
		C52.394,118.138,52.41,118.186,52.41,118.249z M51.376,110.353c0.125,0.378,0.187,0.659,0.187,0.847
		c0,0.439,0.062,0.751,0.188,0.939c0.126,0.252,0.249,0.473,0.379,0.662c-0.064-0.315-0.095-0.721-0.095-1.225
		c0-0.058-0.017-0.11-0.048-0.14c-0.034-0.031-0.046-0.075-0.046-0.139c-0.188-0.125-0.267-0.266-0.235-0.423
		c0.034-0.155,0.082-0.299,0.142-0.424l-0.188,0.094c-0.063-0.062-0.111-0.094-0.142-0.094
		C51.484,110.446,51.44,110.417,51.376,110.353z M52.41,120.785c-0.501,0.314-0.752,0.249-0.752-0.188
		c-0.062-0.188-0.095-0.438-0.095-0.753c0-0.19,0.032-0.343,0.095-0.471h0.284c0,0.128,0.043,0.223,0.138,0.282
		c0.094,0.064,0.111,0.158,0.047,0.282v0.283C52.128,120.534,52.222,120.721,52.41,120.785z"/>
	<path fill="#FFFFFF" d="M93.188,125.2c0.188-0.124,0.315-0.141,0.377-0.048c0.063,0.093,0.156,0.174,0.282,0.235
		c0.188,0.19,0.407,0.222,0.656,0.094c0-0.123-0.032-0.222-0.092-0.281c-0.375-0.315-0.737-0.657-1.082-1.036
		c-0.345-0.375-0.737-0.719-1.173-1.035c-0.188-0.124-0.36-0.282-0.52-0.47c-0.156-0.189-0.326-0.377-0.513-0.563l-0.659-0.66
		l-0.375,0.375c-0.318-0.061-0.533-0.265-0.661-0.609c-0.125-0.345-0.092-0.674,0.095-0.987c0.192,0.063,0.345,0.171,0.473,0.325
		c0.122,0.158,0.314,0.175,0.565,0.052c0.062-0.252-0.038-0.504-0.284-0.753c-0.188-0.191-0.36-0.38-0.516-0.569
		c-0.158-0.188-0.329-0.375-0.517-0.563c-0.188-0.188-0.314-0.282-0.375-0.282c-0.063,0-0.252,0.059-0.567,0.188
		c-0.25-0.312-0.438-0.595-0.559-0.851c-0.128-0.246-0.287-0.527-0.476-0.844c-0.121-0.312-0.281-0.61-0.467-0.894
		c-0.187-0.278-0.375-0.579-0.562-0.891c0.313-0.436,0.216-0.905-0.282-1.409c-0.187-0.062-0.225-0.223-0.094-0.476
		c0.125-0.125,0.201-0.28,0.229-0.469c0.033-0.185,0.11-0.344,0.233-0.468c-0.057-0.189-0.186-0.314-0.375-0.377
		c0-0.062,0.038-0.127,0.095-0.188c0.188-0.249,0.223-0.53,0.095-0.85c-0.059-0.059-0.126-0.136-0.188-0.23
		c-0.064-0.095-0.125-0.139-0.186-0.139c-0.316-0.126-0.516-0.299-0.61-0.518c-0.093-0.22-0.207-0.451-0.331-0.705
		c0-0.126,0.017-0.22,0.047-0.283c0.029-0.059,0.013-0.153-0.047-0.281c-0.189-0.314-0.266-0.643-0.234-0.987
		c0.033-0.343,0.078-0.708,0.14-1.081v-0.274c-0.061-0.314-0.096-0.658-0.096-1.036c0-0.375,0-0.717,0-1.035
		c0-0.187,0.036-0.375,0.096-0.564c0.063-0.186,0.126-0.377,0.188-0.562c0.062-0.186,0.096-0.439,0.096-0.751
		c-0.064-0.316-0.096-0.581-0.096-0.799c0-0.22,0-0.484,0-0.799c0.126-0.687,0.204-1.391,0.235-2.114
		c0.03-0.717,0.107-1.422,0.234-2.115c0-0.189,0.062-0.472,0.187-0.849c0-0.123,0.03-0.247,0.095-0.374
		c0-0.246,0.061-0.687,0.186-1.317c0.062-0.124,0.096-0.25,0.096-0.375c0-0.126,0.03-0.249,0.095-0.374
		c0-0.064-0.017-0.112-0.047-0.142c-0.03-0.03-0.018-0.11,0.047-0.234c0.058-0.377,0.124-0.766,0.187-1.172
		c0.059-0.412,0.156-0.831,0.281-1.271c0.062-0.251,0.124-0.485,0.187-0.707c0.063-0.218,0.063-0.482,0-0.796
		c0-0.188,0.035-0.393,0.094-0.611c0.063-0.219,0.127-0.42,0.192-0.606c0.059-0.315,0.109-0.644,0.139-0.99
		c0.033-0.342,0.109-0.673,0.232-0.986l0.283-0.847c0.125-0.314,0.205-0.611,0.233-0.892c0.032-0.285,0.14-0.579,0.329-0.895
		c0.062-0.123,0.078-0.265,0.046-0.422c-0.033-0.153-0.018-0.296,0.046-0.421c0.128-0.314,0.222-0.596,0.282-0.845
		c0.055-0.25,0.154-0.501,0.279-0.752c0-0.127,0.126-0.315,0.377-0.567c0.248-0.375,0.344-0.686,0.281-0.938
		c0-0.187,0.032-0.315,0.095-0.374c0.246-0.438,0.469-0.895,0.657-1.363c0.187-0.472,0.471-0.896,0.847-1.27
		c0.059-0.061,0.094-0.154,0.094-0.284c0.059-0.122,0.092-0.233,0.092-0.328c0-0.093,0.031-0.17,0.094-0.233
		c0.124-0.187,0.267-0.361,0.422-0.515c0.155-0.157,0.206-0.358,0.141-0.609c0.375-0.379,0.658-0.688,0.845-0.942
		c-0.188-0.248-0.22-0.484-0.095-0.704c0.126-0.22,0.251-0.421,0.374-0.607c0.316-0.44,0.644-0.861,0.988-1.27
		c0.346-0.407,0.675-0.832,0.99-1.271c0.247-0.311,0.469-0.592,0.655-0.845c0.187-0.248,0.409-0.532,0.659-0.847
		c0.314-0.499,0.752-0.94,1.315-1.313c0.062,0,0.095-0.033,0.095-0.094c0.186-0.439,0.627-0.659,1.319-0.659
		c0.123,0,0.249-0.017,0.375-0.047c0.125-0.032,0.248-0.047,0.374-0.047c1.132-0.187,2.101,0.035,2.915,0.659
		c0.566,0.376,1.222,0.472,1.973,0.282h0.189c0.752,0,1.514,0.016,2.3,0.047c0.781,0.031,1.518,0.171,2.209,0.419
		c0.126,0,0.221,0.018,0.283,0.048c0.061,0.037,0.153,0.046,0.285,0.046c0.497,0.064,0.94,0.191,1.313,0.378
		c0.374,0.189,0.782,0.408,1.224,0.658c0.376,0.127,0.658,0.251,0.844,0.375c0.188,0.127,0.375,0.234,0.564,0.329
		c0.189,0.093,0.407,0.203,0.659,0.328c0.38,0.25,0.594,0.532,0.659,0.847c0.189,0.317,0.315,0.502,0.376,0.568
		c0.313,0.184,0.53,0.407,0.658,0.655c0.126,0.252,0.248,0.534,0.376,0.848l0.563,1.127c0,0.063,0.017,0.128,0.048,0.189
		c0.028,0.063,0.046,0.158,0.046,0.286c0.057,0.314,0.108,0.643,0.141,0.984c0.031,0.343,0.108,0.674,0.231,0.988v0.283
		c-0.062,1.064,0.157,2.16,0.658,3.285c0.125,0.254,0.19,0.661,0.19,1.226c-0.127,0.436-0.096,0.812,0.093,1.127
		c0.124,0.127,0.189,0.221,0.189,0.282c0,0.374,0.076,0.735,0.234,1.081c0.155,0.344,0.2,0.738,0.139,1.174
		c-0.063,0.126-0.078,0.22-0.045,0.284c0.028,0.059,0.045,0.156,0.045,0.282c0.062,0.06,0.092,0.154,0.092,0.28
		c-0.129,0.756,0,1.353,0.377,1.787v0.282c-0.127,0.69-0.14,1.332-0.045,1.927c0.093,0.597,0.17,1.237,0.232,1.925
		c0.061,0.316,0.126,0.645,0.189,0.988c0.058,0.342,0.028,0.676-0.092,0.985c-0.064,0.127-0.08,0.224-0.047,0.281
		c0.032,0.062,0.047,0.157,0.047,0.282c0.061,0.63,0.107,1.24,0.137,1.837c0.033,0.592,0.047,1.207,0.047,1.829
		c0,0.319-0.033,0.565-0.094,0.753c0,0.314-0.032,0.626-0.093,0.94c-0.062,0.316-0.094,0.627-0.094,0.941
		c0,0.248,0.034,0.412,0.094,0.472c0.187,0.314,0.248,0.563,0.187,0.752c-0.125,0.312-0.094,0.563,0.096,0.75
		c0.126,0.253,0.126,0.47,0,0.659c-0.128,0.5-0.254,0.877-0.377,1.127c0,0.191-0.063,0.471-0.189,0.847c0,0.317,0,0.608,0,0.895
		c0,0.282-0.029,0.58-0.092,0.892c0,0.129-0.016,0.266-0.047,0.423c-0.034,0.158-0.045,0.326-0.045,0.514
		c-0.061,0.249-0.079,0.5-0.047,0.75c0.035,0.252,0.205,0.473,0.519,0.663c0.062,0.062,0.107,0.157,0.137,0.282
		c0.033,0.125,0.077,0.25,0.143,0.375c0.121,0.752,0,1.349-0.376,1.786c-0.252,0.376-0.285,0.752-0.096,1.128
		c0.187,0.252,0.219,0.563,0.096,0.939c-0.063,0.317-0.111,0.596-0.141,0.848c-0.038,0.25-0.079,0.501-0.14,0.752
		c-0.062,0.189-0.096,0.44-0.096,0.753c0.129,0.438,0.034,0.755-0.28,0.943c-0.19,0.126-0.359,0.283-0.518,0.469
		c-0.158,0.189-0.326,0.345-0.514,0.471c-0.066,0.13-0.128,0.223-0.188,0.282c-0.065,0.062-0.127,0.16-0.187,0.281
		c-0.064,0-0.096,0.035-0.096,0.095c-0.437,0.438-0.688,0.913-0.755,1.41c0,0.128-0.126,0.316-0.372,0.566
		c-0.564,0.564-1.113,1.126-1.647,1.688c-0.534,0.566-1.019,1.193-1.456,1.878c0,0.063-0.016,0.094-0.045,0.094
		c-0.032,0-0.047,0.031-0.047,0.095c-0.315,0.187-0.598,0.406-0.849,0.656c-0.25,0.251-0.497,0.533-0.751,0.848
		c-0.251,0.253-0.515,0.422-0.8,0.516c-0.282,0.094-0.58,0.205-0.892,0.329c-0.128,0.124-0.249,0.205-0.376,0.233
		c-0.129,0.033-0.251,0.112-0.375,0.236c-0.501,0.313-1.005,0.503-1.501,0.562c-0.377,0-0.738,0.064-1.083,0.188
		c-0.342,0.125-0.705,0.22-1.08,0.281c-0.377,0.126-0.719,0.189-1.034,0.189c-0.439,0-0.879,0-1.317,0
		c-0.439,0-0.907-0.06-1.409-0.189c-0.439-0.061-0.862-0.075-1.271-0.043c-0.408,0.028-0.832,0.043-1.267,0.043
		c-1.505-0.061-2.978-0.47-4.416-1.22c-0.252-0.125-0.489-0.251-0.706-0.379c-0.223-0.123-0.455-0.248-0.706-0.375
		C93.499,125.482,93.375,125.387,93.188,125.2z M108.503,81.321c-0.062-0.123-0.095-0.34-0.095-0.657
		c0-0.752-0.22-1.566-0.658-2.444c-0.129-0.187-0.268-0.39-0.423-0.611c-0.158-0.219-0.298-0.42-0.423-0.609
		c-0.25-0.375-0.501-0.718-0.749-1.032c-0.251-0.315-0.535-0.626-0.849-0.942c-0.315-0.189-0.563-0.407-0.752-0.657
		c-0.188-0.25-0.407-0.532-0.658-0.846c-0.188-0.187-0.363-0.392-0.517-0.608c-0.159-0.221-0.327-0.423-0.514-0.613
		c-0.376-0.248-0.659-0.248-0.848,0c-0.251,0.313-0.471,0.658-0.659,1.035c-0.185,0.379-0.314,0.814-0.373,1.316
		c0,0.503-0.127,0.972-0.38,1.412c-0.126,0.246-0.248,0.485-0.375,0.701c-0.124,0.223-0.186,0.487-0.186,0.799
		c-0.06,0.252-0.157,0.69-0.281,1.314c-0.063,0.313-0.11,0.628-0.142,0.941c-0.034,0.318-0.078,0.625-0.138,0.94
		c0,0.064-0.016,0.112-0.045,0.142c-0.035,0.031-0.046,0.081-0.046,0.139c-0.189,0.5-0.328,0.988-0.421,1.458
		c-0.095,0.469-0.208,0.956-0.331,1.456c-0.127,0.625-0.252,1.098-0.378,1.409c-0.062,0.315-0.127,0.646-0.188,0.985
		c-0.062,0.349-0.155,0.707-0.282,1.082c-0.125,0.44-0.204,0.863-0.233,1.271c-0.03,0.407-0.112,0.831-0.235,1.265
		c-0.06,0.379-0.126,0.753-0.187,1.129s-0.126,0.755-0.189,1.129l-0.281,2.255c0,0.376-0.046,0.754-0.14,1.129
		c-0.095,0.375-0.078,0.748,0.046,1.128c0.125,0.314,0.204,0.627,0.236,0.94c0.031,0.312,0.078,0.626,0.139,0.939
		c0,0.376,0.031,0.655,0.095,0.847c0.126,0.376,0.219,0.785,0.282,1.226c0.061,0.436,0.158,0.843,0.283,1.217
		c0.061,0.128,0.091,0.283,0.091,0.474c0.063,0.503,0.113,1,0.142,1.501c0.031,0.503,0.11,1.005,0.234,1.502
		c0.061,0.375,0.061,0.734,0,1.079c-0.065,0.346-0.065,0.704,0,1.08c0.061,0.19,0.078,0.361,0.046,0.518
		c-0.031,0.156,0.016,0.329,0.138,0.517c0.127,0.06,0.192,0.253,0.192,0.565c-0.13,0.502-0.11,0.985,0.046,1.457
		c0.154,0.469,0.296,0.955,0.422,1.457c0.25,1.066,0.688,2.226,1.313,3.477c0.316,0.687,0.661,1.395,1.036,2.114
		c0.376,0.72,0.877,1.362,1.501,1.927c0.5,0.562,1.066,0.719,1.693,0.468c0.438-0.188,0.812-0.435,1.126-0.754
		c0.317-0.25,0.582-0.5,0.799-0.752c0.22-0.25,0.457-0.5,0.707-0.753c0.621-0.499,1.032-1.221,1.22-2.161
		c0-0.123,0.015-0.233,0.046-0.326c0.031-0.092,0.047-0.202,0.047-0.33c0.128-0.563,0.248-1.112,0.38-1.641
		c0.123-0.533,0.247-1.083,0.375-1.646c0.122-0.625,0.187-1.063,0.187-1.319c0.059-0.311,0.127-0.621,0.188-0.938
		c0.06-0.314,0.093-0.622,0.093-0.941c0.062-0.375,0.095-0.768,0.095-1.176c0-0.406,0-0.793,0-1.174
		c0.125-0.685,0.204-1.328,0.235-1.924c0.027-0.594,0.111-1.208,0.235-1.835c0.122-0.499,0.169-0.968,0.14-1.41
		c-0.036-0.438-0.045-0.872-0.045-1.314c-0.068-1.564-0.068-3.134,0-4.697v-2.444c-0.068-0.563-0.113-1.111-0.141-1.643
		c-0.035-0.533-0.077-1.049-0.139-1.552c0-0.316,0-0.609,0-0.892c0-0.285-0.037-0.58-0.097-0.895c0-0.312-0.017-0.591-0.045-0.846
		c-0.034-0.248-0.078-0.528-0.142-0.845l-0.089-0.188c-0.13-0.438-0.267-0.846-0.425-1.222c-0.155-0.374-0.298-0.783-0.42-1.223
		c-0.129-0.249-0.187-0.625-0.187-1.129C108.534,81.949,108.503,81.699,108.503,81.321z"/>
	<path fill="#FFFFFF" d="M126.542,65.535c0.062-0.061,0.125-0.095,0.185-0.095c0.502,0,0.879-0.06,1.13-0.186
		c0.566-0.192,1.034-0.221,1.41-0.095c0.188,0.06,0.5,0.095,0.942,0.095h2.629c0.873,0,1.703,0.06,2.492,0.186
		c0.78,0.126,1.609,0.252,2.492,0.376c0.312,0,0.64,0.034,0.987,0.094c0.342,0.064,0.674,0.125,0.986,0.187
		c0.312,0.063,0.626,0.111,0.941,0.14c0.312,0.031,0.622,0.081,0.938,0.141c0.569,0.127,1.003,0.157,1.317,0.094
		c0.312,0,0.718,0.06,1.224,0.188c0.375,0,0.754,0.016,1.125,0.048c0.38,0.032,0.754,0.081,1.129,0.14h0.098
		c0.499-0.06,0.955-0.095,1.362-0.095c0.401,0,0.859,0,1.361,0h1.501c0.312,0,0.596,0.019,0.847,0.048
		c0.251,0.03,0.531,0.014,0.847-0.048c0.438-0.058,0.862-0.058,1.27,0c0.407,0.062,0.796,0.157,1.173,0.282
		c0.317,0.063,0.643,0.128,0.987,0.188c0.343,0.064,0.672,0.158,0.986,0.285c0.06,0,0.11,0.014,0.141,0.045
		c0.032,0.031,0.079,0.046,0.141,0.046c0.312,0.127,0.592,0.298,0.846,0.516c0.252,0.222,0.531,0.298,0.846,0.233
		c0.062,0.251,0.016,0.41-0.138,0.472c-0.159,0.063-0.3,0.155-0.424,0.28c0,0.191,0.079,0.331,0.234,0.424
		c0.155,0.095,0.298,0.204,0.423,0.329c0.125,0,0.266,0.017,0.424,0.047c0.152,0.032,0.297,0.045,0.423,0.045
		c0.313-0.125,0.592-0.063,0.847,0.187c0.123,0,0.22,0.03,0.281,0.094c0.127,0.06,0.234,0.095,0.332,0.095
		c0.092,0,0.203,0.029,0.325,0.092c0.189,0.125,0.282,0.344,0.282,0.657c0,0.063,0.094,0.188,0.283,0.375
		c-0.124,0.317-0.171,0.503-0.142,0.565c0.033,0.061,0.206,0.224,0.518,0.471c-0.061,0.376-0.25,0.597-0.562,0.662
		c-0.126,0-0.252,0.013-0.379,0.042c-0.121,0.031-0.248,0.047-0.372,0.047c-0.503,0.251-0.562,0.566-0.19,0.939
		c0.127,0.126,0.19,0.377,0.19,0.754c0,0.249,0,0.486,0,0.704s0.124,0.392,0.372,0.517c0.065,0.437-0.121,0.814-0.562,1.128
		c-0.186,0.126-0.36,0.248-0.517,0.376c-0.16,0.127-0.33,0.222-0.518,0.282c-0.188,0-0.283,0.158-0.283,0.469
		c0,0.314-0.187,0.596-0.562,0.846c-0.19,0.188-0.378,0.222-0.565,0.096c-0.187-0.127-0.345-0.127-0.469,0
		c-0.064,0.062-0.158,0.093-0.28,0.093c-0.315,0.063-0.612,0.126-0.896,0.186c-0.285,0.065-0.581,0.035-0.896-0.091
		c-0.31-0.125-0.562-0.125-0.753,0c-0.314,0.251-0.53,0.156-0.659-0.284c-0.061,0.063-0.106,0.096-0.14,0.096
		c-0.028,0-0.078,0.032-0.139,0.093c-0.376,0.375-0.755,0.409-1.13,0.095c-0.188-0.188-0.375-0.224-0.563-0.095
		c-0.186,0.063-0.435,0-0.749-0.188c-0.253-0.126-0.441-0.186-0.566-0.186c-0.251-0.063-0.474-0.127-0.658-0.191
		c-0.188-0.06-0.377-0.06-0.565,0c-0.062,0-0.093-0.031-0.093-0.095c-0.187-0.188-0.407-0.297-0.657-0.328
		c-0.255-0.03-0.473-0.107-0.658-0.232c-0.129,0-0.222-0.032-0.282-0.094c-0.127-0.188-0.41-0.345-0.848-0.471
		c-0.062-0.125-0.062-0.235,0-0.33c0.062-0.091,0-0.203-0.188-0.327c-0.064,0.063-0.094,0.112-0.094,0.142
		c0,0.028-0.033,0.078-0.093,0.138c-0.253,0.249-0.471,0.249-0.656,0c-0.064-0.126-0.253-0.285-0.567-0.471
		c-0.627-0.123-0.876,0.095-0.75,0.659c0.061,0.129,0.09,0.235,0.09,0.329c0,0.094,0.032,0.201,0.093,0.325
		c0.064,0.13,0.144,0.237,0.238,0.332c0.092,0.094,0.203,0.205,0.325,0.328c0.191,0.187,0.222,0.438,0.094,0.75
		c-0.06,0.252,0.034,0.412,0.284,0.475c0.246,0.059,0.408,0.218,0.469,0.469c0.062,0.189,0.094,0.36,0.094,0.515
		c0,0.157,0.033,0.299,0.096,0.426c0,0.124,0.033,0.218,0.095,0.283c0.059,0.059,0.157,0.154,0.282,0.28
		c-0.063,0.188-0.093,0.392-0.093,0.609c0,0.217-0.064,0.457-0.188,0.705v0.189c0.124,0.126,0.156,0.265,0.091,0.418
		c-0.06,0.159-0.091,0.301-0.091,0.427c0,0.25-0.131,0.624-0.378,1.125c-0.062,0.317-0.156,0.72-0.281,1.223
		c-0.062,0.127-0.095,0.251-0.095,0.375c0,0.126-0.033,0.253-0.092,0.379c-0.13,0.188-0.191,0.5-0.191,0.937v0.565
		c-0.188,0.501-0.222,1.004-0.095,1.502c0,0.251-0.029,0.41-0.094,0.473c-0.125,0.187-0.186,0.357-0.186,0.516
		c0,0.156-0.034,0.325-0.095,0.515c0,0.316-0.064,0.719-0.188,1.224c-0.186,0.629-0.252,1.221-0.186,1.782
		c0.06,0.314,0.121,0.661,0.186,1.035c0.062,0.379,0.124,0.719,0.188,1.035c0.062,0.316,0.155,0.627,0.281,0.94
		c0.129,0.315,0.129,0.627,0,0.941c0,0.062,0.035,0.095,0.094,0.095c0.192,0.438,0.128,0.847-0.187,1.223
		c0.248,0.314,0.314,0.625,0.187,0.94c0,0.124,0.062,0.249,0.192,0.375c0.124,0.062,0.186,0.251,0.186,0.562
		c-0.126,0.315-0.126,0.566,0,0.754v0.188c-0.062,0.314-0.109,0.578-0.14,0.797c-0.034,0.221-0.082,0.486-0.143,0.801v0.186
		c0.126,0.315,0.158,0.58,0.095,0.798c-0.062,0.221-0.123,0.487-0.187,0.796c-0.063,0.251-0.128,0.503-0.188,0.754
		c-0.062,0.251-0.127,0.502-0.192,0.753c-0.061,0.187-0.09,0.36-0.09,0.518c0,0.157-0.031,0.324-0.097,0.514
		c-0.061,0.316-0.093,0.626-0.093,0.938c0,0.315-0.062,0.631-0.188,0.943c-0.128,0.376-0.159,0.69-0.091,0.941
		c0.124,0.312,0.124,0.626,0,0.939c-0.068,0.188-0.111,0.376-0.144,0.564c-0.027,0.192-0.112,0.345-0.231,0.472
		c-0.189,0-0.189,0.095,0,0.281c0.061,0.438,0.076,0.849,0.047,1.224c-0.036,0.375-0.08,0.786-0.143,1.223
		c-0.062,0.127-0.079,0.267-0.047,0.424c0.03,0.157,0.016,0.326-0.047,0.515c0,0.253-0.062,0.627-0.188,1.129
		c-0.062,0.314-0.109,0.642-0.139,0.986c-0.036,0.344-0.018,0.674,0.047,0.987c0,0.501-0.036,0.971-0.095,1.408
		c-0.063,0.437-0.223,0.875-0.471,1.315c-0.251,0.626-0.472,1.065-0.658,1.316c-0.129,0.314-0.129,0.532,0,0.658
		c0.124,0.125,0.202,0.234,0.233,0.328c0.032,0.092,0.079,0.207,0.14,0.327c-0.125,0.13-0.25,0.191-0.376,0.191
		s-0.188,0.062-0.188,0.188c-0.123,0.376-0.187,0.594-0.187,0.657c-0.377-0.06-0.751-0.06-1.13,0
		c-0.373,0.063-0.721,0.094-1.035,0.094c-0.434,0-0.845-0.017-1.221-0.045c-0.377-0.031-0.752-0.049-1.128-0.049
		c-0.062,0-0.128,0.035-0.192,0.094c-0.312,0.127-0.58,0.161-0.795,0.094c-0.225-0.061-0.487-0.124-0.8-0.188l-0.375-0.187h-0.281
		c-0.128,0.125-0.236,0.173-0.33,0.14c-0.094-0.034-0.205-0.078-0.331-0.14c-0.252,0-0.409-0.094-0.47-0.282
		c-0.129-0.188-0.129-0.468,0-0.847c0.122-0.375,0.187-0.623,0.187-0.751c0-0.439-0.046-0.859-0.139-1.27
		c-0.094-0.409-0.175-0.83-0.234-1.266c0-0.127-0.02-0.284-0.047-0.472c-0.033-0.188-0.044-0.342-0.044-0.473v-0.188
		c0-0.188-0.037-0.376-0.095-0.564c-0.064-0.188-0.064-0.406,0-0.658c0-0.189-0.017-0.394-0.048-0.612
		c-0.027-0.218-0.047-0.423-0.047-0.61c0-0.314-0.016-0.579-0.046-0.799c-0.031-0.22-0.042-0.483-0.042-0.796
		c0-0.126-0.02-0.22-0.046-0.284c-0.034-0.062-0.047-0.125-0.047-0.188v-0.189c0.061-0.438,0.047-0.86-0.047-1.267
		c-0.092-0.405-0.109-0.832-0.047-1.268c0.064-0.564,0.094-1.115,0.094-1.645s0-1.046,0-1.55c0.123-1.381,0.096-2.598-0.094-3.665
		v-0.38c0.189-0.814,0.222-1.75,0.094-2.817c-0.061-0.312-0.094-0.594-0.094-0.846c0-0.249,0-0.535,0-0.851v-0.843
		c-0.062-0.313-0.094-0.626-0.094-0.94c0-0.313,0-0.626,0-0.94c0-0.127-0.016-0.222-0.045-0.285
		c-0.032-0.06-0.044-0.155-0.044-0.282c0.06-0.312,0.095-0.621,0.095-0.94c0-0.312,0-0.624,0-0.939V95.41
		c0.057-0.438,0.074-0.862,0.042-1.27c-0.03-0.407-0.017-0.831,0.046-1.27v-0.565c0.064-0.126,0.094-0.249,0.094-0.375
		c-0.061-0.315-0.061-0.581,0-0.794c0.062-0.222,0.123-0.456,0.188-0.708c0.127-0.564,0.25-1.112,0.379-1.644
		c0.124-0.533,0.189-1.11,0.189-1.74c0-0.247,0.014-0.484,0.044-0.703c0.033-0.219,0.08-0.487,0.14-0.797
		c0.064-0.314,0.11-0.579,0.141-0.797c0.029-0.22,0.079-0.485,0.141-0.799c0.126-0.312,0.251-0.782,0.378-1.411
		c0.123-0.376,0.22-0.735,0.281-1.078s0.127-0.674,0.187-0.988c0.063-0.312,0.112-0.612,0.144-0.895
		c0.027-0.281,0.044-0.578,0.044-0.889l0.282-1.41l0.282-1.129c0-0.314,0.047-0.58,0.141-0.798c0.092-0.223,0.202-0.457,0.33-0.705
		c0.06-0.126,0.094-0.232,0.094-0.326c0-0.095,0.031-0.207,0.091-0.332c0.126-0.375,0.25-0.624,0.377-0.751
		c0.379-0.687,0.188-1.128-0.567-1.314c-0.253,0-0.561-0.06-0.937-0.187c-0.191-0.128-0.364-0.222-0.518-0.287
		c-0.156-0.061-0.33-0.153-0.516-0.28c-0.128-0.061-0.279-0.123-0.471-0.189c-0.188-0.06-0.376-0.126-0.564-0.187
		c-0.315-0.126-0.625-0.202-0.939-0.233c-0.319-0.032-0.626-0.112-0.939-0.234c-0.315-0.125-0.615-0.249-0.894-0.377
		c-0.282-0.125-0.551-0.339-0.8-0.657c-0.127-0.188-0.281-0.28-0.469-0.28c-0.127,0-0.206-0.015-0.235-0.046
		c-0.037-0.034-0.081-0.048-0.142-0.048c-0.314-0.251-0.595-0.453-0.848-0.611c-0.246-0.157-0.468-0.391-0.655-0.706
		c-0.065,0-0.112-0.017-0.142-0.045c-0.028-0.031-0.076-0.046-0.138-0.046l-0.269-0.274c-0.125-0.251-0.268-0.439-0.42-0.566
		c-0.158-0.128-0.302-0.284-0.427-0.472c-0.123-0.125-0.206-0.219-0.234-0.281C126.556,65.851,126.542,65.724,126.542,65.535z"/>
	<path fill="#FFFFFF" d="M174.838,67.602c0.375,0.251,0.848,0.251,1.409,0c0.129-0.06,0.285-0.06,0.473,0
		c0.124,0.064,0.312,0.095,0.563,0.095c0.126,0,0.17-0.029,0.141-0.095c-0.034-0.06,0.017-0.028,0.143,0.095
		c0.186,0.063,0.356-0.012,0.515-0.231c0.158-0.22,0.298-0.267,0.424-0.14c0.061,0.06,0.172,0.048,0.328-0.046
		c0.152-0.095,0.237-0.112,0.237-0.048c0.312,0.316,0.483,0.329,0.516,0.048c0.034-0.286,0.206-0.518,0.515-0.705
		c0.193-0.126,0.409-0.111,0.661,0.045c0.251,0.158,0.47,0.174,0.655,0.046c0.315-0.122,0.614-0.264,0.895-0.421
		c0.283-0.153,0.577-0.299,0.895-0.422c0.122-0.06,0.246-0.123,0.373-0.188c0.124-0.062,0.248-0.093,0.376-0.093
		c0.188-0.062,0.36-0.124,0.519-0.187c0.157-0.063,0.328-0.128,0.515-0.191l0.096-0.095c0.313-0.059,0.623-0.123,0.94-0.186
		c0.31-0.06,0.621-0.123,0.939-0.188c0.313-0.059,0.626-0.109,0.94-0.141c0.314-0.031,0.625-0.047,0.94-0.047
		c0.376,0,0.813,0.065,1.316,0.187c0.624,0.13,1.062,0.286,1.316,0.472c0,0.066-0.021,0.112-0.046,0.14
		c-0.038,0.031-0.047,0.079-0.047,0.137c0,0.567-0.188,0.943-0.567,1.132c-0.125,0.065-0.233,0.138-0.325,0.231
		c-0.095,0.094-0.236,0.175-0.426,0.234c-0.187,0.064-0.22,0.282-0.092,0.661v0.091v0.097c-0.126,0.06-0.236,0.111-0.331,0.139
		c-0.094,0.032-0.206,0.112-0.328,0.232c-0.065,0.127-0.092,0.374-0.092,0.753c0,0.252-0.095,0.41-0.282,0.47
		c-0.377,0.189-0.663,0.502-0.849,0.94c0,0.189-0.06,0.283-0.188,0.283c-0.187,0.128-0.345,0.25-0.47,0.375
		c-0.128,0.128-0.253,0.251-0.377,0.378c-0.504,0.688-1.098,1.192-1.783,1.5c-0.062,0-0.094,0.017-0.094,0.048
		c0,0.029-0.032,0.046-0.093,0.046c-0.376,0-0.735,0.11-1.08,0.329c-0.343,0.222-0.677,0.392-0.988,0.516
		c-0.247,0.063-0.471,0.125-0.657,0.187c-0.186,0.065-0.406,0.129-0.656,0.189c-0.251,0-0.439,0.033-0.566,0.094
		c-0.126,0-0.248,0.062-0.377,0.187c-0.186,0.188-0.409,0.22-0.655,0.095c-0.189-0.189-0.344-0.126-0.474,0.188
		c-0.311,0.438-0.437,0.816-0.376,1.13v0.376c-0.187,0.376-0.218,0.781-0.093,1.222c0.062,0.186,0.032,0.36-0.094,0.518
		c-0.125,0.154-0.157,0.327-0.088,0.515c0,0.06-0.02,0.124-0.047,0.189c-0.033,0.061-0.047,0.127-0.047,0.187
		c0.059,0.69,0.059,1.346,0,1.975v0.187c0.059,0.504,0.094,0.972,0.094,1.412c0,0.434,0.03,0.907,0.094,1.41
		c0,0.062-0.019,0.125-0.046,0.188c-0.035,0.062-0.047,0.124-0.047,0.187c0,0.127,0.017,0.269,0.047,0.422
		c0.029,0.157,0.046,0.298,0.046,0.423c0.059,0.063,0.094,0.157,0.094,0.281c-0.065,0.252-0.094,0.691-0.094,1.316
		c0.188,0.38,0.28,0.72,0.28,1.036c-0.062,0.126-0.079,0.281-0.046,0.471c0.028,0.191-0.017,0.344-0.142,0.472
		c0.062,0.314,0.033,0.625-0.094,0.94s-0.127,0.625,0,0.939c0.062,0.315,0.22,0.47,0.47,0.47c0.126-0.062,0.234-0.095,0.33-0.095
		c0.094,0,0.203-0.06,0.329-0.188c0.126-0.06,0.233-0.094,0.331-0.094c0.094,0,0.203-0.03,0.329-0.095
		c0.124,0,0.186-0.03,0.186-0.094c0.125-0.186,0.312-0.281,0.568-0.281c0.244,0,0.436-0.06,0.56-0.188
		c0.315,0,0.564-0.048,0.756-0.141c0.189-0.094,0.436-0.17,0.751-0.234c0.375,0,0.628-0.06,0.756-0.186
		c0.247-0.127,0.481-0.19,0.702-0.19c0.219,0,0.424-0.063,0.614-0.187l0.092-0.094l1.972-0.281c0.252-0.061,0.468-0.125,0.659-0.188
		c0.187-0.06,0.407-0.123,0.657-0.189c0.248-0.061,0.496-0.155,0.754-0.28c0.248-0.127,0.527-0.127,0.845,0h0.376
		c0.312-0.063,0.612-0.112,0.895-0.142c0.281-0.03,0.581-0.047,0.894-0.047c0.436-0.123,0.847-0.092,1.222,0.095
		c0.125,0,0.234-0.018,0.329-0.048c0.094-0.03,0.206-0.013,0.331,0.048c0.187,0,0.373,0.034,0.566,0.096
		c-0.13,0.123-0.222,0.249-0.286,0.375c-0.062,0.126-0.125,0.25-0.189,0.375c-0.127,0.189-0.265,0.376-0.422,0.564
		c-0.159,0.189-0.299,0.412-0.423,0.658c-0.129,0.438-0.408,0.662-0.843,0.662c-0.191,0.06-0.346,0.218-0.476,0.47v0.188
		c0,0.375-0.033,0.688-0.093,0.94c-0.125,0.127-0.251,0.25-0.376,0.375c-0.127,0.128-0.313,0.222-0.563,0.281l-0.099,0.092
		c0,0.13-0.021,0.224-0.047,0.282c-0.038,0.064-0.045,0.16-0.045,0.286c-0.192,0.188-0.285,0.346-0.285,0.468
		c0,0.127-0.034,0.223-0.095,0.286c-0.125,0.125-0.141,0.23-0.046,0.325c0.093,0.091,0.076,0.206-0.046,0.332
		c-0.253,0.123-0.439,0.248-0.57,0.375v0.188c-0.123,0.125-0.218,0.229-0.279,0.325c-0.063,0.095-0.159,0.143-0.282,0.143
		c-0.315,0.126-0.658,0.438-1.035,0.939c-0.563,0-1.064,0.342-1.5,1.033c-0.314,0-0.533,0.036-0.659,0.096
		c-0.062,0.06-0.11,0.14-0.142,0.234c-0.028,0.095-0.078,0.142-0.139,0.142c-0.316,0.128-0.563,0.266-0.753,0.421
		c-0.188,0.158-0.438,0.299-0.755,0.424c-0.125,0.124-0.235,0.173-0.328,0.14c-0.095-0.034-0.174-0.019-0.235,0.047
		c-0.187,0.127-0.438,0.185-0.752,0.185h-0.563c-0.312-0.059-0.611-0.077-0.894-0.048c-0.282,0.035-0.584,0.048-0.892,0.048h-0.285
		c-0.128,0.189-0.268,0.283-0.424,0.283s-0.299,0.063-0.422,0.187c-0.128,0.127-0.268,0.21-0.425,0.234
		c-0.157,0.034-0.299,0.111-0.423,0.234c-0.187,0.128-0.343,0.3-0.47,0.518c-0.126,0.221-0.126,0.391,0,0.513
		c0.126,0.129,0.174,0.235,0.143,0.33c-0.03,0.094-0.045,0.205-0.045,0.329c-0.063,0.187-0.098,0.469-0.098,0.847
		c0,0.126,0.017,0.204,0.048,0.233c0.033,0.031,0.016,0.111-0.048,0.236c-0.189,0-0.189,0.092,0,0.279
		c0.126,0.189,0.174,0.375,0.143,0.562c-0.03,0.187-0.017,0.375,0.047,0.567c-0.129,0.126-0.159,0.235-0.096,0.329
		c0.061,0.092,0.124,0.205,0.189,0.327c0.124,0.247,0.186,0.593,0.186,1.035c0,0.188,0.018,0.393,0.047,0.608
		c0.031,0.223,0.047,0.423,0.047,0.613c0.124,0.122,0.158,0.219,0.094,0.28c-0.123,0.188-0.123,0.345,0,0.471
		c0.063,0.626,0.111,1.22,0.14,1.783c0.03,0.565,0.112,1.16,0.235,1.787c0,0.251,0.031,0.41,0.097,0.469
		c0.06,0.063,0.092,0.224,0.092,0.472c-0.063,0.253-0.079,0.423-0.048,0.515c0.034,0.094,0.079,0.299,0.143,0.611
		c0.063,0.251,0.123,0.473,0.19,0.66c0.06,0.188,0.09,0.41,0.09,0.657c0.063,0.127,0.094,0.269,0.094,0.422
		c0,0.159,0.058,0.298,0.188,0.423c0.127,0.251,0.222,0.484,0.281,0.702c0.063,0.224,0.158,0.457,0.283,0.708
		c0.061,0.127,0.078,0.22,0.046,0.282c-0.033,0.062,0.017,0.157,0.144,0.282l0.187,0.375c0.06,0.189,0.155,0.532,0.28,1.035
		c0.188,0.187,0.344,0.315,0.473,0.376c0.061,0,0.138,0.032,0.234,0.093c0.095,0.063,0.203,0.034,0.329-0.093
		c0-0.062,0.058-0.095,0.188-0.095c0.311,0.127,0.592,0.141,0.844,0.046c0.254-0.095,0.53-0.171,0.85-0.23
		c1.254-0.127,2.441-0.314,3.567-0.567c0.313-0.061,0.612-0.111,0.894-0.142c0.282-0.027,0.582-0.075,0.896-0.137
		c0.311-0.062,0.59-0.142,0.843-0.234c0.251-0.095,0.533-0.174,0.85-0.234c0.122,0,0.186-0.063,0.186-0.19
		c0.124-0.124,0.252-0.219,0.377-0.283c0.125-0.062,0.286-0.125,0.473-0.188c0,0.314-0.035,0.47-0.095,0.47
		c-0.127,0.064-0.253,0.223-0.378,0.472c-0.125,0.253-0.267,0.47-0.424,0.658c-0.153,0.19-0.294,0.41-0.419,0.663
		c-0.062,0.121-0.14,0.167-0.235,0.137c-0.094-0.032-0.173,0.017-0.234,0.139c-0.189,0.318-0.409,0.548-0.661,0.705
		c-0.249,0.156-0.468,0.362-0.656,0.612c-0.251,0.246-0.377,0.468-0.377,0.656c0,0.251-0.094,0.409-0.282,0.472
		c-0.249,0.063-0.47,0.251-0.655,0.564c-0.255,0.251-0.438,0.409-0.565,0.469c-0.064,0-0.225,0.131-0.474,0.375
		c-0.126,0.131-0.313,0.38-0.562,0.754c-0.314-0.06-0.581,0.017-0.796,0.233c-0.226,0.223-0.455,0.424-0.707,0.612
		c-0.253,0.25-0.626,0.437-1.13,0.565c-0.126,0.061-0.233,0.095-0.333,0.095c-0.093,0-0.203,0.063-0.325,0.188
		c-0.123,0.126-0.374,0.186-0.752,0.186c-0.189,0.066-0.361,0.095-0.517,0.095c-0.157,0-0.301,0.064-0.421,0.19h-0.286
		c-0.246-0.062-0.469-0.08-0.657-0.046c-0.186,0.031-0.409,0.046-0.658,0.046c-0.124,0-0.267-0.031-0.421-0.097
		c-0.158-0.061-0.299-0.123-0.426-0.188c-0.375-0.186-0.75-0.311-1.125-0.374c-0.376-0.062-0.755-0.157-1.13-0.283
		c-0.126-0.061-0.219-0.093-0.287-0.093c-0.059,0-0.151-0.036-0.279-0.092c-0.126-0.06-0.221-0.125-0.28-0.188
		c-0.063-0.063-0.124-0.094-0.188-0.094c-0.126,0-0.222-0.035-0.28-0.093c-0.064-0.063-0.16-0.092-0.284-0.092
		c-0.376-0.066-0.656-0.252-0.847-0.569c-0.187-0.31-0.41-0.562-0.656-0.754c-0.128-0.434-0.345-0.794-0.661-1.08
		c-0.312-0.279-0.533-0.639-0.657-1.08c-0.062-0.125-0.14-0.264-0.233-0.42c-0.095-0.158-0.205-0.298-0.329-0.426
		c-0.064-0.123-0.081-0.262-0.047-0.42c0.032-0.156-0.017-0.3-0.143-0.424c-0.186-0.122-0.344-0.374-0.467-0.751
		c-0.065-0.127-0.08-0.285-0.048-0.471c0.03-0.191,0.017-0.344-0.047-0.473c0-0.249-0.063-0.342-0.187-0.279l-0.095-0.095
		l-0.281-1.129c-0.127-0.375-0.191-0.624-0.191-0.753c-0.061-0.123-0.077-0.233-0.046-0.328c0.032-0.095-0.018-0.203-0.143-0.33
		c-0.062,0-0.094-0.028-0.094-0.094c0.06-0.309,0.033-0.656-0.093-1.036c-0.127-0.375-0.221-0.714-0.282-1.034
		c0-0.876-0.127-1.564-0.374-2.068c-0.065-0.311-0.095-0.576-0.095-0.797c0-0.218-0.035-0.484-0.094-0.799
		c-0.064-0.186-0.094-0.374-0.094-0.562c0-0.187-0.064-0.409-0.188-0.661c-0.188-0.188-0.188-0.374,0-0.562v-0.095v-1.879
		c0-0.248-0.017-0.482-0.046-0.703c-0.033-0.22,0.014-0.451,0.14-0.706v-0.091c-0.062-0.376-0.094-0.734-0.094-1.079
		c0-0.345,0-0.672,0-0.987v-1.127c0-0.251-0.017-0.475-0.046-0.659c-0.033-0.19-0.047-0.378-0.047-0.565
		c0-0.187,0.035-0.312,0.094-0.374c0.061-0.188,0.034-0.345-0.094-0.472v-0.095v-0.187c0.128-0.125,0.154-0.284,0.094-0.471
		c-0.06-0.189-0.094-0.38-0.094-0.568c0-0.309-0.033-0.609-0.096-0.89c-0.058-0.283-0.032-0.58,0.096-0.894
		c0.062-0.312,0.094-0.577,0.094-0.798c0-0.219,0-0.454,0-0.702c0.129-0.127,0.154-0.249,0.094-0.378
		c-0.06-0.125-0.094-0.248-0.094-0.376c0.061-0.188,0.078-0.389,0.047-0.611c-0.034-0.22,0.013-0.453,0.14-0.703
		c0.061,0,0.093-0.094,0.093-0.283c0-0.126-0.017-0.28-0.048-0.467c-0.034-0.192-0.016-0.346,0.048-0.473
		c0.061-0.123,0.096-0.282,0.096-0.471c0-0.376,0.028-0.623,0.094-0.752c0.121-0.314,0.187-0.657,0.187-1.035
		c0-0.377,0.062-0.717,0.188-1.036v-0.282v-0.28c0.123-0.25,0.173-0.519,0.142-0.798c-0.034-0.286-0.017-0.58,0.047-0.895
		c0.124-0.377,0.247-0.737,0.376-1.08c0.125-0.345,0.248-0.702,0.375-1.081c0.063-0.061,0.092-0.188,0.092-0.376
		c-0.061-0.186-0.061-0.374,0-0.561c0.066-0.189,0.125-0.377,0.188-0.568c0-0.187,0.033-0.375,0.098-0.563
		c0.062-0.186,0.122-0.344,0.188-0.471c0-0.188,0.046-0.341,0.137-0.469c0.093-0.127,0.11-0.281,0.05-0.471
		c-0.068-0.127-0.068-0.281,0-0.468c0.06-0.19,0.092-0.347,0.092-0.472c0.057-0.123,0.125-0.267,0.187-0.423
		c0.062-0.155,0.095-0.297,0.095-0.42c0.059-0.126,0.079-0.252,0.045-0.377c-0.032-0.126-0.018-0.249,0.05-0.375
		c0.124-0.25,0.218-0.49,0.277-0.707c0.063-0.22,0.063-0.486,0-0.796c0.251-0.315,0.36-0.66,0.329-1.035
		c-0.031-0.376,0.02-0.72,0.143-1.036c0.123-0.248,0.189-0.468,0.189-0.655c0.121-0.501,0.246-1.019,0.375-1.553
		c0.125-0.533,0.247-1.047,0.374-1.551c0.06-0.061,0.094-0.188,0.094-0.374c0.125-0.502,0.247-0.879,0.377-1.13
		c0.123-0.315,0.201-0.392,0.232-0.234c0.029,0.159,0.079,0.079,0.143-0.235c0-0.123-0.036-0.138-0.093-0.041
		c-0.064,0.089-0.131,0.077-0.188-0.051c0-0.125,0.046-0.217,0.14-0.282c0.096-0.06,0.108-0.152,0.048-0.281
		C174.653,67.824,174.711,67.668,174.838,67.602z"/>
</g>
<g>
	<path fill="#FFFFFF" d="M108.43,55.265c0.113,0.015,0.194,0.02,0.239,0.022c0.047,0,0.087,0.001,0.127,0.001
		c0.191,0,0.339-0.044,0.442-0.143c0.098-0.092,0.148-0.281,0.148-0.553v-8.367h1.993v8.399c0,0.769-0.155,1.337-0.456,1.705
		c-0.305,0.372-0.897,0.554-1.778,0.554c-0.064,0-0.154-0.004-0.271-0.008c-0.119-0.003-0.266-0.008-0.444-0.017L108.43,55.265
		L108.43,55.265z M111.382,45.282h-1.993v-1.84h1.993V45.282z"/>
	<path fill="#FFFFFF" d="M115.262,46.192v4.591c0,0.431,0.049,0.758,0.151,0.976c0.18,0.386,0.536,0.577,1.063,0.577
		c0.678,0,1.137-0.271,1.393-0.821c0.131-0.301,0.195-0.691,0.195-1.179v-4.144h2.02v7.617h-1.935v-1.077
		c-0.018,0.024-0.064,0.095-0.137,0.21c-0.078,0.115-0.165,0.218-0.266,0.308c-0.315,0.283-0.61,0.474-0.901,0.575
		c-0.295,0.102-0.632,0.154-1.025,0.154c-1.124,0-1.878-0.408-2.27-1.219c-0.218-0.445-0.326-1.106-0.326-1.977v-4.589h2.037v-0.002
		H115.262z"/>
	<path fill="#FFFFFF" d="M123.565,51.375c0.04,0.356,0.134,0.605,0.275,0.755c0.243,0.265,0.702,0.399,1.374,0.399
		c0.394,0,0.706-0.054,0.94-0.174c0.233-0.116,0.348-0.289,0.348-0.524c0-0.226-0.096-0.392-0.283-0.509
		c-0.186-0.115-0.88-0.316-2.085-0.6c-0.861-0.212-1.475-0.482-1.83-0.804c-0.354-0.317-0.529-0.772-0.529-1.37
		c0-0.703,0.28-1.309,0.83-1.814c0.553-0.504,1.332-0.755,2.335-0.755c0.951,0,1.728,0.186,2.33,0.568
		c0.597,0.379,0.943,1.036,1.033,1.966h-1.991c-0.027-0.254-0.103-0.459-0.222-0.609c-0.216-0.269-0.589-0.406-1.121-0.406
		c-0.434,0-0.745,0.065-0.929,0.207c-0.186,0.134-0.278,0.293-0.278,0.472c0,0.231,0.099,0.393,0.299,0.496
		c0.197,0.11,0.888,0.292,2.075,0.557c0.797,0.183,1.391,0.467,1.787,0.843c0.392,0.382,0.587,0.862,0.587,1.432
		c0,0.753-0.284,1.371-0.844,1.849c-0.562,0.478-1.431,0.717-2.607,0.717c-1.204,0-2.087-0.251-2.66-0.759
		c-0.568-0.506-0.853-1.149-0.853-1.933L123.565,51.375L123.565,51.375z"/>
	<path fill="#FFFFFF" d="M129.197,47.681v-1.419h1.06v-2.123h1.971v2.123h1.237v1.419h-1.237v4.026c0,0.31,0.042,0.505,0.123,0.581
		c0.077,0.079,0.317,0.118,0.722,0.118c0.06,0,0.125-0.003,0.192-0.005c0.068-0.001,0.136-0.007,0.204-0.011v1.491l-0.947,0.038
		c-0.939,0.034-1.583-0.132-1.928-0.491c-0.224-0.229-0.334-0.583-0.334-1.057v-4.688h-1.062L129.197,47.681L129.197,47.681z"/>
</g>
</svg>
