<?xml version="1.0" encoding="utf-8"?>
<!-- Generator: Adobe Illustrator 15.0.2, SVG Export Plug-In . SVG Version: 6.00 Build 0)  -->
<!DOCTYPE svg PUBLIC "-//W3C//DTD SVG 1.1//EN" "http://www.w3.org/Graphics/SVG/1.1/DTD/svg11.dtd">
<svg version="1.1" id="Ebene_1" xmlns="http://www.w3.org/2000/svg" xmlns:xlink="http://www.w3.org/1999/xlink" x="0px" y="0px"
	 width="270.975px" height="302.5px" viewBox="0 -104.5 270.975 302.5" enable-background="new 0 -104.5 270.975 302.5"
	 xml:space="preserve">
<g>
	<g>
		<path fill="#F07F31" d="M140.714,148.964c56.985,0,103.175-46.188,103.175-103.173c0-56.977-46.188-103.165-103.175-103.165
			c-56.975,0-103.166,46.188-103.166,103.165S83.74,148.964,140.714,148.964"/>
	</g>
</g>
<g>
	<path fill="#FFFFFF" d="M19.276,55.568c0.316,0,0.577-0.051,0.788-0.158c0.105-0.207,0.231-0.39,0.39-0.548
		c0.155-0.158,0.13-0.394-0.077-0.71c-0.104,0.108-0.185,0.215-0.233,0.316c-0.055,0.107-0.184,0.265-0.392,0.481
		c-0.107-0.216-0.155-0.348-0.155-0.394c0-0.057-0.059-0.187-0.158-0.396c0.208-0.207,0.367-0.341,0.473-0.388
		c0.099-0.055,0.261-0.187,0.471-0.395h-0.943v-1.101h-0.947c0,0.315-0.054,0.578-0.161,0.784c-0.099-0.099-0.155-0.259-0.155-0.468
		c-0.104-0.532-0.187-0.996-0.234-1.424c-0.054-0.418-0.029-0.889,0.076-1.421c0.214-0.628,0.237-1.263,0.078-1.892
		c-0.158-0.631-0.188-1.265-0.078-1.895c0-0.525-0.105-1.318-0.315-2.369c-0.104,0-0.158,0.027-0.158,0.078
		c0,0.059-0.054,0.076-0.158,0.076v-0.153c0.211-0.321,0.286-0.628,0.237-0.951c-0.06-0.316-0.078-0.63-0.078-0.946
		c-0.105-0.736-0.231-1.473-0.393-2.208c-0.158-0.734-0.185-1.524-0.079-2.368c0.104-0.208,0.056-0.524-0.158-0.945l0.316-0.158
		c0.213,0,0.418-0.158,0.637-0.472c0.097-0.418,0.47-0.633,1.1-0.633c-0.216,0.217-0.342,0.418-0.393,0.633
		c-0.053,0.212-0.184,0.422-0.394,0.628l-0.158,0.158h-0.316v0.947c0,0.63,0.316,0.834,0.949,0.63
		c0.527-0.211,0.791-0.576,0.791-1.108V36.33c0.206-0.209,0.288-0.472,0.238-0.787c-0.057-0.321-0.134-0.58-0.238-0.792
		c-0.106-0.104-0.213-0.185-0.318-0.233c-0.104-0.052-0.211-0.133-0.316-0.239c0-0.419,0.369-0.524,1.104-0.316
		c-0.422-0.415-0.79-0.629-1.104-0.629c-0.633-0.1-0.946-0.526-0.946-1.258c0.105-0.213,0.155-0.472,0.155-0.794
		c-0.418,0.105-0.943,0.264-1.573,0.479c-0.108,0-0.164-0.058-0.164-0.158c0.213-0.422,0.235-0.842,0.078-1.271
		c-0.158-0.414-0.131-0.841,0.079-1.262v-0.471c-0.213-0.211-0.264-0.446-0.156-0.708c0.1-0.261,0.1-0.552,0-0.866
		c0-0.11,0.05-0.162,0.156-0.162c0.103,0,0.208-0.048,0.317-0.154c-0.423-0.315-0.579-0.686-0.473-1.105
		c0-0.628-0.058-1.104-0.158-1.42c-0.214-0.206-0.264-0.473-0.16-0.794c0.104-0.313,0.211-0.629,0.318-0.943v-0.788
		c-0.108-0.105-0.158-0.316-0.158-0.629c0-0.42-0.214-0.791-0.633-1.107c0.211-0.206,0.342-0.234,0.391-0.079
		c0.054,0.158,0.188,0.187,0.4,0.079h0.156c-0.213-0.206-0.29-0.472-0.235-0.786c0.054-0.323,0.026-0.579-0.079-0.793l0.313-1.262
		c-0.106,0-0.231,0.053-0.387,0.154c-0.161,0.106-0.238,0-0.238-0.313c0.106-0.104,0.185-0.211,0.238-0.318
		c0.05-0.099,0.125-0.207,0.231-0.313c0.104-0.317,0.104-0.638,0-0.951c-0.211-0.21-0.292-0.337-0.231-0.392
		c0.052-0.052,0.076-0.184,0.076-0.389c0.105-0.211,0.13-0.45,0.079-0.71c-0.056-0.263,0.026-0.499,0.235-0.708v-0.791
		c0-0.734,0.052-1.314,0.159-1.737l-0.639-0.317c0.421-0.528,0.632-1.08,0.632-1.66c0-0.576,0.05-1.132,0.158-1.658
		c0.212-0.417,0.159-0.628-0.158-0.628c-0.422-0.211-0.632-0.634-0.632-1.266h0.161c0.731,0,1.417-0.154,2.048-0.472
		c0.214-0.106,0.393-0.158,0.557-0.158c0.158,0,0.337-0.053,0.547-0.159c0.736-0.211,1.392-0.211,1.974,0
		c0.575,0.21,1.177,0.422,1.806,0.632c0.423,0.211,0.843,0.37,1.265,0.471c0.423,0.106,0.836,0.265,1.266,0.471
		c0.415,0.215,0.945,0.632,1.573,1.267c0.423,0.422,0.843,1.052,1.267,1.895c0.1,0.209,0.158,0.474,0.158,0.787
		c-0.102,0.946,0,2.053,0.315,3.314c0.1,0.107,0.1,0.216,0,0.313c-0.214,0.534,0,1.003,0.633,1.425c0.1,0,0.211,0.054,0.313,0.158
		c-0.214,0.211-0.26,0.473-0.155,0.792c0.104,0.313,0.155,0.628,0.155,0.941c0.104,0.321,0.212,0.557,0.318,0.713
		c0.1,0.158,0.208,0.342,0.314,0.552c0.103,0.206,0.158,0.389,0.158,0.551c0,0.155,0.05,0.342,0.158,0.551
		c0,0.211-0.056,0.373-0.158,0.474c-0.107,0.105-0.056,0.263,0.158,0.471c-0.106,0.422-0.106,0.794,0,1.105
		c0.101,0.318,0.211,0.691,0.314,1.105c0.103,0.214,0.129,0.373,0.079,0.473c-0.056,0.108-0.079,0.263-0.079,0.479
		c0,0.1-0.029,0.158-0.077,0.158c-0.059,0-0.079,0.053-0.079,0.158c0.214,0.211,0.261,0.443,0.163,0.705
		c-0.105,0.264-0.163,0.504-0.163,0.71c0.104,0.208,0.134,0.442,0.079,0.71c-0.059,0.261-0.027,0.5,0.077,0.702
		c0,0.105,0.024,0.219,0.079,0.318c0.05,0.103,0.078,0.214,0.078,0.313c0.101,0.218,0.206,0.45,0.313,0.713
		c0.103,0.262,0.054,0.5-0.158,0.705c0.104-0.1,0.213-0.158,0.317-0.158c0-0.417,0.053-0.684,0.158-0.787
		c0-0.211,0.158-0.369,0.473-0.475v0.634c-0.105,0.312-0.187,0.657-0.237,1.021c-0.055,0.372-0.129,0.708-0.235,1.023
		c-0.1,0.107,0.056,0.375,0.479,0.792c-0.215,0.216-0.315,0.449-0.315,0.71c0,0.263-0.214,0.5-0.639,0.708l0.798,0.789
		c-0.53,0.212-0.636,0.53-0.322,0.95c0.106,0.212,0.132,0.34,0.08,0.389c-0.058,0.054-0.08,0.19-0.08,0.392
		c-0.1,0.421,0.056,0.793,0.479,1.108c0-0.213,0.049-0.417,0.158-0.633l0.473,0.947c0,0.215-0.108,0.529-0.314,0.953
		c0.208,0,0.528,0.1,0.946,0.313c0.104,0.207,0.129,0.365,0.077,0.472c-0.058,0.103-0.027,0.262,0.078,0.471l0.473,0.946
		c0,0.215-0.053,0.346-0.158,0.393c-0.106,0.057-0.158,0.185-0.158,0.392c0,0.422,0.078,0.79,0.235,1.105
		c0.158,0.319,0.185,0.632,0.079,0.947c-0.212,0.214-0.158,0.42,0.155,0.629c0.318,0.314,0.447,0.63,0.393,0.95
		c-0.052,0.316-0.079,0.632-0.079,0.944v0.791c0,0.212,0.027,0.447,0.079,0.71c0.054,0.259,0.03,0.499-0.079,0.708
		c0,0.101-0.028,0.187-0.077,0.232c-0.058,0.054-0.078,0.131-0.078,0.231c-0.106,0.107-0.186,0.159-0.236,0.159
		c-0.05,0-0.127,0.053-0.232,0.154c0.106,0.106,0.211,0.158,0.316,0.158c0.423,0,0.685,0.135,0.791,0.394
		c0.104,0.265,0.049,0.501-0.158,0.709c-0.212,0.318-0.293,0.633-0.234,0.948c0.049,0.315,0.077,0.627,0.077,0.948l0.473,0.472
		c0.53-0.207,0.765-0.498,0.71-0.868c-0.055-0.368,0.026-0.706,0.235-1.022c-0.104,0.53-0.052,0.971,0.155,1.336
		c0.211,0.374,0.211,0.821,0,1.34v0.32c0.106,0.422,0,0.787-0.316,1.103c-0.101,0.107-0.313,0.373-0.628,0.791
		c0.316-0.105,0.628-0.159,0.944-0.159v1.105c-0.208-0.1-0.471-0.159-0.786-0.159c0,0.316,0.053,0.579,0.158,0.788
		c-0.42,0.216-0.581,0.531-0.472,0.951c0.1,0.213-0.158,0.473-0.79,0.789c0.208,0,0.315,0.107,0.315,0.314
		c0.415,0.215,0.526,0.579,0.316,1.106c-0.108,0.104-0.158,0.317-0.158,0.632c0,0.316,0,0.528,0,0.629
		c0,0.105-0.109,0.316-0.316,0.63c0.208-0.1,0.366-0.158,0.474-0.158c0.1,0,0.21-0.049,0.314-0.154h0.473
		c0.211,0.211,0.316,0.422,0.316,0.628c0,0.533,0,0.818,0,0.869c0,0.056,0.054,0.295,0.155,0.704c0,0.218-0.026,0.396-0.077,0.56
		c-0.054,0.158-0.077,0.343-0.077,0.55c0,0.416-0.106,0.688-0.314,0.787c0.096,0.107,0.158,0.215,0.158,0.316
		c0,0.106,0.05,0.215,0.156,0.324c-0.107,0.206-0.218,0.388-0.315,0.544c-0.109,0.158-0.062,0.342,0.158,0.554v0.158
		c-0.322,0.525-0.394,0.994-0.237,1.415c0.158,0.422,0.237,0.893,0.237,1.423c0,0.215,0,0.373,0,0.473
		c0,0.105,0.1,0.264,0.316,0.474h0.155h0.158c0.208-0.839,0.414-1.578,0.63-2.207c0.1-0.211,0.216-0.446,0.315-0.712
		c0.1-0.256,0.1-0.495,0-0.706l0.159-0.316c0.421-0.213,0.657-0.5,0.705-0.867c0.054-0.365,0.079-0.712,0.079-1.025
		c0.104-0.207,0.214-0.474,0.319-0.787c0.104-0.318,0.158-0.628,0.158-0.948c0.099-0.316,0.259-0.891,0.474-1.739
		c0.207-0.526,0.369-1.021,0.472-1.501c0.1-0.475,0.206-0.97,0.313-1.497c0.316-1.261,0.685-2.261,1.101-2.997
		c0.108-0.207,0.162-0.472,0.162-0.788c0-0.311,0.104-0.579,0.314-0.793l-0.154-0.315c0.314-0.313,0.473-0.522,0.473-0.63
		c0.417-0.526,0.681-1.102,0.788-1.738c0.104-0.208,0.129-0.395,0.079-0.548c-0.058-0.161-0.028-0.337,0.077-0.548
		c0.104-0.212,0.184-0.343,0.233-0.396c0.055-0.051,0.134-0.182,0.236-0.389c0.213-0.948,0.416-1.891,0.629-2.842
		c0.214-0.945,0.423-1.838,0.636-2.678c0.211-0.63,0.389-1.287,0.551-1.975c0.153-0.677,0.394-1.333,0.707-1.968
		c0.208-0.312,0.414-0.889,0.631-1.737c0-0.211,0.025-0.316,0.079-0.316c0.049,0,0.078-0.101,0.078-0.313
		c0.209-0.212,0.314-0.422,0.314-0.634c0-0.211,0.051-0.419,0.159-0.63c0.1-0.105,0.258-0.367,0.473-0.79
		c0.628-0.839,0.889-1.525,0.787-2.052V32.36c0.528-0.524,0.793-1.208,0.793-2.053c0-0.206,0.051-0.342,0.156-0.393
		c0.1-0.048,0.208-0.184,0.314-0.393c0.1-0.523,0.234-0.973,0.389-1.339c0.159-0.365,0.185-0.816,0.078-1.34v-0.149
		c0.421-0.633,0.737-1.262,0.951-1.895c0.21-0.63,0.415-1.265,0.633-1.895c0.094-0.212,0.211-0.417,0.313-0.632
		c0.099-0.211,0.212-0.413,0.316-0.631c0.211-0.211,0.391-0.444,0.548-0.703c0.158-0.267,0.346-0.501,0.556-0.711l0.159-0.16
		c0.206-0.523,0.496-0.916,0.863-1.18c0.368-0.259,0.653-0.604,0.869-1.026c0.208-0.416,0.473-0.736,0.787-0.942
		c0.316-0.216,0.573-0.423,0.79-0.633c0.315-0.316,0.474-0.844,0.474-1.579c0.104,0,0.212-0.03,0.313-0.08
		c0.105-0.051,0.211-0.078,0.316-0.078c0,0.106,0.026,0.186,0.083,0.236c0.048,0.058,0.079,0.186,0.079,0.392
		c0.207-0.206,0.338-0.372,0.391-0.472c0.053-0.104,0.123-0.214,0.232-0.322c0-0.208-0.031-0.366-0.076-0.474
		c-0.063-0.1-0.078-0.255-0.078-0.471c0.208-0.206,0.334-0.369,0.392-0.473c0.05-0.099,0.183-0.209,0.39-0.318
		c-0.101-0.206-0.158-0.34-0.158-0.39c0-0.051-0.057-0.185-0.16-0.393l0.158-0.155c0.528-0.208,1.05-0.472,1.582-0.791
		c0.415-0.212,0.73-0.212,0.944,0c0.214,0.319,0.478,0.501,0.792,0.555c0.316,0.049,0.685,0.187,1.104,0.389
		c0.1,0.316,0.18,0.662,0.231,1.027c0.054,0.364,0.391,0.551,1.026,0.551c-0.104-0.211-0.158-0.58-0.158-1.105
		c0.527-0.32,0.996-0.421,1.421-0.32c0.097,0.108,0.314,0.158,0.63,0.158h0.628c-0.21,0.215-0.391,0.447-0.548,0.708
		c-0.158,0.265-0.342,0.504-0.551,0.706l0.945,0.478c0,0.208-0.029,0.389-0.078,0.546c-0.057,0.158-0.076,0.346-0.076,0.556
		c-0.214,0.63,0,0.945,0.632,0.945c0,0.213-0.03,0.393-0.079,0.549c-0.058,0.158-0.078,0.345-0.078,0.551
		c-0.108,0-0.159,0.057-0.159,0.158c0.208,0.422,0.104,0.845-0.313,1.268c-0.214,0.211-0.343,0.442-0.394,0.707
		c-0.057,0.258-0.185,0.501-0.393,0.708c-0.423,0.527-0.631,1.209-0.631,2.05c0,0.315-0.027,0.607-0.079,0.868
		c-0.055,0.26-0.135,0.552-0.236,0.869c-0.104,0.105-0.158,0.211-0.158,0.313c-0.105,0.529-0.186,1.08-0.233,1.654
		c-0.052,0.58-0.182,1.138-0.392,1.66c0,0.215-0.1,0.528-0.316,0.946c-0.208,0.422-0.421,0.736-0.63,0.951
		c-0.102-0.105-0.313-0.165-0.628-0.165c-0.316,0.321-0.579,0.688-0.791,1.109l-0.313,0.627c0.211,0.53,0.053,0.947-0.472,1.268
		c-0.218,0.528-0.263,0.999-0.156,1.416c0.104,0.429,0.053,0.902-0.155,1.429c-0.105,0.208-0.133,0.389-0.08,0.547
		c0.056,0.155,0.08,0.392,0.08,0.707c-0.105,0.215-0.187,0.479-0.232,0.795c-0.059,0.312-0.192,0.577-0.398,0.788v0.471
		c-0.316,0.317-0.473,0.63-0.473,0.949c0,0.317,0,0.633,0,0.947c0,0.422,0,0.817,0,1.186c0,0.366-0.16,0.705-0.474,1.025v0.472
		c0,0.211,0.054,0.346,0.156,0.392c0.108,0.06,0.108,0.135,0,0.233c-0.418,0.736-0.686,1.422-0.786,2.051
		c-0.215,0.217-0.314,0.451-0.314,0.712c0,0.263-0.058,0.501-0.158,0.711c-0.313,1.471-0.842,2.784-1.581,3.943
		c-0.211,0.209-0.339,0.475-0.393,0.788c-0.049,0.316-0.128,0.579-0.232,0.786l0.158,0.315c0,0.107,0.057,0.158,0.158,0.158
		c-0.209,0.534-0.34,0.979-0.388,1.344c-0.056,0.373-0.187,0.767-0.393,1.182c0.208,0.215,0.208,0.629,0,1.265
		c-0.213,0.416-0.316,0.816-0.316,1.181c0,0.37-0.106,0.766-0.313,1.185v0.159c0,0.215,0.052,0.313,0.157,0.313
		c0,0.53-0.105,0.896-0.321,1.11l-0.472,1.424c0,0.314-0.079,0.6-0.234,0.867c-0.158,0.256-0.29,0.5-0.389,0.703
		c-0.215,0.211-0.313,0.419-0.313,0.631c-0.218,0.532-0.532,0.948-0.953,1.267c-0.526,0.528-0.578,0.946-0.155,1.261
		c-0.418,0.107-0.631,0.422-0.631,0.946c0,0.106-0.056,0.236-0.156,0.394c-0.106,0.163-0.056,0.342,0.156,0.548
		c0,0.107-0.056,0.159-0.156,0.159c-0.214,0.211-0.267,0.47-0.158,0.791c0.104,0.316,0.052,0.577-0.158,0.788
		c0.417,0.314,0.472,0.579,0.158,0.794c-0.313,0.314-0.373,0.731-0.158,1.262c0,0.211,0.024,0.391,0.079,0.546
		c0.054,0.158-0.028,0.349-0.235,0.554v0.637c0.206,0.522,0.155,1-0.158,1.417c-0.106,0.315-0.158,0.795-0.158,1.425h0.158
		c-0.106,0.63-0.213,1.259-0.313,1.894c-0.108,0.63-0.264,1.261-0.472,1.891c0,0.213-0.106,0.422-0.32,0.631
		c-0.1,0.421-0.208,0.793-0.313,1.107c-0.102,0.316-0.264,0.686-0.473,1.11c-0.104,0.206-0.13,0.369-0.076,0.473
		c0.053,0.099,0.021,0.263-0.076,0.471c-0.218,0.63-0.374,1.05-0.472,1.266c-0.423,0.947-0.69,1.783-0.794,2.516
		c-0.21,0.532-0.367,0.973-0.472,1.34c-0.106,0.374-0.265,0.816-0.472,1.341c-0.106,0.316-0.264,0.891-0.47,1.733L46.28,95.32
		c-0.11,0.209-0.158,0.424-0.158,0.63c0,0.215-0.053,0.422-0.158,0.632c-0.211,0.629-0.392,1.313-0.553,2.053
		c-0.154,0.735-0.499,1.363-1.024,1.891c-0.214,0.215-0.45,0.449-0.708,0.711c-0.264,0.265-0.552,0.5-0.867,0.709
		c-0.214,0.214-0.633,0.316-1.263,0.316c-0.211,0.102-0.447,0.156-0.71,0.156c-0.259,0-0.499,0.057-0.709,0.158
		c0.215,0.313,0.263,0.529,0.158,0.631c0,0.215-0.158,0.321-0.473,0.321c-0.211,0.211-0.525,0.423-0.942,0.628
		c-0.53,0.317-0.977,0.393-1.338,0.235c-0.374-0.158-0.766-0.29-1.185-0.391c-0.209,0-0.316-0.157-0.316-0.473
		c-0.104-0.321-0.417-0.579-0.943-0.794v0.473c-0.531,0.105-0.895-0.021-1.104-0.39c-0.207-0.369-0.572-0.548-1.104-0.548v0.944
		c-0.213,0.528-0.422,0.579-0.626,0.158c-0.216-0.315-0.532-0.473-0.95-0.473c-1.154,0.103-2.311-0.158-3.468-0.797
		c-0.423-0.413-0.69-0.729-0.786-0.941c-0.423-0.632-0.896-1.054-1.421-1.267c0.208-0.207,0.369-0.336,0.472-0.393
		c0.1-0.047,0.257-0.183,0.473-0.389c-0.531-0.105-0.79-0.478-0.79-1.108c-0.213-0.837-0.471-1.423-0.786-1.734
		c-0.106-0.105-0.164-0.211-0.164-0.321c0-0.421-0.051-0.787-0.151-1.101c0.411-0.214,0.789-0.373,1.101-0.479
		c0.103-0.21,0.054-0.632-0.155-1.261c0-0.106-0.029-0.211-0.08-0.318c-0.056-0.104-0.079-0.206-0.079-0.316
		c-0.105-0.419,0-0.63,0.313-0.63c0.212,0.841,0.446,1.656,0.71,2.442c0.262,0.791,0.553,1.601,0.869,2.443
		c0.208-0.212,0.369-0.366,0.473-0.472c0.104-0.105,0.26-0.261,0.472-0.471c0.318-0.211,0.447-0.448,0.396-0.714
		c-0.058-0.258-0.079-0.498-0.079-0.708c-0.214,0.104-0.343,0.156-0.394,0.156c-0.054,0-0.184,0.054-0.393,0.158
		c-0.315-0.102-0.373-0.365-0.158-0.786c0.316-0.316,0.447-0.658,0.393-1.028c-0.058-0.365-0.187-0.71-0.393-1.028
		c0-0.204-0.026-0.392-0.078-0.547c-0.054-0.158-0.076-0.341-0.076-0.552c0-0.106-0.106-0.365-0.313-0.789
		c0-0.104,0.024-0.158,0.074-0.158c0.052,0,0.079-0.056,0.079-0.158c-0.106-0.216-0.158-0.37-0.158-0.479
		c0-0.099-0.058-0.258-0.158-0.471c-0.108-0.102-0.158-0.208-0.158-0.314c-0.109-0.103-0.264-0.185-0.478-0.237
		c-0.211-0.049-0.314-0.181-0.314-0.391c0-0.105-0.103-0.476-0.317-1.105c0.421-0.314,0.632-0.888,0.632-1.738
		c-0.101,0-0.182-0.031-0.232-0.078c-0.054-0.053-0.131-0.08-0.233-0.08c-0.104-0.103-0.155-0.369-0.155-0.788l0.628-0.316
		c-0.207-0.632-0.373-0.949-0.473-0.949c-0.214-0.104-0.372-0.26-0.474-0.475c-0.104-0.206-0.259-0.364-0.471-0.471
		c-0.316,0-0.316-0.158,0-0.473l0.471-0.315c0-0.422-0.213-0.63-0.63-0.63c-0.42,0-0.631-0.164-0.631-0.481
		c-0.104-0.211-0.158-0.366-0.158-0.471c0-0.101-0.055-0.258-0.159-0.474c-0.317,0.839-0.532,1.627-0.631,2.362
		c-0.417-0.631-0.579-1.103-0.471-1.42c0.1-0.324,0.1-0.605,0-0.867c-0.106-0.264-0.266-0.553-0.473-0.869
		c-0.319,0.211-0.421,0.422-0.319,0.63c0.213,0.212,0.264,0.346,0.164,0.395c-0.109,0.055-0.266,0.131-0.481,0.233
		c0-0.733-0.158-1.418-0.472-2.051c-0.211-0.211-0.344-0.496-0.391-0.864c-0.053-0.369-0.13-0.711-0.232-1.027
		c0-0.212,0.025-0.392,0.075-0.548c0.055-0.158,0.077-0.341,0.077-0.556v-1.262c-0.212-0.21-0.414-0.372-0.631-0.473l0.473-0.474
		c-0.211-0.104-0.42-0.374-0.63-0.79c-0.105-0.207-0.155-0.393-0.155-0.553c0-0.159-0.058-0.341-0.158-0.547
		c0.418-0.211,0.786-0.373,1.101-0.474c-0.212-0.107-0.389-0.186-0.547-0.244c-0.161-0.047-0.346-0.076-0.553-0.076
		c0.215-0.417,0.26-0.84,0.158-1.263c-0.1-0.1-0.1-0.257,0-0.471c0.101-0.208,0.155-0.421,0.155-0.631l-0.628-0.314
		c0,0.208,0.059,0.414,0.158,0.63c0.104,0.21,0,0.422-0.315,0.628c-0.423-0.313-0.528-0.893-0.316-1.738h0.945
		c0-0.317-0.026-0.63-0.078-0.945c-0.054-0.314-0.074-0.581-0.074-0.793c-0.108-0.21,0.05-0.523,0.472-0.945
		c0.313,0.313,0.418,0.604,0.313,0.866c-0.104,0.265-0.158,0.552-0.158,0.865c0.211,0.213,0.369,0.394,0.473,0.551
		c0.106,0.158,0.263,0.391,0.47,0.71c-0.1-0.524,0.029-0.918,0.399-1.184c0.366-0.264,0.552-0.656,0.552-1.184
		c0.21,0.106,0.368,0.209,0.473,0.315c0.313-0.315,0.313-0.732,0-1.256c-0.313-0.213-0.447-0.451-0.389-0.713
		c0.045-0.258,0.126-0.552,0.23-0.863c0-0.102,0.025-0.182,0.077-0.236c0.056-0.052,0.029-0.187-0.077-0.394
		c-0.314-0.415-0.368-0.889-0.155-1.417c0.101-0.216,0.155-0.478,0.155-0.79c-0.211-0.734-0.265-1.314-0.155-1.742
		c0-0.313-0.105-0.786-0.316-1.416v1.732h-1.127c0.102-0.208,0.158-0.372,0.158-0.479c0-0.095,0.058-0.259,0.163-0.474l-0.48-0.469
		c-0.42,0.105-0.658,0.343-0.705,0.71c-0.054,0.369-0.235,0.663-0.551,0.864c0-0.207-0.029-0.369-0.077-0.472
		c-0.058-0.1-0.078-0.21-0.078-0.313C19.48,56.307,19.48,55.883,19.276,55.568z M19.276,55.568c-0.106,0-0.189-0.023-0.23-0.076
		c-0.064-0.052-0.135-0.072-0.239-0.072c0,0.101-0.103,0.368-0.316,0.785c-0.211-0.21-0.316-0.58-0.316-1.101v-0.952
		c0-0.206,0.215-0.414,0.632-0.63C18.9,54.048,19.058,54.728,19.276,55.568z M18.327,43.109c0,0.845,0.158,1.42,0.472,1.737
		c0.1-0.213,0.208-0.371,0.313-0.475c0.1-0.101,0.211-0.26,0.316-0.47c-0.215-0.211-0.394-0.34-0.552-0.388
		C18.722,43.454,18.531,43.319,18.327,43.109z M19.114,48.631c-0.313,0.216-0.447,0.474-0.395,0.791
		c0.06,0.314-0.028,0.579-0.232,0.792h0.792C19.276,49.475,19.213,48.948,19.114,48.631z M20.372,61.248
		c0,0.316-0.027,0.603-0.079,0.868c-0.054,0.26-0.075,0.5-0.075,0.706c-0.313-0.211-0.691-0.422-1.105-0.634
		c0.214-0.208,0.414-0.364,0.633-0.473C19.953,61.618,20.167,61.46,20.372,61.248z M20.531,39.482
		c-0.315,0.1-0.687,0.263-1.105,0.472c-0.316,0.317-0.369,0.528-0.158,0.628c0-0.1,0.158,0,0.475,0.322l0.316-0.633h0.628
		c0-0.211-0.027-0.345-0.079-0.397C20.56,39.825,20.531,39.696,20.531,39.482z M19.592,75.599c-0.218-0.63-0.316-1.209-0.316-1.738
		l0.63-0.315c0,0.944-0.053,1.631-0.158,2.052L19.592,75.599L19.592,75.599L19.592,75.599z M19.902,58.249
		c0.208,1.056,0.314,1.948,0.314,2.679c-0.736-0.414-1.001-0.995-0.791-1.738c0-0.206,0.104-0.523,0.318-0.945H19.9L19.902,58.249
		L19.902,58.249z M20.687,77.334c0,0.315,0.058,0.58,0.158,0.791c0.105,0.213,0,0.426-0.313,0.629
		c-0.531-0.102-0.687-0.571-0.472-1.42H20.687z M21.956,67.241c-0.528-0.211-0.84-0.288-0.944-0.232
		c-0.108,0.051-0.218,0.185-0.32,0.394c0.527,0.211,0.812,0.312,0.867,0.312C21.608,67.715,21.743,67.556,21.956,67.241z
		 M25.424,89.011c0.101-0.104,0.315-0.158,0.631-0.158v0.158c-0.316,0.63-0.474,1.209-0.474,1.735c0,0.106-0.026,0.187-0.078,0.236
		c-0.056,0.061-0.079,0.133-0.079,0.239c-0.216-0.211-0.316-0.369-0.316-0.479v-0.626c-0.213,0-0.373,0.025-0.474,0.072
		c-0.105,0.052-0.263,0.077-0.474,0.077c-0.217,0.107-0.422,0-0.629-0.316c-0.106-0.525-0.219-1.047-0.318-1.575
		c-0.104-0.528-0.215-1.051-0.316-1.58c0-0.208-0.104-0.417-0.314-0.63c-0.215-0.215-0.294-0.373-0.238-0.48
		c0.058-0.098,0.079-0.258,0.079-0.473c0-0.416,0.264-0.522,0.791-0.314c0.733-0.736,1.421-0.685,2.05,0.158
		c0.104,0.215,0.234,0.342,0.393,0.393c0.158,0.053,0.287,0.131,0.394,0.237c-0.216,0.321-0.423,0.444-0.631,0.395
		c-0.214-0.056-0.421,0.022-0.631,0.23c0.21,0.219,0.288,0.391,0.231,0.548c-0.05,0.158-0.028,0.345,0.079,0.557
		c0,0.209,0.026,0.395,0.078,0.554c0.049,0.158,0.079,0.345,0.079,0.553c0,0.105,0.025,0.186,0.076,0.229
		C25.396,88.825,25.424,88.907,25.424,89.011z M23.688,75.757c0.211,0.634,0.314,1.105,0.314,1.421c0,0.737,0.105,1.262,0.316,1.578
		c0.211,0.422,0.418,0.794,0.635,1.11c-0.108-0.528-0.16-1.209-0.16-2.058c0-0.096-0.027-0.183-0.079-0.232
		c-0.058-0.053-0.078-0.127-0.078-0.234c-0.315-0.209-0.447-0.445-0.394-0.71c0.057-0.26,0.137-0.5,0.238-0.71l-0.317,0.158
		c-0.106-0.105-0.185-0.158-0.236-0.158C23.87,75.914,23.794,75.865,23.688,75.757z M25.424,93.268
		c-0.843,0.528-1.263,0.418-1.263-0.314c-0.104-0.316-0.159-0.736-0.159-1.265c0-0.318,0.055-0.576,0.159-0.791h0.475
		c0,0.215,0.073,0.373,0.232,0.474c0.158,0.108,0.186,0.265,0.079,0.473v0.474C24.949,92.848,25.108,93.161,25.424,93.268z"/>
	<path fill="#FFFFFF" d="M93.875,100.68c0.316-0.208,0.528-0.234,0.633-0.079c0.105,0.157,0.263,0.292,0.474,0.394
		c0.315,0.318,0.683,0.371,1.101,0.158c0-0.207-0.054-0.373-0.155-0.473c-0.63-0.529-1.237-1.103-1.815-1.738
		c-0.579-0.63-1.238-1.208-1.968-1.738c-0.316-0.208-0.606-0.474-0.873-0.789c-0.261-0.316-0.548-0.633-0.863-0.945l-1.105-1.107
		l-0.63,0.63c-0.533-0.102-0.894-0.444-1.11-1.024c-0.211-0.577-0.156-1.129,0.158-1.657c0.323,0.107,0.579,0.289,0.795,0.546
		c0.205,0.266,0.527,0.294,0.948,0.087c0.104-0.423-0.062-0.844-0.476-1.264c-0.316-0.32-0.605-0.637-0.866-0.953
		c-0.265-0.316-0.552-0.632-0.868-0.946c-0.316-0.316-0.528-0.473-0.629-0.473c-0.107,0-0.423,0.099-0.951,0.316
		c-0.42-0.523-0.736-0.999-0.94-1.427c-0.216-0.413-0.482-0.885-0.797-1.417c-0.203-0.525-0.472-1.024-0.785-1.5
		c-0.314-0.468-0.63-0.972-0.944-1.495c0.526-0.734,0.363-1.521-0.474-2.365c-0.314-0.105-0.375-0.375-0.158-0.797
		c0.211-0.21,0.338-0.471,0.387-0.787c0.056-0.313,0.185-0.579,0.393-0.788c-0.096-0.318-0.313-0.527-0.628-0.632
		c0-0.105,0.06-0.213,0.158-0.317c0.315-0.417,0.375-0.889,0.158-1.426c-0.098-0.098-0.213-0.229-0.316-0.387
		c-0.11-0.159-0.211-0.234-0.314-0.234c-0.531-0.21-0.865-0.501-1.023-0.868c-0.155-0.369-0.348-0.757-0.556-1.182
		c0-0.211,0.029-0.369,0.081-0.475c0.049-0.101,0.021-0.259-0.081-0.474c-0.318-0.528-0.446-1.078-0.393-1.658
		c0.055-0.575,0.131-1.185,0.235-1.814v-0.46c-0.102-0.528-0.16-1.105-0.16-1.738c0-0.63,0-1.205,0-1.738
		c0-0.314,0.06-0.63,0.16-0.947c0.105-0.312,0.211-0.632,0.315-0.944c0.104-0.312,0.163-0.738,0.163-1.261
		c-0.109-0.531-0.163-0.976-0.163-1.342c0-0.369,0-0.812,0-1.341c0.212-1.153,0.343-2.334,0.397-3.547
		c0.05-1.206,0.18-2.389,0.392-3.551c0-0.317,0.104-0.792,0.313-1.425c0-0.206,0.051-0.414,0.158-0.627
		c0-0.413,0.104-1.153,0.314-2.21c0.104-0.208,0.16-0.421,0.16-0.63c0-0.211,0.05-0.418,0.158-0.629
		c0-0.107-0.028-0.187-0.079-0.237c-0.05-0.051-0.03-0.186,0.079-0.393c0.098-0.634,0.208-1.287,0.314-1.967
		c0.099-0.691,0.262-1.395,0.471-2.133c0.104-0.422,0.208-0.816,0.315-1.186c0.104-0.365,0.104-0.81,0-1.338
		c0-0.316,0.058-0.658,0.156-1.026c0.106-0.366,0.215-0.704,0.322-1.018c0.099-0.529,0.185-1.08,0.234-1.661
		c0.054-0.575,0.183-1.13,0.389-1.654l0.476-1.422c0.209-0.527,0.342-1.026,0.391-1.498c0.055-0.479,0.235-0.973,0.553-1.503
		c0.104-0.206,0.13-0.443,0.077-0.708c-0.055-0.258-0.03-0.497,0.078-0.708c0.215-0.526,0.373-1,0.473-1.42
		c0.093-0.419,0.258-0.841,0.469-1.262c0-0.214,0.211-0.529,0.633-0.952c0.415-0.629,0.576-1.151,0.471-1.574
		c0-0.313,0.054-0.529,0.159-0.628c0.414-0.736,0.787-1.502,1.102-2.289c0.313-0.791,0.79-1.503,1.423-2.131
		c0.099-0.101,0.158-0.258,0.158-0.475c0.1-0.206,0.155-0.393,0.155-0.551c0-0.156,0.052-0.286,0.158-0.393
		c0.208-0.313,0.447-0.605,0.708-0.864c0.259-0.264,0.345-0.601,0.237-1.021c0.63-0.637,1.103-1.157,1.417-1.583
		c-0.316-0.416-0.368-0.812-0.158-1.182c0.213-0.369,0.422-0.706,0.628-1.021c0.53-0.737,1.079-1.445,1.658-2.131
		c0.581-0.681,1.132-1.396,1.661-2.132c0.415-0.522,0.787-0.994,1.101-1.418c0.313-0.417,0.685-0.894,1.104-1.424
		c0.527-0.836,1.263-1.578,2.208-2.203c0.104,0,0.158-0.056,0.158-0.158c0.312-0.736,1.053-1.106,2.213-1.106
		c0.206,0,0.418-0.026,0.63-0.078c0.211-0.052,0.416-0.08,0.628-0.08c1.9-0.313,3.526,0.058,4.893,1.107
		c0.951,0.631,2.051,0.791,3.312,0.474h0.317c1.264,0,2.543,0.025,3.861,0.079c1.312,0.052,2.548,0.287,3.709,0.705
		c0.211,0,0.37,0.029,0.473,0.079c0.104,0.062,0.259,0.078,0.479,0.078c0.834,0.108,1.577,0.32,2.206,0.634
		c0.627,0.318,1.311,0.685,2.053,1.105c0.63,0.213,1.105,0.422,1.419,0.631c0.313,0.213,0.629,0.393,0.945,0.552
		c0.318,0.154,0.684,0.341,1.105,0.551c0.639,0.419,0.999,0.892,1.107,1.42c0.318,0.532,0.53,0.845,0.632,0.955
		c0.525,0.309,0.888,0.683,1.105,1.1c0.212,0.422,0.414,0.896,0.631,1.421l0.945,1.893c0,0.105,0.027,0.216,0.079,0.316
		c0.049,0.107,0.079,0.265,0.079,0.479c0.096,0.527,0.18,1.08,0.236,1.651c0.052,0.576,0.181,1.133,0.388,1.659v0.475
		c-0.104,1.786,0.262,3.625,1.105,5.514c0.21,0.427,0.318,1.108,0.318,2.058c-0.212,0.733-0.16,1.365,0.157,1.892
		c0.208,0.215,0.318,0.372,0.318,0.473c0,0.628,0.128,1.236,0.394,1.814c0.26,0.577,0.337,1.238,0.233,1.971
		c-0.105,0.211-0.131,0.369-0.075,0.476c0.047,0.1,0.075,0.263,0.075,0.474c0.104,0.101,0.155,0.259,0.155,0.471
		c-0.217,1.267,0,2.269,0.632,2.999v0.472c-0.212,1.159-0.233,2.237-0.075,3.235c0.156,1.002,0.285,2.075,0.389,3.233
		c0.104,0.53,0.212,1.08,0.318,1.659c0.1,0.574,0.049,1.133-0.155,1.654c-0.108,0.212-0.135,0.376-0.079,0.471
		c0.053,0.104,0.079,0.265,0.079,0.474c0.101,1.058,0.18,2.081,0.231,3.083c0.054,0.995,0.077,2.026,0.077,3.07
		c0,0.535-0.053,0.949-0.158,1.265c0,0.527-0.052,1.052-0.155,1.579c-0.106,0.53-0.158,1.053-0.158,1.58
		c0,0.416,0.057,0.69,0.158,0.791c0.313,0.528,0.417,0.946,0.313,1.263c-0.21,0.523-0.158,0.944,0.16,1.258
		c0.212,0.423,0.212,0.788,0,1.106c-0.213,0.84-0.425,1.474-0.632,1.893c0,0.322-0.107,0.791-0.318,1.421c0,0.532,0,1.021,0,1.501
		c0,0.474-0.049,0.974-0.155,1.497c0,0.217-0.026,0.447-0.078,0.71c-0.058,0.265-0.077,0.548-0.077,0.864
		c-0.102,0.417-0.132,0.84-0.079,1.258c0.058,0.422,0.343,0.794,0.871,1.111c0.101,0.105,0.18,0.263,0.231,0.474
		c0.054,0.211,0.127,0.419,0.237,0.63c0.204,1.263,0,2.264-0.632,2.998c-0.423,0.63-0.478,1.262-0.16,1.892
		c0.313,0.423,0.367,0.945,0.16,1.577c-0.107,0.533-0.186,1-0.237,1.424c-0.062,0.42-0.13,0.841-0.231,1.262
		c-0.106,0.318-0.163,0.739-0.163,1.264c0.218,0.736,0.057,1.267-0.469,1.583c-0.32,0.211-0.604,0.474-0.871,0.787
		c-0.265,0.317-0.548,0.579-0.863,0.792c-0.111,0.216-0.215,0.374-0.315,0.473c-0.109,0.106-0.213,0.269-0.313,0.472
		c-0.108,0-0.16,0.058-0.16,0.158c-0.735,0.735-1.157,1.532-1.267,2.367c0,0.215-0.212,0.531-0.626,0.95
		c-0.947,0.947-1.869,1.89-2.765,2.833c-0.895,0.95-1.711,2.002-2.444,3.154c0,0.106-0.028,0.158-0.077,0.158
		c-0.055,0-0.078,0.052-0.078,0.158c-0.53,0.316-1.004,0.682-1.426,1.103c-0.42,0.422-0.834,0.893-1.261,1.424
		c-0.422,0.425-0.864,0.709-1.343,0.866c-0.473,0.157-0.974,0.343-1.497,0.552c-0.215,0.207-0.419,0.343-0.632,0.391
		c-0.217,0.056-0.422,0.189-0.628,0.396c-0.842,0.525-1.688,0.842-2.522,0.945c-0.632,0-1.238,0.107-1.816,0.316
		c-0.574,0.211-1.184,0.369-1.813,0.473c-0.634,0.211-1.209,0.318-1.737,0.318c-0.736,0-1.475,0-2.21,0
		c-0.737,0-1.522-0.102-2.366-0.318c-0.737-0.104-1.448-0.127-2.132-0.072c-0.685,0.047-1.396,0.072-2.127,0.072
		c-2.526-0.104-4.999-0.789-7.413-2.047c-0.423-0.211-0.82-0.422-1.184-0.639c-0.374-0.205-0.763-0.414-1.184-0.627
		C94.397,101.152,94.189,100.994,93.875,100.68z M119.582,27.022c-0.104-0.206-0.158-0.571-0.158-1.102
		c0-1.264-0.369-2.63-1.103-4.104c-0.217-0.313-0.45-0.654-0.711-1.025c-0.265-0.367-0.501-0.705-0.71-1.023
		c-0.419-0.628-0.841-1.206-1.257-1.732c-0.422-0.528-0.898-1.051-1.425-1.581c-0.53-0.318-0.947-0.685-1.264-1.105
		c-0.315-0.419-0.682-0.893-1.104-1.42c-0.316-0.313-0.61-0.658-0.868-1.022c-0.267-0.37-0.55-0.71-0.865-1.028
		c-0.631-0.416-1.106-0.416-1.422,0c-0.422,0.526-0.79,1.105-1.107,1.737c-0.311,0.636-0.528,1.365-0.628,2.209
		c0,0.845-0.213,1.631-0.637,2.369c-0.21,0.413-0.415,0.814-0.63,1.177c-0.206,0.374-0.312,0.818-0.312,1.342
		c-0.1,0.422-0.264,1.158-0.472,2.207c-0.106,0.525-0.185,1.053-0.238,1.578c-0.057,0.533-0.129,1.051-0.23,1.58
		c0,0.107-0.029,0.187-0.076,0.236c-0.059,0.052-0.078,0.137-0.078,0.234c-0.318,0.839-0.55,1.66-0.707,2.446
		c-0.158,0.788-0.348,1.604-0.554,2.443c-0.215,1.051-0.423,1.845-0.635,2.366c-0.105,0.531-0.215,1.085-0.316,1.654
		c-0.104,0.586-0.26,1.187-0.473,1.815c-0.209,0.738-0.342,1.449-0.392,2.134c-0.051,0.684-0.188,1.395-0.395,2.124
		c-0.1,0.636-0.211,1.266-0.313,1.896c-0.1,0.631-0.211,1.267-0.316,1.894l-0.471,3.786c0,0.631-0.078,1.266-0.235,1.895
		c-0.158,0.63-0.13,1.256,0.078,1.893c0.208,0.529,0.342,1.054,0.395,1.579c0.052,0.525,0.129,1.051,0.232,1.578
		c0,0.632,0.053,1.101,0.158,1.421c0.212,0.632,0.368,1.317,0.474,2.057c0.1,0.732,0.263,1.414,0.473,2.044
		c0.104,0.215,0.155,0.476,0.155,0.796c0.105,0.845,0.188,1.68,0.237,2.519c0.052,0.845,0.185,1.688,0.393,2.522
		c0.101,0.63,0.101,1.234,0,1.811c-0.109,0.58-0.109,1.181,0,1.813c0.101,0.319,0.13,0.606,0.077,0.869
		c-0.051,0.261,0.026,0.553,0.232,0.868c0.214,0.1,0.322,0.424,0.322,0.947c-0.218,0.843-0.185,1.654,0.078,2.446
		c0.258,0.787,0.496,1.603,0.706,2.445c0.419,1.789,1.157,3.735,2.206,5.836c0.53,1.154,1.108,2.342,1.739,3.55
		c0.633,1.208,1.473,2.286,2.519,3.234c0.841,0.943,1.79,1.208,2.843,0.785c0.735-0.316,1.363-0.729,1.891-1.265
		c0.532-0.419,0.975-0.839,1.342-1.262c0.369-0.419,0.764-0.84,1.186-1.267c1.043-0.836,1.732-2.046,2.049-3.627
		c0-0.206,0.025-0.389,0.076-0.546c0.053-0.157,0.078-0.34,0.078-0.555c0.216-0.945,0.417-1.865,0.638-2.754
		c0.206-0.895,0.414-1.817,0.629-2.764c0.207-1.049,0.315-1.785,0.315-2.214c0.099-0.523,0.212-1.042,0.315-1.576
		c0.101-0.526,0.156-1.043,0.156-1.579c0.102-0.629,0.158-1.289,0.158-1.974c0-0.683,0-1.332,0-1.971
		c0.21-1.152,0.342-2.231,0.394-3.23c0.047-0.997,0.186-2.028,0.395-3.08c0.204-0.839,0.285-1.626,0.237-2.367
		c-0.061-0.735-0.078-1.464-0.078-2.207c-0.114-2.626-0.114-5.26,0-7.884v-4.102c-0.114-0.947-0.19-1.866-0.237-2.759
		c-0.058-0.896-0.128-1.761-0.232-2.605c0-0.53,0-1.023,0-1.498c0-0.477-0.063-0.974-0.162-1.503c0-0.524-0.03-0.992-0.078-1.418
		c-0.055-0.417-0.129-0.888-0.237-1.42l-0.148-0.316c-0.22-0.734-0.451-1.42-0.715-2.05c-0.26-0.629-0.501-1.316-0.706-2.053
		c-0.217-0.418-0.313-1.049-0.313-1.896C119.635,28.077,119.582,27.658,119.582,27.022z"/>
	<path fill="#FFFFFF" d="M149.865,0.523c0.105-0.102,0.209-0.158,0.311-0.158c0.844,0,1.477-0.101,1.897-0.313
		c0.953-0.322,1.737-0.371,2.367-0.158c0.315,0.101,0.839,0.158,1.582,0.158h4.414c1.464,0,2.859,0.101,4.182,0.313
		c1.311,0.211,2.703,0.423,4.184,0.63c0.522,0,1.074,0.056,1.656,0.157c0.575,0.108,1.132,0.211,1.656,0.314
		c0.525,0.106,1.052,0.187,1.58,0.236c0.525,0.052,1.046,0.135,1.576,0.235c0.956,0.215,1.682,0.266,2.21,0.158
		c0.526,0,1.207,0.101,2.053,0.315c0.629,0,1.267,0.027,1.89,0.079c0.637,0.053,1.266,0.136,1.895,0.235h0.162
		c0.838-0.099,1.604-0.159,2.286-0.159c0.676,0,1.443,0,2.287,0h2.519c0.526,0,1,0.033,1.422,0.081
		c0.422,0.05,0.893,0.024,1.421-0.081c0.737-0.097,1.448-0.097,2.131,0c0.686,0.105,1.338,0.264,1.97,0.474
		c0.533,0.105,1.078,0.216,1.657,0.314c0.577,0.108,1.128,0.266,1.656,0.478c0.102,0,0.186,0.023,0.235,0.076
		c0.054,0.051,0.133,0.075,0.238,0.075c0.523,0.215,0.992,0.501,1.419,0.867c0.422,0.372,0.891,0.501,1.419,0.393
		c0.104,0.422,0.025,0.687-0.232,0.791c-0.265,0.106-0.501,0.26-0.71,0.471c0,0.321,0.134,0.556,0.394,0.712
		c0.26,0.158,0.499,0.342,0.709,0.551c0.21,0,0.445,0.03,0.711,0.079c0.256,0.054,0.498,0.077,0.71,0.077
		c0.525-0.211,0.994-0.105,1.421,0.315c0.208,0,0.368,0.05,0.472,0.158c0.212,0.101,0.393,0.158,0.556,0.158
		c0.156,0,0.343,0.048,0.547,0.154c0.318,0.208,0.475,0.576,0.475,1.102c0,0.106,0.157,0.316,0.476,0.629
		c-0.21,0.532-0.287,0.845-0.239,0.949c0.056,0.102,0.346,0.376,0.868,0.79c-0.101,0.63-0.417,1.001-0.944,1.111
		c-0.21,0-0.422,0.021-0.635,0.072c-0.204,0.053-0.417,0.078-0.626,0.078c-0.844,0.422-0.945,0.951-0.318,1.579
		c0.212,0.212,0.318,0.632,0.318,1.266c0,0.417,0,0.816,0,1.183c0,0.365,0.209,0.658,0.626,0.868
		c0.109,0.734-0.204,1.367-0.944,1.892c-0.313,0.211-0.604,0.417-0.869,0.632c-0.267,0.214-0.552,0.373-0.868,0.474
		c-0.315,0-0.474,0.264-0.474,0.788c0,0.527-0.313,1-0.945,1.42c-0.318,0.315-0.634,0.373-0.949,0.159
		c-0.313-0.212-0.578-0.212-0.787,0c-0.108,0.105-0.267,0.156-0.472,0.156c-0.528,0.107-1.026,0.211-1.501,0.313
		c-0.479,0.109-0.976,0.057-1.504-0.154c-0.521-0.21-0.945-0.21-1.264,0c-0.528,0.422-0.893,0.263-1.107-0.474
		c-0.102,0.105-0.178,0.159-0.233,0.159c-0.049,0-0.132,0.054-0.233,0.156c-0.632,0.63-1.268,0.687-1.897,0.159
		c-0.315-0.315-0.631-0.375-0.947-0.159c-0.313,0.107-0.73,0-1.258-0.315c-0.425-0.212-0.74-0.312-0.95-0.312
		c-0.422-0.106-0.795-0.214-1.107-0.321c-0.316-0.1-0.632-0.1-0.948,0c-0.104,0-0.157-0.052-0.157-0.159
		c-0.313-0.315-0.684-0.498-1.104-0.551c-0.427-0.05-0.792-0.178-1.105-0.389c-0.217,0-0.372-0.054-0.474-0.158
		c-0.214-0.317-0.688-0.578-1.423-0.792c-0.102-0.208-0.102-0.393,0-0.552c0.104-0.154,0-0.34-0.316-0.548
		c-0.108,0.106-0.157,0.186-0.157,0.236c0,0.048-0.055,0.131-0.156,0.231c-0.424,0.417-0.792,0.417-1.103,0
		c-0.108-0.213-0.425-0.477-0.952-0.791c-1.052-0.206-1.471,0.158-1.259,1.106c0.102,0.217,0.15,0.396,0.15,0.552
		c0,0.158,0.055,0.337,0.156,0.546c0.108,0.219,0.24,0.398,0.398,0.556c0.156,0.158,0.341,0.345,0.546,0.552
		c0.323,0.313,0.373,0.733,0.158,1.259c-0.099,0.422,0.057,0.691,0.479,0.795c0.414,0.101,0.684,0.368,0.787,0.79
		c0.104,0.316,0.158,0.603,0.158,0.864c0,0.263,0.054,0.501,0.16,0.714c0,0.207,0.054,0.365,0.158,0.474
		c0.099,0.098,0.264,0.259,0.474,0.47c-0.106,0.316-0.155,0.657-0.155,1.022s-0.109,0.767-0.318,1.185v0.316
		c0.209,0.211,0.264,0.447,0.155,0.704c-0.102,0.266-0.155,0.505-0.155,0.715c0,0.42-0.218,1.048-0.632,1.889
		c-0.106,0.532-0.265,1.209-0.474,2.053c-0.106,0.215-0.158,0.422-0.158,0.629c0,0.213-0.057,0.425-0.155,0.637
		c-0.217,0.316-0.323,0.84-0.323,1.574v0.947c-0.316,0.841-0.37,1.686-0.158,2.522c0,0.422-0.049,0.687-0.158,0.794
		c-0.209,0.313-0.312,0.601-0.312,0.867c0,0.261-0.055,0.546-0.158,0.865c0,0.529-0.108,1.207-0.315,2.053
		c-0.313,1.055-0.425,2.048-0.313,2.992c0.101,0.527,0.204,1.109,0.313,1.737c0.104,0.637,0.207,1.208,0.315,1.738
		c0.104,0.531,0.262,1.051,0.471,1.578c0.218,0.529,0.218,1.053,0,1.579c0,0.104,0.06,0.159,0.158,0.159
		c0.323,0.734,0.215,1.421-0.313,2.052c0.417,0.528,0.528,1.049,0.313,1.579c0,0.207,0.104,0.417,0.323,0.628
		c0.207,0.106,0.313,0.422,0.313,0.946c-0.212,0.529-0.212,0.949,0,1.265v0.317c-0.106,0.527-0.184,0.97-0.235,1.338
		c-0.056,0.371-0.137,0.817-0.238,1.344v0.312c0.21,0.528,0.264,0.974,0.158,1.34c-0.104,0.371-0.208,0.818-0.313,1.336
		c-0.106,0.422-0.215,0.845-0.316,1.266c-0.105,0.422-0.214,0.843-0.323,1.265c-0.101,0.314-0.15,0.604-0.15,0.869
		c0,0.263-0.054,0.544-0.162,0.863c-0.102,0.531-0.156,1.051-0.156,1.577c0,0.529-0.104,1.059-0.315,1.583
		c-0.215,0.63-0.269,1.158-0.153,1.578c0.208,0.525,0.208,1.052,0,1.578c-0.115,0.315-0.188,0.631-0.241,0.946
		c-0.047,0.323-0.186,0.579-0.39,0.792c-0.318,0-0.318,0.158,0,0.473c0.104,0.736,0.13,1.425,0.081,2.053
		c-0.06,0.63-0.136,1.319-0.239,2.053c-0.106,0.212-0.132,0.447-0.077,0.71c0.051,0.264,0.025,0.548-0.078,0.864
		c0,0.424-0.106,1.051-0.318,1.895c-0.104,0.527-0.182,1.079-0.232,1.655c-0.061,0.577-0.029,1.132,0.079,1.657
		c0,0.841-0.06,1.63-0.16,2.364c-0.106,0.734-0.373,1.469-0.79,2.207c-0.422,1.051-0.792,1.789-1.103,2.209
		c-0.217,0.527-0.217,0.893,0,1.104c0.207,0.211,0.337,0.394,0.389,0.551c0.053,0.154,0.132,0.347,0.235,0.549
		c-0.21,0.217-0.419,0.323-0.632,0.323c-0.212,0-0.315,0.102-0.315,0.315c-0.207,0.631-0.315,0.998-0.315,1.102
		c-0.632-0.101-1.261-0.101-1.896,0c-0.626,0.107-1.209,0.158-1.739,0.158c-0.728,0-1.419-0.029-2.048-0.076
		c-0.632-0.051-1.263-0.082-1.893-0.082c-0.105,0-0.215,0.058-0.323,0.158c-0.525,0.214-0.973,0.271-1.333,0.158
		c-0.377-0.102-0.818-0.207-1.344-0.316l-0.629-0.314h-0.472c-0.215,0.211-0.396,0.291-0.554,0.235
		c-0.158-0.057-0.342-0.129-0.552-0.235c-0.424,0-0.688-0.157-0.792-0.473c-0.215-0.314-0.215-0.787,0-1.422
		c0.208-0.631,0.316-1.046,0.316-1.264c0-0.735-0.078-1.442-0.234-2.13c-0.158-0.686-0.294-1.394-0.392-2.124
		c0-0.213-0.033-0.477-0.081-0.792c-0.053-0.316-0.073-0.575-0.073-0.793v-0.315c0-0.315-0.062-0.631-0.16-0.946
		c-0.108-0.317-0.108-0.683,0-1.104c0-0.318-0.027-0.662-0.079-1.027c-0.047-0.365-0.079-0.71-0.079-1.024
		c0-0.528-0.026-0.973-0.076-1.342c-0.052-0.369-0.071-0.812-0.071-1.338c0-0.211-0.035-0.369-0.079-0.476
		c-0.057-0.103-0.079-0.208-0.079-0.316v-0.316c0.103-0.735,0.079-1.445-0.079-2.127c-0.155-0.681-0.184-1.398-0.079-2.13
		c0.107-0.947,0.158-1.871,0.158-2.761c0-0.889,0-1.757,0-2.601c0.206-2.318,0.16-4.362-0.158-6.152v-0.637
		c0.318-1.367,0.373-2.939,0.158-4.729c-0.103-0.524-0.158-0.998-0.158-1.42c0-0.417,0-0.898,0-1.429v-1.415
		c-0.104-0.525-0.157-1.052-0.157-1.579c0-0.525,0-1.052,0-1.578c0-0.215-0.027-0.373-0.077-0.479
		c-0.052-0.1-0.073-0.258-0.073-0.473c0.101-0.524,0.159-1.042,0.159-1.578c0-0.525,0-1.048,0-1.579v-2.676
		c0.096-0.736,0.124-1.449,0.07-2.131c-0.05-0.685-0.026-1.395,0.078-2.131v-0.949c0.107-0.211,0.158-0.417,0.158-0.628
		c-0.103-0.528-0.103-0.976,0-1.334c0.103-0.372,0.206-0.766,0.315-1.188c0.213-0.946,0.419-1.867,0.636-2.76
		c0.207-0.895,0.317-1.865,0.317-2.921c0-0.414,0.024-0.813,0.074-1.181c0.054-0.368,0.132-0.816,0.234-1.339
		c0.108-0.527,0.185-0.972,0.236-1.339c0.05-0.369,0.132-0.812,0.238-1.341c0.211-0.523,0.422-1.312,0.635-2.368
		c0.205-0.63,0.368-1.233,0.471-1.809c0.104-0.577,0.213-1.132,0.314-1.659c0.106-0.525,0.185-1.027,0.241-1.503
		c0.048-0.472,0.074-0.969,0.074-1.492l0.473-2.367l0.475-1.895c0-0.527,0.079-0.974,0.237-1.339
		c0.153-0.373,0.338-0.767,0.553-1.185c0.1-0.211,0.156-0.389,0.156-0.547c0-0.158,0.054-0.346,0.153-0.557
		c0.212-0.628,0.42-1.046,0.633-1.261c0.636-1.153,0.315-1.895-0.951-2.207c-0.426,0-0.943-0.101-1.575-0.314
		c-0.319-0.216-0.607-0.371-0.866-0.48c-0.264-0.1-0.554-0.258-0.867-0.471c-0.215-0.1-0.469-0.206-0.791-0.316
		c-0.315-0.101-0.631-0.211-0.947-0.313c-0.53-0.211-1.049-0.34-1.576-0.392c-0.536-0.054-1.053-0.189-1.578-0.394
		c-0.53-0.209-1.032-0.417-1.501-0.631c-0.472-0.211-0.921-0.571-1.342-1.104c-0.214-0.315-0.472-0.471-0.787-0.471
		c-0.214,0-0.344-0.025-0.394-0.078c-0.062-0.057-0.137-0.079-0.237-0.079c-0.528-0.422-1-0.76-1.424-1.025
		c-0.413-0.263-0.786-0.657-1.101-1.185c-0.111,0-0.187-0.026-0.238-0.075c-0.047-0.053-0.128-0.076-0.23-0.076l-0.453-0.461
		c-0.209-0.422-0.447-0.737-0.704-0.95c-0.264-0.214-0.507-0.476-0.717-0.791c-0.207-0.211-0.342-0.369-0.391-0.472
		C149.888,1.053,149.865,0.841,149.865,0.523z"/>
	<path fill="#FFFFFF" d="M230.936,3.993c0.629,0.422,1.424,0.422,2.366,0c0.215-0.1,0.479-0.1,0.792,0
		c0.21,0.108,0.525,0.158,0.947,0.158c0.21,0,0.285-0.048,0.236-0.158c-0.056-0.1,0.028-0.048,0.237,0.158
		c0.312,0.107,0.6-0.02,0.866-0.388c0.264-0.37,0.499-0.447,0.711-0.234c0.102,0.101,0.287,0.079,0.551-0.078
		c0.256-0.158,0.395-0.187,0.395-0.079c0.525,0.528,0.814,0.55,0.868,0.079c0.056-0.48,0.343-0.869,0.863-1.184
		c0.323-0.212,0.687-0.184,1.11,0.076c0.42,0.265,0.789,0.292,1.101,0.078c0.528-0.206,1.03-0.443,1.501-0.706
		c0.474-0.258,0.968-0.503,1.502-0.709c0.204-0.101,0.412-0.207,0.626-0.315c0.208-0.104,0.415-0.156,0.631-0.156
		c0.317-0.105,0.605-0.207,0.87-0.314c0.264-0.106,0.55-0.216,0.864-0.321l0.159-0.158c0.528-0.1,1.047-0.206,1.58-0.313
		c0.521-0.099,1.044-0.207,1.579-0.316c0.525-0.099,1.05-0.182,1.577-0.235c0.529-0.051,1.052-0.08,1.581-0.08
		c0.631,0,1.366,0.109,2.208,0.314c1.048,0.218,1.783,0.48,2.209,0.794c0,0.11-0.033,0.187-0.075,0.233
		c-0.062,0.053-0.079,0.133-0.079,0.231c0,0.951-0.314,1.583-0.953,1.899c-0.209,0.11-0.392,0.233-0.547,0.389
		c-0.158,0.158-0.396,0.294-0.714,0.393c-0.311,0.109-0.368,0.473-0.155,1.11v0.152v0.163c-0.209,0.1-0.395,0.187-0.553,0.234
		c-0.157,0.053-0.345,0.189-0.55,0.389c-0.111,0.215-0.155,0.629-0.155,1.266c0,0.422-0.158,0.687-0.474,0.788
		c-0.632,0.317-1.114,0.843-1.425,1.579c0,0.317-0.101,0.474-0.318,0.474c-0.312,0.216-0.578,0.421-0.786,0.63
		c-0.216,0.215-0.426,0.422-0.634,0.633c-0.846,1.155-1.842,2-2.993,2.521c-0.104,0-0.158,0.029-0.158,0.079
		c0,0.048-0.054,0.078-0.155,0.078c-0.632,0-1.236,0.185-1.815,0.551c-0.574,0.373-1.133,0.658-1.658,0.867
		c-0.415,0.108-0.79,0.209-1.105,0.313c-0.311,0.11-0.681,0.217-1.101,0.317c-0.422,0-0.737,0.056-0.95,0.158
		c-0.212,0-0.417,0.104-0.634,0.314c-0.311,0.313-0.686,0.369-1.101,0.158c-0.318-0.318-0.577-0.211-0.794,0.313
		c-0.523,0.737-0.733,1.37-0.632,1.897v0.63c-0.313,0.632-0.365,1.312-0.155,2.052c0.104,0.313,0.054,0.605-0.158,0.869
		c-0.21,0.258-0.264,0.548-0.148,0.865c0,0.1-0.033,0.208-0.08,0.316c-0.057,0.101-0.077,0.212-0.077,0.313
		c0.099,1.157,0.099,2.259,0,3.314v0.313c0.099,0.845,0.157,1.631,0.157,2.369c0,0.729,0.053,1.522,0.158,2.367
		c0,0.104-0.032,0.21-0.078,0.316c-0.059,0.104-0.077,0.208-0.077,0.314c0,0.212,0.026,0.45,0.077,0.709
		c0.05,0.264,0.078,0.501,0.078,0.71c0.099,0.105,0.158,0.263,0.158,0.471c-0.111,0.422-0.158,1.16-0.158,2.21
		c0.316,0.637,0.472,1.208,0.472,1.738c-0.104,0.211-0.134,0.473-0.079,0.79c0.048,0.32-0.027,0.578-0.237,0.792
		c0.104,0.528,0.057,1.051-0.157,1.579c-0.213,0.527-0.213,1.049,0,1.576c0.104,0.529,0.37,0.79,0.789,0.79
		c0.212-0.104,0.393-0.158,0.553-0.158c0.158,0,0.341-0.102,0.553-0.316c0.21-0.101,0.391-0.158,0.554-0.158
		c0.159,0,0.34-0.05,0.552-0.158c0.21,0,0.313-0.051,0.313-0.159c0.21-0.312,0.522-0.471,0.954-0.471c0.41,0,0.73-0.1,0.94-0.316
		c0.528,0,0.947-0.079,1.269-0.235c0.318-0.158,0.73-0.286,1.261-0.393c0.629,0,1.054-0.101,1.268-0.313
		c0.415-0.211,0.81-0.318,1.18-0.318c0.366,0,0.711-0.104,1.029-0.313l0.155-0.158l3.311-0.472c0.422-0.103,0.785-0.211,1.105-0.317
		c0.313-0.1,0.684-0.206,1.105-0.316c0.417-0.102,0.834-0.26,1.266-0.471c0.417-0.214,0.886-0.214,1.419,0h0.632
		c0.525-0.104,1.026-0.187,1.5-0.236c0.473-0.05,0.975-0.08,1.5-0.08c0.732-0.206,1.421-0.155,2.051,0.158
		c0.209,0,0.393-0.029,0.551-0.079c0.158-0.05,0.345-0.024,0.555,0.079c0.312,0,0.626,0.058,0.952,0.162
		c-0.218,0.206-0.373,0.417-0.481,0.628c-0.104,0.211-0.21,0.419-0.318,0.63c-0.212,0.316-0.444,0.63-0.708,0.945
		c-0.266,0.317-0.501,0.691-0.708,1.105c-0.217,0.736-0.686,1.11-1.416,1.11c-0.323,0.1-0.58,0.366-0.8,0.79v0.316
		c0,0.629-0.054,1.154-0.155,1.578c-0.21,0.213-0.422,0.419-0.632,0.629c-0.212,0.213-0.525,0.371-0.944,0.472l-0.168,0.154
		c0,0.217-0.035,0.376-0.078,0.473c-0.062,0.108-0.075,0.27-0.075,0.479c-0.322,0.316-0.477,0.581-0.477,0.785
		c0,0.214-0.058,0.374-0.16,0.48c-0.21,0.209-0.236,0.387-0.075,0.547c0.155,0.153,0.127,0.345-0.078,0.556
		c-0.424,0.206-0.737,0.417-0.957,0.63v0.313c-0.208,0.21-0.365,0.386-0.47,0.547c-0.106,0.159-0.266,0.239-0.473,0.239
		c-0.53,0.212-1.106,0.736-1.738,1.578c-0.946,0-1.787,0.575-2.518,1.734c-0.528,0-0.894,0.059-1.108,0.159
		c-0.104,0.101-0.185,0.236-0.235,0.394c-0.049,0.158-0.132,0.238-0.233,0.238c-0.532,0.214-0.947,0.446-1.266,0.706
		c-0.315,0.265-0.735,0.503-1.266,0.713c-0.209,0.207-0.394,0.289-0.55,0.232c-0.159-0.056-0.291-0.03-0.396,0.08
		c-0.312,0.213-0.734,0.311-1.263,0.311h-0.945c-0.525-0.099-1.026-0.13-1.5-0.079c-0.474,0.057-0.979,0.079-1.497,0.079h-0.479
		c-0.213,0.316-0.448,0.474-0.71,0.474c-0.263,0-0.502,0.106-0.709,0.312c-0.215,0.215-0.448,0.354-0.711,0.394
		c-0.264,0.058-0.501,0.186-0.711,0.393c-0.312,0.215-0.574,0.503-0.786,0.868c-0.213,0.371-0.213,0.657,0,0.863
		c0.209,0.216,0.289,0.396,0.237,0.553c-0.053,0.158-0.075,0.344-0.075,0.553c-0.108,0.314-0.162,0.787-0.162,1.421
		c0,0.211,0.025,0.342,0.078,0.392c0.054,0.052,0.027,0.185-0.078,0.394c-0.321,0-0.321,0.154,0,0.469
		c0.209,0.317,0.289,0.63,0.237,0.944c-0.053,0.314-0.028,0.63,0.08,0.951c-0.217,0.211-0.269,0.395-0.162,0.553
		c0.101,0.155,0.209,0.343,0.318,0.548c0.209,0.416,0.312,0.996,0.312,1.738c0,0.315,0.03,0.658,0.079,1.021
		c0.054,0.374,0.077,0.71,0.077,1.027c0.209,0.207,0.267,0.369,0.157,0.471c-0.207,0.316-0.207,0.579,0,0.791
		c0.109,1.051,0.187,2.048,0.236,2.993c0.049,0.947,0.188,1.946,0.393,2.998c0,0.422,0.053,0.689,0.161,0.787
		c0.101,0.107,0.155,0.376,0.155,0.793c-0.106,0.425-0.132,0.71-0.079,0.865c0.056,0.158,0.131,0.502,0.237,1.026
		c0.108,0.422,0.209,0.794,0.32,1.107c0.102,0.316,0.153,0.688,0.153,1.103c0.105,0.215,0.157,0.451,0.157,0.709
		c0,0.266,0.097,0.501,0.316,0.71c0.212,0.421,0.37,0.812,0.471,1.178c0.106,0.376,0.265,0.766,0.475,1.188
		c0.102,0.215,0.132,0.369,0.078,0.472c-0.057,0.105,0.027,0.263,0.239,0.473l0.313,0.63c0.101,0.316,0.261,0.893,0.471,1.738
		c0.315,0.314,0.577,0.529,0.795,0.632c0.1,0,0.229,0.055,0.391,0.155c0.16,0.107,0.342,0.058,0.554-0.155
		c0-0.103,0.095-0.158,0.316-0.158c0.521,0.213,0.993,0.234,1.415,0.077c0.426-0.158,0.893-0.286,1.427-0.387
		c2.104-0.214,4.099-0.527,5.99-0.951c0.526-0.102,1.025-0.185,1.499-0.237c0.474-0.045,0.975-0.125,1.503-0.229
		c0.522-0.105,0.991-0.239,1.416-0.393c0.422-0.159,0.895-0.291,1.425-0.393c0.206,0,0.313-0.107,0.313-0.319
		c0.21-0.208,0.423-0.368,0.633-0.474c0.21-0.103,0.479-0.21,0.794-0.316c0,0.527-0.059,0.789-0.159,0.789
		c-0.213,0.107-0.425,0.375-0.635,0.792c-0.21,0.424-0.446,0.788-0.711,1.104c-0.257,0.319-0.493,0.688-0.704,1.111
		c-0.104,0.204-0.235,0.283-0.394,0.23c-0.158-0.053-0.289,0.03-0.393,0.234c-0.317,0.533-0.686,0.92-1.11,1.183
		c-0.418,0.264-0.787,0.608-1.102,1.028c-0.422,0.415-0.634,0.786-0.634,1.102c0,0.422-0.155,0.687-0.473,0.792
		c-0.419,0.107-0.788,0.422-1.101,0.947c-0.427,0.422-0.735,0.687-0.949,0.788c-0.109,0-0.377,0.219-0.795,0.63
		c-0.211,0.219-0.528,0.639-0.946,1.266c-0.526-0.101-0.974,0.029-1.336,0.393c-0.378,0.374-0.763,0.71-1.185,1.025
		c-0.424,0.422-1.051,0.736-1.895,0.952c-0.214,0.101-0.393,0.159-0.558,0.159c-0.158,0-0.343,0.106-0.548,0.314
		c-0.207,0.211-0.627,0.312-1.261,0.312c-0.318,0.111-0.608,0.158-0.868,0.158c-0.265,0-0.504,0.11-0.706,0.322h-0.481
		c-0.414-0.107-0.787-0.134-1.103-0.079c-0.313,0.052-0.687,0.079-1.105,0.079c-0.21,0-0.448-0.054-0.706-0.164
		c-0.265-0.101-0.503-0.205-0.715-0.316c-0.629-0.312-1.259-0.521-1.888-0.627c-0.632-0.104-1.269-0.263-1.897-0.474
		c-0.212-0.104-0.367-0.157-0.481-0.157c-0.099,0-0.254-0.059-0.469-0.156c-0.212-0.1-0.37-0.211-0.471-0.315
		c-0.106-0.106-0.21-0.158-0.316-0.158c-0.212,0-0.372-0.059-0.471-0.157c-0.108-0.107-0.269-0.156-0.477-0.156
		c-0.632-0.109-1.103-0.422-1.421-0.955c-0.315-0.52-0.691-0.943-1.103-1.266c-0.215-0.729-0.58-1.333-1.11-1.812
		c-0.525-0.471-0.896-1.073-1.105-1.813c-0.104-0.211-0.233-0.443-0.392-0.705c-0.156-0.265-0.342-0.501-0.551-0.716
		c-0.106-0.206-0.136-0.44-0.079-0.705c0.054-0.262-0.027-0.504-0.237-0.711c-0.315-0.206-0.579-0.628-0.787-1.261
		c-0.108-0.214-0.132-0.478-0.079-0.79c0.051-0.321,0.027-0.577-0.078-0.793c0-0.417-0.106-0.575-0.313-0.469l-0.158-0.159
		l-0.474-1.897c-0.212-0.63-0.32-1.047-0.32-1.263c-0.102-0.206-0.13-0.393-0.077-0.551c0.055-0.158-0.029-0.341-0.239-0.554
		c-0.102,0-0.158-0.048-0.158-0.158c0.102-0.518,0.057-1.101-0.155-1.738c-0.212-0.63-0.37-1.199-0.474-1.738
		c0-1.468-0.212-2.624-0.629-3.47c-0.108-0.521-0.158-0.966-0.158-1.338c0-0.366-0.059-0.812-0.158-1.34
		c-0.108-0.314-0.157-0.628-0.157-0.945c0-0.313-0.108-0.686-0.318-1.11c-0.313-0.316-0.313-0.628,0-0.944v-0.158v-3.156
		c0-0.416-0.026-0.809-0.074-1.18c-0.057-0.369,0.022-0.757,0.232-1.185v-0.152c-0.104-0.632-0.158-1.233-0.158-1.811
		c0-0.579,0-1.129,0-1.657v-1.893c0-0.421-0.026-0.797-0.074-1.105c-0.057-0.319-0.079-0.635-0.079-0.949
		c0-0.316,0.059-0.527,0.158-0.628c0.102-0.315,0.058-0.58-0.158-0.791v-0.158v-0.315c0.216-0.21,0.26-0.477,0.158-0.79
		c-0.1-0.316-0.158-0.639-0.158-0.954c0-0.52-0.057-1.023-0.16-1.494c-0.096-0.475-0.055-0.973,0.16-1.5
		c0.102-0.525,0.158-0.968,0.158-1.34c0-0.367,0-0.763,0-1.179c0.215-0.213,0.259-0.419,0.158-0.634
		c-0.101-0.209-0.158-0.417-0.158-0.63c0.102-0.319,0.131-0.654,0.079-1.027c-0.057-0.369,0.022-0.759,0.234-1.179
		c0.101,0,0.155-0.158,0.155-0.475c0-0.211-0.025-0.471-0.078-0.785c-0.058-0.323-0.028-0.579,0.078-0.794
		c0.102-0.206,0.16-0.473,0.16-0.791c0-0.631,0.05-1.046,0.158-1.262c0.205-0.526,0.313-1.103,0.313-1.737
		c0-0.632,0.104-1.203,0.315-1.737v-0.474v-0.471c0.207-0.42,0.29-0.869,0.238-1.339c-0.058-0.48-0.028-0.973,0.078-1.503
		c0.209-0.632,0.416-1.237,0.631-1.813c0.21-0.579,0.417-1.179,0.63-1.815c0.108-0.1,0.155-0.314,0.155-0.631
		c-0.102-0.313-0.102-0.628,0-0.942c0.111-0.318,0.209-0.633,0.315-0.954c0-0.312,0.057-0.628,0.163-0.946
		c0.104-0.313,0.207-0.578,0.318-0.792c0-0.316,0.078-0.571,0.229-0.787c0.156-0.215,0.185-0.471,0.084-0.791
		c-0.114-0.212-0.114-0.471,0-0.786c0.101-0.319,0.155-0.581,0.155-0.791c0.096-0.206,0.21-0.449,0.313-0.71
		c0.104-0.262,0.16-0.499,0.16-0.705c0.099-0.211,0.131-0.423,0.074-0.633c-0.054-0.211-0.03-0.418,0.084-0.629
		c0.209-0.419,0.367-0.821,0.466-1.186c0.106-0.369,0.106-0.816,0-1.337c0.422-0.529,0.605-1.109,0.553-1.738
		c-0.052-0.631,0.032-1.208,0.239-1.738c0.205-0.417,0.316-0.786,0.316-1.101c0.204-0.841,0.414-1.709,0.629-2.606
		c0.212-0.894,0.417-1.757,0.629-2.603c0.102-0.101,0.158-0.314,0.158-0.628c0.21-0.843,0.415-1.476,0.634-1.897
		c0.205-0.528,0.337-0.658,0.39-0.394c0.05,0.267,0.131,0.134,0.237-0.393c0-0.205-0.059-0.232-0.155-0.07
		c-0.108,0.15-0.219,0.129-0.316-0.085c0-0.21,0.078-0.365,0.237-0.473c0.159-0.101,0.179-0.256,0.079-0.472
		C230.625,4.366,230.724,4.103,230.936,3.993z"/>
</g>
<g>
	<path fill="#FFFFFF" d="M119.461-16.715c0.192,0.023,0.326,0.032,0.402,0.037c0.078,0,0.146,0.001,0.214,0.001
		c0.321,0,0.57-0.074,0.743-0.239c0.164-0.156,0.249-0.472,0.249-0.928v-14.043h3.346v14.099c0,1.292-0.259,2.246-0.765,2.861
		c-0.512,0.625-1.505,0.93-2.985,0.93c-0.108,0-0.258-0.007-0.457-0.015c-0.198-0.005-0.444-0.014-0.745-0.027L119.461-16.715
		L119.461-16.715z M124.417-33.475h-3.346v-3.088h3.346V-33.475z"/>
	<path fill="#FFFFFF" d="M130.929-31.947v7.707c0,0.725,0.083,1.274,0.254,1.639c0.303,0.65,0.898,0.971,1.785,0.971
		c1.137,0,1.908-0.457,2.338-1.38c0.22-0.504,0.327-1.16,0.327-1.979v-6.957h3.388v12.786h-3.246v-1.807
		c-0.029,0.04-0.108,0.158-0.23,0.354c-0.13,0.193-0.275,0.366-0.445,0.515c-0.528,0.474-1.026,0.796-1.514,0.966
		c-0.495,0.171-1.06,0.258-1.719,0.258c-1.885,0-3.155-0.685-3.81-2.046c-0.366-0.747-0.548-1.857-0.548-3.32v-7.702h3.42V-31.947
		L130.929-31.947z"/>
	<path fill="#FFFFFF" d="M144.866-23.245c0.067,0.596,0.226,1.016,0.461,1.266c0.41,0.446,1.181,0.671,2.306,0.671
		c0.662,0,1.185-0.093,1.581-0.292c0.389-0.195,0.582-0.486,0.582-0.88c0-0.38-0.159-0.658-0.474-0.853
		c-0.313-0.194-1.479-0.532-3.5-1.008c-1.447-0.356-2.478-0.808-3.073-1.349c-0.593-0.531-0.888-1.297-0.888-2.3
		c0-1.18,0.471-2.196,1.393-3.045c0.93-0.846,2.236-1.269,3.921-1.269c1.596,0,2.899,0.313,3.91,0.956
		c1.002,0.636,1.584,1.738,1.734,3.3h-3.343c-0.046-0.428-0.173-0.772-0.373-1.023c-0.363-0.451-0.99-0.681-1.882-0.681
		c-0.729,0-1.249,0.111-1.558,0.345c-0.311,0.226-0.466,0.493-0.466,0.793c0,0.388,0.165,0.659,0.501,0.833
		c0.33,0.183,1.49,0.49,3.483,0.934c1.337,0.308,2.334,0.786,2.999,1.415c0.657,0.643,0.985,1.447,0.985,2.404
		c0,1.264-0.477,2.303-1.418,3.104c-0.941,0.802-2.401,1.203-4.376,1.203c-2.02,0-3.505-0.422-4.465-1.274
		c-0.956-0.85-1.434-1.931-1.434-3.245L144.866-23.245L144.866-23.245z"/>
	<path fill="#FFFFFF" d="M154.321-29.447v-2.381h1.779v-3.565h3.307v3.565h2.079v2.381h-2.079v6.759
		c0,0.521,0.071,0.849,0.207,0.976c0.127,0.133,0.533,0.198,1.212,0.198c0.101,0,0.209-0.004,0.323-0.008
		c0.117-0.003,0.229-0.011,0.342-0.019v2.502l-1.591,0.064c-1.576,0.057-2.657-0.222-3.237-0.824
		c-0.375-0.385-0.56-0.977-0.56-1.774v-7.869h-1.781L154.321-29.447L154.321-29.447z"/>
</g>
</svg>
