<?xml version="1.0" encoding="utf-8"?>
<!-- Generator: Adobe Illustrator 15.0.2, SVG Export Plug-In . SVG Version: 6.00 Build 0)  -->
<!DOCTYPE svg PUBLIC "-//W3C//DTD SVG 1.1//EN" "http://www.w3.org/Graphics/SVG/1.1/DTD/svg11.dtd">
<svg version="1.1" id="Ebene_1" xmlns="http://www.w3.org/2000/svg" xmlns:xlink="http://www.w3.org/1999/xlink" x="0px" y="0px"
	 width="270.975px" height="231px" viewBox="0 16.75 270.975 231" enable-background="new 0 16.75 270.975 231"
	 xml:space="preserve">
<g>
	<g>
		<path fill="#F07F31" d="M136.77,216.517c47.91,0,86.742-38.831,86.742-86.74c0-47.899-38.831-86.734-86.742-86.734
			c-47.9,0-86.734,38.833-86.734,86.734C50.036,177.678,88.871,216.517,136.77,216.517"/>
	</g>
</g>
<g>
	<path fill="#FFFFFF" d="M34.673,137.997c0.266,0,0.485-0.043,0.662-0.134c0.087-0.175,0.193-0.328,0.328-0.46
		c0.131-0.134,0.11-0.33-0.066-0.597c-0.087,0.089-0.154,0.18-0.195,0.265c-0.047,0.091-0.156,0.224-0.33,0.405
		c-0.091-0.18-0.131-0.293-0.131-0.331c0-0.048-0.05-0.157-0.134-0.333c0.176-0.174,0.308-0.286,0.399-0.325
		c0.083-0.047,0.218-0.157,0.396-0.333H34.81v-0.923h-0.796c0,0.265-0.046,0.484-0.135,0.658c-0.085-0.083-0.131-0.219-0.131-0.394
		c-0.087-0.446-0.158-0.837-0.197-1.197c-0.045-0.353-0.023-0.749,0.066-1.195c0.178-0.529,0.197-1.061,0.064-1.589
		c-0.133-0.532-0.157-1.064-0.064-1.595c0-0.44-0.088-1.107-0.266-1.991c-0.087,0-0.135,0.022-0.135,0.066
		c0,0.049-0.045,0.063-0.132,0.063v-0.129c0.176-0.27,0.239-0.53,0.201-0.799c-0.052-0.265-0.067-0.53-0.067-0.794
		c-0.09-0.62-0.193-1.239-0.33-1.859c-0.133-0.616-0.155-1.28-0.066-1.991c0.088-0.177,0.047-0.44-0.132-0.793l0.265-0.133
		c0.179,0,0.352-0.136,0.537-0.399c0.083-0.352,0.395-0.532,0.924-0.532c-0.181,0.181-0.289,0.351-0.33,0.532
		c-0.045,0.178-0.156,0.354-0.332,0.528l-0.134,0.133h-0.266v0.797c0,0.53,0.266,0.702,0.798,0.53
		c0.443-0.178,0.666-0.485,0.666-0.933v-0.394c0.171-0.177,0.24-0.396,0.199-0.661c-0.047-0.271-0.111-0.488-0.199-0.667
		c-0.088-0.087-0.181-0.156-0.266-0.196c-0.088-0.044-0.178-0.112-0.266-0.202c0-0.352,0.309-0.44,0.927-0.265
		c-0.354-0.35-0.663-0.53-0.927-0.53c-0.532-0.083-0.797-0.44-0.797-1.057c0.091-0.176,0.135-0.394,0.135-0.665
		c-0.352,0.088-0.795,0.222-1.324,0.403c-0.089,0-0.138-0.05-0.138-0.135c0.179-0.354,0.198-0.708,0.066-1.07
		c-0.135-0.349-0.112-0.707,0.065-1.06v-0.396c-0.178-0.178-0.222-0.375-0.13-0.593c0.083-0.219,0.083-0.465,0-0.728
		c0-0.092,0.042-0.136,0.13-0.136c0.087,0,0.174-0.042,0.268-0.131c-0.354-0.264-0.488-0.576-0.396-0.926
		c0-0.529-0.05-0.93-0.135-1.196c-0.181-0.174-0.221-0.397-0.136-0.667c0.088-0.264,0.178-0.528,0.27-0.793v-0.662
		c-0.093-0.087-0.134-0.263-0.134-0.528c0-0.354-0.181-0.665-0.532-0.932c0.177-0.17,0.286-0.196,0.328-0.064
		c0.046,0.134,0.159,0.157,0.337,0.064h0.128c-0.177-0.17-0.242-0.396-0.196-0.66c0.045-0.271,0.021-0.485-0.067-0.666l0.263-1.062
		c-0.088,0-0.192,0.045-0.323,0.13c-0.137,0.089-0.202,0-0.202-0.263c0.089-0.088,0.157-0.177,0.202-0.268
		c0.04-0.084,0.104-0.176,0.194-0.264c0.087-0.266,0.087-0.537,0-0.8c-0.178-0.175-0.245-0.284-0.194-0.33
		c0.043-0.044,0.064-0.153,0.064-0.326c0.087-0.175,0.108-0.38,0.066-0.596c-0.049-0.221,0.021-0.419,0.197-0.594v-0.667
		c0-0.614,0.046-1.104,0.133-1.459l-0.537-0.266c0.354-0.444,0.533-0.909,0.533-1.395c0-0.484,0.042-0.95,0.135-1.396
		c0.178-0.351,0.133-0.528-0.135-0.528c-0.357-0.178-0.535-0.535-0.535-1.065h0.136c0.614,0,1.192-0.127,1.721-0.394
		c0.181-0.089,0.33-0.136,0.469-0.136c0.133,0,0.284-0.044,0.459-0.136c0.618-0.178,1.171-0.178,1.659,0
		c0.484,0.177,0.989,0.356,1.52,0.532c0.355,0.179,0.708,0.31,1.063,0.396c0.355,0.088,0.703,0.224,1.064,0.396
		c0.349,0.181,0.792,0.532,1.321,1.066c0.354,0.354,0.707,0.883,1.065,1.593c0.084,0.175,0.134,0.399,0.134,0.661
		c-0.087,0.797,0,1.725,0.264,2.785c0.084,0.091,0.084,0.182,0,0.264c-0.18,0.452,0,0.843,0.531,1.199
		c0.085,0,0.178,0.045,0.265,0.134c-0.181,0.175-0.22,0.395-0.131,0.664c0.087,0.261,0.131,0.528,0.131,0.792
		c0.087,0.27,0.178,0.468,0.266,0.597c0.085,0.134,0.175,0.29,0.265,0.465c0.087,0.173,0.134,0.327,0.134,0.463
		c0,0.131,0.043,0.289,0.134,0.464c0,0.177-0.046,0.314-0.134,0.399c-0.089,0.087-0.048,0.222,0.134,0.397
		c-0.089,0.353-0.089,0.667,0,0.93c0.085,0.266,0.177,0.582,0.265,0.926c0.087,0.18,0.109,0.314,0.067,0.4
		c-0.048,0.091-0.067,0.221-0.067,0.403c0,0.084-0.023,0.133-0.064,0.133c-0.051,0-0.066,0.044-0.066,0.133
		c0.179,0.177,0.219,0.375,0.137,0.591c-0.087,0.225-0.137,0.428-0.137,0.601c0.086,0.173,0.111,0.371,0.066,0.597
		c-0.051,0.22-0.023,0.42,0.064,0.588c0,0.088,0.02,0.186,0.067,0.267c0.044,0.088,0.066,0.181,0.066,0.266
		c0.087,0.182,0.175,0.376,0.265,0.597c0.086,0.221,0.044,0.42-0.134,0.593c0.088-0.086,0.18-0.135,0.269-0.135
		c0-0.35,0.044-0.573,0.133-0.661c0-0.177,0.135-0.311,0.397-0.399v0.533c-0.088,0.26-0.158,0.55-0.2,0.856
		c-0.047,0.315-0.109,0.596-0.197,0.86c-0.084,0.09,0.047,0.315,0.403,0.667c-0.181,0.18-0.264,0.377-0.264,0.594
		c0,0.222-0.179,0.42-0.536,0.596l0.671,0.662c-0.446,0.178-0.535,0.445-0.27,0.798c0.089,0.178,0.112,0.285,0.066,0.327
		c-0.048,0.045-0.066,0.16-0.066,0.33c-0.085,0.352,0.048,0.666,0.403,0.929c0-0.178,0.042-0.351,0.136-0.532l0.396,0.797
		c0,0.181-0.089,0.446-0.265,0.801c0.176,0,0.444,0.084,0.794,0.264c0.089,0.173,0.108,0.306,0.064,0.396
		c-0.047,0.087-0.021,0.22,0.065,0.396l0.399,0.794c0,0.179-0.044,0.292-0.134,0.331c-0.089,0.044-0.132,0.155-0.132,0.33
		c0,0.354,0.067,0.667,0.197,0.927c0.132,0.27,0.155,0.532,0.066,0.798c-0.178,0.18-0.134,0.353,0.131,0.528
		c0.269,0.264,0.376,0.53,0.33,0.798c-0.044,0.268-0.067,0.534-0.067,0.794v0.665c0,0.178,0.023,0.375,0.067,0.597
		c0.047,0.22,0.025,0.42-0.067,0.596c0,0.086-0.024,0.157-0.064,0.196c-0.047,0.046-0.064,0.109-0.064,0.194
		c-0.09,0.089-0.16,0.134-0.202,0.134c-0.04,0-0.106,0.044-0.195,0.129c0.088,0.089,0.178,0.134,0.265,0.134
		c0.356,0,0.577,0.115,0.667,0.33c0.087,0.225,0.04,0.421-0.133,0.597c-0.181,0.267-0.249,0.532-0.196,0.798
		c0.041,0.264,0.063,0.524,0.063,0.797l0.4,0.395c0.445-0.174,0.642-0.417,0.594-0.727c-0.045-0.309,0.025-0.592,0.201-0.86
		c-0.089,0.448-0.044,0.817,0.128,1.124c0.177,0.316,0.177,0.689,0,1.126v0.269c0.088,0.354,0,0.662-0.265,0.93
		c-0.085,0.089-0.264,0.312-0.527,0.662c0.265-0.087,0.527-0.133,0.792-0.133v0.929c-0.174-0.086-0.395-0.135-0.66-0.135
		c0,0.266,0.044,0.488,0.134,0.662c-0.353,0.181-0.488,0.446-0.396,0.8c0.086,0.179-0.134,0.396-0.663,0.662
		c0.174,0,0.264,0.089,0.264,0.264c0.35,0.18,0.445,0.485,0.266,0.93c-0.091,0.087-0.133,0.266-0.133,0.53c0,0.266,0,0.445,0,0.53
		c0,0.088-0.092,0.263-0.266,0.528c0.175-0.085,0.308-0.134,0.398-0.134c0.085,0,0.177-0.042,0.264-0.13h0.399
		c0.178,0.178,0.266,0.354,0.266,0.53c0,0.447,0,0.688,0,0.731c0,0.047,0.046,0.247,0.129,0.593c0,0.184-0.022,0.332-0.065,0.47
		c-0.045,0.134-0.063,0.29-0.063,0.464c0,0.351-0.091,0.578-0.265,0.661c0.081,0.09,0.134,0.18,0.134,0.265
		c0,0.088,0.042,0.181,0.132,0.271c-0.09,0.173-0.187,0.327-0.266,0.458c-0.091,0.134-0.052,0.29,0.134,0.467v0.131
		c-0.271,0.441-0.333,0.836-0.2,1.19c0.133,0.354,0.2,0.752,0.2,1.196c0,0.179,0,0.313,0,0.396c0,0.09,0.086,0.225,0.266,0.4h0.127
		h0.133c0.175-0.706,0.349-1.326,0.529-1.854c0.085-0.178,0.181-0.376,0.266-0.598c0.084-0.216,0.084-0.417,0-0.597l0.133-0.263
		c0.353-0.18,0.552-0.421,0.591-0.729c0.048-0.306,0.069-0.601,0.069-0.862c0.089-0.174,0.181-0.4,0.27-0.659
		c0.087-0.269,0.133-0.529,0.133-0.797c0.085-0.267,0.218-0.75,0.399-1.464c0.173-0.441,0.308-0.856,0.395-1.26
		c0.086-0.4,0.174-0.815,0.265-1.261c0.265-1.059,0.576-1.899,0.925-2.519c0.091-0.173,0.136-0.396,0.136-0.661
		c0-0.26,0.088-0.485,0.267-0.665l-0.133-0.266c0.266-0.265,0.399-0.439,0.399-0.53c0.35-0.441,0.573-0.925,0.665-1.46
		c0.087-0.176,0.106-0.331,0.064-0.46c-0.047-0.137-0.023-0.284,0.067-0.46c0.086-0.178,0.154-0.288,0.196-0.334
		c0.045-0.042,0.111-0.15,0.196-0.326c0.181-0.798,0.35-1.589,0.528-2.389c0.182-0.793,0.358-1.543,0.539-2.25
		c0.177-0.531,0.325-1.083,0.46-1.661c0.13-0.57,0.333-1.123,0.597-1.656c0.173-0.263,0.347-0.748,0.529-1.461
		c0-0.178,0.022-0.264,0.068-0.264c0.039,0,0.063-0.085,0.063-0.264c0.177-0.181,0.265-0.354,0.265-0.534
		c0-0.177,0.043-0.353,0.134-0.53c0.084-0.086,0.216-0.307,0.397-0.665c0.528-0.704,0.748-1.282,0.662-1.723v-0.268
		c0.443-0.439,0.666-1.016,0.666-1.727c0-0.171,0.044-0.288,0.13-0.331c0.086-0.04,0.177-0.153,0.266-0.33
		c0.083-0.44,0.196-0.819,0.326-1.124c0.134-0.309,0.157-0.688,0.065-1.129v-0.125c0.353-0.532,0.62-1.062,0.8-1.595
		c0.177-0.529,0.35-1.062,0.532-1.591c0.077-0.178,0.176-0.351,0.261-0.532c0.084-0.178,0.181-0.347,0.265-0.53
		c0.178-0.179,0.33-0.373,0.462-0.591c0.134-0.225,0.291-0.42,0.467-0.597l0.134-0.133c0.174-0.442,0.417-0.772,0.727-0.993
		c0.31-0.219,0.551-0.51,0.732-0.863c0.175-0.352,0.396-0.62,0.661-0.793c0.266-0.181,0.481-0.355,0.664-0.533
		c0.266-0.265,0.397-0.71,0.397-1.327c0.088,0,0.179-0.025,0.265-0.067c0.087-0.043,0.178-0.064,0.265-0.064
		c0,0.089,0.023,0.156,0.069,0.199c0.042,0.048,0.069,0.158,0.069,0.33c0.171-0.173,0.283-0.313,0.327-0.398
		c0.044-0.088,0.103-0.18,0.195-0.271c0-0.174-0.024-0.306-0.064-0.395c-0.052-0.086-0.065-0.215-0.065-0.397
		c0.175-0.173,0.282-0.31,0.332-0.399c0.043-0.083,0.151-0.177,0.326-0.266c-0.085-0.172-0.133-0.285-0.133-0.329
		c0-0.043-0.047-0.156-0.135-0.332l0.134-0.131c0.446-0.174,0.882-0.395,1.329-0.665c0.351-0.176,0.614-0.176,0.792,0
		c0.18,0.27,0.402,0.421,0.666,0.468c0.265,0.04,0.575,0.158,0.929,0.325c0.086,0.269,0.151,0.559,0.194,0.866
		c0.044,0.305,0.328,0.463,0.86,0.463c-0.085-0.177-0.131-0.488-0.131-0.929c0.443-0.271,0.837-0.354,1.194-0.271
		c0.083,0.091,0.265,0.135,0.531,0.135h0.528c-0.176,0.181-0.328,0.375-0.461,0.593c-0.133,0.224-0.287,0.424-0.462,0.593
		l0.794,0.404c0,0.172-0.024,0.324-0.067,0.458c-0.047,0.135-0.062,0.29-0.062,0.468c-0.18,0.529,0,0.793,0.532,0.793
		c0,0.178-0.025,0.331-0.067,0.463c-0.05,0.132-0.065,0.291-0.065,0.461c-0.092,0-0.135,0.05-0.135,0.135
		c0.174,0.353,0.087,0.711-0.264,1.065c-0.181,0.178-0.29,0.371-0.333,0.595c-0.049,0.215-0.156,0.422-0.33,0.594
		c-0.355,0.444-0.53,1.018-0.53,1.724c0,0.265-0.024,0.509-0.067,0.729c-0.047,0.218-0.114,0.465-0.199,0.731
		c-0.086,0.087-0.134,0.176-0.134,0.263c-0.087,0.445-0.156,0.908-0.195,1.391c-0.045,0.485-0.153,0.956-0.33,1.393
		c0,0.181-0.085,0.445-0.266,0.797c-0.174,0.354-0.352,0.618-0.529,0.8c-0.084-0.088-0.263-0.141-0.528-0.141
		c-0.267,0.269-0.486,0.579-0.664,0.931l-0.264,0.528c0.177,0.445,0.043,0.796-0.396,1.065c-0.183,0.445-0.224,0.839-0.131,1.189
		c0.087,0.36,0.043,0.759-0.132,1.202c-0.087,0.175-0.11,0.327-0.066,0.46c0.047,0.13,0.066,0.328,0.066,0.592
		c-0.087,0.18-0.157,0.402-0.193,0.669c-0.051,0.26-0.162,0.483-0.335,0.66v0.396c-0.265,0.267-0.396,0.528-0.396,0.799
		c0,0.265,0,0.532,0,0.796c0,0.353,0,0.685,0,0.997c0,0.308-0.136,0.593-0.401,0.861v0.397c0,0.177,0.049,0.29,0.131,0.328
		c0.092,0.051,0.092,0.114,0,0.197c-0.352,0.617-0.575,1.196-0.66,1.726c-0.18,0.182-0.264,0.379-0.264,0.598
		c0,0.222-0.049,0.422-0.134,0.601c-0.264,1.234-0.708,2.34-1.328,3.312c-0.179,0.177-0.283,0.401-0.33,0.664
		c-0.043,0.265-0.11,0.488-0.196,0.66l0.133,0.266c0,0.09,0.048,0.134,0.134,0.134c-0.177,0.447-0.288,0.822-0.327,1.129
		c-0.046,0.314-0.158,0.645-0.329,0.994c0.174,0.181,0.174,0.531,0,1.064c-0.178,0.349-0.266,0.686-0.266,0.992
		c0,0.31-0.087,0.644-0.262,0.996v0.133c0,0.18,0.042,0.265,0.131,0.265c0,0.446-0.088,0.751-0.269,0.935l-0.4,1.197
		c0,0.263-0.065,0.502-0.195,0.729c-0.135,0.216-0.247,0.42-0.327,0.591c-0.181,0.176-0.264,0.352-0.264,0.53
		c-0.184,0.447-0.447,0.798-0.802,1.064c-0.44,0.446-0.485,0.796-0.129,1.061c-0.352,0.09-0.531,0.353-0.531,0.794
		c0,0.087-0.047,0.2-0.13,0.333c-0.088,0.136-0.047,0.288,0.13,0.46c0,0.09-0.047,0.136-0.13,0.136
		c-0.181,0.176-0.223,0.395-0.132,0.666c0.088,0.265,0.044,0.484-0.135,0.662c0.351,0.265,0.397,0.489,0.135,0.667
		c-0.264,0.265-0.314,0.616-0.135,1.062c0,0.176,0.021,0.326,0.067,0.459s-0.023,0.293-0.198,0.466v0.534
		c0.175,0.441,0.131,0.842-0.136,1.193c-0.087,0.264-0.132,0.668-0.132,1.199h0.132c-0.087,0.528-0.179,1.057-0.261,1.592
		c-0.092,0.527-0.224,1.06-0.397,1.589c0,0.179-0.088,0.354-0.269,0.53c-0.087,0.354-0.176,0.668-0.265,0.931
		c-0.084,0.265-0.223,0.577-0.397,0.935c-0.087,0.172-0.111,0.309-0.062,0.398c0.043,0.081,0.02,0.221-0.064,0.394
		c-0.182,0.53-0.314,0.884-0.397,1.064c-0.354,0.796-0.58,1.498-0.667,2.114c-0.176,0.445-0.307,0.818-0.396,1.127
		c-0.088,0.315-0.222,0.686-0.396,1.127c-0.088,0.265-0.22,0.75-0.395,1.458l-0.406,1.994c-0.093,0.176-0.131,0.356-0.131,0.527
		c0,0.181-0.046,0.354-0.136,0.532c-0.178,0.528-0.33,1.104-0.464,1.727c-0.132,0.617-0.421,1.145-0.861,1.59
		c-0.181,0.181-0.379,0.376-0.598,0.599c-0.222,0.222-0.463,0.42-0.729,0.595c-0.18,0.18-0.532,0.267-1.062,0.267
		c-0.178,0.086-0.375,0.129-0.598,0.129c-0.217,0-0.42,0.049-0.595,0.135c0.178,0.265,0.221,0.445,0.133,0.53
		c0,0.18-0.133,0.271-0.4,0.271c-0.178,0.178-0.439,0.355-0.792,0.528c-0.446,0.269-0.821,0.33-1.125,0.197
		c-0.313-0.133-0.644-0.242-0.996-0.328c-0.177,0-0.267-0.132-0.267-0.396c-0.087-0.271-0.351-0.486-0.791-0.669v0.397
		c-0.446,0.089-0.753-0.02-0.928-0.327c-0.174-0.309-0.48-0.459-0.93-0.459v0.794c-0.178,0.441-0.353,0.485-0.526,0.133
		c-0.181-0.267-0.446-0.399-0.797-0.399c-0.973,0.088-1.943-0.131-2.917-0.669c-0.354-0.347-0.579-0.611-0.661-0.79
		c-0.354-0.53-0.753-0.885-1.195-1.064c0.177-0.175,0.31-0.282,0.396-0.33c0.087-0.04,0.216-0.155,0.4-0.327
		c-0.447-0.091-0.665-0.403-0.665-0.932c-0.177-0.704-0.396-1.194-0.66-1.458c-0.089-0.089-0.139-0.178-0.139-0.27
		c0-0.354-0.042-0.662-0.127-0.924c0.344-0.182,0.664-0.313,0.925-0.404c0.086-0.177,0.044-0.531-0.131-1.059
		c0-0.089-0.025-0.178-0.067-0.267c-0.048-0.089-0.067-0.174-0.067-0.267c-0.087-0.352,0-0.529,0.264-0.529
		c0.179,0.708,0.374,1.394,0.597,2.054c0.221,0.666,0.465,1.346,0.731,2.054c0.173-0.177,0.309-0.307,0.396-0.396
		c0.088-0.087,0.219-0.221,0.398-0.396c0.266-0.179,0.375-0.376,0.333-0.601c-0.049-0.217-0.067-0.42-0.067-0.594
		c-0.18,0.088-0.289,0.132-0.334,0.132c-0.045,0-0.152,0.046-0.33,0.134c-0.264-0.085-0.312-0.308-0.134-0.66
		c0.268-0.267,0.376-0.555,0.33-0.864c-0.047-0.308-0.157-0.598-0.33-0.864c0-0.173-0.022-0.33-0.066-0.46
		c-0.045-0.132-0.063-0.285-0.063-0.464c0-0.088-0.089-0.308-0.265-0.665c0-0.087,0.022-0.133,0.062-0.133
		c0.044,0,0.067-0.047,0.067-0.133c-0.088-0.182-0.134-0.312-0.134-0.403c0-0.085-0.049-0.218-0.133-0.396
		c-0.091-0.088-0.134-0.177-0.134-0.266c-0.091-0.086-0.22-0.154-0.4-0.198c-0.178-0.044-0.266-0.152-0.266-0.329
		c0-0.088-0.085-0.4-0.265-0.929c0.354-0.265,0.531-0.747,0.531-1.461c-0.087,0-0.153-0.026-0.194-0.065
		c-0.046-0.045-0.112-0.068-0.197-0.068c-0.089-0.086-0.129-0.309-0.129-0.662l0.526-0.264c-0.174-0.532-0.313-0.797-0.397-0.797
		c-0.181-0.088-0.312-0.221-0.4-0.4c-0.086-0.174-0.216-0.307-0.395-0.396c-0.265,0-0.265-0.135,0-0.397l0.395-0.265
		c0-0.354-0.179-0.527-0.529-0.527c-0.353,0-0.532-0.139-0.532-0.405c-0.087-0.179-0.134-0.308-0.134-0.396
		c0-0.086-0.044-0.219-0.132-0.398c-0.266,0.705-0.448,1.368-0.532,1.984c-0.352-0.53-0.488-0.925-0.396-1.193
		c0.084-0.27,0.084-0.509,0-0.729c-0.088-0.221-0.224-0.464-0.398-0.73c-0.267,0.178-0.354,0.354-0.267,0.529
		c0.178,0.179,0.222,0.29,0.138,0.331c-0.091,0.046-0.225,0.11-0.404,0.195c0-0.617-0.133-1.193-0.396-1.725
		c-0.178-0.177-0.288-0.416-0.328-0.727c-0.046-0.309-0.111-0.597-0.194-0.863c0-0.176,0.022-0.328,0.062-0.46
		c0.047-0.134,0.065-0.287,0.065-0.468v-1.061c-0.178-0.176-0.348-0.312-0.531-0.396l0.397-0.399
		c-0.178-0.088-0.354-0.315-0.53-0.665c-0.087-0.175-0.129-0.329-0.129-0.465c0-0.133-0.047-0.288-0.134-0.459
		c0.352-0.178,0.661-0.316,0.925-0.4c-0.176-0.088-0.328-0.158-0.459-0.206c-0.134-0.041-0.294-0.064-0.466-0.064
		c0.178-0.353,0.219-0.707,0.134-1.062c-0.084-0.083-0.084-0.216,0-0.395c0.085-0.175,0.129-0.353,0.129-0.53l-0.528-0.265
		c0,0.175,0.051,0.348,0.134,0.529c0.088,0.177,0,0.354-0.263,0.53c-0.355-0.264-0.445-0.751-0.265-1.46h0.793
		c0-0.266-0.023-0.531-0.065-0.796c-0.045-0.265-0.063-0.49-0.063-0.667c-0.088-0.177,0.044-0.44,0.399-0.793
		c0.264,0.262,0.352,0.508,0.264,0.728c-0.087,0.221-0.133,0.463-0.133,0.728c0.178,0.18,0.31,0.33,0.4,0.463
		c0.086,0.132,0.221,0.327,0.396,0.598c-0.086-0.44,0.021-0.771,0.334-0.995c0.308-0.225,0.464-0.553,0.464-0.998
		c0.177,0.089,0.308,0.177,0.399,0.264c0.261-0.264,0.261-0.615,0-1.055c-0.264-0.18-0.376-0.378-0.33-0.599
		c0.039-0.214,0.108-0.465,0.196-0.726c0-0.087,0.022-0.152,0.065-0.198c0.047-0.043,0.023-0.157-0.065-0.331
		c-0.265-0.349-0.309-0.748-0.131-1.191c0.087-0.182,0.131-0.402,0.131-0.666c-0.176-0.617-0.222-1.104-0.131-1.465
		c0-0.263-0.088-0.66-0.265-1.188v1.456h-0.949c0.086-0.175,0.134-0.313,0.134-0.403c0-0.08,0.048-0.216,0.137-0.397l-0.404-0.395
		c-0.353,0.088-0.557,0.289-0.595,0.597c-0.044,0.31-0.197,0.556-0.46,0.728c0-0.176-0.025-0.31-0.067-0.398
		c-0.048-0.084-0.066-0.177-0.066-0.264C34.846,138.62,34.846,138.262,34.673,137.997z M34.673,137.997
		c-0.089,0-0.158-0.019-0.193-0.062c-0.052-0.047-0.113-0.062-0.201-0.062c0,0.087-0.086,0.309-0.266,0.661
		c-0.18-0.176-0.266-0.489-0.266-0.925v-0.8c0-0.173,0.179-0.349,0.533-0.528C34.358,136.718,34.49,137.292,34.673,137.997z
		 M33.877,127.524c0,0.707,0.133,1.193,0.396,1.46c0.084-0.181,0.174-0.313,0.261-0.401c0.087-0.086,0.179-0.22,0.268-0.396
		c-0.18-0.177-0.33-0.285-0.464-0.326C34.208,127.813,34.047,127.699,33.877,127.524z M34.537,132.165
		c-0.262,0.183-0.375,0.399-0.331,0.666c0.05,0.264-0.024,0.488-0.196,0.667h0.666C34.673,132.876,34.621,132.43,34.537,132.165z
		 M35.597,142.773c0,0.266-0.024,0.508-0.068,0.729c-0.047,0.217-0.062,0.42-0.062,0.594c-0.265-0.177-0.582-0.354-0.93-0.533
		c0.179-0.175,0.349-0.307,0.534-0.398C35.243,143.084,35.423,142.951,35.597,142.773z M35.729,124.472
		c-0.266,0.087-0.578,0.222-0.929,0.398c-0.268,0.265-0.311,0.443-0.132,0.528c0-0.085,0.132,0,0.399,0.27l0.266-0.531h0.529
		c0-0.177-0.024-0.29-0.068-0.334C35.754,124.762,35.729,124.653,35.729,124.472z M34.941,154.837
		c-0.184-0.528-0.267-1.015-0.267-1.46l0.529-0.266c0,0.793-0.047,1.369-0.133,1.725L34.941,154.837L34.941,154.837L34.941,154.837z
		 M35.199,140.25c0.175,0.89,0.265,1.639,0.265,2.255c-0.618-0.35-0.841-0.837-0.664-1.462c0-0.175,0.085-0.44,0.265-0.796h0.133
		L35.199,140.25L35.199,140.25z M35.861,156.298c0,0.266,0.049,0.487,0.132,0.667c0.089,0.176,0,0.357-0.263,0.527
		c-0.448-0.086-0.58-0.48-0.4-1.193L35.861,156.298L35.861,156.298z M36.927,147.812c-0.445-0.176-0.706-0.243-0.792-0.195
		c-0.092,0.043-0.186,0.156-0.271,0.333c0.445,0.176,0.685,0.263,0.729,0.263C36.635,148.209,36.751,148.078,36.927,147.812z
		 M39.844,166.113c0.085-0.086,0.265-0.133,0.53-0.133v0.133c-0.265,0.53-0.399,1.018-0.399,1.46c0,0.09-0.024,0.158-0.065,0.199
		c-0.049,0.05-0.067,0.111-0.067,0.201c-0.182-0.178-0.266-0.311-0.266-0.404v-0.525c-0.179,0-0.312,0.021-0.399,0.06
		c-0.088,0.044-0.222,0.063-0.4,0.063c-0.183,0.092-0.354,0-0.529-0.265c-0.088-0.441-0.184-0.881-0.266-1.326
		c-0.088-0.443-0.18-0.883-0.266-1.328c0-0.176-0.087-0.353-0.263-0.531c-0.18-0.179-0.246-0.312-0.2-0.402
		c0.047-0.084,0.066-0.217,0.066-0.397c0-0.352,0.221-0.44,0.666-0.266c0.615-0.616,1.195-0.577,1.723,0.134
		c0.088,0.182,0.199,0.287,0.333,0.33c0.132,0.045,0.24,0.11,0.332,0.2c-0.183,0.27-0.358,0.372-0.531,0.331
		c-0.182-0.047-0.354,0.021-0.528,0.195c0.175,0.184,0.242,0.328,0.193,0.459c-0.043,0.136-0.025,0.29,0.066,0.47
		c0,0.177,0.023,0.333,0.066,0.466c0.041,0.135,0.066,0.29,0.066,0.467c0,0.086,0.023,0.156,0.065,0.189
		C39.82,165.958,39.844,166.026,39.844,166.113z M38.384,154.971c0.177,0.533,0.264,0.931,0.264,1.195
		c0,0.62,0.088,1.06,0.265,1.325c0.178,0.356,0.352,0.668,0.534,0.934c-0.09-0.444-0.132-1.018-0.132-1.728
		c0-0.081-0.026-0.157-0.07-0.198c-0.048-0.045-0.065-0.106-0.065-0.197c-0.265-0.176-0.376-0.375-0.33-0.598
		c0.049-0.215,0.116-0.42,0.2-0.597l-0.265,0.132c-0.088-0.087-0.157-0.132-0.201-0.132
		C38.535,155.101,38.473,155.061,38.384,154.971z M39.844,169.693c-0.706,0.445-1.062,0.353-1.062-0.264
		c-0.088-0.267-0.136-0.618-0.136-1.063c0-0.268,0.045-0.483,0.136-0.666h0.4c0,0.183,0.061,0.317,0.196,0.398
		c0.132,0.093,0.156,0.224,0.065,0.399v0.401C39.445,169.339,39.577,169.604,39.844,169.693z"/>
	<path fill="#FFFFFF" d="M97.391,175.925c0.265-0.176,0.445-0.198,0.532-0.068c0.089,0.132,0.221,0.245,0.398,0.33
		c0.265,0.269,0.575,0.314,0.925,0.133c0-0.172-0.045-0.313-0.13-0.396c-0.528-0.443-1.04-0.928-1.527-1.462
		c-0.487-0.528-1.041-1.014-1.656-1.459c-0.265-0.176-0.508-0.398-0.733-0.663c-0.22-0.266-0.459-0.532-0.723-0.794l-0.931-0.932
		l-0.529,0.528c-0.449-0.087-0.753-0.375-0.932-0.859c-0.177-0.487-0.131-0.951,0.133-1.395c0.272,0.09,0.488,0.244,0.668,0.459
		c0.172,0.223,0.444,0.246,0.797,0.073c0.088-0.355-0.053-0.711-0.4-1.062c-0.265-0.27-0.507-0.537-0.729-0.804
		c-0.223-0.266-0.465-0.528-0.728-0.794c-0.267-0.264-0.445-0.399-0.53-0.399c-0.088,0-0.354,0.083-0.8,0.266
		c-0.352-0.44-0.618-0.839-0.787-1.2c-0.181-0.348-0.406-0.744-0.673-1.192c-0.17-0.44-0.397-0.86-0.659-1.262
		c-0.264-0.394-0.529-0.817-0.792-1.258c0.441-0.615,0.306-1.276-0.399-1.987c-0.264-0.089-0.318-0.315-0.133-0.672
		c0.176-0.176,0.283-0.396,0.325-0.661c0.047-0.261,0.157-0.485,0.33-0.66c-0.082-0.268-0.263-0.445-0.529-0.532
		c0-0.09,0.052-0.182,0.134-0.266c0.264-0.352,0.313-0.749,0.134-1.199c-0.083-0.086-0.178-0.192-0.265-0.326
		c-0.092-0.134-0.177-0.195-0.264-0.195c-0.445-0.178-0.728-0.422-0.861-0.731c-0.131-0.31-0.291-0.635-0.466-0.994
		c0-0.177,0.024-0.31,0.067-0.399c0.039-0.084,0.018-0.217-0.067-0.398c-0.266-0.442-0.376-0.905-0.33-1.392
		c0.047-0.483,0.111-0.999,0.196-1.527v-0.386c-0.085-0.443-0.135-0.928-0.135-1.462c0-0.529,0-1.011,0-1.46
		c0-0.263,0.051-0.528,0.135-0.795c0.089-0.263,0.178-0.532,0.266-0.794c0.087-0.26,0.135-0.618,0.135-1.06
		c-0.09-0.446-0.135-0.82-0.135-1.128c0-0.31,0-0.682,0-1.127c0.178-0.969,0.288-1.965,0.33-2.984
		c0.043-1.012,0.151-2.006,0.331-2.986c0-0.265,0.088-0.665,0.265-1.197c0-0.174,0.042-0.349,0.133-0.528
		c0-0.347,0.085-0.97,0.262-1.86c0.088-0.174,0.137-0.352,0.137-0.528c0-0.178,0.042-0.352,0.134-0.528
		c0-0.089-0.025-0.158-0.067-0.199c-0.042-0.043-0.025-0.157,0.067-0.331c0.082-0.533,0.175-1.08,0.263-1.654
		c0.084-0.581,0.221-1.172,0.397-1.793c0.088-0.353,0.176-0.684,0.264-0.998c0.088-0.308,0.088-0.681,0-1.124
		c0-0.265,0.047-0.556,0.132-0.863c0.088-0.309,0.18-0.593,0.27-0.855c0.084-0.444,0.155-0.91,0.197-1.396
		c0.048-0.483,0.152-0.95,0.327-1.391l0.401-1.195c0.176-0.444,0.289-0.862,0.33-1.261c0.044-0.402,0.196-0.817,0.463-1.262
		c0.087-0.174,0.112-0.375,0.066-0.596c-0.048-0.216-0.026-0.42,0.064-0.595c0.181-0.443,0.314-0.84,0.4-1.192
		c0.076-0.353,0.215-0.707,0.392-1.061c0-0.18,0.178-0.445,0.532-0.8c0.351-0.53,0.488-0.969,0.397-1.325
		c0-0.263,0.046-0.445,0.135-0.527c0.347-0.617,0.663-1.263,0.926-1.924c0.265-0.666,0.664-1.263,1.195-1.792
		c0.084-0.087,0.134-0.216,0.134-0.401c0.082-0.172,0.129-0.328,0.129-0.463c0-0.132,0.044-0.24,0.133-0.328
		c0.175-0.265,0.377-0.51,0.596-0.728c0.218-0.222,0.291-0.504,0.2-0.86c0.529-0.534,0.927-0.972,1.192-1.33
		c-0.265-0.35-0.309-0.682-0.134-0.994c0.178-0.311,0.354-0.595,0.529-0.855c0.445-0.622,0.909-1.215,1.394-1.793
		c0.49-0.574,0.954-1.174,1.397-1.792c0.348-0.44,0.662-0.837,0.925-1.194c0.263-0.35,0.577-0.749,0.929-1.194
		c0.442-0.704,1.062-1.327,1.855-1.853c0.088,0,0.136-0.045,0.136-0.133c0.261-0.62,0.884-0.93,1.86-0.93
		c0.173,0,0.353-0.023,0.529-0.067c0.176-0.044,0.351-0.067,0.528-0.067c1.596-0.263,2.966,0.05,4.114,0.93
		c0.799,0.53,1.723,0.666,2.784,0.399h0.268c1.06,0,2.137,0.023,3.246,0.066c1.104,0.044,2.143,0.241,3.118,0.591
		c0.177,0,0.312,0.025,0.399,0.068c0.087,0.053,0.217,0.064,0.403,0.064c0.702,0.092,1.325,0.27,1.852,0.534
		c0.527,0.266,1.105,0.576,1.729,0.928c0.53,0.179,0.93,0.354,1.19,0.53c0.266,0.178,0.528,0.33,0.796,0.463
		c0.267,0.131,0.574,0.287,0.93,0.463c0.535,0.353,0.839,0.752,0.931,1.196c0.268,0.447,0.444,0.708,0.531,0.802
		c0.442,0.258,0.749,0.573,0.929,0.923c0.177,0.355,0.351,0.754,0.53,1.199l0.796,1.589c0,0.088,0.023,0.181,0.067,0.266
		c0.038,0.091,0.067,0.224,0.067,0.404c0.078,0.443,0.151,0.908,0.197,1.389c0.044,0.483,0.152,0.95,0.327,1.395v0.398
		c-0.089,1.502,0.219,3.048,0.927,4.637c0.177,0.357,0.268,0.933,0.268,1.731c-0.179,0.614-0.134,1.146,0.132,1.591
		c0.175,0.179,0.266,0.312,0.266,0.397c0,0.528,0.109,1.038,0.329,1.525c0.22,0.485,0.283,1.042,0.199,1.658
		c-0.09,0.178-0.111,0.31-0.064,0.4c0.038,0.083,0.064,0.22,0.064,0.398c0.087,0.085,0.128,0.218,0.128,0.396
		c-0.18,1.067,0,1.909,0.533,2.522v0.397c-0.18,0.973-0.196,1.879-0.064,2.72c0.131,0.842,0.24,1.744,0.328,2.716
		c0.084,0.447,0.178,0.91,0.266,1.396c0.082,0.482,0.04,0.953-0.129,1.388c-0.092,0.179-0.113,0.317-0.066,0.397
		c0.044,0.087,0.066,0.221,0.066,0.397c0.085,0.89,0.15,1.75,0.191,2.592c0.049,0.836,0.068,1.704,0.068,2.583
		c0,0.448-0.047,0.797-0.131,1.062c0,0.443-0.047,0.884-0.133,1.326c-0.088,0.446-0.131,0.884-0.131,1.328
		c0,0.35,0.047,0.582,0.131,0.666c0.264,0.443,0.352,0.794,0.264,1.059c-0.176,0.442-0.131,0.796,0.137,1.06
		c0.178,0.357,0.178,0.665,0,0.931c-0.182,0.705-0.359,1.237-0.533,1.589c0,0.271-0.09,0.667-0.266,1.198c0,0.446,0,0.857,0,1.263
		c0,0.398-0.043,0.818-0.131,1.257c0,0.184-0.023,0.377-0.065,0.599c-0.049,0.222-0.065,0.459-0.065,0.724
		c-0.086,0.352-0.11,0.707-0.066,1.06c0.049,0.354,0.289,0.666,0.73,0.936c0.089,0.088,0.151,0.221,0.194,0.398
		c0.046,0.176,0.11,0.353,0.203,0.527c0.17,1.062,0,1.904-0.53,2.521c-0.354,0.531-0.402,1.062-0.137,1.593
		c0.264,0.354,0.309,0.794,0.137,1.323c-0.09,0.447-0.158,0.842-0.201,1.196c-0.053,0.354-0.111,0.708-0.197,1.063
		c-0.088,0.267-0.134,0.621-0.134,1.062c0.182,0.619,0.046,1.065-0.396,1.33c-0.27,0.176-0.508,0.399-0.732,0.661
		c-0.222,0.265-0.459,0.487-0.725,0.665c-0.094,0.184-0.182,0.315-0.265,0.398c-0.093,0.088-0.182,0.226-0.265,0.396
		c-0.09,0-0.135,0.05-0.135,0.137c-0.617,0.616-0.973,1.286-1.066,1.987c0,0.181-0.178,0.446-0.525,0.8
		c-0.796,0.798-1.571,1.591-2.325,2.382c-0.754,0.799-1.438,1.684-2.055,2.652c0,0.088-0.023,0.131-0.062,0.131
		c-0.047,0-0.068,0.045-0.068,0.134c-0.444,0.265-0.845,0.573-1.198,0.926c-0.353,0.354-0.702,0.753-1.061,1.197
		c-0.353,0.356-0.727,0.594-1.13,0.729c-0.396,0.132-0.819,0.288-1.259,0.463c-0.179,0.176-0.35,0.29-0.531,0.33
		c-0.182,0.047-0.353,0.158-0.528,0.333c-0.707,0.44-1.419,0.71-2.119,0.793c-0.532,0-1.042,0.093-1.528,0.265
		c-0.484,0.177-0.996,0.311-1.526,0.396c-0.532,0.177-1.013,0.268-1.459,0.268c-0.619,0-1.241,0-1.858,0
		c-0.62,0-1.28-0.084-1.99-0.268c-0.619-0.086-1.215-0.104-1.794-0.062c-0.574,0.041-1.174,0.062-1.788,0.062
		c-2.124-0.086-4.204-0.662-6.232-1.722c-0.354-0.177-0.691-0.353-0.996-0.534c-0.314-0.175-0.643-0.351-0.996-0.528
		C97.831,176.322,97.655,176.188,97.391,175.925z M119.005,113.999c-0.088-0.173-0.134-0.479-0.134-0.927
		c0-1.061-0.311-2.21-0.929-3.448c-0.182-0.265-0.378-0.552-0.596-0.862c-0.224-0.309-0.423-0.593-0.599-0.861
		c-0.353-0.529-0.707-1.012-1.059-1.455c-0.353-0.446-0.754-0.885-1.197-1.33c-0.445-0.268-0.793-0.576-1.061-0.927
		c-0.264-0.354-0.576-0.752-0.929-1.194c-0.265-0.265-0.512-0.555-0.729-0.859c-0.225-0.313-0.463-0.598-0.726-0.865
		c-0.533-0.351-0.93-0.351-1.199,0c-0.353,0.44-0.663,0.927-0.929,1.46c-0.261,0.534-0.443,1.149-0.528,1.858
		c0,0.709-0.178,1.371-0.536,1.992c-0.178,0.348-0.35,0.684-0.529,0.989c-0.175,0.314-0.261,0.687-0.261,1.127
		c-0.086,0.355-0.221,0.974-0.396,1.854c-0.088,0.441-0.156,0.886-0.2,1.328c-0.048,0.448-0.111,0.882-0.196,1.326
		c0,0.089-0.022,0.157-0.063,0.2c-0.05,0.044-0.064,0.115-0.064,0.195c-0.266,0.707-0.464,1.395-0.594,2.058
		c-0.135,0.663-0.294,1.349-0.468,2.056c-0.18,0.882-0.354,1.551-0.533,1.988c-0.087,0.445-0.18,0.911-0.265,1.391
		c-0.088,0.491-0.218,0.998-0.397,1.526c-0.177,0.62-0.289,1.218-0.33,1.793c-0.044,0.575-0.158,1.173-0.332,1.785
		c-0.085,0.537-0.178,1.064-0.265,1.595c-0.086,0.531-0.178,1.065-0.266,1.594l-0.396,3.181c0,0.53-0.064,1.064-0.199,1.594
		c-0.134,0.528-0.108,1.055,0.066,1.591c0.176,0.444,0.287,0.885,0.333,1.327c0.044,0.439,0.111,0.884,0.196,1.324
		c0,0.531,0.043,0.925,0.133,1.196c0.178,0.531,0.309,1.107,0.399,1.73c0.086,0.614,0.221,1.19,0.399,1.718
		c0.087,0.181,0.129,0.399,0.129,0.668c0.088,0.71,0.159,1.412,0.2,2.118c0.044,0.71,0.157,1.42,0.331,2.12
		c0.086,0.528,0.086,1.036,0,1.522c-0.093,0.49-0.093,0.994,0,1.525c0.086,0.269,0.109,0.509,0.065,0.73
		c-0.044,0.221,0.022,0.466,0.194,0.73c0.18,0.085,0.272,0.356,0.272,0.798c-0.186,0.708-0.157,1.388,0.064,2.056
		c0.216,0.66,0.418,1.348,0.596,2.056c0.353,1.505,0.969,3.142,1.852,4.907c0.446,0.969,0.934,1.969,1.463,2.983
		c0.53,1.017,1.237,1.921,2.119,2.72c0.705,0.794,1.505,1.015,2.39,0.66c0.616-0.264,1.145-0.612,1.588-1.062
		c0.447-0.354,0.822-0.706,1.128-1.061c0.31-0.354,0.645-0.707,0.999-1.062c0.876-0.703,1.457-1.724,1.721-3.051
		c0-0.172,0.023-0.327,0.064-0.46c0.044-0.13,0.068-0.283,0.068-0.465c0.181-0.794,0.348-1.569,0.536-2.315
		c0.173-0.752,0.35-1.527,0.53-2.321c0.171-0.883,0.263-1.501,0.263-1.862c0.084-0.439,0.179-0.878,0.267-1.324
		c0.085-0.444,0.131-0.879,0.131-1.328c0.086-0.529,0.132-1.084,0.132-1.659s0-1.119,0-1.66c0.177-0.966,0.289-1.872,0.332-2.714
		c0.038-0.838,0.157-1.705,0.331-2.589c0.172-0.705,0.239-1.365,0.199-1.992c-0.05-0.617-0.063-1.23-0.063-1.854
		c-0.096-2.208-0.096-4.423,0-6.629v-3.449c-0.096-0.793-0.16-1.566-0.2-2.318c-0.049-0.753-0.107-1.482-0.196-2.191
		c0-0.446,0-0.859,0-1.258c0-0.402-0.051-0.82-0.136-1.263c0-0.441-0.026-0.833-0.063-1.194c-0.047-0.35-0.111-0.745-0.202-1.193
		l-0.125-0.265c-0.183-0.619-0.376-1.195-0.599-1.725c-0.219-0.527-0.421-1.104-0.593-1.726c-0.181-0.351-0.264-0.881-0.264-1.594
		C119.05,114.885,119.005,114.531,119.005,113.999z"/>
	<path fill="#FFFFFF" d="M144.462,91.72c0.088-0.086,0.177-0.133,0.261-0.133c0.709,0,1.241-0.086,1.595-0.264
		c0.8-0.27,1.46-0.31,1.99-0.132c0.267,0.085,0.705,0.132,1.33,0.132h3.711c1.231,0,2.402,0.086,3.517,0.264
		c1.101,0.178,2.271,0.355,3.515,0.53c0.442,0,0.904,0.048,1.395,0.133c0.481,0.091,0.95,0.176,1.391,0.265
		c0.439,0.088,0.883,0.155,1.328,0.197c0.441,0.044,0.875,0.114,1.324,0.198c0.804,0.18,1.414,0.222,1.859,0.134
		c0.44,0,1.012,0.085,1.727,0.265c0.529,0,1.063,0.023,1.587,0.067c0.536,0.046,1.063,0.114,1.592,0.199h0.139
		c0.703-0.086,1.347-0.136,1.923-0.136c0.565,0,1.213,0,1.922,0h2.118c0.438,0,0.839,0.027,1.194,0.069
		c0.355,0.042,0.75,0.019,1.196-0.069c0.618-0.081,1.216-0.081,1.793,0c0.574,0.088,1.123,0.222,1.653,0.4
		c0.448,0.089,0.908,0.181,1.394,0.265c0.484,0.089,0.95,0.222,1.392,0.4c0.085,0,0.155,0.021,0.199,0.065
		c0.046,0.042,0.113,0.065,0.198,0.065c0.442,0.18,0.835,0.42,1.195,0.727c0.354,0.313,0.749,0.421,1.194,0.33
		c0.086,0.354,0.022,0.577-0.195,0.666c-0.223,0.088-0.423,0.219-0.599,0.396c0,0.269,0.112,0.468,0.331,0.597
		c0.218,0.133,0.419,0.29,0.596,0.465c0.177,0,0.376,0.024,0.599,0.067c0.214,0.046,0.42,0.062,0.596,0.062
		c0.444-0.176,0.837-0.089,1.198,0.265c0.172,0,0.308,0.043,0.395,0.132c0.179,0.085,0.331,0.134,0.469,0.134
		c0.131,0,0.286,0.042,0.459,0.13c0.266,0.177,0.397,0.485,0.397,0.929c0,0.089,0.134,0.264,0.401,0.529
		c-0.174,0.447-0.241,0.709-0.201,0.798c0.047,0.086,0.29,0.316,0.73,0.665c-0.086,0.531-0.352,0.842-0.793,0.935
		c-0.178,0-0.355,0.018-0.535,0.059c-0.171,0.043-0.352,0.066-0.526,0.066c-0.709,0.354-0.79,0.797-0.267,1.325
		c0.181,0.177,0.267,0.532,0.267,1.063c0,0.352,0,0.687,0,0.993c0,0.31,0.175,0.554,0.526,0.731
		c0.093,0.616-0.171,1.148-0.793,1.592c-0.263,0.176-0.508,0.35-0.729,0.529c-0.227,0.18-0.468,0.313-0.731,0.398
		c-0.266,0-0.399,0.222-0.399,0.662c0,0.442-0.264,0.841-0.793,1.194c-0.27,0.265-0.534,0.313-0.798,0.136
		c-0.265-0.181-0.488-0.181-0.661,0c-0.092,0.087-0.224,0.13-0.397,0.13c-0.443,0.088-0.864,0.178-1.265,0.262
		c-0.4,0.093-0.82,0.05-1.263-0.128c-0.439-0.175-0.793-0.175-1.063,0c-0.443,0.354-0.748,0.221-0.93-0.4
		c-0.085,0.09-0.148,0.136-0.196,0.136c-0.041,0-0.111,0.045-0.198,0.13c-0.53,0.53-1.066,0.579-1.594,0.134
		c-0.266-0.264-0.529-0.315-0.794-0.134c-0.263,0.088-0.615,0-1.059-0.265c-0.356-0.178-0.621-0.263-0.798-0.263
		c-0.354-0.089-0.669-0.179-0.93-0.271c-0.264-0.084-0.531-0.084-0.796,0c-0.089,0-0.131-0.043-0.131-0.133
		c-0.265-0.266-0.574-0.419-0.927-0.463c-0.359-0.042-0.667-0.151-0.929-0.329c-0.182,0-0.313-0.044-0.398-0.133
		c-0.179-0.265-0.579-0.486-1.196-0.664c-0.088-0.177-0.088-0.333,0-0.466c0.085-0.128,0-0.287-0.267-0.463
		c-0.089,0.091-0.131,0.159-0.131,0.201c0,0.039-0.048,0.109-0.132,0.195c-0.356,0.352-0.664,0.352-0.927,0
		c-0.089-0.177-0.355-0.402-0.799-0.665c-0.884-0.172-1.236,0.134-1.059,0.93c0.086,0.182,0.126,0.331,0.126,0.464
		c0,0.133,0.045,0.283,0.131,0.459c0.091,0.183,0.203,0.334,0.336,0.47c0.13,0.132,0.287,0.289,0.46,0.463
		c0.269,0.262,0.313,0.617,0.131,1.057c-0.085,0.356,0.049,0.582,0.4,0.67c0.349,0.083,0.576,0.309,0.663,0.662
		c0.085,0.266,0.131,0.508,0.131,0.728c0,0.222,0.047,0.421,0.136,0.602c0,0.174,0.047,0.307,0.135,0.399
		c0.082,0.083,0.221,0.218,0.397,0.395c-0.088,0.265-0.13,0.553-0.13,0.859s-0.09,0.645-0.267,0.995v0.267
		c0.177,0.177,0.22,0.373,0.13,0.59c-0.086,0.226-0.13,0.424-0.13,0.603c0,0.352-0.183,0.881-0.532,1.587
		c-0.088,0.447-0.221,1.016-0.397,1.725c-0.088,0.18-0.134,0.354-0.134,0.529c0,0.178-0.047,0.356-0.131,0.536
		c-0.183,0.264-0.269,0.705-0.269,1.322v0.797c-0.266,0.708-0.312,1.419-0.134,2.121c0,0.353-0.04,0.577-0.133,0.667
		c-0.176,0.264-0.261,0.503-0.261,0.727c0,0.221-0.048,0.459-0.133,0.729c0,0.445-0.092,1.013-0.267,1.727
		c-0.262,0.887-0.354,1.723-0.262,2.516c0.085,0.442,0.169,0.934,0.262,1.46c0.088,0.534,0.175,1.014,0.267,1.459
		c0.086,0.446,0.217,0.885,0.395,1.327c0.182,0.446,0.182,0.885,0,1.328c0,0.087,0.049,0.134,0.133,0.134
		c0.271,0.617,0.182,1.194-0.263,1.725c0.351,0.444,0.444,0.881,0.263,1.327c0,0.176,0.088,0.352,0.271,0.529
		c0.176,0.088,0.263,0.354,0.263,0.793c-0.177,0.445-0.177,0.799,0,1.063v0.265c-0.087,0.444-0.154,0.817-0.198,1.125
		c-0.049,0.31-0.116,0.687-0.202,1.13v0.264c0.18,0.443,0.224,0.818,0.135,1.126c-0.087,0.311-0.175,0.687-0.264,1.123
		c-0.09,0.354-0.18,0.71-0.266,1.063c-0.087,0.354-0.179,0.708-0.271,1.063c-0.086,0.264-0.128,0.508-0.128,0.73
		c0,0.221-0.041,0.455-0.135,0.725c-0.087,0.445-0.132,0.883-0.132,1.324c0,0.445-0.087,0.892-0.265,1.331
		c-0.181,0.53-0.225,0.975-0.128,1.329c0.175,0.438,0.175,0.883,0,1.324c-0.097,0.265-0.157,0.528-0.204,0.796
		c-0.037,0.271-0.158,0.487-0.325,0.667c-0.266,0-0.266,0.133,0,0.396c0.086,0.616,0.106,1.198,0.065,1.726
		c-0.051,0.53-0.112,1.111-0.201,1.726c-0.088,0.182-0.111,0.379-0.066,0.601c0.042,0.22,0.022,0.458-0.067,0.728
		c0,0.356-0.088,0.885-0.264,1.593c-0.087,0.443-0.155,0.906-0.197,1.392c-0.051,0.484-0.025,0.951,0.067,1.391
		c0,0.707-0.052,1.371-0.136,1.987c-0.087,0.617-0.313,1.234-0.664,1.856c-0.354,0.884-0.665,1.503-0.929,1.856
		c-0.183,0.445-0.183,0.753,0,0.931c0.175,0.176,0.286,0.33,0.33,0.463c0.045,0.129,0.112,0.291,0.196,0.462
		c-0.175,0.183-0.353,0.27-0.53,0.27c-0.179,0-0.264,0.088-0.264,0.266c-0.174,0.53-0.265,0.839-0.265,0.928
		c-0.532-0.086-1.061-0.086-1.595,0c-0.525,0.088-1.017,0.132-1.461,0.132c-0.611,0-1.191-0.023-1.723-0.063
		c-0.532-0.044-1.061-0.068-1.591-0.068c-0.088,0-0.179,0.05-0.271,0.132c-0.44,0.178-0.819,0.228-1.122,0.132
		c-0.316-0.085-0.687-0.175-1.129-0.264l-0.528-0.265h-0.399c-0.178,0.177-0.331,0.244-0.465,0.197
		c-0.131-0.047-0.289-0.11-0.467-0.197c-0.355,0-0.576-0.133-0.663-0.397c-0.181-0.266-0.181-0.663,0-1.196
		c0.173-0.529,0.265-0.88,0.265-1.06c0-0.62-0.064-1.212-0.197-1.791c-0.131-0.58-0.246-1.173-0.33-1.788
		c0-0.18-0.028-0.401-0.067-0.665c-0.046-0.267-0.062-0.484-0.062-0.668v-0.266c0-0.265-0.051-0.53-0.135-0.795
		c-0.09-0.267-0.09-0.574,0-0.93c0-0.267-0.022-0.559-0.067-0.864c-0.038-0.308-0.067-0.598-0.067-0.862
		c0-0.442-0.021-0.815-0.064-1.128c-0.044-0.309-0.061-0.682-0.061-1.123c0-0.178-0.027-0.31-0.064-0.402
		c-0.049-0.086-0.066-0.176-0.066-0.264v-0.268c0.086-0.617,0.066-1.213-0.068-1.788c-0.129-0.572-0.153-1.175-0.066-1.79
		c0.091-0.795,0.134-1.574,0.134-2.32c0-0.748,0-1.479,0-2.188c0.173-1.949,0.135-3.668-0.134-5.173v-0.536
		c0.268-1.15,0.314-2.471,0.134-3.977c-0.087-0.44-0.134-0.837-0.134-1.194c0-0.352,0-0.754,0-1.201v-1.19
		c-0.087-0.44-0.133-0.882-0.133-1.326c0-0.442,0-0.884,0-1.327c0-0.179-0.021-0.313-0.063-0.403
		c-0.046-0.083-0.062-0.219-0.062-0.398c0.083-0.439,0.132-0.875,0.132-1.326c0-0.44,0-0.881,0-1.325v-2.249
		c0.082-0.617,0.106-1.217,0.062-1.792c-0.043-0.574-0.025-1.173,0.064-1.792v-0.797c0.091-0.178,0.134-0.352,0.134-0.529
		c-0.087-0.446-0.087-0.821,0-1.12c0.087-0.314,0.173-0.644,0.265-0.999c0.178-0.797,0.352-1.571,0.535-2.322
		c0.174-0.753,0.267-1.566,0.267-2.456c0-0.348,0.021-0.682,0.062-0.993c0.048-0.308,0.113-0.685,0.198-1.124
		c0.091-0.443,0.155-0.817,0.2-1.125c0.039-0.309,0.111-0.684,0.199-1.127c0.177-0.44,0.354-1.104,0.533-1.992
		c0.174-0.53,0.309-1.036,0.396-1.521c0.086-0.483,0.18-0.95,0.264-1.393c0.09-0.44,0.156-0.865,0.203-1.263
		c0.037-0.397,0.064-0.817,0.064-1.255l0.396-1.99l0.397-1.594c0-0.444,0.067-0.818,0.2-1.125c0.13-0.315,0.286-0.646,0.467-0.995
		c0.084-0.178,0.131-0.329,0.131-0.46c0-0.134,0.044-0.292,0.129-0.469c0.178-0.528,0.353-0.881,0.531-1.06
		c0.537-0.97,0.267-1.592-0.799-1.855c-0.357,0-0.791-0.084-1.322-0.263c-0.27-0.181-0.515-0.312-0.729-0.405
		c-0.222-0.086-0.467-0.217-0.731-0.396c-0.178-0.086-0.393-0.174-0.664-0.266c-0.266-0.086-0.529-0.179-0.797-0.265
		c-0.442-0.177-0.88-0.285-1.324-0.328c-0.449-0.046-0.883-0.158-1.325-0.331c-0.443-0.175-0.868-0.351-1.262-0.531
		c-0.397-0.176-0.778-0.478-1.128-0.928c-0.178-0.264-0.397-0.394-0.663-0.394c-0.18,0-0.29-0.023-0.33-0.067
		c-0.054-0.047-0.115-0.068-0.202-0.068c-0.441-0.354-0.84-0.639-1.196-0.861c-0.349-0.222-0.661-0.553-0.925-0.996
		c-0.092,0-0.158-0.025-0.199-0.063c-0.04-0.045-0.109-0.065-0.194-0.065l-0.382-0.387c-0.176-0.354-0.379-0.62-0.592-0.8
		c-0.223-0.181-0.426-0.4-0.602-0.666c-0.174-0.177-0.291-0.31-0.332-0.397C144.483,92.166,144.462,91.987,144.462,91.72z"/>
	<path fill="#FFFFFF" d="M212.623,94.637c0.529,0.354,1.196,0.354,1.988,0c0.183-0.085,0.401-0.085,0.667,0
		c0.176,0.091,0.441,0.135,0.796,0.135c0.178,0,0.239-0.042,0.197-0.135c-0.047-0.085,0.023-0.04,0.202,0.135
		c0.263,0.09,0.502-0.018,0.729-0.327c0.221-0.31,0.419-0.376,0.597-0.196c0.085,0.085,0.244,0.067,0.462-0.066
		c0.215-0.133,0.333-0.158,0.333-0.067c0.443,0.445,0.684,0.464,0.73,0.067c0.05-0.402,0.291-0.729,0.728-0.994
		c0.271-0.179,0.578-0.157,0.933,0.062c0.354,0.225,0.663,0.247,0.925,0.067c0.443-0.172,0.866-0.372,1.263-0.594
		c0.4-0.216,0.814-0.423,1.263-0.595c0.172-0.085,0.348-0.175,0.527-0.265c0.174-0.089,0.351-0.133,0.53-0.133
		c0.265-0.087,0.507-0.175,0.73-0.263c0.222-0.09,0.463-0.181,0.729-0.27l0.135-0.134c0.44-0.083,0.877-0.174,1.326-0.264
		c0.438-0.083,0.875-0.171,1.325-0.264c0.441-0.083,0.883-0.155,1.327-0.198c0.443-0.044,0.884-0.068,1.326-0.068
		c0.531,0,1.149,0.093,1.859,0.265c0.879,0.183,1.497,0.402,1.856,0.666c0,0.094-0.029,0.158-0.065,0.198
		c-0.054,0.043-0.066,0.111-0.066,0.192c0,0.801-0.266,1.332-0.802,1.599c-0.175,0.093-0.328,0.195-0.456,0.327
		c-0.135,0.132-0.333,0.246-0.603,0.33c-0.263,0.092-0.311,0.398-0.129,0.934v0.128v0.136c-0.178,0.084-0.333,0.157-0.467,0.197
		c-0.132,0.046-0.291,0.158-0.465,0.329c-0.089,0.177-0.127,0.527-0.127,1.062c0,0.355-0.133,0.577-0.399,0.662
		c-0.532,0.266-0.937,0.708-1.198,1.326c0,0.268-0.084,0.401-0.267,0.401c-0.263,0.181-0.486,0.352-0.662,0.528
		c-0.181,0.181-0.357,0.354-0.532,0.533c-0.711,0.972-1.549,1.683-2.517,2.117c-0.088,0-0.133,0.025-0.133,0.068
		c0,0.042-0.044,0.065-0.13,0.065c-0.532,0-1.038,0.156-1.525,0.464c-0.484,0.314-0.956,0.554-1.394,0.729
		c-0.35,0.087-0.665,0.176-0.929,0.263c-0.262,0.092-0.571,0.183-0.924,0.268c-0.354,0-0.619,0.047-0.801,0.133
		c-0.176,0-0.349,0.087-0.531,0.264c-0.261,0.265-0.578,0.311-0.923,0.134c-0.266-0.268-0.486-0.178-0.67,0.265
		c-0.438,0.618-0.616,1.151-0.531,1.596v0.531c-0.264,0.53-0.305,1.101-0.131,1.723c0.088,0.261,0.046,0.509-0.133,0.731
		c-0.176,0.218-0.22,0.462-0.123,0.727c0,0.084-0.028,0.176-0.067,0.266c-0.047,0.087-0.066,0.179-0.066,0.265
		c0.085,0.973,0.085,1.899,0,2.787v0.264c0.085,0.712,0.132,1.372,0.132,1.992c0,0.613,0.043,1.281,0.134,1.99
		c0,0.088-0.027,0.176-0.064,0.267c-0.05,0.085-0.067,0.174-0.067,0.262c0,0.179,0.022,0.38,0.067,0.595
		c0.04,0.223,0.064,0.423,0.064,0.599c0.082,0.087,0.132,0.22,0.132,0.395c-0.093,0.354-0.132,0.976-0.132,1.857
		c0.265,0.537,0.395,1.016,0.395,1.461c-0.087,0.179-0.111,0.397-0.064,0.666c0.039,0.27-0.024,0.484-0.201,0.666
		c0.087,0.444,0.047,0.881-0.131,1.327c-0.179,0.445-0.179,0.882,0,1.325c0.086,0.445,0.309,0.663,0.663,0.663
		c0.177-0.088,0.329-0.134,0.466-0.134c0.13,0,0.286-0.085,0.463-0.264c0.178-0.084,0.327-0.133,0.468-0.133
		c0.131,0,0.285-0.043,0.464-0.134c0.174,0,0.263-0.042,0.263-0.133c0.174-0.26,0.439-0.396,0.802-0.396
		c0.343,0,0.614-0.085,0.79-0.265c0.444,0,0.795-0.067,1.065-0.197c0.268-0.134,0.615-0.241,1.061-0.332
		c0.529,0,0.885-0.085,1.066-0.262c0.348-0.18,0.679-0.268,0.99-0.268c0.309,0,0.598-0.089,0.868-0.265l0.129-0.132l2.783-0.396
		c0.355-0.086,0.66-0.177,0.93-0.265c0.264-0.086,0.575-0.173,0.928-0.267c0.349-0.085,0.699-0.217,1.063-0.394
		c0.35-0.18,0.742-0.18,1.192,0h0.531c0.44-0.09,0.863-0.158,1.263-0.201c0.396-0.042,0.819-0.067,1.261-0.067
		c0.615-0.172,1.196-0.128,1.725,0.134c0.176,0,0.329-0.023,0.465-0.067c0.133-0.042,0.289-0.019,0.467,0.067
		c0.264,0,0.525,0.048,0.798,0.136c-0.184,0.173-0.311,0.353-0.403,0.529c-0.087,0.178-0.176,0.353-0.266,0.53
		c-0.18,0.265-0.374,0.531-0.595,0.796c-0.225,0.267-0.423,0.582-0.598,0.928c-0.182,0.619-0.576,0.935-1.189,0.935
		c-0.269,0.085-0.488,0.308-0.673,0.663v0.266c0,0.528-0.047,0.969-0.13,1.326c-0.176,0.179-0.354,0.352-0.531,0.529
		c-0.181,0.181-0.442,0.315-0.795,0.397l-0.139,0.128c0,0.184-0.03,0.318-0.065,0.399c-0.055,0.092-0.067,0.227-0.067,0.403
		c-0.269,0.265-0.399,0.489-0.399,0.66c0,0.18-0.048,0.315-0.135,0.404c-0.178,0.176-0.199,0.323-0.064,0.459
		c0.128,0.127,0.106,0.291-0.066,0.469c-0.356,0.173-0.619,0.35-0.806,0.529v0.265c-0.174,0.176-0.307,0.322-0.393,0.458
		c-0.089,0.134-0.225,0.202-0.399,0.202c-0.444,0.177-0.927,0.618-1.46,1.326c-0.795,0-1.501,0.482-2.117,1.458
		c-0.442,0-0.753,0.05-0.93,0.136c-0.087,0.083-0.155,0.196-0.201,0.33c-0.038,0.132-0.109,0.2-0.194,0.2
		c-0.448,0.181-0.797,0.376-1.064,0.593c-0.264,0.224-0.618,0.421-1.064,0.598c-0.177,0.175-0.331,0.245-0.464,0.199
		c-0.133-0.049-0.245-0.026-0.331,0.066c-0.263,0.18-0.618,0.26-1.06,0.26h-0.795c-0.441-0.083-0.863-0.108-1.262-0.067
		c-0.399,0.05-0.824,0.067-1.259,0.067h-0.399c-0.183,0.268-0.38,0.4-0.6,0.4c-0.221,0-0.422,0.09-0.596,0.264
		c-0.18,0.18-0.378,0.297-0.6,0.33c-0.221,0.047-0.421,0.158-0.597,0.33c-0.264,0.181-0.483,0.424-0.662,0.731
		c-0.178,0.312-0.178,0.553,0,0.724c0.178,0.182,0.245,0.33,0.2,0.465c-0.042,0.134-0.062,0.289-0.062,0.464
		c-0.089,0.265-0.138,0.663-0.138,1.197c0,0.178,0.022,0.289,0.067,0.328c0.048,0.044,0.023,0.158-0.067,0.333
		c-0.267,0-0.267,0.13,0,0.395c0.178,0.265,0.245,0.529,0.2,0.793c-0.042,0.263-0.022,0.528,0.068,0.8
		c-0.183,0.177-0.225,0.33-0.135,0.463c0.085,0.129,0.173,0.291,0.265,0.462c0.175,0.348,0.263,0.836,0.263,1.46
		c0,0.266,0.024,0.555,0.066,0.859c0.045,0.312,0.066,0.596,0.066,0.865c0.177,0.172,0.224,0.309,0.134,0.394
		c-0.174,0.267-0.174,0.489,0,0.666c0.088,0.884,0.156,1.722,0.199,2.516c0.04,0.798,0.156,1.638,0.329,2.521
		c0,0.354,0.044,0.579,0.138,0.661c0.084,0.09,0.131,0.316,0.131,0.668c-0.092,0.356-0.114,0.596-0.07,0.727
		c0.05,0.133,0.113,0.421,0.203,0.861c0.088,0.354,0.173,0.668,0.268,0.932c0.083,0.266,0.127,0.578,0.127,0.928
		c0.088,0.18,0.133,0.379,0.133,0.596c0,0.225,0.081,0.42,0.264,0.598c0.179,0.354,0.313,0.683,0.397,0.99
		c0.088,0.315,0.222,0.646,0.399,0.998c0.087,0.18,0.11,0.311,0.064,0.397c-0.044,0.089,0.024,0.222,0.206,0.399l0.262,0.528
		c0.086,0.267,0.219,0.75,0.396,1.461c0.263,0.264,0.485,0.445,0.667,0.53c0.087,0,0.195,0.046,0.331,0.132
		c0.134,0.089,0.286,0.048,0.464-0.132c0-0.087,0.082-0.133,0.264-0.133c0.44,0.179,0.837,0.197,1.193,0.063
		c0.357-0.132,0.747-0.24,1.199-0.325c1.77-0.179,3.446-0.442,5.034-0.8c0.442-0.086,0.863-0.156,1.262-0.201
		c0.399-0.038,0.82-0.105,1.265-0.193c0.438-0.087,0.831-0.199,1.188-0.33c0.354-0.134,0.753-0.245,1.2-0.33
		c0.173,0,0.263-0.089,0.263-0.27c0.176-0.174,0.355-0.308,0.532-0.397c0.176-0.089,0.404-0.177,0.668-0.267
		c0,0.445-0.052,0.663-0.133,0.663c-0.179,0.091-0.356,0.316-0.535,0.667c-0.176,0.357-0.378,0.663-0.597,0.929
		c-0.217,0.269-0.416,0.577-0.593,0.936c-0.086,0.171-0.197,0.234-0.33,0.194c-0.133-0.045-0.245,0.023-0.331,0.195
		c-0.266,0.45-0.578,0.773-0.934,0.995c-0.353,0.221-0.66,0.511-0.924,0.865c-0.354,0.346-0.532,0.66-0.532,0.924
		c0,0.354-0.134,0.578-0.399,0.668c-0.353,0.087-0.661,0.353-0.924,0.794c-0.358,0.354-0.618,0.579-0.797,0.663
		c-0.091,0-0.317,0.186-0.67,0.529c-0.178,0.186-0.441,0.536-0.792,1.063c-0.443-0.084-0.82,0.024-1.124,0.328
		c-0.318,0.315-0.64,0.599-0.998,0.865c-0.354,0.352-0.884,0.615-1.596,0.797c-0.176,0.085-0.328,0.134-0.47,0.134
		c-0.13,0-0.285,0.087-0.457,0.265c-0.173,0.178-0.528,0.263-1.06,0.263c-0.268,0.094-0.512,0.134-0.73,0.134
		c-0.222,0-0.424,0.089-0.594,0.268h-0.404c-0.347-0.087-0.66-0.111-0.925-0.064c-0.263,0.043-0.577,0.064-0.929,0.064
		c-0.175,0-0.377-0.043-0.593-0.138c-0.224-0.085-0.424-0.171-0.603-0.264c-0.53-0.263-1.059-0.44-1.588-0.527
		c-0.53-0.088-1.065-0.222-1.595-0.4c-0.177-0.088-0.308-0.131-0.403-0.131c-0.083,0-0.213-0.051-0.395-0.132
		c-0.177-0.083-0.312-0.175-0.395-0.264c-0.089-0.089-0.177-0.133-0.267-0.133c-0.178,0-0.312-0.049-0.394-0.132
		c-0.092-0.089-0.227-0.131-0.402-0.131c-0.529-0.093-0.925-0.354-1.194-0.801c-0.265-0.438-0.579-0.793-0.926-1.063
		c-0.182-0.614-0.486-1.122-0.933-1.524c-0.441-0.396-0.753-0.902-0.928-1.524c-0.086-0.176-0.195-0.374-0.327-0.593
		c-0.135-0.223-0.29-0.42-0.466-0.602c-0.089-0.174-0.113-0.369-0.065-0.593c0.044-0.221-0.023-0.424-0.204-0.598
		c-0.26-0.171-0.484-0.527-0.657-1.061c-0.094-0.18-0.114-0.402-0.068-0.664c0.043-0.271,0.023-0.486-0.066-0.667
		c0-0.352-0.09-0.484-0.265-0.395l-0.134-0.135l-0.398-1.593c-0.178-0.53-0.268-0.881-0.268-1.063
		c-0.086-0.174-0.11-0.329-0.066-0.463c0.046-0.135-0.022-0.287-0.2-0.467c-0.089,0-0.134-0.038-0.134-0.132
		c0.084-0.435,0.047-0.925-0.13-1.462c-0.18-0.53-0.312-1.008-0.4-1.459c0-1.237-0.179-2.207-0.526-2.919
		c-0.093-0.44-0.134-0.812-0.134-1.124c0-0.309-0.05-0.685-0.134-1.129c-0.089-0.263-0.133-0.529-0.133-0.793
		s-0.091-0.578-0.264-0.934c-0.265-0.266-0.265-0.528,0-0.793v-0.134v-2.651c0-0.35-0.023-0.678-0.066-0.992
		c-0.046-0.31,0.021-0.636,0.199-0.996v-0.127c-0.088-0.532-0.133-1.036-0.133-1.524c0-0.486,0-0.948,0-1.392v-1.59
		c0-0.353-0.023-0.671-0.066-0.929c-0.046-0.27-0.065-0.534-0.065-0.798c0-0.264,0.05-0.44,0.133-0.528
		c0.086-0.264,0.047-0.487-0.133-0.666v-0.134v-0.264c0.18-0.177,0.217-0.402,0.133-0.664c-0.086-0.268-0.133-0.537-0.133-0.802
		c0-0.436-0.047-0.86-0.136-1.256c-0.08-0.399-0.046-0.817,0.136-1.263c0.088-0.439,0.133-0.812,0.133-1.125
		c0-0.308,0-0.641,0-0.992c0.183-0.178,0.216-0.35,0.133-0.533c-0.086-0.177-0.133-0.35-0.133-0.531
		c0.086-0.265,0.108-0.548,0.066-0.862c-0.049-0.312,0.02-0.64,0.196-0.993c0.087,0,0.132-0.131,0.132-0.399
		c0-0.18-0.023-0.396-0.066-0.66c-0.05-0.271-0.024-0.489,0.066-0.667c0.086-0.172,0.136-0.397,0.136-0.665
		c0-0.531,0.039-0.879,0.133-1.061c0.17-0.442,0.263-0.928,0.263-1.46c0-0.532,0.089-1.011,0.267-1.462v-0.396v-0.396
		c0.172-0.353,0.242-0.732,0.199-1.126c-0.05-0.402-0.023-0.817,0.067-1.264c0.173-0.531,0.349-1.039,0.529-1.524
		c0.177-0.486,0.352-0.989,0.53-1.525c0.089-0.086,0.13-0.265,0.13-0.531c-0.086-0.261-0.086-0.528,0-0.79
		c0.093-0.267,0.177-0.534,0.265-0.801c0-0.264,0.049-0.53,0.139-0.794c0.087-0.264,0.17-0.486,0.265-0.665
		c0-0.266,0.066-0.483,0.193-0.662c0.131-0.18,0.156-0.396,0.07-0.666c-0.095-0.178-0.095-0.396,0-0.66
		c0.086-0.268,0.132-0.49,0.132-0.667c0.079-0.173,0.175-0.376,0.263-0.596c0.086-0.218,0.133-0.419,0.133-0.593
		c0.084-0.179,0.112-0.356,0.063-0.532c-0.044-0.178-0.022-0.352,0.071-0.53c0.176-0.353,0.307-0.691,0.39-0.998
		c0.091-0.309,0.091-0.684,0-1.124c0.355-0.444,0.51-0.931,0.466-1.46c-0.045-0.531,0.028-1.015,0.202-1.462
		c0.174-0.35,0.267-0.66,0.267-0.923c0.171-0.706,0.347-1.439,0.527-2.193c0.177-0.751,0.351-1.477,0.528-2.188
		c0.086-0.086,0.133-0.265,0.133-0.528c0.177-0.708,0.351-1.241,0.532-1.595c0.174-0.446,0.284-0.553,0.327-0.33
		c0.042,0.224,0.113,0.111,0.203-0.33c0-0.174-0.049-0.195-0.132-0.058c-0.089,0.125-0.184,0.109-0.264-0.071
		c0-0.177,0.065-0.308,0.199-0.399c0.132-0.085,0.151-0.214,0.066-0.396C212.361,94.949,212.443,94.73,212.623,94.637z"/>
</g>
<g>
	<path fill="#FFFFFF" d="M118.903,77.227c0.159,0.022,0.274,0.028,0.338,0.031c0.065,0,0.121,0.001,0.179,0.001
		c0.268,0,0.478-0.063,0.623-0.201c0.139-0.13,0.208-0.397,0.208-0.782V64.469h2.814v11.853c0,1.085-0.221,1.887-0.644,2.407
		c-0.43,0.524-1.268,0.781-2.509,0.781c-0.091,0-0.216-0.007-0.381-0.012c-0.169-0.004-0.377-0.011-0.627-0.023V77.227
		L118.903,77.227z M123.069,63.138h-2.814v-2.596h2.814V63.138z"/>
	<path fill="#FFFFFF" d="M128.544,64.423v6.478c0,0.608,0.069,1.07,0.214,1.379c0.252,0.544,0.755,0.812,1.5,0.812
		c0.957,0,1.604-0.381,1.966-1.156c0.186-0.425,0.274-0.976,0.274-1.666v-5.847h2.853v10.75h-2.732v-1.521
		c-0.025,0.033-0.089,0.133-0.191,0.297c-0.111,0.162-0.232,0.305-0.375,0.433c-0.446,0.399-0.863,0.67-1.272,0.812
		c-0.416,0.145-0.892,0.218-1.447,0.218c-1.587,0-2.651-0.577-3.204-1.721c-0.308-0.627-0.46-1.561-0.46-2.791v-6.476h2.875V64.423
		L128.544,64.423z"/>
	<path fill="#FFFFFF" d="M140.261,71.736c0.057,0.503,0.19,0.855,0.389,1.065c0.346,0.375,0.99,0.563,1.939,0.563
		c0.556,0,0.997-0.075,1.327-0.245c0.329-0.165,0.491-0.408,0.491-0.741c0-0.319-0.135-0.553-0.399-0.717
		c-0.262-0.163-1.243-0.447-2.943-0.847c-1.216-0.299-2.081-0.682-2.582-1.136c-0.499-0.447-0.747-1.088-0.747-1.933
		c0-0.992,0.396-1.847,1.17-2.561c0.781-0.711,1.881-1.064,3.297-1.064c1.344,0,2.439,0.262,3.288,0.801
		c0.843,0.535,1.331,1.461,1.458,2.776h-2.811c-0.036-0.359-0.145-0.648-0.312-0.859c-0.306-0.379-0.83-0.574-1.583-0.574
		c-0.61,0-1.051,0.093-1.31,0.293c-0.263,0.188-0.393,0.413-0.393,0.667c0,0.326,0.139,0.554,0.421,0.699
		c0.279,0.156,1.255,0.412,2.929,0.786c1.125,0.258,1.963,0.659,2.522,1.19c0.552,0.539,0.827,1.216,0.827,2.02
		c0,1.063-0.399,1.937-1.19,2.61c-0.795,0.673-2.021,1.011-3.681,1.011c-1.699,0-2.944-0.354-3.753-1.069
		c-0.803-0.715-1.203-1.623-1.203-2.729L140.261,71.736L140.261,71.736z"/>
	<path fill="#FFFFFF" d="M148.209,66.525v-2.004h1.497v-2.996h2.781v2.996h1.746v2.004h-1.746v5.681c0,0.438,0.059,0.712,0.172,0.82
		c0.11,0.112,0.449,0.166,1.02,0.166c0.084,0,0.176-0.004,0.271-0.007c0.096-0.001,0.191-0.008,0.287-0.014v2.103l-1.338,0.054
		c-1.324,0.047-2.233-0.187-2.719-0.692c-0.316-0.324-0.472-0.822-0.472-1.492v-6.616h-1.5V66.525L148.209,66.525z"/>
</g>
</svg>
