<?xml version="1.0" encoding="utf-8"?>
<!-- Generator: Adobe Illustrator 15.0.2, SVG Export Plug-In . SVG Version: 6.00 Build 0)  -->
<!DOCTYPE svg PUBLIC "-//W3C//DTD SVG 1.1//EN" "http://www.w3.org/Graphics/SVG/1.1/DTD/svg11.dtd">
<svg version="1.1" id="Ebene_1" xmlns="http://www.w3.org/2000/svg" xmlns:xlink="http://www.w3.org/1999/xlink" x="0px" y="0px"
	 width="228.95px" height="198px" viewBox="12 -73 228.95 198" enable-background="new 12 -73 228.95 198" xml:space="preserve">
<g>
	<g>
		<path fill="#F07F31" d="M128.62,104.964c45.109,0,81.673-36.563,81.673-81.672c0-45.103-36.562-81.666-81.673-81.666
			c-45.102,0-81.667,36.563-81.667,81.666S83.518,104.964,128.62,104.964"/>
	</g>
</g>
<g>
	<path fill="#FFFFFF" d="M32.489,31.032c0.25,0,0.457-0.041,0.624-0.125c0.083-0.164,0.183-0.309,0.308-0.434
		c0.123-0.125,0.103-0.312-0.061-0.562c-0.082,0.086-0.146,0.17-0.184,0.25c-0.044,0.085-0.146,0.21-0.311,0.381
		c-0.084-0.171-0.123-0.276-0.123-0.312c0-0.045-0.046-0.148-0.125-0.313c0.165-0.164,0.29-0.27,0.374-0.307
		c0.079-0.043,0.207-0.148,0.373-0.312h-0.747v-0.872h-0.75c0,0.25-0.043,0.458-0.127,0.621c-0.078-0.079-0.123-0.205-0.123-0.371
		c-0.082-0.421-0.148-0.788-0.185-1.127c-0.043-0.331-0.023-0.704,0.06-1.125c0.17-0.498,0.188-1,0.062-1.498
		c-0.125-0.5-0.149-1.001-0.062-1.5c0-0.416-0.083-1.043-0.249-1.875c-0.083,0-0.125,0.022-0.125,0.062
		c0,0.046-0.043,0.06-0.125,0.06v-0.122c0.167-0.254,0.226-0.497,0.188-0.752c-0.047-0.25-0.062-0.499-0.062-0.749
		c-0.083-0.583-0.183-1.166-0.311-1.749c-0.125-0.581-0.146-1.206-0.062-1.874c0.082-0.165,0.044-0.415-0.125-0.748l0.25-0.125
		c0.169,0,0.331-0.125,0.504-0.373c0.077-0.331,0.372-0.501,0.871-0.501c-0.171,0.172-0.271,0.331-0.311,0.501
		c-0.042,0.168-0.146,0.334-0.312,0.497l-0.125,0.125h-0.25v0.75c0,0.499,0.25,0.661,0.751,0.499
		c0.417-0.167,0.626-0.456,0.626-0.877v-0.373c0.163-0.166,0.228-0.374,0.188-0.623c-0.045-0.254-0.106-0.459-0.188-0.627
		c-0.084-0.082-0.169-0.146-0.252-0.185c-0.082-0.041-0.167-0.105-0.25-0.189c0-0.332,0.292-0.415,0.874-0.25
		c-0.334-0.328-0.625-0.498-0.874-0.498c-0.501-0.079-0.749-0.417-0.749-0.996c0.083-0.169,0.123-0.374,0.123-0.629
		c-0.331,0.083-0.747,0.209-1.245,0.379c-0.086,0-0.13-0.046-0.13-0.125c0.169-0.334,0.186-0.667,0.062-1.006
		c-0.125-0.327-0.104-0.666,0.062-0.999V9.681c-0.169-0.167-0.209-0.353-0.123-0.561c0.079-0.206,0.079-0.437,0-0.685
		c0-0.087,0.039-0.128,0.123-0.128c0.081,0,0.165-0.038,0.251-0.122c-0.335-0.25-0.458-0.543-0.374-0.875
		c0-0.497-0.046-0.874-0.125-1.124c-0.17-0.163-0.209-0.374-0.127-0.629c0.083-0.248,0.167-0.498,0.252-0.746V4.187
		c-0.086-0.083-0.125-0.25-0.125-0.498c0-0.333-0.17-0.626-0.501-0.877c0.167-0.163,0.271-0.185,0.309-0.062
		c0.043,0.125,0.149,0.148,0.317,0.062h0.123c-0.169-0.163-0.229-0.373-0.186-0.622c0.043-0.256,0.021-0.458-0.062-0.628
		l0.248-0.999c-0.084,0-0.183,0.042-0.306,0.122c-0.127,0.084-0.188,0-0.188-0.248c0.084-0.082,0.146-0.167,0.188-0.252
		c0.04-0.078,0.099-0.164,0.183-0.248c0.082-0.251,0.082-0.505,0-0.753c-0.167-0.166-0.231-0.267-0.183-0.31
		C29.981-1.167,30-1.272,30-1.434c0.083-0.167,0.103-0.356,0.062-0.562c-0.044-0.208,0.021-0.395,0.186-0.56v-0.626
		c0-0.581,0.041-1.04,0.126-1.375l-0.506-0.251c0.333-0.418,0.5-0.855,0.5-1.314c0-0.456,0.04-0.896,0.125-1.312
		c0.168-0.33,0.126-0.497-0.125-0.497c-0.334-0.167-0.5-0.502-0.5-1.002h0.127c0.579,0,1.122-0.122,1.621-0.374
		c0.17-0.084,0.311-0.125,0.441-0.125c0.125,0,0.267-0.042,0.433-0.126c0.583-0.167,1.102-0.167,1.563,0
		c0.455,0.166,0.932,0.334,1.43,0.5c0.335,0.167,0.667,0.293,1.001,0.373c0.335,0.084,0.662,0.21,1.002,0.373
		c0.328,0.17,0.748,0.5,1.245,1.003c0.335,0.334,0.667,0.833,1.003,1.5c0.079,0.166,0.125,0.375,0.125,0.623
		c-0.08,0.749,0,1.625,0.25,2.623c0.079,0.085,0.079,0.171,0,0.248c-0.17,0.423,0,0.794,0.501,1.128
		c0.079,0,0.167,0.043,0.248,0.125c-0.17,0.167-0.206,0.374-0.123,0.627c0.082,0.248,0.123,0.497,0.123,0.745
		c0.082,0.254,0.168,0.441,0.252,0.565C41.189,1,41.275,1.146,41.359,1.312c0.081,0.163,0.125,0.308,0.125,0.436
		c0,0.123,0.04,0.271,0.125,0.436c0,0.167-0.044,0.295-0.125,0.375c-0.085,0.083-0.044,0.208,0.125,0.373
		c-0.084,0.334-0.084,0.629,0,0.875c0.08,0.252,0.167,0.547,0.249,0.875c0.081,0.17,0.102,0.295,0.062,0.374
		c-0.044,0.086-0.062,0.208-0.062,0.379c0,0.079-0.023,0.125-0.061,0.125c-0.047,0-0.063,0.042-0.063,0.125
		c0.17,0.167,0.207,0.351,0.129,0.558c-0.083,0.209-0.129,0.399-0.129,0.562c0.083,0.164,0.106,0.35,0.063,0.562
		c-0.047,0.207-0.022,0.396,0.061,0.556c0,0.083,0.019,0.173,0.062,0.252c0.04,0.081,0.062,0.169,0.062,0.248
		c0.08,0.172,0.163,0.356,0.248,0.565c0.081,0.207,0.043,0.396-0.125,0.558c0.082-0.079,0.169-0.125,0.251-0.125
		c0-0.33,0.042-0.541,0.125-0.623c0-0.167,0.125-0.292,0.374-0.376v0.502c-0.083,0.247-0.148,0.52-0.188,0.808
		c-0.043,0.294-0.102,0.56-0.186,0.81c-0.079,0.085,0.044,0.297,0.379,0.627c-0.17,0.171-0.249,0.355-0.249,0.562
		c0,0.208-0.17,0.396-0.506,0.56l0.632,0.624c-0.42,0.168-0.504,0.42-0.255,0.752c0.084,0.168,0.105,0.269,0.063,0.308
		c-0.046,0.043-0.063,0.151-0.063,0.31c-0.079,0.333,0.044,0.628,0.379,0.877c0-0.169,0.039-0.33,0.125-0.501l0.374,0.75
		c0,0.17-0.086,0.419-0.249,0.754c0.165,0,0.418,0.079,0.749,0.248c0.083,0.164,0.102,0.289,0.061,0.374
		c-0.046,0.081-0.021,0.207,0.062,0.373l0.374,0.749c0,0.17-0.042,0.274-0.125,0.311c-0.084,0.045-0.125,0.146-0.125,0.311
		c0,0.334,0.062,0.625,0.186,0.875c0.125,0.252,0.146,0.5,0.062,0.75c-0.168,0.169-0.125,0.332,0.123,0.498
		c0.252,0.249,0.354,0.499,0.311,0.752c-0.041,0.25-0.062,0.5-0.062,0.747v0.626c0,0.168,0.021,0.354,0.062,0.562
		c0.043,0.205,0.024,0.395-0.062,0.56c0,0.08-0.022,0.148-0.061,0.184c-0.046,0.043-0.062,0.104-0.062,0.183
		c-0.084,0.085-0.147,0.126-0.187,0.126s-0.101,0.042-0.184,0.122c0.084,0.084,0.167,0.125,0.25,0.125
		c0.335,0,0.542,0.107,0.626,0.312c0.082,0.21,0.039,0.397-0.125,0.561c-0.168,0.252-0.232,0.501-0.185,0.751
		c0.039,0.249,0.061,0.496,0.061,0.75l0.374,0.374c0.42-0.164,0.606-0.394,0.562-0.687c-0.043-0.291,0.021-0.559,0.186-0.809
		c-0.082,0.42-0.041,0.769,0.123,1.058c0.167,0.296,0.167,0.65,0,1.061v0.253c0.084,0.334,0,0.623-0.25,0.873
		c-0.08,0.085-0.248,0.295-0.497,0.626c0.25-0.083,0.497-0.126,0.747-0.126v0.875c-0.165-0.079-0.373-0.126-0.622-0.126
		c0,0.25,0.042,0.458,0.125,0.624c-0.333,0.171-0.46,0.42-0.374,0.753c0.079,0.169-0.125,0.374-0.625,0.624
		c0.165,0,0.25,0.085,0.25,0.249c0.328,0.17,0.416,0.458,0.25,0.876c-0.086,0.082-0.125,0.251-0.125,0.5c0,0.25,0,0.418,0,0.498
		c0,0.083-0.086,0.25-0.25,0.499c0.165-0.079,0.29-0.125,0.375-0.125c0.079,0,0.166-0.039,0.249-0.122h0.374
		c0.167,0.167,0.25,0.334,0.25,0.497c0,0.422,0,0.648,0,0.688c0,0.044,0.043,0.233,0.123,0.557c0,0.172-0.021,0.313-0.061,0.443
		c-0.043,0.125-0.061,0.271-0.061,0.435c0,0.329-0.084,0.544-0.249,0.623c0.076,0.085,0.125,0.17,0.125,0.25
		c0,0.084,0.04,0.17,0.124,0.256c-0.085,0.163-0.173,0.307-0.25,0.431c-0.086,0.125-0.049,0.271,0.125,0.439v0.125
		c-0.255,0.416-0.312,0.787-0.188,1.12c0.125,0.334,0.188,0.707,0.188,1.127c0,0.17,0,0.295,0,0.374c0,0.083,0.079,0.209,0.25,0.375
		h0.123h0.125c0.165-0.664,0.328-1.249,0.499-1.747c0.079-0.167,0.171-0.353,0.25-0.564c0.079-0.203,0.079-0.392,0-0.559l0.126-0.25
		c0.333-0.169,0.52-0.396,0.558-0.686c0.043-0.289,0.062-0.564,0.062-0.812c0.083-0.164,0.17-0.375,0.253-0.623
		c0.082-0.252,0.125-0.497,0.125-0.75c0.078-0.25,0.205-0.705,0.375-1.377c0.164-0.416,0.292-0.808,0.374-1.188
		c0.079-0.376,0.163-0.768,0.248-1.185c0.25-0.998,0.542-1.79,0.871-2.372c0.086-0.164,0.128-0.374,0.128-0.624
		c0-0.246,0.083-0.458,0.249-0.628l-0.122-0.25c0.249-0.248,0.374-0.413,0.374-0.499c0.33-0.416,0.539-0.872,0.624-1.376
		c0.082-0.164,0.102-0.312,0.062-0.434c-0.046-0.127-0.022-0.267,0.061-0.434c0.082-0.168,0.145-0.271,0.184-0.313
		c0.044-0.04,0.106-0.144,0.187-0.308c0.169-0.75,0.33-1.497,0.499-2.25c0.169-0.748,0.334-1.455,0.503-2.12
		c0.167-0.499,0.308-1.019,0.436-1.563c0.122-0.536,0.312-1.055,0.56-1.558c0.165-0.247,0.328-0.704,0.5-1.375
		c0-0.167,0.02-0.25,0.062-0.25c0.039,0,0.062-0.08,0.062-0.248c0.166-0.168,0.249-0.334,0.249-0.502
		c0-0.167,0.04-0.332,0.126-0.499c0.079-0.083,0.204-0.29,0.374-0.625c0.497-0.664,0.704-1.207,0.623-1.624v-0.25
		c0.418-0.415,0.628-0.956,0.628-1.625c0-0.163,0.04-0.271,0.123-0.311c0.079-0.038,0.165-0.146,0.249-0.311
		c0.079-0.414,0.185-0.77,0.308-1.06c0.126-0.289,0.146-0.646,0.062-1.061V8.174c0.333-0.501,0.583-0.999,0.753-1.5
		c0.166-0.499,0.328-1.001,0.501-1.5c0.074-0.168,0.167-0.33,0.248-0.5c0.078-0.167,0.168-0.327,0.25-0.5
		c0.167-0.167,0.309-0.351,0.434-0.557c0.125-0.211,0.274-0.397,0.44-0.563l0.126-0.127c0.163-0.414,0.392-0.725,0.683-0.934
		c0.291-0.205,0.517-0.478,0.688-0.812c0.165-0.329,0.374-0.583,0.623-0.746c0.25-0.171,0.453-0.335,0.625-0.501
		c0.249-0.25,0.375-0.668,0.375-1.25c0.082,0,0.168-0.024,0.248-0.063c0.083-0.04,0.167-0.062,0.25-0.062
		c0,0.084,0.021,0.147,0.066,0.187c0.038,0.046,0.062,0.147,0.062,0.31c0.164-0.163,0.268-0.294,0.309-0.373
		c0.042-0.083,0.098-0.17,0.184-0.255c0-0.165-0.024-0.29-0.06-0.375c-0.05-0.079-0.062-0.202-0.062-0.373
		c0.164-0.163,0.265-0.292,0.31-0.374c0.04-0.078,0.145-0.166,0.309-0.252c-0.08-0.163-0.125-0.269-0.125-0.309
		S64.4-3.401,64.318-3.566l0.125-0.123c0.418-0.164,0.831-0.373,1.252-0.626c0.328-0.168,0.578-0.168,0.747,0
		c0.17,0.253,0.378,0.397,0.627,0.439c0.25,0.039,0.542,0.148,0.874,0.308c0.079,0.25,0.142,0.524,0.183,0.813
		c0.043,0.288,0.309,0.436,0.812,0.436c-0.082-0.167-0.125-0.459-0.125-0.875c0.417-0.253,0.788-0.333,1.125-0.253
		c0.077,0.086,0.249,0.125,0.499,0.125h0.497c-0.166,0.17-0.309,0.354-0.434,0.561c-0.125,0.21-0.271,0.399-0.436,0.559l0.748,0.378
		c0,0.165-0.023,0.308-0.062,0.433c-0.045,0.125-0.06,0.274-0.06,0.44c-0.17,0.499,0,0.748,0.5,0.748
		c0,0.169-0.024,0.311-0.062,0.435c-0.046,0.125-0.062,0.273-0.062,0.436c-0.086,0-0.126,0.045-0.126,0.125
		c0.165,0.334,0.082,0.669-0.248,1.004c-0.17,0.167-0.272,0.35-0.312,0.559c-0.045,0.204-0.146,0.397-0.311,0.56
		c-0.335,0.417-0.5,0.957-0.5,1.623c0,0.25-0.021,0.481-0.062,0.687c-0.044,0.206-0.107,0.437-0.187,0.688
		c-0.082,0.083-0.125,0.167-0.125,0.248c-0.083,0.419-0.147,0.855-0.185,1.309C68.969,7.93,68.866,8.372,68.7,8.785
		c0,0.17-0.079,0.418-0.25,0.749c-0.165,0.334-0.333,0.583-0.499,0.753c-0.08-0.083-0.248-0.13-0.497-0.13
		c-0.25,0.254-0.458,0.544-0.626,0.878l-0.248,0.497c0.167,0.419,0.042,0.75-0.374,1.003c-0.173,0.418-0.208,0.791-0.123,1.121
		c0.082,0.339,0.042,0.714-0.123,1.131c-0.083,0.165-0.105,0.308-0.063,0.433c0.044,0.123,0.063,0.311,0.063,0.56
		c-0.083,0.17-0.148,0.379-0.184,0.629c-0.047,0.248-0.152,0.457-0.315,0.624v0.373c-0.25,0.251-0.374,0.499-0.374,0.751
		c0,0.251,0,0.501,0,0.75c0,0.334,0,0.646,0,0.938c0,0.29-0.127,0.558-0.375,0.812v0.374c0,0.167,0.043,0.273,0.123,0.31
		c0.086,0.047,0.086,0.107,0,0.184c-0.331,0.583-0.543,1.126-0.622,1.624c-0.17,0.172-0.249,0.357-0.249,0.564
		c0,0.208-0.046,0.397-0.125,0.563c-0.248,1.164-0.667,2.204-1.252,3.121c-0.167,0.166-0.268,0.376-0.311,0.624
		c-0.039,0.25-0.101,0.458-0.184,0.622l0.125,0.249c0,0.085,0.045,0.125,0.125,0.125c-0.166,0.423-0.269,0.775-0.308,1.064
		c-0.044,0.295-0.148,0.607-0.311,0.936c0.165,0.17,0.165,0.498,0,1.001c-0.169,0.329-0.25,0.646-0.25,0.935
		c0,0.293-0.084,0.606-0.248,0.938v0.126c0,0.17,0.041,0.248,0.124,0.248c0,0.42-0.083,0.71-0.254,0.879l-0.374,1.127
		c0,0.249-0.062,0.475-0.185,0.686c-0.125,0.203-0.229,0.396-0.308,0.556c-0.17,0.167-0.248,0.332-0.248,0.5
		c-0.173,0.421-0.421,0.75-0.754,1.003c-0.417,0.418-0.458,0.749-0.123,0.998c-0.331,0.085-0.5,0.334-0.5,0.749
		c0,0.084-0.044,0.187-0.123,0.312c-0.084,0.129-0.044,0.271,0.123,0.434c0,0.085-0.044,0.126-0.123,0.126
		c-0.17,0.167-0.211,0.372-0.125,0.626c0.082,0.25,0.041,0.457-0.125,0.624c0.33,0.249,0.373,0.458,0.125,0.629
		c-0.248,0.249-0.295,0.579-0.125,0.999c0,0.167,0.019,0.31,0.062,0.433c0.043,0.125-0.022,0.276-0.186,0.438v0.504
		c0.163,0.413,0.123,0.791-0.125,1.121c-0.084,0.25-0.125,0.63-0.125,1.128h0.125c-0.084,0.499-0.169,0.997-0.248,1.499
		c-0.086,0.499-0.209,0.998-0.374,1.497c0,0.168-0.084,0.334-0.253,0.5c-0.079,0.333-0.165,0.627-0.248,0.876
		c-0.08,0.25-0.209,0.543-0.374,0.879c-0.082,0.163-0.103,0.292-0.06,0.374c0.042,0.079,0.017,0.208-0.06,0.373
		c-0.173,0.499-0.296,0.832-0.374,1.002c-0.335,0.75-0.546,1.412-0.629,1.992c-0.166,0.421-0.29,0.77-0.373,1.061
		c-0.084,0.296-0.21,0.646-0.374,1.062c-0.084,0.25-0.209,0.705-0.372,1.372l-0.377,1.875c-0.087,0.166-0.125,0.336-0.125,0.499
		c0,0.17-0.042,0.334-0.125,0.5c-0.167,0.498-0.311,1.04-0.438,1.625c-0.122,0.582-0.395,1.079-0.811,1.497
		c-0.169,0.17-0.356,0.355-0.56,0.562c-0.209,0.21-0.437,0.396-0.686,0.562c-0.17,0.169-0.501,0.25-1,0.25
		c-0.167,0.081-0.354,0.124-0.562,0.124c-0.205,0-0.395,0.045-0.561,0.125c0.17,0.248,0.208,0.419,0.125,0.499
		c0,0.17-0.125,0.255-0.374,0.255c-0.167,0.167-0.416,0.335-0.746,0.497c-0.42,0.251-0.773,0.311-1.059,0.186
		c-0.296-0.125-0.606-0.23-0.938-0.309c-0.166,0-0.25-0.125-0.25-0.374c-0.082-0.255-0.33-0.459-0.747-0.629v0.374
		c-0.42,0.084-0.708-0.017-0.874-0.308C43.97,68.142,43.681,68,43.26,68v0.748c-0.169,0.418-0.334,0.458-0.496,0.125
		c-0.171-0.249-0.421-0.374-0.752-0.374c-0.913,0.081-1.829-0.125-2.745-0.631c-0.335-0.327-0.546-0.577-0.622-0.745
		c-0.335-0.5-0.709-0.834-1.125-1.003c0.165-0.163,0.292-0.266,0.374-0.311c0.079-0.037,0.203-0.144,0.374-0.307
		c-0.42-0.083-0.625-0.378-0.625-0.877c-0.169-0.663-0.373-1.127-0.622-1.373c-0.084-0.083-0.13-0.167-0.13-0.254
		c0-0.333-0.04-0.623-0.119-0.871c0.325-0.17,0.624-0.295,0.871-0.38c0.081-0.166,0.043-0.5-0.123-0.998
		c0-0.084-0.023-0.167-0.063-0.252c-0.044-0.082-0.062-0.163-0.062-0.25c-0.083-0.332,0-0.499,0.248-0.499
		c0.168,0.666,0.353,1.311,0.562,1.933c0.207,0.626,0.438,1.268,0.688,1.934c0.165-0.168,0.292-0.29,0.374-0.374
		c0.082-0.083,0.206-0.207,0.374-0.373c0.252-0.167,0.354-0.355,0.313-0.565c-0.046-0.204-0.062-0.394-0.062-0.56
		c-0.17,0.082-0.272,0.123-0.312,0.123c-0.043,0-0.146,0.043-0.311,0.125c-0.249-0.081-0.295-0.289-0.125-0.622
		c0.25-0.25,0.354-0.521,0.311-0.814c-0.046-0.289-0.148-0.562-0.311-0.814c0-0.161-0.021-0.31-0.062-0.433
		c-0.043-0.125-0.06-0.27-0.06-0.437c0-0.084-0.084-0.289-0.248-0.624c0-0.083,0.019-0.125,0.059-0.125
		c0.041,0,0.062-0.044,0.062-0.125c-0.084-0.171-0.125-0.293-0.125-0.379c0-0.078-0.046-0.204-0.125-0.373
		c-0.086-0.081-0.125-0.165-0.125-0.249c-0.086-0.081-0.209-0.146-0.378-0.188c-0.167-0.039-0.249-0.143-0.249-0.309
		c0-0.083-0.081-0.377-0.251-0.875c0.333-0.249,0.5-0.703,0.5-1.376c-0.08,0-0.144-0.025-0.184-0.062
		c-0.043-0.042-0.104-0.063-0.184-0.063c-0.083-0.081-0.123-0.292-0.123-0.624l0.497-0.25c-0.164-0.5-0.295-0.751-0.374-0.751
		c-0.17-0.082-0.295-0.206-0.375-0.376c-0.082-0.163-0.205-0.288-0.373-0.373c-0.25,0-0.25-0.125,0-0.374l0.373-0.25
		c0-0.334-0.169-0.499-0.499-0.499c-0.333,0-0.5-0.13-0.5-0.381c-0.082-0.167-0.125-0.29-0.125-0.373
		c0-0.08-0.044-0.204-0.126-0.375c-0.251,0.664-0.421,1.288-0.5,1.87c-0.33-0.5-0.458-0.873-0.373-1.124
		c0.079-0.256,0.079-0.479,0-0.686c-0.084-0.209-0.21-0.438-0.374-0.688c-0.253,0.167-0.333,0.334-0.253,0.499
		c0.169,0.168,0.209,0.274,0.13,0.312c-0.086,0.044-0.21,0.104-0.381,0.185c0-0.581-0.125-1.123-0.374-1.624
		c-0.167-0.167-0.272-0.392-0.309-0.684c-0.042-0.292-0.103-0.563-0.184-0.813c0-0.168,0.02-0.31,0.059-0.434
		c0.044-0.125,0.061-0.27,0.061-0.44v-0.999c-0.168-0.166-0.328-0.294-0.499-0.374l0.374-0.375
		c-0.167-0.082-0.333-0.296-0.499-0.625c-0.083-0.164-0.123-0.311-0.123-0.438c0-0.126-0.046-0.27-0.125-0.433
		c0.331-0.167,0.622-0.295,0.871-0.375c-0.168-0.085-0.308-0.147-0.433-0.193c-0.128-0.037-0.274-0.06-0.438-0.06
		c0.17-0.33,0.206-0.665,0.125-1c-0.079-0.079-0.079-0.203,0-0.373c0.08-0.164,0.123-0.333,0.123-0.499l-0.497-0.249
		c0,0.164,0.046,0.327,0.125,0.499c0.082,0.166,0,0.334-0.25,0.497c-0.335-0.248-0.418-0.707-0.25-1.376h0.748
		c0-0.251-0.021-0.499-0.062-0.748c-0.043-0.249-0.059-0.46-0.059-0.628c-0.085-0.166,0.04-0.414,0.374-0.748
		c0.248,0.248,0.331,0.478,0.248,0.685c-0.082,0.21-0.125,0.437-0.125,0.685c0.167,0.169,0.292,0.312,0.374,0.436
		c0.084,0.125,0.208,0.31,0.372,0.562c-0.079-0.415,0.023-0.727,0.316-0.937c0.29-0.209,0.437-0.519,0.437-0.937
		c0.166,0.084,0.291,0.166,0.374,0.25c0.248-0.25,0.248-0.58,0-0.994c-0.248-0.169-0.354-0.357-0.308-0.565
		c0.036-0.204,0.1-0.437,0.183-0.683c0-0.08,0.02-0.144,0.061-0.187c0.044-0.041,0.023-0.148-0.061-0.312
		c-0.249-0.328-0.291-0.703-0.123-1.122c0.08-0.171,0.123-0.378,0.123-0.625c-0.167-0.581-0.21-1.04-0.123-1.379
		c0-0.248-0.083-0.622-0.25-1.121V32.5h-0.893c0.081-0.164,0.125-0.294,0.125-0.379c0-0.075,0.046-0.205,0.129-0.375l-0.38-0.371
		c-0.333,0.083-0.521,0.271-0.558,0.562c-0.043,0.292-0.186,0.525-0.436,0.684c0-0.164-0.023-0.292-0.061-0.374
		c-0.046-0.079-0.062-0.166-0.062-0.248C32.65,31.616,32.65,31.281,32.489,31.032z M32.489,31.032c-0.084,0-0.15-0.019-0.183-0.061
		c-0.05-0.041-0.107-0.057-0.189-0.057c0,0.08-0.081,0.291-0.25,0.621c-0.167-0.166-0.25-0.459-0.25-0.871V29.91
		c0-0.163,0.17-0.327,0.5-0.499C32.191,29.828,32.316,30.366,32.489,31.032z M31.737,21.169c0,0.669,0.125,1.124,0.374,1.375
		c0.079-0.169,0.165-0.294,0.248-0.376c0.079-0.08,0.167-0.206,0.25-0.372c-0.17-0.167-0.312-0.269-0.437-0.307
		C32.05,21.442,31.899,21.335,31.737,21.169z M32.36,25.54c-0.248,0.171-0.354,0.375-0.312,0.626
		c0.047,0.249-0.022,0.458-0.184,0.627h0.626C32.489,26.208,32.439,25.791,32.36,25.54z M33.356,35.528
		c0,0.25-0.021,0.477-0.062,0.687c-0.043,0.206-0.059,0.396-0.059,0.559c-0.248-0.167-0.547-0.334-0.875-0.502
		c0.17-0.165,0.328-0.288,0.501-0.374C33.024,35.821,33.194,35.696,33.356,35.528z M33.482,18.298
		c-0.25,0.079-0.544,0.208-0.875,0.374c-0.25,0.251-0.292,0.418-0.125,0.497c0-0.079,0.125,0,0.376,0.255l0.25-0.501h0.497
		c0-0.167-0.021-0.273-0.062-0.314C33.505,18.569,33.482,18.467,33.482,18.298z M32.739,46.888c-0.173-0.499-0.25-0.957-0.25-1.376
		l0.499-0.249c0,0.747-0.042,1.291-0.125,1.624L32.739,46.888L32.739,46.888L32.739,46.888z M32.984,33.154
		c0.165,0.836,0.249,1.542,0.249,2.12c-0.583-0.327-0.793-0.787-0.626-1.376c0-0.163,0.082-0.414,0.252-0.748h0.124L32.984,33.154
		L32.984,33.154z M33.605,48.261c0,0.25,0.046,0.459,0.125,0.626c0.083,0.169,0,0.337-0.248,0.498
		c-0.421-0.08-0.544-0.452-0.374-1.124H33.605z M34.61,40.272c-0.418-0.167-0.665-0.228-0.747-0.184
		c-0.086,0.04-0.173,0.146-0.253,0.312c0.417,0.167,0.643,0.247,0.686,0.247C34.335,40.647,34.441,40.521,34.61,40.272z
		 M37.355,57.505c0.08-0.083,0.25-0.125,0.5-0.125v0.125c-0.25,0.499-0.375,0.957-0.375,1.373c0,0.084-0.021,0.148-0.062,0.187
		c-0.044,0.048-0.062,0.105-0.062,0.189c-0.171-0.167-0.25-0.292-0.25-0.379v-0.496c-0.169,0-0.295,0.02-0.375,0.057
		c-0.083,0.041-0.208,0.061-0.375,0.061c-0.172,0.085-0.334,0-0.498-0.25c-0.084-0.416-0.173-0.829-0.252-1.247
		c-0.082-0.418-0.17-0.832-0.25-1.251c0-0.164-0.082-0.33-0.249-0.499c-0.17-0.17-0.233-0.295-0.188-0.38
		c0.046-0.077,0.062-0.204,0.062-0.374c0-0.329,0.209-0.413,0.626-0.249c0.58-0.583,1.125-0.542,1.623,0.125
		c0.082,0.17,0.185,0.271,0.311,0.311c0.125,0.042,0.227,0.104,0.312,0.188c-0.171,0.254-0.335,0.351-0.5,0.312
		c-0.169-0.044-0.333,0.018-0.499,0.183c0.166,0.173,0.228,0.309,0.183,0.434c-0.04,0.125-0.022,0.273,0.062,0.441
		c0,0.166,0.021,0.312,0.062,0.438c0.039,0.125,0.062,0.273,0.062,0.438c0,0.083,0.02,0.147,0.06,0.182
		C37.333,57.358,37.355,57.423,37.355,57.505z M35.981,47.013c0.167,0.502,0.249,0.875,0.249,1.125c0,0.583,0.083,0.999,0.25,1.249
		c0.167,0.334,0.331,0.629,0.503,0.879c-0.086-0.418-0.127-0.957-0.127-1.629c0-0.076-0.021-0.145-0.062-0.184
		c-0.046-0.042-0.062-0.101-0.062-0.185c-0.249-0.166-0.354-0.352-0.312-0.562c0.045-0.206,0.109-0.396,0.189-0.562l-0.251,0.125
		c-0.084-0.083-0.146-0.125-0.187-0.125C36.125,47.137,36.065,47.098,35.981,47.013z M37.355,60.875c-0.667,0.418-1,0.331-1-0.249
		c-0.082-0.25-0.126-0.583-0.126-1.001c0-0.252,0.044-0.456,0.126-0.626h0.376c0,0.17,0.058,0.295,0.184,0.375
		c0.125,0.086,0.147,0.21,0.062,0.374v0.375C36.979,60.542,37.105,60.79,37.355,60.875z"/>
	<path fill="#FFFFFF" d="M91.541,66.742c0.25-0.165,0.418-0.186,0.501-0.063c0.083,0.124,0.208,0.231,0.375,0.312
		c0.249,0.252,0.54,0.293,0.871,0.125c0-0.164-0.043-0.295-0.123-0.374c-0.499-0.419-0.979-0.873-1.437-1.376
		c-0.458-0.499-0.98-0.957-1.558-1.376c-0.25-0.165-0.48-0.375-0.691-0.624c-0.207-0.25-0.434-0.501-0.683-0.749l-0.875-0.876
		l-0.499,0.499c-0.422-0.081-0.708-0.352-0.879-0.811c-0.167-0.457-0.124-0.894,0.125-1.312c0.256,0.085,0.458,0.229,0.63,0.433
		c0.162,0.21,0.417,0.233,0.75,0.069c0.082-0.335-0.049-0.668-0.377-1.001c-0.25-0.253-0.479-0.504-0.685-0.754
		c-0.21-0.25-0.437-0.5-0.687-0.749c-0.25-0.25-0.418-0.374-0.498-0.374c-0.085,0-0.335,0.078-0.753,0.25
		c-0.333-0.415-0.583-0.791-0.745-1.13c-0.171-0.327-0.381-0.701-0.631-1.122c-0.161-0.416-0.373-0.811-0.621-1.188
		c-0.249-0.371-0.499-0.769-0.748-1.184c0.417-0.581,0.288-1.204-0.375-1.872c-0.249-0.083-0.297-0.296-0.125-0.631
		c0.167-0.166,0.268-0.373,0.307-0.623c0.044-0.248,0.146-0.458,0.311-0.624c-0.076-0.251-0.248-0.417-0.497-0.5
		c0-0.083,0.047-0.168,0.125-0.251c0.249-0.33,0.296-0.704,0.125-1.129c-0.078-0.078-0.169-0.182-0.25-0.307
		c-0.087-0.126-0.167-0.185-0.249-0.185c-0.42-0.166-0.685-0.397-0.81-0.687c-0.123-0.292-0.275-0.599-0.44-0.936
		c0-0.167,0.023-0.292,0.064-0.376c0.039-0.08,0.017-0.205-0.064-0.375c-0.252-0.418-0.353-0.853-0.311-1.312
		c0.043-0.455,0.104-0.938,0.186-1.436v-0.364c-0.081-0.418-0.127-0.875-0.127-1.376c0-0.499,0-0.954,0-1.376
		c0-0.249,0.047-0.499,0.127-0.75c0.083-0.247,0.167-0.5,0.249-0.747c0.083-0.248,0.129-0.584,0.129-0.999
		c-0.086-0.42-0.129-0.772-0.129-1.062c0-0.292,0-0.643,0-1.062c0.168-0.913,0.272-1.848,0.315-2.808
		c0.039-0.955,0.142-1.891,0.31-2.811c0-0.251,0.082-0.627,0.248-1.128c0-0.163,0.04-0.327,0.125-0.496
		c0-0.327,0.082-0.913,0.249-1.75c0.082-0.165,0.127-0.333,0.127-0.499c0-0.167,0.039-0.331,0.125-0.498
		c0-0.085-0.022-0.148-0.062-0.188c-0.04-0.04-0.024-0.147,0.062-0.311c0.077-0.502,0.165-1.019,0.249-1.557
		c0.078-0.547,0.207-1.104,0.373-1.688c0.082-0.334,0.165-0.646,0.249-0.939c0.082-0.289,0.082-0.641,0-1.059
		c0-0.25,0.046-0.521,0.124-0.812c0.084-0.29,0.17-0.558,0.255-0.806c0.078-0.419,0.146-0.855,0.185-1.315
		c0.043-0.455,0.145-0.895,0.308-1.309l0.377-1.126c0.166-0.417,0.271-0.812,0.309-1.186c0.044-0.379,0.186-0.77,0.438-1.19
		c0.082-0.163,0.103-0.351,0.061-0.56c-0.043-0.204-0.024-0.393,0.062-0.561c0.17-0.416,0.295-0.791,0.374-1.124
		C85.486,8.334,85.616,8,85.783,7.667c0-0.17,0.167-0.419,0.501-0.754c0.329-0.498,0.456-0.911,0.373-1.246
		c0-0.248,0.043-0.419,0.126-0.497c0.328-0.583,0.623-1.189,0.873-1.812c0.248-0.626,0.625-1.19,1.126-1.687
		c0.079-0.08,0.125-0.204,0.125-0.376c0.079-0.163,0.123-0.311,0.123-0.436c0-0.123,0.041-0.226,0.125-0.311
		c0.165-0.248,0.354-0.479,0.56-0.684c0.205-0.209,0.273-0.476,0.188-0.809c0.499-0.504,0.873-0.916,1.122-1.253
		c-0.25-0.329-0.291-0.643-0.125-0.935c0.169-0.292,0.334-0.559,0.497-0.808c0.42-0.583,0.854-1.144,1.313-1.687
		c0.46-0.539,0.896-1.105,1.315-1.688c0.328-0.413,0.623-0.787,0.871-1.123c0.248-0.33,0.542-0.707,0.874-1.127
		c0.417-0.662,1-1.249,1.748-1.744c0.082,0,0.125-0.044,0.125-0.125c0.248-0.583,0.834-0.876,1.752-0.876
		c0.163,0,0.331-0.021,0.499-0.062c0.167-0.041,0.329-0.063,0.497-0.063c1.504-0.248,2.791,0.046,3.873,0.876
		c0.753,0.5,1.623,0.626,2.622,0.375h0.251c1,0,2.013,0.02,3.057,0.062c1.039,0.041,2.017,0.227,2.936,0.558
		c0.167,0,0.293,0.023,0.374,0.062c0.082,0.049,0.205,0.062,0.379,0.062c0.66,0.086,1.249,0.253,1.746,0.502
		c0.497,0.252,1.037,0.542,1.625,0.875c0.498,0.169,0.875,0.334,1.123,0.5c0.249,0.169,0.498,0.311,0.749,0.437
		c0.252,0.122,0.54,0.27,0.875,0.436c0.505,0.332,0.79,0.706,0.877,1.124c0.251,0.421,0.419,0.669,0.499,0.756
		c0.417,0.244,0.703,0.54,0.875,0.87c0.168,0.334,0.329,0.71,0.5,1.125l0.749,1.498c0,0.083,0.021,0.171,0.062,0.25
		c0.039,0.085,0.063,0.21,0.063,0.38c0.076,0.417,0.142,0.855,0.187,1.307c0.041,0.456,0.143,0.897,0.307,1.313v0.376
		c-0.083,1.414,0.206,2.87,0.874,4.365c0.167,0.338,0.253,0.877,0.253,1.629c-0.169,0.581-0.127,1.081,0.125,1.498
		c0.163,0.17,0.252,0.294,0.252,0.374c0,0.497,0.1,0.979,0.311,1.436c0.205,0.457,0.267,0.98,0.185,1.56
		c-0.084,0.167-0.104,0.292-0.06,0.377c0.037,0.079,0.06,0.208,0.06,0.375c0.082,0.08,0.123,0.205,0.123,0.373
		c-0.172,1.003,0,1.796,0.5,2.374v0.373c-0.169,0.918-0.185,1.771-0.06,2.561c0.124,0.793,0.226,1.642,0.307,2.559
		c0.083,0.42,0.169,0.855,0.253,1.313c0.079,0.454,0.039,0.897-0.123,1.309c-0.086,0.168-0.107,0.298-0.063,0.373
		c0.042,0.082,0.063,0.209,0.063,0.375c0.08,0.837,0.142,1.647,0.183,2.44c0.042,0.788,0.061,1.604,0.061,2.431
		c0,0.423-0.041,0.751-0.125,1.001c0,0.417-0.041,0.833-0.124,1.25c-0.083,0.42-0.125,0.834-0.125,1.251
		c0,0.329,0.046,0.546,0.125,0.626c0.249,0.418,0.331,0.749,0.249,1c-0.166,0.414-0.125,0.747,0.126,0.996
		c0.168,0.335,0.168,0.624,0,0.876c-0.167,0.665-0.335,1.167-0.5,1.498c0,0.255-0.084,0.626-0.251,1.125c0,0.421,0,0.808,0,1.188
		c0,0.375-0.04,0.771-0.123,1.185c0,0.172-0.021,0.354-0.062,0.562c-0.045,0.21-0.062,0.434-0.062,0.684
		c-0.079,0.33-0.104,0.665-0.062,0.996c0.046,0.334,0.272,0.629,0.69,0.88c0.08,0.083,0.142,0.208,0.183,0.375
		c0.042,0.167,0.101,0.332,0.187,0.499c0.163,1,0,1.792-0.5,2.373c-0.334,0.499-0.377,0.999-0.126,1.498
		c0.248,0.335,0.291,0.748,0.126,1.248c-0.084,0.422-0.146,0.792-0.187,1.127c-0.048,0.333-0.104,0.666-0.184,0.999
		c-0.083,0.252-0.129,0.585-0.129,1c0.172,0.583,0.046,1.003-0.37,1.253c-0.254,0.167-0.479,0.375-0.69,0.623
		c-0.21,0.251-0.434,0.458-0.684,0.627c-0.087,0.171-0.17,0.296-0.25,0.374c-0.085,0.084-0.168,0.213-0.248,0.374
		c-0.086,0-0.126,0.046-0.126,0.125c-0.582,0.582-0.917,1.213-1.003,1.874c0,0.17-0.168,0.42-0.496,0.752
		c-0.749,0.75-1.479,1.496-2.188,2.243c-0.708,0.752-1.354,1.585-1.934,2.497c0,0.084-0.023,0.125-0.062,0.125
		c-0.043,0-0.062,0.041-0.062,0.125c-0.42,0.25-0.794,0.54-1.129,0.873c-0.331,0.334-0.66,0.707-0.997,1.127
		c-0.334,0.336-0.684,0.562-1.063,0.686c-0.374,0.125-0.771,0.271-1.185,0.437c-0.17,0.164-0.332,0.271-0.5,0.309
		c-0.172,0.044-0.334,0.15-0.497,0.314c-0.667,0.416-1.337,0.666-1.997,0.748c-0.5,0-0.98,0.085-1.438,0.25
		c-0.455,0.168-0.937,0.293-1.436,0.375c-0.501,0.167-0.957,0.252-1.375,0.252c-0.583,0-1.167,0-1.75,0s-1.205-0.081-1.873-0.252
		c-0.583-0.083-1.146-0.101-1.687-0.057c-0.542,0.037-1.105,0.057-1.684,0.057c-2-0.083-3.957-0.625-5.868-1.621
		c-0.335-0.167-0.649-0.334-0.937-0.505c-0.296-0.163-0.604-0.328-0.937-0.497C91.955,67.116,91.79,66.991,91.541,66.742z
		 M111.891,8.434c-0.083-0.163-0.126-0.452-0.126-0.872c0-1-0.292-2.082-0.872-3.248c-0.172-0.248-0.357-0.518-0.563-0.812
		c-0.21-0.29-0.397-0.558-0.562-0.81c-0.332-0.497-0.666-0.954-0.995-1.371c-0.334-0.418-0.711-0.832-1.128-1.251
		c-0.42-0.252-0.75-0.542-1-0.875c-0.25-0.332-0.54-0.707-0.874-1.124c-0.25-0.248-0.483-0.521-0.687-0.81
		c-0.211-0.293-0.435-0.562-0.685-0.813c-0.499-0.33-0.876-0.33-1.125,0c-0.334,0.416-0.626,0.875-0.877,1.375
		c-0.246,0.503-0.418,1.081-0.497,1.749c0,0.669-0.169,1.291-0.504,1.875c-0.166,0.327-0.329,0.645-0.499,0.932
		c-0.163,0.296-0.246,0.648-0.246,1.062c-0.079,0.334-0.209,0.917-0.374,1.747c-0.084,0.416-0.146,0.834-0.188,1.249
		c-0.045,0.422-0.102,0.832-0.183,1.251c0,0.085-0.023,0.148-0.06,0.187c-0.046,0.041-0.062,0.108-0.062,0.185
		c-0.252,0.664-0.435,1.314-0.56,1.936c-0.125,0.624-0.275,1.27-0.438,1.934c-0.17,0.832-0.335,1.461-0.503,1.873
		c-0.083,0.421-0.169,0.859-0.25,1.31c-0.083,0.464-0.206,0.939-0.374,1.437c-0.166,0.584-0.271,1.147-0.31,1.689
		c-0.04,0.541-0.149,1.104-0.313,1.681c-0.079,0.503-0.167,1.002-0.248,1.501c-0.079,0.5-0.167,1.003-0.25,1.499l-0.373,2.997
		c0,0.5-0.062,1.002-0.186,1.5c-0.125,0.499-0.103,0.994,0.062,1.498c0.165,0.419,0.271,0.834,0.312,1.25
		c0.041,0.416,0.102,0.832,0.184,1.249c0,0.5,0.042,0.871,0.125,1.125c0.168,0.5,0.291,1.043,0.375,1.628
		c0.079,0.58,0.208,1.119,0.374,1.618c0.083,0.17,0.123,0.377,0.123,0.63c0.084,0.669,0.149,1.33,0.188,1.994
		c0.041,0.669,0.146,1.336,0.311,1.997c0.08,0.499,0.08,0.977,0,1.433c-0.086,0.459-0.086,0.935,0,1.435
		c0.08,0.253,0.103,0.48,0.061,0.688c-0.04,0.207,0.021,0.438,0.184,0.687c0.17,0.079,0.255,0.336,0.255,0.75
		c-0.172,0.667-0.146,1.309,0.062,1.936c0.204,0.623,0.393,1.269,0.559,1.935c0.332,1.416,0.916,2.957,1.746,4.62
		c0.42,0.913,0.878,1.854,1.377,2.81c0.501,0.956,1.166,1.809,1.994,2.56c0.665,0.747,1.417,0.957,2.25,0.622
		c0.582-0.25,1.079-0.577,1.497-1.001c0.421-0.332,0.771-0.664,1.062-0.999c0.292-0.332,0.604-0.665,0.938-1.003
		c0.826-0.662,1.372-1.62,1.622-2.871c0-0.163,0.02-0.308,0.06-0.433c0.042-0.124,0.062-0.269,0.062-0.439
		c0.171-0.748,0.331-1.476,0.505-2.18c0.163-0.708,0.328-1.438,0.498-2.188c0.164-0.83,0.25-1.413,0.25-1.753
		c0.078-0.414,0.167-0.825,0.249-1.247c0.08-0.417,0.124-0.826,0.124-1.25c0.081-0.498,0.125-1.02,0.125-1.562
		c0-0.541,0-1.054,0-1.56c0.166-0.912,0.271-1.766,0.312-2.557c0.037-0.789,0.147-1.605,0.312-2.438
		c0.162-0.664,0.226-1.287,0.188-1.874c-0.048-0.582-0.062-1.159-0.062-1.747c-0.09-2.079-0.09-4.164,0-6.241v-3.247
		c-0.09-0.75-0.15-1.477-0.188-2.184c-0.045-0.709-0.101-1.394-0.184-2.062c0-0.42,0-0.81,0-1.186c0-0.377-0.05-0.771-0.128-1.19
		c0-0.415-0.024-0.786-0.062-1.123c-0.043-0.33-0.102-0.703-0.188-1.124l-0.117-0.25c-0.174-0.581-0.357-1.124-0.566-1.623
		c-0.206-0.498-0.397-1.042-0.559-1.625c-0.172-0.331-0.248-0.831-0.248-1.501C111.933,9.269,111.891,8.938,111.891,8.434z"/>
	<path fill="#FFFFFF" d="M135.863-12.542c0.084-0.081,0.166-0.125,0.246-0.125c0.668,0,1.169-0.08,1.502-0.248
		c0.755-0.255,1.375-0.294,1.874-0.125c0.25,0.08,0.664,0.125,1.252,0.125h3.494c1.159,0,2.264,0.08,3.311,0.248
		c1.036,0.167,2.139,0.335,3.311,0.499c0.414,0,0.85,0.044,1.312,0.124c0.455,0.086,0.895,0.167,1.31,0.249
		c0.416,0.084,0.833,0.148,1.251,0.187c0.416,0.041,0.828,0.107,1.248,0.186c0.757,0.17,1.331,0.21,1.749,0.125
		c0.417,0,0.956,0.08,1.625,0.25c0.498,0,1.003,0.021,1.496,0.062c0.504,0.042,1.002,0.108,1.5,0.186h0.128
		c0.663-0.078,1.27-0.126,1.809-0.126c0.536,0,1.144,0,1.811,0h1.994c0.417,0,0.791,0.026,1.126,0.064
		c0.334,0.04,0.707,0.019,1.124-0.064c0.584-0.077,1.147-0.077,1.687,0c0.543,0.083,1.059,0.209,1.559,0.375
		c0.423,0.083,0.854,0.171,1.312,0.249c0.457,0.085,0.893,0.21,1.312,0.378c0.08,0,0.146,0.018,0.186,0.06
		c0.042,0.04,0.104,0.06,0.188,0.06c0.414,0.17,0.785,0.396,1.123,0.686c0.334,0.294,0.706,0.397,1.123,0.311
		c0.083,0.334,0.021,0.544-0.183,0.626c-0.21,0.084-0.397,0.206-0.563,0.373c0,0.254,0.107,0.44,0.312,0.564
		c0.206,0.125,0.396,0.271,0.562,0.436c0.165,0,0.352,0.024,0.562,0.062c0.203,0.043,0.395,0.061,0.562,0.061
		c0.417-0.167,0.787-0.083,1.126,0.25c0.163,0,0.291,0.039,0.372,0.125c0.168,0.08,0.311,0.125,0.44,0.125
		c0.124,0,0.271,0.038,0.433,0.122c0.252,0.165,0.376,0.456,0.376,0.872c0,0.084,0.125,0.25,0.376,0.498
		c-0.166,0.421-0.227,0.669-0.189,0.751c0.044,0.081,0.273,0.298,0.688,0.625c-0.081,0.499-0.331,0.793-0.749,0.88
		c-0.166,0-0.334,0.017-0.501,0.057c-0.162,0.042-0.331,0.062-0.497,0.062c-0.667,0.334-0.748,0.753-0.251,1.25
		c0.167,0.168,0.251,0.5,0.251,1.002c0,0.33,0,0.646,0,0.936c0,0.289,0.166,0.521,0.497,0.687c0.086,0.581-0.162,1.082-0.748,1.498
		c-0.248,0.167-0.479,0.33-0.688,0.5c-0.211,0.17-0.437,0.295-0.687,0.375c-0.25,0-0.375,0.209-0.375,0.624
		c0,0.417-0.249,0.791-0.748,1.124c-0.253,0.249-0.503,0.295-0.752,0.126c-0.249-0.168-0.458-0.168-0.623,0
		c-0.086,0.083-0.211,0.123-0.374,0.123c-0.418,0.085-0.812,0.167-1.188,0.248c-0.379,0.086-0.772,0.045-1.19-0.122
		c-0.413-0.166-0.748-0.166-1,0c-0.419,0.334-0.707,0.208-0.877-0.375c-0.08,0.083-0.141,0.126-0.185,0.126
		c-0.039,0-0.105,0.043-0.185,0.123c-0.499,0.499-1.003,0.544-1.502,0.126c-0.249-0.249-0.5-0.296-0.75-0.126
		c-0.248,0.085-0.578,0-0.995-0.249c-0.336-0.168-0.586-0.247-0.752-0.247c-0.335-0.084-0.629-0.17-0.878-0.254
		c-0.249-0.079-0.499-0.079-0.749,0c-0.083,0-0.125-0.041-0.125-0.126c-0.248-0.25-0.542-0.394-0.874-0.436
		c-0.337-0.04-0.626-0.141-0.875-0.308c-0.171,0-0.295-0.043-0.374-0.125c-0.171-0.251-0.545-0.457-1.128-0.627
		c-0.08-0.164-0.08-0.311,0-0.437c0.082-0.122,0-0.269-0.249-0.434c-0.086,0.084-0.125,0.147-0.125,0.187
		c0,0.038-0.044,0.104-0.124,0.183c-0.336,0.33-0.626,0.33-0.873,0c-0.086-0.169-0.336-0.377-0.753-0.626
		c-0.833-0.163-1.165,0.125-0.997,0.876c0.08,0.172,0.12,0.313,0.12,0.437c0,0.125,0.043,0.267,0.123,0.433
		c0.086,0.173,0.19,0.315,0.315,0.44c0.124,0.125,0.27,0.273,0.433,0.437c0.255,0.248,0.295,0.581,0.124,0.997
		c-0.078,0.334,0.046,0.547,0.38,0.629c0.327,0.08,0.54,0.291,0.623,0.625c0.081,0.25,0.125,0.478,0.125,0.684
		c0,0.208,0.043,0.397,0.126,0.565c0,0.164,0.043,0.289,0.125,0.375c0.078,0.078,0.209,0.206,0.375,0.373
		c-0.083,0.25-0.123,0.52-0.123,0.809s-0.085,0.607-0.252,0.938v0.25c0.167,0.167,0.209,0.354,0.123,0.557
		c-0.08,0.211-0.123,0.4-0.123,0.566c0,0.333-0.171,0.83-0.5,1.495c-0.083,0.421-0.209,0.957-0.374,1.625
		c-0.085,0.17-0.125,0.334-0.125,0.498c0,0.169-0.046,0.336-0.124,0.504c-0.172,0.25-0.256,0.665-0.256,1.246v0.75
		c-0.25,0.666-0.292,1.334-0.124,1.996c0,0.334-0.039,0.544-0.126,0.629c-0.166,0.248-0.248,0.476-0.248,0.686
		c0,0.207-0.042,0.433-0.125,0.685c0,0.419-0.086,0.956-0.249,1.625c-0.248,0.835-0.337,1.622-0.248,2.369
		c0.079,0.417,0.162,0.878,0.248,1.375c0.082,0.504,0.163,0.956,0.249,1.376c0.083,0.42,0.207,0.832,0.373,1.249
		c0.172,0.419,0.172,0.834,0,1.25c0,0.082,0.047,0.126,0.126,0.126c0.255,0.581,0.17,1.125-0.249,1.624
		c0.33,0.418,0.419,0.83,0.249,1.25c0,0.164,0.081,0.33,0.255,0.497c0.165,0.084,0.249,0.334,0.249,0.749
		c-0.169,0.419-0.169,0.751,0,1.001v0.251c-0.084,0.417-0.146,0.768-0.187,1.059c-0.044,0.294-0.108,0.647-0.188,1.064v0.247
		c0.166,0.418,0.209,0.771,0.125,1.061c-0.082,0.294-0.165,0.648-0.249,1.058c-0.083,0.334-0.169,0.669-0.25,1.002
		c-0.084,0.334-0.169,0.667-0.255,1.001c-0.08,0.249-0.119,0.478-0.119,0.688c0,0.208-0.044,0.431-0.13,0.683
		c-0.08,0.42-0.123,0.832-0.123,1.248c0,0.419-0.082,0.838-0.249,1.253c-0.17,0.499-0.213,0.917-0.122,1.249
		c0.165,0.416,0.165,0.833,0,1.249c-0.091,0.25-0.148,0.5-0.191,0.749c-0.037,0.256-0.146,0.458-0.309,0.627
		c-0.251,0-0.251,0.125,0,0.374c0.083,0.583,0.104,1.128,0.065,1.625c-0.047,0.499-0.107,1.044-0.19,1.625
		c-0.083,0.168-0.104,0.354-0.06,0.562c0.04,0.209,0.02,0.434-0.062,0.684c0,0.335-0.084,0.832-0.253,1.5
		c-0.081,0.417-0.143,0.854-0.183,1.31c-0.048,0.457-0.024,0.896,0.062,1.312c0,0.666-0.047,1.29-0.127,1.871
		c-0.084,0.581-0.294,1.163-0.624,1.747c-0.335,0.832-0.627,1.416-0.874,1.749c-0.172,0.417-0.172,0.707,0,0.873
		c0.165,0.168,0.267,0.312,0.308,0.437c0.042,0.122,0.104,0.274,0.186,0.434c-0.165,0.171-0.331,0.256-0.499,0.256
		c-0.169,0-0.251,0.08-0.251,0.25c-0.164,0.499-0.249,0.789-0.249,0.872c-0.5-0.08-0.998-0.08-1.5,0
		c-0.497,0.085-0.957,0.125-1.377,0.125c-0.577,0-1.124-0.024-1.621-0.06c-0.5-0.041-1-0.065-1.499-0.065
		c-0.084,0-0.169,0.045-0.255,0.125c-0.417,0.169-0.771,0.214-1.056,0.125c-0.298-0.08-0.647-0.164-1.063-0.25l-0.498-0.249h-0.374
		c-0.169,0.166-0.313,0.23-0.438,0.186c-0.125-0.045-0.271-0.102-0.436-0.186c-0.336,0-0.546-0.125-0.627-0.374
		c-0.171-0.249-0.171-0.624,0-1.126c0.164-0.499,0.249-0.828,0.249-1.001c0-0.581-0.061-1.141-0.185-1.686
		c-0.125-0.543-0.232-1.103-0.31-1.681c0-0.169-0.026-0.378-0.064-0.627c-0.042-0.25-0.058-0.455-0.058-0.628v-0.249
		c0-0.25-0.048-0.5-0.127-0.749c-0.086-0.251-0.086-0.54,0-0.874c0-0.252-0.021-0.524-0.063-0.813
		c-0.037-0.289-0.062-0.562-0.062-0.811c0-0.418-0.021-0.77-0.061-1.062s-0.056-0.643-0.056-1.059c0-0.167-0.028-0.292-0.062-0.377
		c-0.046-0.081-0.063-0.164-0.063-0.25v-0.25c0.081-0.582,0.063-1.144-0.063-1.684c-0.123-0.539-0.145-1.107-0.062-1.686
		c0.085-0.75,0.125-1.481,0.125-2.186c0-0.704,0-1.391,0-2.059c0.163-1.835,0.127-3.453-0.125-4.87V42.14
		c0.252-1.082,0.295-2.327,0.125-3.744c-0.081-0.415-0.125-0.79-0.125-1.124c0-0.33,0-0.711,0-1.131v-1.12
		c-0.083-0.416-0.125-0.833-0.125-1.25c0-0.416,0-0.833,0-1.249c0-0.17-0.021-0.295-0.06-0.379
		c-0.041-0.079-0.059-0.204-0.059-0.374c0.08-0.415,0.126-0.825,0.126-1.249c0-0.416,0-0.83,0-1.25v-2.118
		c0.076-0.583,0.098-1.147,0.056-1.687c-0.04-0.542-0.021-1.104,0.062-1.687v-0.751c0.085-0.167,0.125-0.33,0.125-0.497
		c-0.081-0.418-0.081-0.773,0-1.057c0.081-0.294,0.163-0.606,0.25-0.94c0.168-0.749,0.331-1.478,0.503-2.185
		c0.164-0.708,0.251-1.476,0.251-2.312c0-0.328,0.019-0.644,0.059-0.935c0.043-0.291,0.104-0.646,0.185-1.06
		c0.086-0.417,0.147-0.769,0.188-1.06c0.039-0.292,0.104-0.643,0.188-1.062c0.167-0.414,0.334-1.038,0.503-1.874
		c0.162-0.499,0.291-0.976,0.372-1.432c0.083-0.457,0.169-0.896,0.249-1.313c0.084-0.416,0.146-0.813,0.191-1.19
		c0.037-0.373,0.059-0.767,0.059-1.181l0.374-1.874l0.376-1.5c0-0.417,0.063-0.771,0.188-1.06c0.121-0.295,0.267-0.607,0.437-0.938
		c0.079-0.167,0.124-0.308,0.124-0.433s0.042-0.274,0.121-0.441c0.168-0.497,0.332-0.828,0.501-0.998
		c0.503-0.913,0.25-1.5-0.753-1.747c-0.336,0-0.747-0.08-1.247-0.249c-0.253-0.171-0.48-0.294-0.686-0.38
		c-0.209-0.079-0.438-0.204-0.686-0.373c-0.17-0.079-0.371-0.163-0.626-0.25c-0.25-0.08-0.5-0.167-0.75-0.248
		c-0.42-0.167-0.83-0.269-1.248-0.31c-0.424-0.043-0.833-0.15-1.249-0.312c-0.42-0.166-0.818-0.33-1.188-0.5
		c-0.374-0.167-0.729-0.452-1.062-0.874c-0.17-0.25-0.374-0.373-0.623-0.373c-0.17,0-0.272-0.02-0.312-0.062
		c-0.048-0.045-0.108-0.062-0.188-0.062c-0.418-0.334-0.791-0.602-1.127-0.812c-0.327-0.208-0.622-0.52-0.871-0.938
		c-0.088,0-0.148-0.021-0.188-0.06c-0.038-0.042-0.102-0.06-0.183-0.06l-0.358-0.365c-0.166-0.334-0.355-0.583-0.558-0.752
		c-0.209-0.17-0.402-0.377-0.567-0.626c-0.164-0.167-0.271-0.292-0.31-0.373C135.882-12.123,135.863-12.291,135.863-12.542z"/>
	<path fill="#FFFFFF" d="M200.039-9.796c0.499,0.334,1.128,0.334,1.873,0c0.17-0.079,0.38-0.079,0.627,0
		c0.167,0.086,0.417,0.125,0.75,0.125c0.166,0,0.226-0.038,0.187-0.125c-0.044-0.079,0.022-0.038,0.188,0.125
		c0.246,0.085,0.475-0.016,0.686-0.307c0.209-0.293,0.394-0.354,0.562-0.185c0.081,0.08,0.228,0.062,0.437-0.062
		c0.202-0.125,0.311-0.148,0.311-0.062c0.417,0.418,0.646,0.435,0.688,0.062c0.044-0.38,0.271-0.688,0.684-0.937
		c0.255-0.168,0.543-0.146,0.878,0.06c0.332,0.21,0.625,0.231,0.872,0.062c0.417-0.163,0.815-0.351,1.188-0.559
		c0.375-0.204,0.766-0.398,1.188-0.561c0.163-0.08,0.327-0.164,0.497-0.25c0.164-0.082,0.328-0.123,0.499-0.123
		c0.251-0.083,0.479-0.164,0.688-0.249c0.209-0.084,0.436-0.171,0.685-0.254l0.126-0.125c0.418-0.079,0.829-0.163,1.251-0.248
		c0.412-0.079,0.826-0.164,1.25-0.25c0.416-0.079,0.831-0.144,1.248-0.186c0.419-0.04,0.833-0.063,1.252-0.063
		c0.499,0,1.081,0.086,1.748,0.249c0.829,0.172,1.411,0.38,1.748,0.628c0,0.087-0.026,0.148-0.06,0.185
		c-0.048,0.042-0.062,0.105-0.062,0.183c0,0.753-0.249,1.253-0.754,1.503c-0.166,0.087-0.31,0.185-0.433,0.308
		c-0.125,0.125-0.313,0.233-0.565,0.311c-0.246,0.086-0.292,0.374-0.123,0.879v0.12v0.129c-0.166,0.079-0.312,0.148-0.437,0.185
		c-0.125,0.042-0.274,0.15-0.436,0.308c-0.088,0.17-0.123,0.498-0.123,1.002c0,0.334-0.125,0.544-0.376,0.624
		c-0.5,0.251-0.881,0.667-1.127,1.25c0,0.251-0.08,0.375-0.252,0.375c-0.247,0.171-0.457,0.333-0.622,0.499
		c-0.171,0.17-0.337,0.334-0.502,0.501c-0.669,0.914-1.458,1.583-2.369,1.996c-0.083,0-0.125,0.023-0.125,0.062
		c0,0.038-0.044,0.062-0.123,0.062c-0.5,0-0.979,0.146-1.438,0.436c-0.454,0.295-0.896,0.521-1.312,0.687
		c-0.329,0.085-0.626,0.165-0.875,0.248c-0.246,0.087-0.54,0.171-0.871,0.251c-0.334,0-0.585,0.044-0.752,0.125
		c-0.168,0-0.33,0.082-0.502,0.249c-0.247,0.248-0.543,0.292-0.871,0.125c-0.252-0.252-0.458-0.167-0.63,0.248
		c-0.414,0.583-0.579,1.084-0.499,1.502v0.499c-0.249,0.5-0.29,1.039-0.124,1.624c0.083,0.248,0.044,0.479-0.125,0.688
		c-0.166,0.204-0.209,0.434-0.117,0.685c0,0.079-0.026,0.165-0.063,0.25c-0.045,0.08-0.062,0.168-0.062,0.248
		c0.078,0.916,0.078,1.788,0,2.624v0.248c0.078,0.669,0.126,1.291,0.126,1.875c0,0.577,0.04,1.205,0.125,1.874
		c0,0.082-0.026,0.166-0.062,0.25c-0.047,0.082-0.062,0.164-0.062,0.249c0,0.168,0.021,0.356,0.062,0.561
		c0.039,0.209,0.062,0.397,0.062,0.562c0.078,0.083,0.124,0.208,0.124,0.373c-0.087,0.334-0.124,0.918-0.124,1.75
		c0.249,0.504,0.372,0.956,0.372,1.376c-0.082,0.167-0.105,0.374-0.062,0.625c0.038,0.253-0.021,0.457-0.188,0.627
		c0.083,0.418,0.045,0.832-0.124,1.25c-0.168,0.417-0.168,0.83,0,1.247c0.081,0.419,0.292,0.625,0.625,0.625
		c0.167-0.082,0.31-0.125,0.437-0.125c0.125,0,0.27-0.081,0.438-0.25c0.165-0.08,0.309-0.125,0.438-0.125
		c0.126,0,0.268-0.04,0.437-0.125c0.165,0,0.248-0.04,0.248-0.126c0.166-0.247,0.413-0.373,0.755-0.373
		c0.325,0,0.579-0.079,0.744-0.25c0.418,0,0.75-0.062,1.005-0.186c0.251-0.125,0.578-0.226,0.998-0.311
		c0.498,0,0.834-0.08,1.004-0.248c0.328-0.167,0.64-0.252,0.933-0.252c0.29,0,0.562-0.082,0.815-0.248l0.123-0.125l2.62-0.374
		c0.335-0.081,0.622-0.167,0.876-0.251c0.247-0.079,0.54-0.163,0.875-0.25c0.329-0.081,0.66-0.206,1.001-0.373
		c0.331-0.17,0.702-0.17,1.124,0h0.5c0.415-0.082,0.812-0.148,1.187-0.187c0.374-0.04,0.771-0.063,1.187-0.063
		c0.58-0.163,1.125-0.123,1.623,0.125c0.166,0,0.312-0.023,0.437-0.062c0.125-0.04,0.272-0.019,0.438,0.062
		c0.249,0,0.497,0.046,0.754,0.128c-0.171,0.163-0.295,0.33-0.38,0.497c-0.082,0.167-0.166,0.332-0.252,0.499
		c-0.169,0.25-0.352,0.499-0.561,0.748c-0.21,0.251-0.396,0.547-0.561,0.875c-0.171,0.583-0.543,0.879-1.121,0.879
		c-0.255,0.079-0.458,0.29-0.632,0.625v0.25c0,0.498-0.044,0.914-0.124,1.249c-0.165,0.169-0.334,0.332-0.5,0.498
		c-0.168,0.169-0.416,0.294-0.748,0.374l-0.132,0.122c0,0.172-0.027,0.298-0.062,0.374c-0.049,0.086-0.06,0.214-0.06,0.379
		c-0.254,0.25-0.377,0.46-0.377,0.621c0,0.17-0.045,0.296-0.126,0.38c-0.166,0.166-0.188,0.306-0.06,0.433
		c0.123,0.121,0.101,0.273-0.062,0.44c-0.336,0.163-0.584,0.33-0.757,0.499v0.248c-0.165,0.166-0.289,0.306-0.372,0.433
		c-0.084,0.126-0.21,0.189-0.374,0.189c-0.42,0.168-0.876,0.583-1.376,1.249c-0.749,0-1.415,0.455-1.994,1.373
		c-0.417,0-0.706,0.047-0.877,0.126c-0.081,0.08-0.146,0.187-0.186,0.312c-0.039,0.125-0.104,0.188-0.184,0.188
		c-0.423,0.17-0.751,0.354-1.003,0.559c-0.249,0.21-0.581,0.398-1.001,0.564c-0.166,0.164-0.312,0.229-0.436,0.184
		c-0.126-0.044-0.23-0.024-0.312,0.063c-0.249,0.169-0.583,0.246-1,0.246h-0.749c-0.416-0.078-0.812-0.103-1.187-0.062
		c-0.375,0.045-0.775,0.062-1.186,0.062h-0.379c-0.167,0.25-0.354,0.375-0.561,0.375c-0.208,0-0.397,0.084-0.562,0.247
		c-0.169,0.17-0.354,0.28-0.562,0.312c-0.209,0.046-0.396,0.147-0.562,0.311c-0.248,0.17-0.455,0.398-0.623,0.687
		c-0.168,0.294-0.168,0.52,0,0.683c0.166,0.171,0.229,0.313,0.188,0.438c-0.042,0.125-0.06,0.272-0.06,0.438
		c-0.086,0.249-0.128,0.623-0.128,1.125c0,0.167,0.02,0.271,0.062,0.31c0.042,0.041,0.021,0.146-0.062,0.312
		c-0.254,0-0.254,0.122,0,0.371c0.166,0.251,0.229,0.499,0.188,0.747c-0.042,0.249-0.023,0.499,0.063,0.753
		c-0.171,0.167-0.212,0.313-0.129,0.438c0.08,0.123,0.167,0.272,0.253,0.434c0.165,0.329,0.248,0.788,0.248,1.376
		c0,0.25,0.023,0.521,0.062,0.808c0.042,0.296,0.061,0.562,0.061,0.813c0.165,0.164,0.21,0.292,0.124,0.373
		c-0.164,0.25-0.164,0.458,0,0.626c0.086,0.832,0.148,1.621,0.187,2.369c0.039,0.75,0.149,1.541,0.312,2.373
		c0,0.334,0.041,0.546,0.126,0.623c0.08,0.085,0.123,0.298,0.123,0.628c-0.083,0.336-0.104,0.562-0.062,0.685
		c0.044,0.125,0.104,0.397,0.188,0.812c0.086,0.334,0.165,0.629,0.254,0.877c0.08,0.25,0.121,0.544,0.121,0.873
		c0.083,0.17,0.125,0.357,0.125,0.562c0,0.21,0.076,0.396,0.249,0.562c0.169,0.333,0.294,0.643,0.374,0.933
		c0.083,0.298,0.208,0.606,0.375,0.94c0.081,0.17,0.104,0.292,0.062,0.374c-0.044,0.083,0.021,0.208,0.189,0.374l0.249,0.499
		c0.079,0.25,0.206,0.707,0.372,1.376c0.25,0.249,0.457,0.419,0.629,0.5c0.079,0,0.183,0.044,0.31,0.123
		c0.126,0.085,0.27,0.046,0.438-0.123c0-0.081,0.075-0.125,0.251-0.125c0.412,0.169,0.786,0.185,1.12,0.061
		c0.337-0.125,0.706-0.226,1.129-0.307c1.665-0.169,3.245-0.417,4.742-0.752c0.417-0.081,0.812-0.146,1.187-0.188
		c0.374-0.036,0.771-0.099,1.189-0.182c0.414-0.083,0.785-0.189,1.121-0.311c0.334-0.126,0.708-0.23,1.128-0.311
		c0.163,0,0.248-0.085,0.248-0.253c0.166-0.165,0.335-0.291,0.501-0.375c0.166-0.081,0.38-0.166,0.629-0.25
		c0,0.417-0.047,0.624-0.126,0.624c-0.169,0.085-0.337,0.297-0.503,0.627c-0.166,0.336-0.354,0.624-0.562,0.874
		c-0.204,0.253-0.391,0.545-0.558,0.88c-0.082,0.161-0.186,0.224-0.311,0.182s-0.229,0.024-0.311,0.185
		c-0.251,0.422-0.543,0.729-0.879,0.937c-0.331,0.209-0.623,0.481-0.872,0.813c-0.334,0.329-0.502,0.623-0.502,0.873
		c0,0.334-0.123,0.543-0.374,0.626c-0.332,0.085-0.624,0.334-0.872,0.75c-0.337,0.334-0.582,0.544-0.751,0.624
		c-0.086,0-0.298,0.173-0.629,0.499c-0.167,0.173-0.418,0.505-0.749,1.002c-0.417-0.08-0.771,0.023-1.058,0.311
		c-0.299,0.296-0.604,0.562-0.938,0.812c-0.335,0.334-0.831,0.583-1.499,0.753c-0.169,0.08-0.311,0.126-0.442,0.126
		c-0.125,0-0.271,0.084-0.433,0.249c-0.165,0.167-0.497,0.248-0.998,0.248c-0.253,0.087-0.482,0.125-0.688,0.125
		c-0.209,0-0.398,0.087-0.559,0.254h-0.381c-0.328-0.084-0.623-0.105-0.872-0.062c-0.248,0.041-0.543,0.062-0.876,0.062
		c-0.166,0-0.354-0.042-0.558-0.129c-0.21-0.08-0.399-0.163-0.566-0.25c-0.499-0.248-0.996-0.413-1.495-0.497
		c-0.5-0.083-1.004-0.208-1.501-0.375c-0.168-0.083-0.292-0.125-0.381-0.125c-0.078,0-0.202-0.045-0.371-0.123
		c-0.168-0.079-0.293-0.167-0.374-0.25c-0.083-0.084-0.166-0.125-0.249-0.125c-0.168,0-0.296-0.046-0.374-0.125
		c-0.086-0.085-0.212-0.123-0.377-0.123c-0.5-0.087-0.873-0.334-1.125-0.756c-0.249-0.412-0.546-0.747-0.872-1.002
		c-0.171-0.578-0.459-1.056-0.88-1.434c-0.416-0.373-0.708-0.85-0.875-1.436c-0.082-0.167-0.184-0.351-0.309-0.558
		c-0.124-0.21-0.271-0.397-0.437-0.567c-0.084-0.163-0.107-0.348-0.062-0.558c0.043-0.207-0.021-0.399-0.188-0.563
		c-0.249-0.163-0.459-0.497-0.623-0.998c-0.086-0.17-0.104-0.378-0.062-0.625c0.04-0.254,0.022-0.457-0.062-0.628
		c0-0.33-0.084-0.455-0.249-0.371l-0.125-0.126l-0.375-1.502c-0.168-0.499-0.254-0.829-0.254-1c-0.08-0.163-0.102-0.311-0.06-0.436
		c0.043-0.125-0.023-0.27-0.189-0.438c-0.08,0-0.125-0.038-0.125-0.125c0.08-0.41,0.045-0.871-0.124-1.376
		c-0.167-0.499-0.293-0.949-0.374-1.376c0-1.162-0.168-2.077-0.499-2.747c-0.086-0.413-0.124-0.765-0.124-1.059
		c0-0.29-0.048-0.643-0.125-1.061c-0.086-0.249-0.125-0.497-0.125-0.748c0-0.248-0.086-0.543-0.252-0.879
		c-0.249-0.25-0.249-0.497,0-0.747v-0.125v-2.498c0-0.329-0.021-0.641-0.059-0.934c-0.045-0.292,0.018-0.6,0.184-0.938v-0.121
		c-0.083-0.5-0.125-0.976-0.125-1.433c0-0.458,0-0.894,0-1.312V35.54c0-0.333-0.021-0.631-0.059-0.875
		c-0.045-0.253-0.063-0.503-0.063-0.751c0-0.25,0.046-0.417,0.125-0.497c0.08-0.25,0.046-0.459-0.125-0.626v-0.125v-0.25
		c0.171-0.166,0.205-0.377,0.125-0.625c-0.079-0.25-0.125-0.506-0.125-0.755c0-0.411-0.044-0.81-0.126-1.182
		c-0.077-0.376-0.043-0.77,0.126-1.188c0.081-0.416,0.125-0.766,0.125-1.061c0-0.29,0-0.604,0-0.933
		c0.17-0.169,0.205-0.332,0.125-0.502c-0.079-0.166-0.125-0.33-0.125-0.499c0.08-0.253,0.104-0.518,0.063-0.813
		c-0.045-0.292,0.017-0.601,0.186-0.933c0.08,0,0.123-0.125,0.123-0.376c0-0.167-0.021-0.373-0.062-0.622
		c-0.046-0.255-0.022-0.458,0.062-0.628c0.079-0.163,0.127-0.374,0.127-0.626c0-0.5,0.038-0.829,0.124-0.999
		c0.163-0.416,0.249-0.873,0.249-1.375c0-0.5,0.082-0.952,0.25-1.375v-0.375v-0.373c0.164-0.333,0.229-0.687,0.188-1.06
		c-0.046-0.38-0.023-0.77,0.062-1.19c0.166-0.5,0.329-0.979,0.499-1.435c0.166-0.458,0.33-0.933,0.498-1.437
		c0.086-0.079,0.123-0.249,0.123-0.5c-0.08-0.248-0.08-0.497,0-0.746c0.088-0.252,0.166-0.501,0.25-0.755
		c0-0.247,0.045-0.497,0.129-0.749c0.083-0.248,0.164-0.457,0.252-0.627c0-0.25,0.062-0.452,0.182-0.623
		c0.124-0.17,0.146-0.373,0.066-0.626c-0.089-0.168-0.089-0.373,0-0.622c0.08-0.253,0.123-0.46,0.123-0.626
		c0.077-0.163,0.166-0.355,0.248-0.562c0.083-0.207,0.127-0.395,0.127-0.558c0.079-0.167,0.104-0.335,0.059-0.501
		c-0.042-0.167-0.024-0.331,0.066-0.498c0.166-0.332,0.291-0.65,0.369-0.939c0.085-0.292,0.085-0.646,0-1.058
		c0.334-0.419,0.48-0.878,0.438-1.376c-0.041-0.5,0.025-0.956,0.189-1.376c0.163-0.33,0.25-0.622,0.25-0.871
		c0.163-0.666,0.329-1.353,0.498-2.063c0.168-0.707,0.33-1.391,0.499-2.06c0.08-0.08,0.124-0.249,0.124-0.497
		c0.166-0.667,0.33-1.168,0.503-1.502c0.162-0.418,0.266-0.521,0.308-0.312c0.04,0.211,0.104,0.106,0.188-0.311
		c0-0.163-0.046-0.184-0.124-0.056c-0.085,0.119-0.172,0.102-0.25-0.067c0-0.166,0.062-0.289,0.188-0.374
		c0.126-0.08,0.142-0.203,0.062-0.374C199.793-9.5,199.872-9.709,200.039-9.796z"/>
</g>
<g>
	<path fill="#FFFFFF" d="M111.796-26.188c0.152,0.018,0.258,0.025,0.318,0.029c0.062,0,0.116,0.001,0.169,0.001
		c0.255,0,0.452-0.059,0.589-0.189c0.13-0.124,0.197-0.374,0.197-0.735v-11.117h2.648v11.161c0,1.023-0.205,1.778-0.605,2.265
		c-0.405,0.494-1.191,0.736-2.363,0.736c-0.086,0-0.204-0.006-0.362-0.012c-0.157-0.004-0.352-0.011-0.59-0.022L111.796-26.188
		L111.796-26.188z M115.719-39.455h-2.648V-41.9h2.648V-39.455z"/>
	<path fill="#FFFFFF" d="M120.873-38.246v6.101c0,0.573,0.066,1.009,0.202,1.297c0.239,0.515,0.711,0.769,1.413,0.769
		c0.899,0,1.511-0.362,1.851-1.093c0.173-0.399,0.258-0.918,0.258-1.567v-5.507h2.682v10.121h-2.57v-1.43
		c-0.023,0.031-0.086,0.125-0.182,0.28c-0.103,0.153-0.218,0.29-0.353,0.408c-0.418,0.375-0.812,0.63-1.198,0.765
		c-0.392,0.135-0.839,0.204-1.36,0.204c-1.493,0-2.499-0.542-3.016-1.62c-0.29-0.591-0.434-1.47-0.434-2.628v-6.097h2.707V-38.246
		L120.873-38.246z"/>
	<path fill="#FFFFFF" d="M131.906-31.357c0.053,0.472,0.179,0.804,0.365,1.002c0.324,0.353,0.935,0.531,1.825,0.531
		c0.523,0,0.938-0.073,1.251-0.231c0.308-0.155,0.461-0.385,0.461-0.697c0-0.301-0.126-0.521-0.375-0.675
		c-0.248-0.154-1.171-0.421-2.77-0.798c-1.146-0.282-1.961-0.64-2.433-1.068c-0.47-0.421-0.703-1.027-0.703-1.821
		c0-0.934,0.373-1.738,1.102-2.41c0.736-0.67,1.771-1.005,3.104-1.005c1.264,0,2.296,0.248,3.095,0.757
		c0.794,0.504,1.254,1.376,1.373,2.613h-2.646c-0.036-0.339-0.136-0.612-0.295-0.81c-0.288-0.357-0.784-0.539-1.49-0.539
		c-0.577,0-0.988,0.088-1.233,0.273c-0.245,0.179-0.368,0.39-0.368,0.628c0,0.307,0.13,0.522,0.396,0.659
		c0.262,0.145,1.179,0.388,2.758,0.739c1.058,0.244,1.848,0.622,2.374,1.12c0.52,0.509,0.78,1.145,0.78,1.903
		c0,1.001-0.378,1.823-1.123,2.457c-0.745,0.635-1.901,0.952-3.464,0.952c-1.599,0-2.775-0.334-3.534-1.008
		c-0.757-0.673-1.135-1.529-1.135-2.569L131.906-31.357L131.906-31.357z"/>
	<path fill="#FFFFFF" d="M139.39-36.267v-1.885h1.41v-2.822h2.617v2.822h1.645v1.885h-1.645v5.35c0,0.413,0.056,0.672,0.163,0.773
		c0.101,0.105,0.423,0.156,0.96,0.156c0.079,0,0.166-0.003,0.255-0.006c0.093-0.003,0.182-0.009,0.271-0.015v1.981l-1.259,0.051
		c-1.248,0.045-2.104-0.176-2.562-0.652c-0.297-0.305-0.444-0.773-0.444-1.404v-6.229h-1.41V-36.267z"/>
</g>
</svg>
