<?xml version="1.0" encoding="utf-8"?>
<!-- Generator: Adobe Illustrator 15.0.2, SVG Export Plug-In . SVG Version: 6.00 Build 0)  -->
<!DOCTYPE svg PUBLIC "-//W3C//DTD SVG 1.1//EN" "http://www.w3.org/Graphics/SVG/1.1/DTD/svg11.dtd">
<svg version="1.1" id="Ebene_1" xmlns="http://www.w3.org/2000/svg" xmlns:xlink="http://www.w3.org/1999/xlink" x="0px" y="0px"
	 width="270.975px" height="231px" viewBox="0 16.75 270.975 231" enable-background="new 0 16.75 270.975 231"
	 xml:space="preserve">
<g>
	<g>
		<path fill="#F07F31" d="M135.044,241.517c58.957,0,106.743-47.785,106.743-106.74c0-58.944-47.785-106.733-106.743-106.733
			c-58.945,0-106.733,47.787-106.733,106.733C28.311,193.723,76.101,241.517,135.044,241.517"/>
	</g>
</g>
<g>
	<path fill="#FFFFFF" d="M9.406,144.891c0.328,0,0.597-0.053,0.815-0.165c0.107-0.216,0.238-0.403,0.403-0.566
		c0.161-0.165,0.135-0.406-0.081-0.735c-0.107,0.11-0.19,0.221-0.241,0.326c-0.058,0.111-0.192,0.276-0.406,0.499
		c-0.112-0.221-0.162-0.361-0.162-0.407c0-0.059-0.061-0.193-0.165-0.411c0.217-0.214,0.379-0.352,0.492-0.4
		c0.102-0.058,0.269-0.193,0.487-0.409H9.574v-1.137H8.595c0,0.326-0.056,0.596-0.166,0.81c-0.104-0.102-0.162-0.269-0.162-0.485
		c-0.107-0.549-0.194-1.03-0.242-1.474c-0.056-0.434-0.028-0.921,0.082-1.47c0.219-0.65,0.243-1.305,0.079-1.956
		c-0.163-0.655-0.193-1.31-0.079-1.963c0-0.542-0.109-1.362-0.328-2.45c-0.107,0-0.166,0.027-0.166,0.082
		c0,0.061-0.056,0.078-0.163,0.078v-0.159c0.217-0.333,0.294-0.652,0.247-0.983c-0.064-0.326-0.083-0.652-0.083-0.978
		c-0.11-0.762-0.238-1.524-0.406-2.288c-0.163-0.758-0.19-1.576-0.082-2.45c0.108-0.218,0.059-0.541-0.163-0.977l0.326-0.163
		c0.22,0,0.432-0.167,0.66-0.491c0.102-0.433,0.486-0.654,1.137-0.654c-0.223,0.223-0.355,0.432-0.406,0.654
		c-0.055,0.219-0.191,0.435-0.409,0.649l-0.165,0.163H7.781v0.981c0,0.652,0.327,0.864,0.982,0.652
		c0.545-0.219,0.819-0.597,0.819-1.148v-0.485c0.21-0.217,0.295-0.487,0.245-0.813c-0.059-0.333-0.136-0.601-0.245-0.82
		c-0.109-0.107-0.223-0.192-0.328-0.241c-0.108-0.055-0.219-0.138-0.327-0.249c0-0.433,0.38-0.542,1.141-0.325
		c-0.436-0.431-0.816-0.652-1.141-0.652c-0.655-0.102-0.981-0.542-0.981-1.3c0.113-0.217,0.166-0.485,0.166-0.818
		c-0.433,0.108-0.978,0.273-1.629,0.496c-0.11,0-0.169-0.062-0.169-0.166c0.22-0.436,0.243-0.871,0.082-1.316
		c-0.166-0.429-0.137-0.87,0.08-1.305v-0.487c-0.219-0.219-0.273-0.462-0.16-0.73c0.103-0.269,0.103-0.572,0-0.896
		c0-0.114,0.053-0.167,0.16-0.167c0.107,0,0.214-0.051,0.33-0.162c-0.436-0.325-0.6-0.709-0.487-1.14
		c0-0.651-0.062-1.144-0.167-1.471c-0.223-0.214-0.272-0.489-0.168-0.82c0.108-0.325,0.219-0.65,0.332-0.976v-0.815
		c-0.114-0.107-0.165-0.324-0.165-0.65c0-0.435-0.223-0.818-0.655-1.146c0.217-0.209,0.352-0.241,0.403-0.079
		c0.057,0.165,0.195,0.193,0.415,0.079h0.158c-0.218-0.209-0.298-0.486-0.241-0.812c0.056-0.333,0.026-0.597-0.083-0.819
		l0.323-1.307c-0.108,0-0.237,0.056-0.397,0.16c-0.168,0.11-0.249,0-0.249-0.324c0.11-0.108,0.193-0.218,0.249-0.33
		c0.049-0.104,0.128-0.216,0.239-0.325c0.107-0.328,0.107-0.66,0-0.985c-0.219-0.216-0.302-0.349-0.239-0.406
		c0.053-0.054,0.079-0.188,0.079-0.401c0.107-0.215,0.133-0.467,0.081-0.733c-0.06-0.272,0.026-0.516,0.242-0.73v-0.82
		c0-0.756,0.057-1.359,0.165-1.796l-0.661-0.327c0.436-0.547,0.655-1.118,0.655-1.716c0-0.596,0.053-1.169,0.167-1.717
		c0.219-0.432,0.164-0.65-0.167-0.65c-0.439-0.219-0.658-0.658-0.658-1.311h0.168c0.756,0,1.466-0.156,2.118-0.485
		c0.223-0.11,0.406-0.167,0.578-0.167c0.163,0,0.349-0.054,0.565-0.167c0.761-0.219,1.441-0.219,2.042,0
		c0.596,0.217,1.217,0.438,1.871,0.655c0.437,0.22,0.872,0.381,1.308,0.488c0.437,0.108,0.865,0.276,1.31,0.487
		c0.429,0.223,0.975,0.655,1.626,1.312c0.436,0.435,0.87,1.087,1.311,1.96c0.104,0.216,0.166,0.492,0.166,0.813
		c-0.107,0.981,0,2.122,0.325,3.427c0.103,0.113,0.103,0.224,0,0.325c-0.222,0.556,0,1.038,0.653,1.475
		c0.105,0,0.22,0.056,0.326,0.165c-0.223,0.216-0.271,0.486-0.162,0.817c0.107,0.321,0.162,0.649,0.162,0.974
		c0.107,0.332,0.218,0.576,0.327,0.735c0.105,0.165,0.216,0.356,0.326,0.572c0.107,0.213,0.165,0.402,0.165,0.57
		c0,0.162,0.053,0.355,0.165,0.571c0,0.217-0.056,0.387-0.165,0.492c-0.109,0.107-0.059,0.273,0.165,0.489
		c-0.109,0.435-0.109,0.822,0,1.144c0.105,0.327,0.218,0.716,0.326,1.139c0.107,0.222,0.134,0.387,0.083,0.492
		c-0.059,0.113-0.083,0.272-0.083,0.496c0,0.104-0.028,0.165-0.079,0.165c-0.062,0-0.082,0.054-0.082,0.164
		c0.22,0.217,0.269,0.46,0.168,0.727c-0.107,0.276-0.168,0.526-0.168,0.739c0.106,0.213,0.137,0.457,0.082,0.735
		c-0.062,0.271-0.029,0.518,0.079,0.724c0,0.109,0.024,0.229,0.083,0.328c0.054,0.108,0.081,0.223,0.081,0.327
		c0.107,0.224,0.215,0.463,0.326,0.735c0.106,0.271,0.055,0.518-0.165,0.729c0.109-0.106,0.222-0.166,0.332-0.166
		c0-0.431,0.055-0.705,0.163-0.812c0-0.218,0.166-0.383,0.489-0.491v0.656c-0.109,0.319-0.194,0.677-0.246,1.054
		c-0.058,0.388-0.134,0.734-0.242,1.059c-0.104,0.111,0.058,0.389,0.496,0.82c-0.223,0.222-0.325,0.465-0.325,0.731
		c0,0.273-0.22,0.517-0.66,0.733l0.826,0.815c-0.549,0.219-0.658,0.548-0.332,0.982c0.11,0.219,0.137,0.351,0.082,0.402
		c-0.059,0.056-0.082,0.197-0.082,0.406c-0.104,0.433,0.059,0.819,0.496,1.144c0-0.219,0.052-0.432,0.167-0.655l0.487,0.981
		c0,0.223-0.11,0.549-0.326,0.986c0.217,0,0.546,0.104,0.978,0.325c0.109,0.213,0.133,0.377,0.079,0.487
		c-0.058,0.107-0.027,0.271,0.08,0.488l0.491,0.978c0,0.22-0.055,0.36-0.165,0.406c-0.11,0.055-0.163,0.191-0.163,0.406
		c0,0.437,0.083,0.821,0.243,1.141c0.163,0.332,0.191,0.654,0.082,0.982c-0.219,0.221-0.165,0.434,0.162,0.65
		c0.33,0.324,0.463,0.652,0.406,0.982c-0.054,0.329-0.083,0.656-0.083,0.977v0.818c0,0.219,0.028,0.462,0.083,0.735
		c0.058,0.271,0.031,0.518-0.083,0.733c0,0.106-0.03,0.193-0.079,0.241c-0.058,0.057-0.079,0.134-0.079,0.239
		c-0.111,0.109-0.197,0.165-0.248,0.165c-0.049,0-0.131,0.054-0.24,0.159c0.109,0.11,0.219,0.165,0.326,0.165
		c0.439,0,0.71,0.142,0.82,0.406c0.107,0.276,0.049,0.519-0.164,0.734c-0.223,0.328-0.306,0.654-0.242,0.982
		c0.05,0.324,0.078,0.645,0.078,0.98l0.493,0.486c0.548-0.214,0.79-0.514,0.731-0.895c-0.056-0.38,0.031-0.729,0.247-1.058
		c-0.109,0.552-0.054,1.005,0.158,1.383c0.217,0.389,0.217,0.848,0,1.386v0.331c0.109,0.435,0,0.814-0.326,1.144
		c-0.105,0.109-0.325,0.384-0.649,0.815c0.326-0.107,0.649-0.164,0.975-0.164v1.143c-0.215-0.105-0.486-0.167-0.812-0.167
		c0,0.327,0.055,0.6,0.165,0.815c-0.434,0.223-0.601,0.549-0.488,0.985c0.106,0.22-0.165,0.488-0.816,0.815
		c0.214,0,0.324,0.11,0.324,0.325c0.431,0.221,0.548,0.598,0.327,1.145c-0.112,0.107-0.164,0.327-0.164,0.652
		c0,0.328,0,0.548,0,0.652c0,0.108-0.113,0.324-0.327,0.65c0.216-0.105,0.379-0.165,0.49-0.165c0.104,0,0.217-0.052,0.324-0.16
		h0.491c0.219,0.219,0.327,0.436,0.327,0.652c0,0.55,0,0.846,0,0.899c0,0.059,0.056,0.304,0.159,0.729
		c0,0.227-0.027,0.408-0.08,0.578c-0.056,0.165-0.078,0.356-0.078,0.571c0,0.432-0.111,0.712-0.326,0.813
		c0.099,0.11,0.164,0.222,0.164,0.326c0,0.108,0.053,0.223,0.163,0.334c-0.11,0.213-0.229,0.402-0.327,0.563
		c-0.113,0.165-0.064,0.356,0.164,0.575v0.161c-0.333,0.543-0.409,1.028-0.246,1.464c0.164,0.436,0.246,0.926,0.246,1.472
		c0,0.221,0,0.386,0,0.487c0,0.111,0.106,0.276,0.327,0.493h0.156h0.164c0.215-0.869,0.429-1.632,0.65-2.282
		c0.105-0.22,0.223-0.463,0.327-0.735c0.104-0.266,0.104-0.513,0-0.734l0.164-0.324c0.434-0.222,0.679-0.518,0.728-0.897
		c0.059-0.377,0.084-0.739,0.084-1.061c0.11-0.214,0.223-0.492,0.332-0.812c0.107-0.331,0.164-0.651,0.164-0.98
		c0.105-0.328,0.269-0.923,0.492-1.802c0.213-0.543,0.379-1.054,0.486-1.551c0.106-0.492,0.214-1.004,0.326-1.552
		c0.326-1.303,0.709-2.336,1.138-3.1c0.111-0.213,0.167-0.488,0.167-0.814c0-0.32,0.108-0.597,0.328-0.817l-0.163-0.327
		c0.327-0.326,0.492-0.541,0.492-0.652c0.431-0.543,0.705-1.138,0.818-1.797c0.107-0.216,0.131-0.407,0.08-0.566
		c-0.058-0.168-0.028-0.349,0.082-0.566c0.106-0.219,0.19-0.354,0.242-0.412c0.055-0.052,0.137-0.185,0.242-0.401
		c0.223-0.982,0.43-1.956,0.65-2.94c0.224-0.976,0.44-1.899,0.663-2.769c0.217-0.653,0.399-1.333,0.567-2.044
		c0.16-0.701,0.409-1.381,0.734-2.037c0.213-0.323,0.427-0.92,0.651-1.798c0-0.22,0.027-0.325,0.084-0.325
		c0.048,0,0.079-0.104,0.079-0.325c0.217-0.223,0.325-0.436,0.325-0.657c0-0.218,0.054-0.435,0.166-0.652
		c0.104-0.106,0.266-0.378,0.489-0.818c0.65-0.867,0.921-1.577,0.815-2.12v-0.329c0.546-0.541,0.819-1.25,0.819-2.125
		c0-0.211,0.054-0.354,0.16-0.406c0.106-0.049,0.218-0.189,0.328-0.406c0.102-0.542,0.242-1.008,0.4-1.383
		c0.166-0.38,0.193-0.846,0.08-1.39v-0.153c0.435-0.655,0.763-1.307,0.985-1.963c0.217-0.651,0.431-1.307,0.655-1.958
		c0.095-0.219,0.217-0.432,0.322-0.655c0.104-0.219,0.223-0.427,0.326-0.652c0.219-0.22,0.406-0.459,0.569-0.727
		c0.165-0.277,0.358-0.517,0.575-0.735l0.165-0.165c0.214-0.543,0.513-0.95,0.894-1.221c0.382-0.27,0.678-0.627,0.902-1.062
		c0.215-0.432,0.488-0.763,0.812-0.976c0.327-0.223,0.592-0.437,0.817-0.656c0.328-0.326,0.489-0.874,0.489-1.633
		c0.109,0,0.22-0.031,0.326-0.083c0.107-0.054,0.219-0.079,0.326-0.079c0,0.109,0.029,0.191,0.084,0.245
		c0.052,0.059,0.085,0.194,0.085,0.406c0.211-0.213,0.348-0.385,0.402-0.49c0.054-0.108,0.126-0.221,0.24-0.333
		c0-0.215-0.03-0.376-0.079-0.486c-0.063-0.106-0.08-0.265-0.08-0.489c0.215-0.213,0.347-0.381,0.408-0.491
		c0.053-0.102,0.187-0.217,0.401-0.328c-0.104-0.212-0.164-0.35-0.164-0.404c0-0.053-0.058-0.192-0.167-0.408l0.166-0.162
		c0.549-0.214,1.085-0.486,1.635-0.817c0.432-0.217,0.756-0.217,0.976,0c0.221,0.332,0.495,0.518,0.819,0.576
		c0.326,0.049,0.708,0.194,1.143,0.4c0.106,0.331,0.186,0.688,0.239,1.065c0.054,0.376,0.403,0.57,1.058,0.57
		c-0.104-0.218-0.162-0.6-0.162-1.144c0.546-0.333,1.031-0.436,1.47-0.333c0.102,0.112,0.326,0.166,0.653,0.166h0.649
		c-0.216,0.223-0.404,0.461-0.567,0.73c-0.164,0.276-0.353,0.521-0.569,0.729l0.978,0.497c0,0.212-0.03,0.399-0.083,0.564
		c-0.058,0.166-0.077,0.357-0.077,0.576c-0.222,0.651,0,0.977,0.654,0.977c0,0.219-0.031,0.406-0.083,0.569
		c-0.061,0.163-0.08,0.357-0.08,0.567c-0.113,0-0.166,0.062-0.166,0.166c0.215,0.435,0.107,0.875-0.325,1.311
		c-0.223,0.218-0.357,0.456-0.409,0.731c-0.06,0.265-0.192,0.52-0.406,0.731c-0.437,0.546-0.652,1.252-0.652,2.122
		c0,0.326-0.03,0.626-0.083,0.896c-0.058,0.269-0.14,0.572-0.246,0.899c-0.106,0.107-0.164,0.217-0.164,0.324
		c-0.108,0.548-0.192,1.117-0.24,1.711c-0.056,0.598-0.188,1.177-0.406,1.714c0,0.223-0.105,0.548-0.327,0.981
		c-0.214,0.436-0.433,0.761-0.65,0.985c-0.104-0.109-0.323-0.174-0.65-0.174c-0.328,0.331-0.598,0.712-0.817,1.146l-0.324,0.649
		c0.218,0.548,0.053,0.979-0.488,1.311c-0.226,0.548-0.276,1.032-0.162,1.463c0.107,0.443,0.053,0.935-0.163,1.479
		c-0.107,0.216-0.136,0.402-0.082,0.566c0.058,0.16,0.082,0.403,0.082,0.729c-0.107,0.222-0.193,0.495-0.238,0.823
		c-0.062,0.32-0.2,0.595-0.413,0.812v0.488c-0.326,0.329-0.487,0.65-0.487,0.983c0,0.326,0,0.654,0,0.979c0,0.435,0,0.843,0,1.228
		c0,0.379-0.167,0.729-0.493,1.06v0.489c0,0.217,0.06,0.357,0.162,0.403c0.114,0.062,0.114,0.14,0,0.242
		c-0.433,0.759-0.708,1.473-0.812,2.124c-0.222,0.223-0.325,0.466-0.325,0.735c0,0.273-0.06,0.52-0.166,0.739
		c-0.324,1.519-0.871,2.88-1.634,4.077c-0.22,0.217-0.349,0.493-0.406,0.816c-0.053,0.326-0.135,0.6-0.241,0.812l0.164,0.327
		c0,0.111,0.059,0.166,0.165,0.166c-0.217,0.55-0.354,1.012-0.402,1.39c-0.057,0.387-0.194,0.793-0.405,1.223
		c0.214,0.223,0.214,0.653,0,1.309c-0.219,0.43-0.327,0.844-0.327,1.221c0,0.382-0.107,0.792-0.322,1.226v0.164
		c0,0.222,0.052,0.326,0.162,0.326c0,0.549-0.108,0.925-0.331,1.15l-0.492,1.473c0,0.324-0.08,0.618-0.24,0.896
		c-0.167,0.267-0.304,0.518-0.402,0.728c-0.223,0.217-0.325,0.433-0.325,0.652c-0.226,0.55-0.55,0.982-0.987,1.31
		c-0.542,0.549-0.597,0.98-0.159,1.306c-0.433,0.111-0.653,0.435-0.653,0.978c0,0.107-0.059,0.246-0.161,0.409
		c-0.109,0.168-0.058,0.354,0.161,0.566c0,0.111-0.059,0.167-0.161,0.167c-0.223,0.217-0.274,0.486-0.163,0.819
		c0.108,0.326,0.054,0.596-0.166,0.814c0.432,0.326,0.489,0.601,0.166,0.82c-0.325,0.325-0.386,0.758-0.166,1.307
		c0,0.218,0.026,0.402,0.083,0.565c0.056,0.163-0.028,0.36-0.244,0.573v0.658c0.215,0.542,0.162,1.035-0.167,1.468
		c-0.107,0.325-0.163,0.821-0.163,1.476h0.163c-0.107,0.65-0.22,1.301-0.321,1.959c-0.114,0.649-0.275,1.304-0.489,1.955
		c0,0.22-0.108,0.437-0.33,0.652c-0.107,0.436-0.216,0.822-0.326,1.146c-0.104,0.326-0.274,0.71-0.489,1.149
		c-0.107,0.212-0.137,0.381-0.077,0.49c0.054,0.101,0.024,0.272-0.079,0.485c-0.224,0.652-0.387,1.088-0.489,1.31
		c-0.436,0.979-0.713,1.844-0.821,2.602c-0.216,0.549-0.377,1.008-0.486,1.388c-0.108,0.388-0.273,0.843-0.488,1.386
		c-0.108,0.326-0.271,0.923-0.486,1.795l-0.5,2.453c-0.114,0.217-0.162,0.439-0.162,0.649c0,0.223-0.057,0.437-0.167,0.655
		c-0.219,0.65-0.406,1.358-0.571,2.125c-0.163,0.759-0.519,1.408-1.059,1.956c-0.223,0.223-0.467,0.463-0.735,0.736
		c-0.273,0.273-0.57,0.517-0.897,0.732c-0.222,0.221-0.655,0.328-1.307,0.328c-0.219,0.105-0.461,0.158-0.735,0.158
		c-0.267,0-0.517,0.061-0.732,0.166c0.219,0.325,0.272,0.548,0.164,0.652c0,0.222-0.164,0.333-0.492,0.333
		c-0.219,0.219-0.541,0.438-0.974,0.649c-0.549,0.331-1.011,0.406-1.384,0.243c-0.386-0.163-0.793-0.298-1.226-0.403
		c-0.217,0-0.328-0.162-0.328-0.488c-0.107-0.334-0.432-0.599-0.974-0.823v0.489c-0.549,0.109-0.926-0.023-1.142-0.402
		c-0.214-0.38-0.591-0.565-1.144-0.565v0.978c-0.219,0.543-0.435,0.597-0.647,0.163c-0.223-0.328-0.549-0.491-0.981-0.491
		c-1.197,0.108-2.391-0.161-3.589-0.823c-0.436-0.427-0.713-0.753-0.813-0.973c-0.437-0.652-0.927-1.089-1.47-1.31
		c0.218-0.215,0.381-0.348,0.487-0.406c0.107-0.049,0.266-0.191,0.493-0.402c-0.55-0.112-0.818-0.496-0.818-1.146
		c-0.218-0.866-0.487-1.47-0.812-1.794c-0.11-0.109-0.171-0.219-0.171-0.332c0-0.435-0.052-0.814-0.156-1.137
		c0.423-0.224,0.816-0.386,1.138-0.498c0.106-0.217,0.055-0.653-0.161-1.303c0-0.109-0.031-0.218-0.083-0.328
		c-0.059-0.108-0.083-0.213-0.083-0.327c-0.107-0.434,0-0.652,0.325-0.652c0.22,0.872,0.46,1.716,0.735,2.528
		c0.271,0.819,0.572,1.655,0.899,2.527c0.213-0.218,0.38-0.378,0.488-0.487c0.109-0.106,0.27-0.271,0.49-0.488
		c0.327-0.22,0.462-0.462,0.41-0.738c-0.061-0.267-0.083-0.517-0.083-0.731c-0.221,0.108-0.356,0.162-0.412,0.162
		c-0.055,0-0.187,0.057-0.406,0.165c-0.325-0.104-0.383-0.378-0.165-0.812c0.33-0.328,0.463-0.683,0.406-1.063
		c-0.059-0.378-0.193-0.735-0.406-1.063c0-0.213-0.027-0.406-0.082-0.565c-0.056-0.163-0.078-0.352-0.078-0.571
		c0-0.108-0.11-0.378-0.326-0.818c0-0.107,0.027-0.163,0.076-0.163c0.054,0,0.083-0.059,0.083-0.164
		c-0.108-0.224-0.165-0.383-0.165-0.496c0-0.104-0.061-0.268-0.164-0.487c-0.113-0.107-0.165-0.217-0.165-0.326
		c-0.113-0.106-0.271-0.189-0.493-0.244c-0.219-0.054-0.328-0.188-0.328-0.404c0-0.108-0.105-0.493-0.326-1.144
		c0.436-0.326,0.654-0.92,0.654-1.798c-0.108,0-0.189-0.032-0.24-0.081c-0.056-0.055-0.138-0.084-0.243-0.084
		c-0.109-0.105-0.159-0.38-0.159-0.813l0.647-0.325c-0.214-0.655-0.386-0.981-0.489-0.981c-0.223-0.107-0.384-0.271-0.492-0.492
		c-0.106-0.214-0.266-0.377-0.486-0.487c-0.326,0-0.326-0.167,0-0.489l0.486-0.326c0-0.436-0.22-0.649-0.651-0.649
		c-0.435,0-0.654-0.17-0.654-0.498c-0.107-0.22-0.165-0.379-0.165-0.486c0-0.105-0.054-0.27-0.163-0.491
		c-0.327,0.869-0.552,1.685-0.654,2.442c-0.433-0.652-0.601-1.138-0.487-1.469c0.104-0.332,0.104-0.626,0-0.897
		c-0.108-0.271-0.275-0.571-0.49-0.898c-0.328,0.219-0.435,0.435-0.328,0.651c0.219,0.219,0.273,0.356,0.17,0.406
		c-0.112,0.058-0.277,0.137-0.497,0.241c0-0.76-0.164-1.469-0.488-2.122c-0.219-0.218-0.354-0.512-0.403-0.895
		c-0.057-0.38-0.137-0.734-0.239-1.062c0-0.218,0.027-0.404,0.076-0.566c0.058-0.164,0.081-0.354,0.081-0.576v-1.305
		c-0.22-0.217-0.429-0.385-0.654-0.487l0.489-0.492c-0.219-0.108-0.436-0.388-0.652-0.818c-0.108-0.215-0.159-0.405-0.159-0.571
		c0-0.165-0.058-0.354-0.165-0.566c0.432-0.219,0.813-0.389,1.138-0.492c-0.217-0.108-0.403-0.194-0.565-0.253
		c-0.166-0.05-0.362-0.079-0.574-0.079c0.22-0.434,0.269-0.869,0.165-1.307c-0.104-0.103-0.104-0.266,0-0.486
		c0.104-0.216,0.159-0.435,0.159-0.652l-0.649-0.326c0,0.215,0.062,0.428,0.166,0.65c0.108,0.218,0,0.437-0.324,0.652
		c-0.438-0.324-0.548-0.925-0.326-1.797h0.976c0-0.327-0.029-0.653-0.08-0.979c-0.056-0.326-0.078-0.604-0.078-0.82
		c-0.108-0.218,0.055-0.542,0.491-0.977c0.324,0.322,0.433,0.625,0.324,0.896c-0.107,0.272-0.164,0.57-0.164,0.896
		c0.218,0.221,0.381,0.406,0.493,0.569c0.106,0.163,0.271,0.402,0.487,0.735c-0.106-0.542,0.025-0.948,0.411-1.224
		c0.379-0.276,0.572-0.681,0.572-1.228c0.217,0.109,0.379,0.218,0.491,0.325c0.321-0.325,0.321-0.757,0-1.299
		c-0.325-0.221-0.463-0.466-0.405-0.737c0.048-0.264,0.133-0.572,0.241-0.893c0-0.107,0.027-0.188,0.08-0.244
		c0.058-0.053,0.029-0.193-0.08-0.407c-0.326-0.429-0.38-0.92-0.162-1.466c0.107-0.224,0.162-0.495,0.162-0.819
		c-0.217-0.759-0.273-1.358-0.162-1.802c0-0.323-0.109-0.812-0.326-1.463v1.792h-1.168c0.106-0.216,0.165-0.386,0.165-0.496
		c0-0.098,0.06-0.267,0.169-0.489l-0.498-0.486c-0.434,0.109-0.685,0.356-0.732,0.735c-0.054,0.381-0.242,0.685-0.566,0.896
		c0-0.216-0.031-0.382-0.083-0.491c-0.059-0.104-0.082-0.217-0.082-0.324C9.619,145.659,9.619,145.218,9.406,144.891z
		 M9.406,144.891c-0.11,0-0.194-0.023-0.237-0.077c-0.064-0.057-0.139-0.076-0.248-0.076c0,0.107-0.106,0.38-0.327,0.813
		c-0.222-0.217-0.327-0.602-0.327-1.138v-0.985c0-0.213,0.22-0.429,0.656-0.65C9.017,143.317,9.18,144.024,9.406,144.891z
		 M8.426,132.004c0,0.871,0.164,1.468,0.488,1.797c0.104-0.223,0.215-0.386,0.322-0.493c0.107-0.106,0.221-0.271,0.329-0.488
		c-0.222-0.217-0.406-0.351-0.571-0.4C8.834,132.359,8.635,132.219,8.426,132.004z M9.239,137.715
		c-0.322,0.226-0.462,0.492-0.407,0.819c0.061,0.325-0.03,0.601-0.242,0.821h0.819C9.406,138.59,9.342,138.041,9.239,137.715z
		 M10.543,150.769c0,0.327-0.03,0.625-0.084,0.897c-0.058,0.268-0.077,0.518-0.077,0.73c-0.325-0.218-0.716-0.436-1.144-0.656
		c0.22-0.216,0.429-0.377,0.657-0.49C10.107,151.152,10.328,150.988,10.543,150.769z M10.705,128.249
		c-0.327,0.106-0.711,0.273-1.144,0.489c-0.33,0.326-0.382,0.546-0.163,0.65c0-0.104,0.163,0,0.491,0.332l0.328-0.653h0.651
		c0-0.217-0.03-0.356-0.083-0.411C10.736,128.605,10.705,128.47,10.705,128.249z M9.735,165.614
		c-0.226-0.65-0.328-1.248-0.328-1.797l0.651-0.327c0,0.977-0.057,1.686-0.163,2.123L9.735,165.614L9.735,165.614L9.735,165.614z
		 M10.053,147.664c0.216,1.095,0.326,2.017,0.326,2.775c-0.761-0.43-1.035-1.03-0.816-1.8c0-0.216,0.105-0.542,0.326-0.979h0.163
		L10.053,147.664L10.053,147.664z M10.867,167.412c0,0.327,0.061,0.6,0.163,0.82c0.11,0.218,0,0.44-0.323,0.649
		c-0.552-0.105-0.713-0.591-0.492-1.469L10.867,167.412L10.867,167.412z M12.179,156.969c-0.547-0.217-0.869-0.299-0.975-0.24
		c-0.113,0.053-0.228,0.192-0.333,0.409c0.547,0.217,0.842,0.323,0.896,0.323C11.82,157.459,11.962,157.298,12.179,156.969z
		 M15.768,179.491c0.104-0.105,0.326-0.163,0.652-0.163v0.163c-0.326,0.652-0.492,1.252-0.492,1.797c0,0.11-0.03,0.194-0.08,0.244
		c-0.06,0.062-0.083,0.138-0.083,0.248c-0.224-0.219-0.328-0.382-0.328-0.498v-0.646c-0.22,0-0.384,0.025-0.491,0.072
		c-0.108,0.055-0.273,0.079-0.492,0.079c-0.226,0.112-0.436,0-0.651-0.326c-0.108-0.544-0.227-1.084-0.328-1.632
		c-0.108-0.545-0.221-1.086-0.327-1.635c0-0.217-0.107-0.434-0.324-0.653c-0.222-0.22-0.302-0.384-0.246-0.495
		c0.058-0.104,0.082-0.268,0.082-0.489c0-0.433,0.271-0.542,0.819-0.327c0.757-0.759,1.471-0.71,2.12,0.165
		c0.109,0.224,0.245,0.354,0.409,0.406c0.163,0.055,0.295,0.136,0.408,0.246c-0.225,0.332-0.44,0.458-0.653,0.407
		c-0.224-0.058-0.435,0.026-0.65,0.24c0.215,0.226,0.298,0.403,0.237,0.565c-0.053,0.167-0.03,0.356,0.082,0.578
		c0,0.217,0.028,0.409,0.082,0.573c0.05,0.166,0.081,0.356,0.081,0.573c0,0.107,0.029,0.192,0.081,0.234
		C15.739,179.3,15.768,179.384,15.768,179.491z M13.972,165.78c0.217,0.656,0.324,1.145,0.324,1.471
		c0,0.763,0.108,1.304,0.326,1.631c0.219,0.438,0.434,0.821,0.658,1.148c-0.111-0.546-0.163-1.251-0.163-2.125
		c0-0.101-0.032-0.193-0.086-0.245c-0.059-0.055-0.08-0.13-0.08-0.242c-0.326-0.217-0.463-0.461-0.406-0.734
		c0.06-0.266,0.143-0.518,0.246-0.735l-0.326,0.163c-0.109-0.107-0.193-0.163-0.247-0.163
		C14.158,165.94,14.082,165.89,13.972,165.78z M15.768,183.896c-0.869,0.548-1.307,0.434-1.307-0.324
		c-0.108-0.328-0.167-0.761-0.167-1.309c0-0.33,0.056-0.596,0.167-0.819h0.493c0,0.224,0.075,0.39,0.241,0.49
		c0.163,0.113,0.192,0.274,0.08,0.491v0.493C15.278,183.46,15.441,183.787,15.768,183.896z"/>
	<path fill="#FFFFFF" d="M86.586,191.564c0.326-0.216,0.547-0.244,0.655-0.084c0.11,0.162,0.271,0.302,0.49,0.406
		c0.326,0.331,0.707,0.387,1.139,0.164c0-0.212-0.056-0.386-0.16-0.488c-0.65-0.546-1.28-1.142-1.879-1.799
		c-0.6-0.65-1.281-1.247-2.039-1.796c-0.326-0.216-0.625-0.49-0.902-0.815c-0.271-0.327-0.565-0.655-0.89-0.978l-1.146-1.146
		l-0.65,0.65c-0.553-0.107-0.927-0.461-1.147-1.058c-0.218-0.6-0.161-1.17,0.164-1.716c0.334,0.11,0.601,0.3,0.822,0.564
		c0.212,0.274,0.546,0.303,0.981,0.09c0.108-0.437-0.065-0.875-0.492-1.308c-0.326-0.331-0.625-0.66-0.896-0.988
		c-0.274-0.327-0.572-0.65-0.896-0.978c-0.328-0.324-0.548-0.491-0.652-0.491c-0.109,0-0.436,0.103-0.985,0.327
		c-0.433-0.542-0.76-1.032-0.968-1.477c-0.223-0.428-0.499-0.917-0.829-1.468c-0.209-0.542-0.489-1.06-0.811-1.553
		c-0.325-0.484-0.651-1.006-0.975-1.548c0.543-0.757,0.376-1.57-0.491-2.445c-0.325-0.109-0.391-0.389-0.164-0.827
		c0.217-0.217,0.349-0.486,0.399-0.813c0.058-0.32,0.193-0.598,0.406-0.812c-0.101-0.329-0.324-0.548-0.651-0.655
		c0-0.109,0.064-0.223,0.165-0.327c0.325-0.433,0.386-0.921,0.165-1.476c-0.102-0.104-0.219-0.236-0.326-0.401
		c-0.113-0.164-0.217-0.24-0.325-0.24c-0.547-0.219-0.895-0.519-1.059-0.899c-0.162-0.381-0.358-0.781-0.573-1.224
		c0-0.218,0.03-0.381,0.083-0.492c0.047-0.103,0.022-0.266-0.083-0.489c-0.328-0.545-0.463-1.114-0.406-1.713
		c0.058-0.596,0.137-1.229,0.242-1.879v-0.475c-0.104-0.546-0.166-1.142-0.166-1.8c0-0.65,0-1.244,0-1.797
		c0-0.323,0.062-0.65,0.166-0.979c0.11-0.323,0.219-0.654,0.327-0.978c0.107-0.32,0.167-0.761,0.167-1.304
		c-0.111-0.549-0.167-1.01-0.167-1.389c0-0.381,0-0.839,0-1.387c0.219-1.192,0.354-2.418,0.406-3.672
		c0.053-1.245,0.186-2.469,0.408-3.674c0-0.326,0.108-0.819,0.326-1.474c0-0.214,0.051-0.429,0.164-0.649
		c0-0.427,0.104-1.194,0.322-2.289c0.109-0.215,0.168-0.434,0.168-0.65c0-0.219,0.052-0.433,0.165-0.65
		c0-0.11-0.031-0.194-0.083-0.245c-0.052-0.054-0.031-0.193,0.083-0.407c0.101-0.656,0.216-1.33,0.323-2.036
		c0.104-0.714,0.271-1.442,0.489-2.206c0.109-0.434,0.216-0.842,0.325-1.228c0.108-0.379,0.108-0.838,0-1.383
		c0-0.326,0.058-0.684,0.163-1.062c0.109-0.38,0.222-0.729,0.333-1.053c0.104-0.547,0.19-1.119,0.242-1.718
		c0.059-0.595,0.188-1.169,0.402-1.711l0.493-1.471c0.216-0.547,0.356-1.061,0.406-1.552c0.054-0.494,0.242-1.005,0.57-1.552
		c0.107-0.215,0.137-0.462,0.082-0.733c-0.059-0.266-0.032-0.517,0.079-0.732c0.223-0.545,0.386-1.034,0.492-1.467
		c0.094-0.434,0.265-0.87,0.482-1.306c0-0.222,0.219-0.547,0.655-0.985c0.432-0.652,0.601-1.192,0.489-1.63
		c0-0.323,0.057-0.547,0.166-0.649c0.426-0.759,0.815-1.554,1.14-2.367c0.326-0.819,0.817-1.555,1.471-2.205
		c0.103-0.107,0.165-0.266,0.165-0.493c0.1-0.212,0.159-0.404,0.159-0.57c0-0.162,0.054-0.295,0.163-0.403
		c0.216-0.326,0.464-0.627,0.733-0.895c0.269-0.273,0.358-0.621,0.246-1.059c0.651-0.657,1.141-1.195,1.467-1.636
		c-0.326-0.431-0.38-0.839-0.165-1.223c0.219-0.382,0.436-0.732,0.651-1.053c0.547-0.765,1.118-1.496,1.714-2.206
		c0.603-0.707,1.174-1.445,1.719-2.206c0.428-0.542,0.814-1.03,1.139-1.47c0.323-0.431,0.71-0.922,1.144-1.47
		c0.544-0.867,1.307-1.633,2.283-2.28c0.109,0,0.167-0.056,0.167-0.164c0.321-0.762,1.088-1.145,2.289-1.145
		c0.213,0,0.434-0.029,0.651-0.082c0.217-0.055,0.432-0.083,0.65-0.083c1.964-0.323,3.65,0.061,5.063,1.145
		c0.983,0.652,2.12,0.819,3.425,0.491h0.33c1.304,0,2.629,0.028,3.994,0.082c1.358,0.055,2.637,0.296,3.837,0.727
		c0.218,0,0.384,0.031,0.491,0.083c0.107,0.064,0.267,0.079,0.497,0.079c0.863,0.113,1.631,0.333,2.279,0.658
		c0.649,0.327,1.36,0.708,2.127,1.142c0.652,0.22,1.144,0.436,1.464,0.652c0.327,0.219,0.65,0.406,0.98,0.57
		c0.328,0.162,0.706,0.354,1.145,0.57c0.659,0.435,1.032,0.925,1.145,1.471c0.329,0.55,0.547,0.872,0.653,0.987
		c0.543,0.318,0.921,0.705,1.144,1.136c0.217,0.438,0.431,0.928,0.652,1.475l0.98,1.956c0,0.109,0.028,0.223,0.083,0.327
		c0.047,0.112,0.082,0.276,0.082,0.498c0.096,0.546,0.186,1.118,0.243,1.709c0.054,0.595,0.187,1.169,0.402,1.717v0.49
		c-0.109,1.849,0.27,3.751,1.141,5.707c0.218,0.44,0.33,1.147,0.33,2.13c-0.22,0.755-0.166,1.41,0.162,1.958
		c0.215,0.221,0.327,0.384,0.327,0.489c0,0.649,0.134,1.277,0.405,1.877c0.271,0.598,0.348,1.283,0.245,2.041
		c-0.11,0.219-0.137,0.381-0.08,0.493c0.048,0.102,0.08,0.27,0.08,0.49c0.106,0.104,0.158,0.268,0.158,0.487
		c-0.222,1.312,0,2.349,0.655,3.103v0.489c-0.22,1.198-0.241,2.312-0.078,3.347c0.161,1.036,0.295,2.146,0.402,3.343
		c0.104,0.55,0.219,1.12,0.328,1.717c0.101,0.593,0.049,1.173-0.159,1.708c-0.113,0.22-0.14,0.39-0.081,0.489
		c0.054,0.107,0.081,0.271,0.081,0.489c0.104,1.095,0.186,2.154,0.236,3.19c0.059,1.028,0.083,2.096,0.083,3.178
		c0,0.551-0.057,0.98-0.161,1.307c0,0.546-0.058,1.088-0.162,1.632c-0.109,0.549-0.162,1.088-0.162,1.634
		c0,0.431,0.058,0.716,0.162,0.819c0.323,0.546,0.432,0.978,0.323,1.304c-0.216,0.543-0.161,0.979,0.169,1.304
		c0.218,0.439,0.218,0.818,0,1.146c-0.225,0.867-0.443,1.522-0.657,1.955c0,0.333-0.109,0.821-0.326,1.474c0,0.549,0,1.055,0,1.555
		c0,0.49-0.053,1.007-0.161,1.547c0,0.226-0.029,0.464-0.08,0.736c-0.061,0.273-0.08,0.565-0.08,0.891
		c-0.106,0.434-0.137,0.87-0.083,1.305c0.062,0.436,0.356,0.82,0.9,1.151c0.108,0.107,0.186,0.271,0.238,0.489
		c0.057,0.217,0.136,0.435,0.25,0.65c0.209,1.308,0,2.343-0.653,3.102c-0.436,0.654-0.494,1.308-0.167,1.961
		c0.324,0.437,0.38,0.977,0.167,1.629c-0.109,0.55-0.194,1.035-0.246,1.472c-0.066,0.436-0.138,0.87-0.243,1.308
		c-0.108,0.329-0.165,0.765-0.165,1.308c0.224,0.762,0.057,1.312-0.487,1.637c-0.331,0.218-0.625,0.492-0.9,0.814
		c-0.273,0.326-0.565,0.6-0.893,0.818c-0.115,0.226-0.222,0.388-0.325,0.49c-0.114,0.108-0.224,0.277-0.325,0.488
		c-0.112,0-0.167,0.061-0.167,0.167c-0.759,0.759-1.196,1.583-1.311,2.446c0,0.223-0.219,0.549-0.646,0.984
		c-0.98,0.981-1.933,1.957-2.86,2.931c-0.928,0.983-1.771,2.072-2.529,3.264c0,0.108-0.028,0.162-0.077,0.162
		c-0.058,0-0.083,0.055-0.083,0.164c-0.547,0.326-1.04,0.705-1.474,1.14c-0.435,0.436-0.863,0.926-1.305,1.473
		c-0.435,0.438-0.895,0.731-1.391,0.897c-0.488,0.163-1.008,0.354-1.549,0.57c-0.221,0.216-0.431,0.356-0.653,0.406
		c-0.224,0.058-0.434,0.194-0.65,0.41c-0.87,0.542-1.747,0.873-2.607,0.976c-0.654,0-1.282,0.113-1.88,0.325
		c-0.596,0.218-1.226,0.383-1.878,0.488c-0.655,0.218-1.247,0.329-1.795,0.329c-0.761,0-1.527,0-2.286,0
		c-0.764,0-1.576-0.104-2.449-0.329c-0.762-0.105-1.495-0.129-2.208-0.076c-0.706,0.051-1.445,0.076-2.2,0.076
		c-2.614-0.105-5.173-0.814-7.669-2.119c-0.436-0.218-0.85-0.434-1.225-0.657c-0.387-0.215-0.791-0.432-1.225-0.65
		C87.126,192.053,86.91,191.889,86.586,191.564z M113.183,115.36c-0.108-0.213-0.164-0.589-0.164-1.141
		c0-1.305-0.383-2.719-1.144-4.243c-0.224-0.326-0.466-0.68-0.733-1.061c-0.275-0.38-0.521-0.729-0.736-1.06
		c-0.434-0.65-0.87-1.246-1.303-1.791c-0.434-0.549-0.928-1.089-1.473-1.636c-0.547-0.329-0.977-0.708-1.305-1.141
		c-0.325-0.435-0.708-0.925-1.143-1.47c-0.326-0.325-0.63-0.682-0.898-1.057c-0.277-0.385-0.569-0.735-0.893-1.064
		c-0.656-0.432-1.145-0.432-1.475,0c-0.435,0.542-0.816,1.141-1.144,1.797c-0.321,0.658-0.546,1.414-0.649,2.286
		c0,0.874-0.22,1.687-0.66,2.452c-0.218,0.428-0.431,0.841-0.651,1.217c-0.216,0.387-0.322,0.845-0.322,1.387
		c-0.106,0.437-0.271,1.198-0.488,2.282c-0.108,0.543-0.192,1.091-0.246,1.634c-0.059,0.551-0.137,1.085-0.241,1.632
		c0,0.11-0.027,0.193-0.078,0.246c-0.061,0.054-0.079,0.142-0.079,0.241c-0.327,0.869-0.571,1.717-0.731,2.533
		c-0.166,0.815-0.361,1.66-0.576,2.529c-0.222,1.085-0.436,1.909-0.656,2.447c-0.107,0.547-0.221,1.122-0.326,1.711
		c-0.108,0.604-0.269,1.228-0.489,1.878c-0.218,0.762-0.355,1.499-0.406,2.206c-0.054,0.708-0.194,1.444-0.408,2.196
		c-0.105,0.661-0.219,1.31-0.326,1.963c-0.106,0.654-0.219,1.311-0.327,1.962l-0.488,3.915c0,0.652-0.079,1.309-0.245,1.961
		c-0.165,0.65-0.133,1.298,0.082,1.958c0.217,0.546,0.353,1.089,0.409,1.633c0.054,0.541,0.137,1.088,0.242,1.63
		c0,0.654,0.053,1.138,0.164,1.472c0.219,0.653,0.38,1.362,0.492,2.129c0.106,0.755,0.271,1.464,0.491,2.114
		c0.107,0.223,0.159,0.492,0.159,0.822c0.108,0.874,0.195,1.737,0.246,2.606c0.054,0.874,0.193,1.747,0.408,2.608
		c0.106,0.65,0.106,1.275,0,1.873c-0.114,0.603-0.114,1.223,0,1.877c0.106,0.33,0.134,0.626,0.08,0.899
		c-0.055,0.271,0.027,0.572,0.239,0.898c0.222,0.104,0.334,0.438,0.334,0.981c-0.228,0.871-0.193,1.708,0.079,2.529
		c0.266,0.813,0.514,1.659,0.733,2.53c0.434,1.853,1.193,3.866,2.279,6.038c0.549,1.193,1.149,2.423,1.8,3.672
		c0.652,1.251,1.523,2.364,2.607,3.347c0.868,0.977,1.853,1.249,2.94,0.812c0.759-0.324,1.409-0.754,1.955-1.308
		c0.55-0.436,1.012-0.869,1.388-1.306c0.382-0.434,0.793-0.87,1.229-1.307c1.078-0.866,1.792-2.121,2.118-3.754
		c0-0.212,0.028-0.403,0.08-0.566c0.054-0.16,0.084-0.349,0.084-0.572c0.223-0.977,0.429-1.931,0.66-2.85
		c0.213-0.926,0.43-1.879,0.652-2.856c0.211-1.086,0.324-1.848,0.324-2.292c0.104-0.541,0.22-1.08,0.328-1.63
		c0.104-0.546,0.161-1.081,0.161-1.634c0.106-0.65,0.163-1.333,0.163-2.041c0-0.707,0-1.377,0-2.042
		c0.218-1.188,0.355-2.304,0.409-3.34c0.046-1.031,0.193-2.098,0.407-3.187c0.211-0.867,0.294-1.68,0.245-2.451
		c-0.062-0.759-0.078-1.514-0.078-2.281c-0.119-2.718-0.119-5.443,0-8.158v-4.245c-0.119-0.977-0.197-1.928-0.246-2.853
		c-0.06-0.927-0.132-1.823-0.241-2.696c0-0.549,0-1.058,0-1.549c0-0.494-0.063-1.009-0.167-1.554c0-0.543-0.032-1.025-0.078-1.47
		c-0.059-0.431-0.137-0.917-0.249-1.468l-0.154-0.325c-0.225-0.761-0.462-1.471-0.737-2.123c-0.27-0.649-0.519-1.359-0.729-2.124
		c-0.223-0.432-0.325-1.084-0.325-1.961C113.238,116.45,113.183,116.015,113.183,115.36z"/>
	<path fill="#FFFFFF" d="M144.511,87.944c0.107-0.106,0.217-0.165,0.32-0.165c0.872,0,1.526-0.105,1.963-0.325
		c0.983-0.332,1.796-0.381,2.449-0.163c0.327,0.104,0.867,0.163,1.637,0.163h4.565c1.516,0,2.957,0.106,4.328,0.325
		c1.354,0.219,2.794,0.438,4.324,0.652c0.545,0,1.113,0.06,1.716,0.163c0.594,0.113,1.17,0.217,1.712,0.326
		c0.541,0.109,1.087,0.191,1.635,0.243c0.543,0.055,1.077,0.14,1.63,0.243c0.988,0.221,1.74,0.273,2.287,0.165
		c0.543,0,1.246,0.104,2.125,0.326c0.651,0,1.309,0.029,1.953,0.083c0.66,0.057,1.309,0.14,1.959,0.245h0.17
		c0.866-0.106,1.658-0.167,2.366-0.167c0.696,0,1.493,0,2.365,0h2.606c0.54,0,1.033,0.034,1.471,0.085
		c0.437,0.052,0.922,0.023,1.472-0.085c0.761-0.099,1.496-0.099,2.206,0c0.707,0.109,1.383,0.272,2.035,0.492
		c0.552,0.11,1.117,0.223,1.715,0.326c0.596,0.11,1.169,0.273,1.712,0.493c0.104,0,0.191,0.026,0.245,0.08
		c0.057,0.053,0.14,0.08,0.244,0.08c0.544,0.222,1.027,0.518,1.471,0.895c0.436,0.385,0.922,0.518,1.47,0.405
		c0.106,0.436,0.028,0.71-0.24,0.819c-0.274,0.108-0.521,0.27-0.736,0.487c0,0.331,0.138,0.576,0.407,0.735
		c0.269,0.165,0.516,0.356,0.733,0.572c0.217,0,0.462,0.03,0.736,0.083c0.264,0.057,0.517,0.077,0.733,0.077
		c0.546-0.217,1.029-0.11,1.474,0.325c0.212,0,0.379,0.053,0.486,0.163c0.22,0.104,0.407,0.165,0.576,0.165
		c0.161,0,0.353,0.052,0.565,0.16c0.327,0.218,0.489,0.597,0.489,1.143c0,0.109,0.164,0.324,0.493,0.65
		c-0.214,0.55-0.296,0.874-0.247,0.982c0.058,0.106,0.357,0.389,0.899,0.818c-0.106,0.653-0.434,1.036-0.977,1.151
		c-0.219,0-0.438,0.021-0.658,0.073c-0.211,0.053-0.433,0.082-0.647,0.082c-0.873,0.435-0.973,0.981-0.328,1.63
		c0.222,0.218,0.328,0.655,0.328,1.308c0,0.434,0,0.845,0,1.223c0,0.381,0.215,0.682,0.647,0.899
		c0.114,0.758-0.211,1.413-0.976,1.959c-0.323,0.217-0.625,0.431-0.897,0.652c-0.278,0.221-0.575,0.386-0.899,0.49
		c-0.327,0-0.492,0.273-0.492,0.814c0,0.544-0.324,1.035-0.976,1.47c-0.331,0.326-0.657,0.385-0.981,0.168
		c-0.325-0.223-0.601-0.223-0.813,0c-0.113,0.106-0.275,0.16-0.489,0.16c-0.546,0.109-1.063,0.219-1.556,0.322
		c-0.493,0.114-1.01,0.061-1.555-0.158c-0.54-0.216-0.976-0.216-1.309,0c-0.546,0.436-0.921,0.271-1.144-0.493
		c-0.105,0.111-0.184,0.168-0.242,0.168c-0.05,0-0.137,0.055-0.243,0.16c-0.653,0.652-1.312,0.712-1.962,0.165
		c-0.327-0.325-0.651-0.387-0.977-0.165c-0.323,0.109-0.757,0-1.303-0.326c-0.438-0.219-0.765-0.323-0.982-0.323
		c-0.436-0.11-0.823-0.22-1.144-0.333c-0.324-0.103-0.653-0.103-0.979,0c-0.109,0-0.161-0.053-0.161-0.163
		c-0.325-0.327-0.707-0.516-1.141-0.57c-0.442-0.053-0.82-0.186-1.143-0.404c-0.224,0-0.386-0.055-0.49-0.164
		c-0.221-0.326-0.713-0.599-1.473-0.817c-0.108-0.217-0.108-0.409,0-0.573c0.105-0.158,0-0.354-0.328-0.569
		c-0.109,0.111-0.161,0.196-0.161,0.248c0,0.047-0.059,0.134-0.162,0.24c-0.438,0.433-0.816,0.433-1.14,0
		c-0.11-0.218-0.438-0.495-0.983-0.818c-1.088-0.212-1.521,0.165-1.303,1.144c0.105,0.224,0.155,0.407,0.155,0.572
		c0,0.164,0.055,0.349,0.161,0.565c0.111,0.225,0.25,0.412,0.413,0.578c0.16,0.163,0.354,0.355,0.565,0.57
		c0.331,0.323,0.386,0.759,0.162,1.301c-0.104,0.438,0.06,0.716,0.492,0.825c0.429,0.103,0.709,0.38,0.815,0.815
		c0.105,0.327,0.161,0.625,0.161,0.895c0,0.273,0.059,0.519,0.167,0.74c0,0.214,0.058,0.378,0.166,0.492
		c0.102,0.102,0.271,0.269,0.489,0.486c-0.108,0.326-0.16,0.681-0.16,1.057c0,0.376-0.11,0.793-0.327,1.224v0.329
		c0.217,0.218,0.271,0.459,0.159,0.727c-0.105,0.277-0.159,0.522-0.159,0.742c0,0.433-0.226,1.084-0.655,1.953
		c-0.108,0.55-0.271,1.25-0.489,2.123c-0.108,0.222-0.165,0.436-0.165,0.651c0,0.219-0.058,0.438-0.16,0.659
		c-0.225,0.325-0.331,0.868-0.331,1.627v0.98c-0.326,0.872-0.385,1.746-0.164,2.61c0,0.435-0.05,0.71-0.164,0.82
		c-0.216,0.325-0.32,0.619-0.32,0.895c0,0.271-0.06,0.565-0.164,0.896c0,0.547-0.112,1.247-0.328,2.125
		c-0.321,1.092-0.437,2.12-0.321,3.096c0.104,0.544,0.207,1.149,0.321,1.797c0.108,0.658,0.216,1.248,0.328,1.796
		c0.106,0.549,0.267,1.089,0.485,1.633c0.224,0.549,0.224,1.089,0,1.634c0,0.107,0.061,0.166,0.164,0.166
		c0.333,0.759,0.224,1.47-0.323,2.123c0.432,0.546,0.547,1.084,0.323,1.632c0,0.216,0.108,0.433,0.333,0.651
		c0.216,0.108,0.323,0.436,0.323,0.976c-0.218,0.547-0.218,0.983,0,1.309v0.326c-0.107,0.546-0.19,1.006-0.244,1.385
		c-0.061,0.382-0.143,0.845-0.249,1.391v0.324c0.221,0.546,0.275,1.007,0.166,1.386c-0.106,0.382-0.215,0.845-0.324,1.382
		c-0.11,0.436-0.222,0.874-0.327,1.309c-0.106,0.437-0.22,0.871-0.333,1.309c-0.105,0.325-0.157,0.625-0.157,0.899
		c0,0.271-0.051,0.561-0.166,0.892c-0.106,0.548-0.162,1.087-0.162,1.629c0,0.548-0.106,1.098-0.326,1.639
		c-0.222,0.652-0.276,1.199-0.157,1.635c0.215,0.54,0.215,1.087,0,1.63c-0.119,0.326-0.193,0.65-0.251,0.979
		c-0.046,0.333-0.194,0.6-0.4,0.82c-0.326,0-0.326,0.164,0,0.488c0.106,0.759,0.132,1.475,0.081,2.124
		c-0.062,0.652-0.139,1.367-0.248,2.124c-0.108,0.224-0.137,0.466-0.081,0.738c0.052,0.271,0.027,0.564-0.083,0.895
		c0,0.439-0.108,1.089-0.325,1.961c-0.106,0.546-0.19,1.115-0.242,1.712c-0.062,0.597-0.031,1.171,0.083,1.712
		c0,0.87-0.063,1.688-0.167,2.445c-0.107,0.76-0.386,1.52-0.817,2.285c-0.436,1.087-0.818,1.849-1.144,2.284
		c-0.224,0.548-0.224,0.926,0,1.145c0.216,0.217,0.353,0.406,0.406,0.57c0.056,0.158,0.139,0.358,0.242,0.568
		c-0.216,0.225-0.434,0.332-0.652,0.332c-0.22,0-0.325,0.107-0.325,0.326c-0.213,0.653-0.325,1.032-0.325,1.142
		c-0.655-0.105-1.305-0.105-1.962,0c-0.647,0.108-1.252,0.162-1.798,0.162c-0.753,0-1.467-0.028-2.12-0.077
		c-0.655-0.055-1.305-0.085-1.958-0.085c-0.108,0-0.221,0.062-0.334,0.162c-0.542,0.22-1.008,0.28-1.381,0.163
		c-0.39-0.105-0.845-0.216-1.389-0.325l-0.65-0.325h-0.491c-0.22,0.218-0.408,0.301-0.572,0.242
		c-0.162-0.058-0.356-0.136-0.574-0.242c-0.438,0-0.71-0.163-0.816-0.489c-0.222-0.327-0.222-0.815,0-1.473
		c0.213-0.65,0.325-1.082,0.325-1.304c0-0.763-0.079-1.491-0.242-2.204c-0.162-0.713-0.304-1.442-0.406-2.2
		c0-0.221-0.035-0.493-0.083-0.818c-0.057-0.328-0.076-0.596-0.076-0.822v-0.326c0-0.326-0.062-0.653-0.165-0.979
		c-0.11-0.328-0.11-0.706,0-1.145c0-0.328-0.028-0.687-0.083-1.062c-0.048-0.379-0.083-0.735-0.083-1.062
		c0-0.545-0.027-1.004-0.08-1.389c-0.054-0.38-0.073-0.838-0.073-1.382c0-0.219-0.035-0.381-0.08-0.494
		c-0.06-0.106-0.081-0.217-0.081-0.324v-0.33c0.104-0.76,0.081-1.492-0.084-2.2c-0.16-0.704-0.189-1.446-0.083-2.203
		c0.112-0.979,0.165-1.937,0.165-2.855c0-0.921,0-1.818,0-2.692c0.213-2.397,0.166-4.514-0.165-6.365v-0.66
		c0.329-1.415,0.387-3.04,0.165-4.894c-0.106-0.541-0.165-1.03-0.165-1.469c0-0.433,0-0.929,0-1.479v-1.464
		c-0.106-0.542-0.162-1.085-0.162-1.631c0-0.545,0-1.088,0-1.633c0-0.22-0.027-0.386-0.079-0.496
		c-0.056-0.102-0.076-0.269-0.076-0.491c0.103-0.541,0.163-1.077,0.163-1.631c0-0.542,0-1.084,0-1.631v-2.768
		c0.101-0.759,0.131-1.498,0.075-2.205c-0.052-0.706-0.03-1.444,0.079-2.206v-0.98c0.112-0.219,0.165-0.433,0.165-0.651
		c-0.106-0.549-0.106-1.01,0-1.378c0.106-0.387,0.213-0.792,0.325-1.229c0.22-0.981,0.434-1.933,0.659-2.857
		c0.214-0.927,0.328-1.928,0.328-3.022c0-0.428,0.024-0.839,0.075-1.221c0.06-0.379,0.141-0.843,0.244-1.384
		c0.111-0.545,0.191-1.005,0.246-1.384c0.048-0.38,0.138-0.841,0.245-1.387c0.218-0.542,0.436-1.359,0.656-2.452
		c0.214-0.652,0.38-1.275,0.488-1.872c0.105-0.595,0.221-1.169,0.324-1.714c0.11-0.542,0.193-1.064,0.251-1.554
		c0.045-0.489,0.078-1.005,0.078-1.544l0.489-2.448l0.488-1.961c0-0.547,0.083-1.007,0.247-1.385
		c0.159-0.388,0.352-0.795,0.573-1.224c0.104-0.219,0.161-0.405,0.161-0.567c0-0.165,0.055-0.36,0.158-0.577
		c0.219-0.65,0.435-1.084,0.654-1.304c0.661-1.194,0.328-1.959-0.983-2.284c-0.439,0-0.974-0.104-1.627-0.323
		c-0.331-0.223-0.633-0.384-0.897-0.498c-0.272-0.106-0.574-0.267-0.899-0.487c-0.22-0.105-0.483-0.214-0.817-0.327
		c-0.327-0.106-0.652-0.22-0.98-0.326c-0.545-0.217-1.083-0.351-1.63-0.403c-0.553-0.057-1.086-0.194-1.631-0.408
		c-0.546-0.216-1.068-0.432-1.553-0.653c-0.488-0.217-0.957-0.588-1.388-1.142c-0.22-0.325-0.489-0.485-0.816-0.485
		c-0.221,0-0.357-0.028-0.406-0.082c-0.065-0.058-0.142-0.083-0.248-0.083c-0.544-0.435-1.033-0.787-1.473-1.06
		c-0.429-0.273-0.813-0.681-1.138-1.225c-0.113,0-0.194-0.031-0.246-0.079c-0.049-0.055-0.134-0.08-0.238-0.08l-0.471-0.476
		c-0.216-0.436-0.465-0.763-0.728-0.984c-0.274-0.223-0.524-0.493-0.741-0.819c-0.214-0.217-0.357-0.381-0.407-0.489
		C144.535,88.492,144.511,88.273,144.511,87.944z"/>
	<path fill="#FFFFFF" d="M228.388,91.534c0.651,0.435,1.472,0.435,2.447,0c0.225-0.104,0.493-0.104,0.82,0
		c0.217,0.112,0.543,0.166,0.979,0.166c0.219,0,0.295-0.052,0.243-0.166c-0.059-0.104,0.028-0.049,0.248,0.166
		c0.323,0.11,0.618-0.021,0.897-0.402c0.272-0.381,0.517-0.463,0.734-0.242c0.104,0.105,0.301,0.083,0.569-0.082
		c0.264-0.164,0.409-0.194,0.409-0.083c0.546,0.547,0.842,0.571,0.899,0.083c0.061-0.496,0.357-0.897,0.895-1.224
		c0.335-0.22,0.712-0.193,1.147,0.077c0.437,0.276,0.816,0.303,1.139,0.082c0.546-0.212,1.065-0.458,1.554-0.731
		c0.492-0.267,1.003-0.521,1.554-0.732c0.212-0.105,0.428-0.215,0.649-0.326c0.214-0.109,0.431-0.164,0.652-0.164
		c0.325-0.107,0.624-0.215,0.898-0.323c0.273-0.111,0.57-0.223,0.898-0.333l0.165-0.165c0.543-0.102,1.08-0.214,1.633-0.324
		c0.538-0.102,1.076-0.211,1.631-0.325c0.543-0.102,1.086-0.191,1.633-0.244c0.546-0.054,1.087-0.084,1.632-0.084
		c0.654,0,1.414,0.114,2.288,0.326c1.081,0.225,1.843,0.495,2.284,0.819c0,0.115-0.035,0.194-0.08,0.244
		c-0.066,0.053-0.082,0.137-0.082,0.236c0,0.985-0.326,1.639-0.986,1.967c-0.215,0.114-0.403,0.24-0.562,0.402
		c-0.165,0.163-0.41,0.303-0.741,0.406c-0.323,0.113-0.382,0.49-0.159,1.149v0.158v0.168c-0.219,0.103-0.409,0.193-0.574,0.242
		c-0.162,0.057-0.358,0.194-0.571,0.405c-0.11,0.218-0.157,0.649-0.157,1.306c0,0.438-0.163,0.71-0.491,0.815
		c-0.654,0.327-1.152,0.872-1.475,1.632c0,0.33-0.104,0.493-0.327,0.493c-0.324,0.223-0.599,0.433-0.815,0.65
		c-0.223,0.223-0.439,0.436-0.655,0.656c-0.875,1.195-1.905,2.071-3.097,2.605c-0.108,0-0.163,0.031-0.163,0.083
		c0,0.051-0.055,0.081-0.16,0.081c-0.655,0-1.277,0.191-1.877,0.571c-0.596,0.387-1.177,0.681-1.715,0.897
		c-0.431,0.107-0.818,0.216-1.143,0.323c-0.322,0.114-0.703,0.225-1.137,0.33c-0.436,0-0.763,0.058-0.985,0.163
		c-0.217,0-0.43,0.107-0.654,0.325c-0.32,0.326-0.711,0.382-1.136,0.165c-0.327-0.329-0.599-0.219-0.824,0.326
		c-0.54,0.761-0.758,1.417-0.653,1.964v0.653c-0.325,0.652-0.376,1.354-0.161,2.12c0.107,0.322,0.057,0.626-0.164,0.899
		c-0.216,0.269-0.271,0.569-0.151,0.895c0,0.104-0.035,0.216-0.083,0.328c-0.058,0.107-0.081,0.22-0.081,0.326
		c0.104,1.197,0.104,2.336,0,3.429v0.325c0.104,0.876,0.162,1.688,0.162,2.452c0,0.754,0.053,1.576,0.164,2.449
		c0,0.108-0.033,0.217-0.079,0.328c-0.062,0.105-0.083,0.214-0.083,0.323c0,0.22,0.028,0.468,0.083,0.732
		c0.049,0.274,0.079,0.521,0.079,0.737c0.102,0.107,0.162,0.27,0.162,0.486c-0.113,0.436-0.162,1.201-0.162,2.286
		c0.326,0.66,0.486,1.25,0.486,1.798c-0.107,0.22-0.138,0.488-0.08,0.819c0.048,0.332-0.029,0.596-0.247,0.819
		c0.106,0.546,0.058,1.084-0.161,1.633c-0.22,0.547-0.22,1.085,0,1.63c0.105,0.547,0.38,0.816,0.816,0.816
		c0.217-0.108,0.404-0.166,0.573-0.166c0.159,0,0.352-0.104,0.569-0.324c0.219-0.104,0.402-0.164,0.575-0.164
		c0.161,0,0.351-0.053,0.571-0.166c0.214,0,0.323-0.052,0.323-0.163c0.214-0.32,0.54-0.487,0.986-0.487
		c0.422,0,0.756-0.105,0.972-0.326c0.548,0,0.979-0.083,1.312-0.243c0.329-0.165,0.758-0.296,1.306-0.408
		c0.65,0,1.088-0.104,1.312-0.323c0.429-0.222,0.836-0.329,1.219-0.329c0.38,0,0.735-0.11,1.068-0.326l0.159-0.163l3.425-0.488
		c0.438-0.106,0.812-0.217,1.144-0.326c0.325-0.106,0.708-0.213,1.142-0.329c0.43-0.104,0.86-0.267,1.309-0.485
		c0.431-0.221,0.914-0.221,1.468,0h0.653c0.543-0.111,1.062-0.194,1.554-0.248c0.488-0.051,1.009-0.083,1.552-0.083
		c0.758-0.212,1.473-0.157,2.122,0.165c0.217,0,0.405-0.029,0.572-0.083c0.163-0.052,0.356-0.023,0.574,0.083
		c0.325,0,0.646,0.06,0.982,0.168c-0.226,0.213-0.383,0.434-0.496,0.651c-0.107,0.218-0.217,0.434-0.327,0.651
		c-0.221,0.326-0.46,0.653-0.732,0.979c-0.275,0.329-0.521,0.716-0.735,1.143c-0.224,0.762-0.709,1.15-1.464,1.15
		c-0.33,0.104-0.601,0.379-0.828,0.816v0.327c0,0.65-0.057,1.193-0.159,1.631c-0.216,0.22-0.435,0.434-0.653,0.651
		c-0.223,0.223-0.545,0.387-0.979,0.489l-0.171,0.158c0,0.227-0.037,0.391-0.081,0.492c-0.066,0.113-0.082,0.279-0.082,0.496
		c-0.331,0.326-0.492,0.602-0.492,0.812c0,0.222-0.059,0.387-0.166,0.497c-0.218,0.217-0.245,0.398-0.079,0.565
		c0.158,0.156,0.132,0.357-0.081,0.578c-0.438,0.213-0.763,0.431-0.991,0.651v0.326c-0.215,0.216-0.378,0.396-0.483,0.563
		c-0.109,0.165-0.276,0.249-0.492,0.249c-0.546,0.217-1.141,0.76-1.796,1.631c-0.979,0-1.848,0.593-2.605,1.794
		c-0.545,0-0.927,0.062-1.145,0.167c-0.106,0.103-0.19,0.242-0.247,0.406c-0.047,0.163-0.135,0.246-0.239,0.246
		c-0.552,0.223-0.98,0.463-1.31,0.729c-0.325,0.276-0.762,0.519-1.311,0.736c-0.217,0.216-0.407,0.301-0.57,0.245
		c-0.164-0.06-0.302-0.033-0.407,0.081c-0.323,0.222-0.761,0.319-1.305,0.319h-0.978c-0.543-0.102-1.062-0.133-1.553-0.083
		c-0.492,0.061-1.015,0.083-1.549,0.083h-0.492c-0.225,0.33-0.468,0.493-0.738,0.493s-0.519,0.11-0.732,0.325
		c-0.221,0.222-0.465,0.365-0.737,0.406c-0.272,0.058-0.519,0.194-0.734,0.406c-0.325,0.223-0.596,0.521-0.815,0.899
		c-0.219,0.383-0.219,0.681,0,0.891c0.219,0.224,0.302,0.406,0.247,0.572c-0.053,0.165-0.077,0.356-0.077,0.572
		c-0.109,0.326-0.17,0.815-0.17,1.473c0,0.219,0.028,0.355,0.083,0.403c0.059,0.054,0.028,0.194-0.083,0.41
		c-0.328,0-0.328,0.16,0,0.486c0.219,0.326,0.302,0.65,0.247,0.976c-0.053,0.324-0.028,0.65,0.083,0.984
		c-0.225,0.218-0.275,0.406-0.165,0.57c0.104,0.159,0.213,0.357,0.325,0.568c0.215,0.428,0.323,1.029,0.323,1.797
		c0,0.327,0.03,0.684,0.082,1.057c0.055,0.386,0.082,0.733,0.082,1.065c0.217,0.212,0.274,0.379,0.164,0.484
		c-0.214,0.328-0.214,0.602,0,0.819c0.108,1.087,0.192,2.119,0.245,3.096c0.05,0.981,0.192,2.016,0.405,3.103
		c0,0.436,0.054,0.713,0.169,0.814c0.104,0.109,0.161,0.389,0.161,0.821c-0.112,0.438-0.141,0.733-0.086,0.894
		c0.061,0.164,0.139,0.519,0.25,1.061c0.108,0.437,0.212,0.821,0.329,1.146c0.103,0.326,0.156,0.712,0.156,1.142
		c0.108,0.221,0.163,0.467,0.163,0.733c0,0.276,0.1,0.517,0.325,0.734c0.22,0.436,0.385,0.841,0.488,1.219
		c0.108,0.389,0.273,0.795,0.492,1.229c0.106,0.22,0.136,0.382,0.079,0.488c-0.055,0.109,0.03,0.272,0.253,0.491l0.322,0.65
		c0.105,0.328,0.27,0.923,0.488,1.798c0.323,0.325,0.597,0.548,0.821,0.653c0.106,0,0.24,0.056,0.407,0.161
		c0.164,0.109,0.352,0.06,0.57-0.161c0-0.107,0.101-0.164,0.324-0.164c0.543,0.22,1.03,0.243,1.469,0.078
		c0.44-0.162,0.919-0.296,1.476-0.4c2.178-0.22,4.241-0.544,6.195-0.984c0.544-0.105,1.062-0.192,1.553-0.247
		c0.491-0.047,1.01-0.13,1.557-0.238c0.539-0.106,1.022-0.245,1.462-0.406c0.437-0.164,0.927-0.302,1.478-0.406
		c0.212,0,0.323-0.109,0.323-0.331c0.216-0.214,0.437-0.379,0.654-0.489c0.217-0.109,0.498-0.218,0.822-0.328
		c0,0.548-0.063,0.816-0.164,0.816c-0.22,0.111-0.438,0.389-0.658,0.82c-0.216,0.439-0.465,0.816-0.734,1.143
		c-0.267,0.331-0.512,0.711-0.729,1.151c-0.105,0.211-0.242,0.289-0.406,0.239c-0.163-0.056-0.301,0.029-0.407,0.24
		c-0.327,0.554-0.711,0.952-1.148,1.225c-0.434,0.271-0.812,0.629-1.137,1.064c-0.436,0.426-0.655,0.812-0.655,1.137
		c0,0.437-0.165,0.712-0.491,0.822c-0.434,0.107-0.814,0.434-1.138,0.978c-0.44,0.437-0.76,0.712-0.98,0.815
		c-0.111,0-0.391,0.229-0.824,0.651c-0.219,0.229-0.543,0.66-0.975,1.309c-0.546-0.104-1.01,0.03-1.383,0.404
		c-0.392,0.388-0.787,0.736-1.229,1.064c-0.437,0.433-1.087,0.758-1.963,0.98c-0.217,0.105-0.404,0.165-0.578,0.165
		c-0.16,0-0.352,0.107-0.563,0.325c-0.212,0.219-0.649,0.324-1.304,0.324c-0.329,0.114-0.629,0.164-0.898,0.164
		c-0.273,0-0.521,0.109-0.73,0.329h-0.498c-0.427-0.106-0.812-0.137-1.138-0.079c-0.323,0.053-0.711,0.079-1.143,0.079
		c-0.216,0-0.464-0.053-0.729-0.169c-0.275-0.104-0.521-0.211-0.742-0.324c-0.652-0.324-1.303-0.542-1.953-0.649
		c-0.653-0.108-1.312-0.272-1.963-0.492c-0.218-0.108-0.379-0.161-0.496-0.161c-0.103,0-0.263-0.063-0.486-0.163
		c-0.217-0.102-0.383-0.215-0.485-0.324c-0.109-0.109-0.217-0.163-0.327-0.163c-0.219,0-0.385-0.061-0.484-0.163
		c-0.113-0.108-0.279-0.16-0.495-0.16c-0.651-0.114-1.139-0.436-1.47-0.985c-0.326-0.54-0.713-0.976-1.14-1.31
		c-0.224-0.755-0.599-1.381-1.147-1.876c-0.543-0.486-0.927-1.109-1.142-1.875c-0.106-0.217-0.241-0.461-0.403-0.729
		c-0.166-0.274-0.356-0.518-0.572-0.74c-0.11-0.214-0.14-0.455-0.081-0.729c0.054-0.271-0.029-0.521-0.251-0.736
		c-0.319-0.21-0.596-0.648-0.81-1.305c-0.114-0.221-0.14-0.495-0.083-0.817c0.053-0.332,0.028-0.599-0.082-0.82
		c0-0.434-0.111-0.596-0.326-0.486l-0.164-0.165l-0.49-1.96c-0.219-0.652-0.329-1.084-0.329-1.309
		c-0.106-0.215-0.136-0.405-0.082-0.57c0.056-0.166-0.028-0.354-0.247-0.573c-0.108,0-0.164-0.048-0.164-0.163
		c0.104-0.534,0.058-1.138-0.16-1.8c-0.221-0.651-0.384-1.239-0.492-1.795c0-1.522-0.22-2.715-0.648-3.592
		c-0.113-0.542-0.164-1-0.164-1.383c0-0.38-0.062-0.843-0.165-1.389c-0.109-0.324-0.163-0.651-0.163-0.977
		c0-0.324-0.111-0.712-0.324-1.149c-0.326-0.326-0.326-0.649,0-0.976v-0.164v-3.263c0-0.431-0.029-0.835-0.082-1.221
		c-0.057-0.382,0.026-0.783,0.245-1.226v-0.157c-0.108-0.654-0.163-1.274-0.163-1.875c0-0.599,0-1.167,0-1.713v-1.957
		c0-0.435-0.029-0.826-0.082-1.144c-0.057-0.332-0.081-0.657-0.081-0.982s0.062-0.542,0.164-0.65
		c0.105-0.325,0.058-0.599-0.164-0.819v-0.166v-0.325c0.222-0.218,0.268-0.495,0.164-0.817c-0.105-0.329-0.164-0.661-0.164-0.987
		c0-0.537-0.058-1.058-0.167-1.546c-0.099-0.492-0.056-1.006,0.167-1.554c0.108-0.541,0.164-1,0.164-1.385c0-0.379,0-0.788,0-1.22
		c0.225-0.219,0.266-0.431,0.163-0.656c-0.105-0.217-0.163-0.431-0.163-0.653c0.105-0.326,0.134-0.675,0.082-1.061
		c-0.061-0.383,0.023-0.787,0.241-1.221c0.106,0,0.162-0.162,0.162-0.491c0-0.221-0.028-0.488-0.082-0.812
		c-0.061-0.334-0.03-0.602,0.082-0.822c0.105-0.212,0.167-0.489,0.167-0.818c0-0.653,0.048-1.082,0.163-1.305
		c0.209-0.544,0.323-1.142,0.323-1.797c0-0.654,0.109-1.244,0.328-1.799v-0.488v-0.487c0.212-0.434,0.299-0.901,0.245-1.386
		c-0.061-0.495-0.028-1.006,0.083-1.555c0.213-0.654,0.43-1.278,0.651-1.875c0.218-0.598,0.433-1.217,0.652-1.877
		c0.11-0.105,0.16-0.326,0.16-0.653c-0.105-0.322-0.105-0.649,0-0.973c0.114-0.329,0.218-0.656,0.326-0.986
		c0-0.325,0.06-0.652,0.17-0.977c0.107-0.325,0.21-0.598,0.326-0.817c0-0.328,0.081-0.595,0.238-0.815
		c0.16-0.222,0.192-0.488,0.086-0.819c-0.116-0.219-0.116-0.488,0-0.812c0.106-0.33,0.162-0.604,0.162-0.821
		c0.098-0.213,0.216-0.463,0.323-0.733c0.106-0.268,0.164-0.516,0.164-0.729c0.103-0.22,0.138-0.438,0.078-0.655
		c-0.055-0.219-0.028-0.433,0.088-0.652c0.216-0.434,0.377-0.851,0.479-1.228c0.112-0.38,0.112-0.842,0-1.383
		c0.438-0.546,0.628-1.145,0.573-1.797c-0.055-0.653,0.035-1.25,0.249-1.8c0.214-0.431,0.328-0.812,0.328-1.136
		c0.21-0.869,0.427-1.771,0.649-2.699c0.218-0.925,0.432-1.817,0.65-2.692c0.105-0.106,0.163-0.326,0.163-0.649
		c0.217-0.871,0.431-1.527,0.654-1.963c0.214-0.549,0.351-0.681,0.403-0.406c0.052,0.276,0.139,0.137,0.25-0.406
		c0-0.214-0.061-0.24-0.162-0.072c-0.109,0.155-0.227,0.135-0.325-0.087c0-0.217,0.081-0.379,0.245-0.492
		c0.163-0.104,0.187-0.264,0.082-0.488C228.065,91.918,228.165,91.648,228.388,91.534z"/>
</g>
<g>
	<path fill="#FFFFFF" d="M113.057,70.109c0.196,0.027,0.337,0.035,0.416,0.038c0.081,0,0.149,0.002,0.22,0.002
		c0.33,0,0.588-0.078,0.767-0.248c0.171-0.16,0.257-0.489,0.257-0.962v-14.53h3.462v14.585c0,1.335-0.271,2.322-0.792,2.961
		c-0.528,0.645-1.56,0.961-3.088,0.961c-0.111,0-0.266-0.008-0.469-0.015c-0.208-0.005-0.464-0.014-0.772-0.028V70.109
		L113.057,70.109z M118.184,52.771h-3.463v-3.195h3.463V52.771z"/>
	<path fill="#FFFFFF" d="M124.921,54.352v7.972c0,0.749,0.085,1.316,0.264,1.697c0.31,0.67,0.93,1,1.845,1
		c1.177,0,1.974-0.47,2.419-1.423c0.229-0.522,0.338-1.201,0.338-2.05v-7.195h3.51v13.229h-3.362v-1.872
		c-0.031,0.041-0.11,0.164-0.236,0.366c-0.137,0.199-0.286,0.376-0.461,0.533c-0.549,0.492-1.062,0.825-1.565,0.999
		c-0.512,0.178-1.098,0.269-1.78,0.269c-1.953,0-3.262-0.71-3.942-2.118c-0.379-0.772-0.566-1.92-0.566-3.434v-7.969h3.538V54.352
		L124.921,54.352z"/>
	<path fill="#FFFFFF" d="M139.341,63.352c0.069,0.619,0.233,1.052,0.478,1.31c0.425,0.461,1.219,0.694,2.386,0.694
		c0.685,0,1.228-0.092,1.634-0.301c0.405-0.203,0.604-0.502,0.604-0.912c0-0.393-0.166-0.68-0.491-0.882
		c-0.322-0.2-1.529-0.55-3.622-1.042c-1.496-0.368-2.561-0.838-3.178-1.398c-0.613-0.55-0.92-1.339-0.92-2.378
		c0-1.22,0.487-2.272,1.441-3.151c0.961-0.875,2.313-1.31,4.057-1.31c1.652,0,3.002,0.322,4.046,0.985
		c1.037,0.659,1.639,1.799,1.794,3.416h-3.458c-0.045-0.441-0.179-0.797-0.384-1.058c-0.377-0.466-1.021-0.707-1.947-0.707
		c-0.752,0-1.294,0.114-1.612,0.361c-0.323,0.232-0.483,0.508-0.483,0.82c0,0.401,0.171,0.682,0.519,0.86
		c0.343,0.191,1.544,0.507,3.604,0.967c1.385,0.318,2.416,0.811,3.104,1.464c0.679,0.663,1.018,1.497,1.018,2.486
		c0,1.308-0.492,2.383-1.465,3.212c-0.979,0.829-2.487,1.244-4.529,1.244c-2.091,0-3.623-0.435-4.619-1.316
		c-0.986-0.88-1.479-1.997-1.479-3.358L139.341,63.352L139.341,63.352z"/>
	<path fill="#FFFFFF" d="M149.121,56.939v-2.466h1.842v-3.687h3.423v3.687h2.148v2.466h-2.148v6.991
		c0,0.539,0.072,0.876,0.212,1.009c0.136,0.137,0.552,0.204,1.254,0.204c0.104,0,0.216-0.005,0.334-0.008
		c0.118-0.001,0.235-0.011,0.354-0.017v2.587l-1.647,0.066c-1.629,0.058-2.748-0.23-3.346-0.852c-0.389-0.399-0.58-1.012-0.58-1.836
		v-8.141h-1.846V56.939L149.121,56.939z"/>
</g>
</svg>
